<svg width="11" height="11" viewBox="0 0 11 11" fill="none" xmlns="http://www.w3.org/2000/svg">
<path d="M11 5.5C11 8.53757 8.53757 11 5.5 11C2.46243 11 0 8.53757 0 5.5C0 2.46243 2.46243 0 5.5 0C8.53757 0 11 2.46243 11 5.5ZM1.23039 5.5C1.23039 7.85804 3.14196 9.76961 5.5 9.76961C7.85804 9.76961 9.76961 7.85804 9.76961 5.5C9.76961 3.14196 7.85804 1.23039 5.5 1.23039C3.14196 1.23039 1.23039 3.14196 1.23039 5.5Z" fill="black"/>
<path d="M7.83701 5.56889C7.9033 5.52977 7.90239 5.43355 7.83536 5.39569L4.39535 3.45298C4.32833 3.41513 4.24545 3.46403 4.24619 3.54101L4.28375 7.49149C4.28448 7.56847 4.36827 7.61579 4.43457 7.57666L7.83701 5.56889Z" fill="black"/>
</svg>
