<svg width="12" height="11" viewBox="0 0 12 11" fill="none" xmlns="http://www.w3.org/2000/svg">
<path d="M6.69253 0.0360613C6.85124 0.0974648 6.96236 0.228465 6.99086 0.380681L6.99807 0.458333V10.5417C6.99807 10.7263 6.87725 10.8929 6.69155 10.9643C6.53238 11.0255 6.35219 11.0065 6.2135 10.9184L6.1479 10.8686L3.22227 8.23322H1.49959C0.720114 8.23322 0.0795305 7.68788 0.00686482 6.99065L0 6.85823V4.11833C0 3.40362 0.594733 2.81625 1.35517 2.74963L1.49959 2.74333H3.22351L6.14942 0.130029C6.2934 0.0014388 6.50735 -0.0355761 6.69253 0.0360613ZM9.73507 0.970915L9.82159 1.02481L9.91937 1.10234C9.98225 1.15415 10.069 1.22922 10.1718 1.32706C10.377 1.52248 10.6476 1.81044 10.9175 2.18741C11.4577 2.94193 12 4.06022 12 5.50371C12 6.94726 11.4576 8.06391 10.9171 8.81676C10.6471 9.19287 10.3764 9.47997 10.1711 9.67476L10.0299 9.80396L9.84319 9.95884L9.8102 9.98368C9.59376 10.1409 9.27864 10.108 9.10719 9.90961C8.95514 9.73361 8.96668 9.48685 9.1223 9.32365L9.25145 9.21597C9.29804 9.17775 9.36752 9.11807 9.45229 9.03768C9.62215 8.87653 9.85179 8.63352 10.0821 8.31278C10.5421 7.67194 11.0003 6.72789 11.0003 5.50371C11.0003 4.27943 10.5421 3.33339 10.0817 2.6905C9.88978 2.42239 9.69824 2.20825 9.54132 2.05064L9.37217 1.88906L9.18787 1.73376C8.97222 1.57604 8.93614 1.28747 9.10799 1.08953C9.26084 0.913506 9.52624 0.868098 9.73507 0.970915ZM8.73611 2.80416L8.83566 2.86808L8.96928 2.98334L9.02331 3.03525C9.13678 3.14748 9.28314 3.31188 9.4281 3.53047C9.71952 3.97004 10.0015 4.62402 10.0015 5.49866C10.0015 6.37328 9.71952 7.02796 9.4283 7.46817C9.28354 7.68707 9.13718 7.85188 9.02381 7.96436L8.92228 8.05993L8.85201 8.11954L8.81227 8.15044L8.7488 8.17685C8.61645 8.22546 8.30694 8.30469 8.10976 8.07848C7.95732 7.90362 7.96716 7.65786 8.12067 7.49402L8.25509 7.37556L8.28951 7.34231C8.36399 7.26845 8.46806 7.15226 8.57353 6.99276C8.78308 6.67608 9.00182 6.18391 9.00182 5.49866C9.00182 4.81347 8.78308 4.32228 8.57383 4.00665C8.49473 3.8874 8.41647 3.7925 8.35095 3.7215L8.25572 3.62537L8.18724 3.56578C7.97259 3.40883 7.93729 3.12099 8.10906 2.92301C8.26182 2.74693 8.52722 2.70142 8.73611 2.80416Z" fill="black"/>
</svg>
