<svg width="17" height="17" viewBox="0 0 17 17" fill="none" xmlns="http://www.w3.org/2000/svg">
<path d="M0.500019 6.0001L0.750019 5.99997L0.500019 6.0001ZM2.5 2L2.3544 1.79677L2.5 2ZM8.36931 2.32613L8.18658 2.49674L8.36931 2.32613ZM9.53861 5.3958L9.29077 5.4286C9.29825 5.48507 9.32478 5.53729 9.36598 5.57662L9.53861 5.3958ZM11.0001 6.79109L11.0845 7.02642C11.1661 6.99716 11.2267 6.92773 11.2446 6.84295C11.2626 6.75816 11.2354 6.67012 11.1727 6.61027L11.0001 6.79109ZM8.6616 8.46545L8.65153 8.21566C8.5323 8.22047 8.43309 8.30887 8.41462 8.42676C8.39615 8.54465 8.46357 8.65916 8.57562 8.7002L8.6616 8.46545ZM10.1233 9.30264L9.91829 9.44578L10.1233 9.30264ZM10.1233 10.698L10.3447 10.582L10.1233 10.698ZM8.36928 10.977L8.26714 10.7488L8.36928 10.977ZM7.49234 11.2561L7.43801 11.012L7.40588 11.0192L7.3767 11.0344L7.49234 11.2561ZM6.32304 12.0933L6.51114 12.2579L6.32304 12.0933ZM6.24597 15.7737L6.00791 15.85L6.24597 15.7737ZM1.69216 15.7737L1.93758 15.8214L1.69216 15.7737ZM2.33152 10.6079C2.14959 10.1365 1.95603 9.75546 1.77048 9.4139C1.58238 9.06765 1.41205 8.77836 1.25981 8.46406C0.965046 7.85552 0.750676 7.17575 0.750019 5.99997L0.250019 6.00024C0.250718 7.25183 0.482357 8.00598 0.809824 8.68203C0.968698 9.01002 1.15355 9.32569 1.33112 9.65257C1.51125 9.98415 1.69386 10.3444 1.86505 10.788L2.33152 10.6079ZM0.750019 5.99997C0.749488 5.04885 0.761769 4.45606 0.991878 3.92306C1.21871 3.39764 1.67318 2.89988 2.6456 2.20323L2.3544 1.79677C1.36079 2.50861 0.814742 3.07188 0.532831 3.72488C0.254194 4.37029 0.249501 5.07331 0.250019 6.00024L0.750019 5.99997ZM2.6456 2.20323C3.73092 1.42569 4.90712 1.277 5.92288 1.43656C6.94778 1.59755 7.78693 2.0687 8.18658 2.49674L8.55205 2.15552C8.06266 1.63137 7.11437 1.11758 6.00047 0.942614C4.87744 0.76621 3.5635 0.930557 2.3544 1.79677L2.6456 2.20323ZM8.18658 2.49674C8.5874 2.92604 8.86702 3.64274 9.04659 4.28534C9.13479 4.60094 9.19606 4.8881 9.23525 5.09631C9.25482 5.20029 9.26882 5.28424 9.27787 5.3418C9.2824 5.37057 9.28568 5.39272 9.28781 5.40746C9.28887 5.41483 9.28964 5.42034 9.29013 5.4239C9.29038 5.42568 9.29055 5.42697 9.29066 5.42775C9.29071 5.42815 9.29075 5.42842 9.29077 5.42856C9.29078 5.42863 9.29078 5.42867 9.29078 5.42867C9.29078 5.42868 9.29078 5.42866 9.29078 5.42866C9.29078 5.42863 9.29077 5.4286 9.53861 5.3958C9.78645 5.363 9.78644 5.36295 9.78644 5.36289C9.78643 5.36286 9.78642 5.36279 9.78642 5.36273C9.7864 5.36261 9.78638 5.36246 9.78635 5.36227C9.7863 5.3619 9.78624 5.3614 9.78615 5.36077C9.78598 5.35951 9.78574 5.35775 9.78543 5.35549C9.78481 5.35098 9.7839 5.34449 9.78269 5.33611C9.78027 5.31937 9.77667 5.2951 9.7718 5.26411C9.76205 5.20216 9.74721 5.11324 9.72662 5.00383C9.68549 4.78527 9.62114 4.48355 9.52814 4.15077C9.34533 3.49659 9.0403 2.67846 8.55205 2.15552L8.18658 2.49674ZM9.36598 5.57662L10.8274 6.97191L11.1727 6.61027L9.71125 5.21498L9.36598 5.57662ZM11.0001 6.79109C10.9157 6.55577 10.9157 6.55578 10.9156 6.55579C10.9156 6.5558 10.9156 6.55581 10.9155 6.55582C10.9155 6.55584 10.9154 6.55587 10.9153 6.55591C10.9151 6.55597 10.9149 6.55606 10.9146 6.55616C10.914 6.55637 10.9132 6.55665 10.9122 6.55701C10.9103 6.55773 10.9075 6.55875 10.9039 6.56006C10.8968 6.56267 10.8867 6.56644 10.8739 6.57126C10.8484 6.58091 10.8124 6.59485 10.7692 6.61231C10.6835 6.64704 10.5676 6.69661 10.4503 6.75495C10.3353 6.81218 10.2086 6.88294 10.1071 6.96166C10.0565 7.00089 10.0034 7.04872 9.96104 7.10514C9.91994 7.15985 9.87326 7.24361 9.87326 7.34923H10.3733C10.3733 7.39392 10.354 7.41454 10.3608 7.40542C10.3664 7.398 10.3819 7.38129 10.4135 7.35677C10.4764 7.30799 10.5688 7.25445 10.673 7.2026C10.775 7.15187 10.8783 7.1076 10.9569 7.07575C10.996 7.05993 11.0284 7.04739 11.0509 7.03889C11.0621 7.03465 11.0708 7.03142 11.0765 7.02931C11.0794 7.02825 11.0815 7.02747 11.0829 7.02699C11.0836 7.02675 11.084 7.02658 11.0843 7.02648C11.0844 7.02643 11.0845 7.0264 11.0845 7.02639C11.0846 7.02639 11.0846 7.02639 11.0845 7.02639C11.0845 7.02639 11.0845 7.0264 11.0845 7.0264C11.0845 7.02641 11.0845 7.02642 11.0001 6.79109ZM9.87326 7.34923C9.87326 7.58274 10.0223 7.72967 10.0863 7.79851C10.1685 7.88688 10.1656 7.89718 10.1656 7.90735H10.6656C10.6656 7.67383 10.5165 7.52691 10.4525 7.45806C10.3704 7.36969 10.3733 7.35939 10.3733 7.34923H9.87326ZM10.1656 7.90735C10.1656 7.88546 10.1776 7.8801 10.1623 7.89561C10.144 7.91415 10.1056 7.94169 10.0376 7.97279C9.90201 8.03477 9.70737 8.08493 9.49448 8.12309C9.28532 8.16058 9.07419 8.18385 8.91408 8.19772C8.83437 8.20463 8.76807 8.20914 8.72195 8.21191C8.69891 8.2133 8.68095 8.21425 8.66892 8.21485C8.66291 8.21515 8.65838 8.21536 8.65544 8.21549C8.65398 8.21555 8.65291 8.2156 8.65225 8.21563C8.65192 8.21564 8.6517 8.21565 8.65158 8.21566C8.65152 8.21566 8.65148 8.21566 8.65147 8.21566C8.65147 8.21566 8.65148 8.21566 8.65148 8.21566C8.6515 8.21566 8.65153 8.21566 8.6616 8.46545C8.67168 8.71525 8.67172 8.71525 8.67176 8.71525C8.67179 8.71525 8.67184 8.71524 8.67189 8.71524C8.67199 8.71524 8.67212 8.71523 8.67227 8.71523C8.67257 8.71521 8.67298 8.7152 8.6735 8.71518C8.67453 8.71513 8.67597 8.71507 8.67783 8.71499C8.68153 8.71482 8.68685 8.71457 8.69368 8.71423C8.70735 8.71356 8.72707 8.71251 8.75199 8.71101C8.80179 8.70801 8.87252 8.70319 8.95724 8.69585C9.12601 8.68123 9.35338 8.65635 9.58271 8.61524C9.80832 8.5748 10.0522 8.51589 10.2455 8.42753C10.3419 8.38346 10.4405 8.32552 10.5181 8.2469C10.5987 8.16526 10.6656 8.05108 10.6656 7.90735H10.1656ZM8.6616 8.46545C8.57562 8.7002 8.57559 8.70019 8.57558 8.70019C8.57558 8.70019 8.57557 8.70018 8.57557 8.70018C8.57557 8.70018 8.57559 8.70019 8.57562 8.7002C8.5757 8.70023 8.57584 8.70028 8.57605 8.70036C8.57648 8.70052 8.57718 8.70078 8.57816 8.70114C8.5801 8.70186 8.58313 8.70299 8.58718 8.7045C8.59526 8.70753 8.60741 8.71212 8.62312 8.71816C8.65454 8.73023 8.70012 8.74807 8.75585 8.77077C8.86757 8.81627 9.01881 8.88083 9.17794 8.9573C9.33784 9.03415 9.50133 9.12096 9.63936 9.21049C9.78306 9.3037 9.87609 9.38535 9.91829 9.44578L10.3282 9.1595C10.2288 9.01717 10.0684 8.89278 9.91145 8.79101C9.74887 8.68555 9.56464 8.58841 9.39453 8.50665C9.22364 8.42452 9.06257 8.35581 8.94447 8.30771C8.8853 8.2836 8.8366 8.26455 8.80247 8.25143C8.7854 8.24487 8.77195 8.23979 8.76264 8.2363C8.75798 8.23456 8.75436 8.23321 8.75183 8.23227C8.75056 8.2318 8.74957 8.23144 8.74886 8.23118C8.74851 8.23105 8.74823 8.23094 8.74801 8.23086C8.74791 8.23082 8.74782 8.23079 8.74775 8.23076C8.74771 8.23075 8.74767 8.23074 8.74765 8.23073C8.74762 8.23072 8.74759 8.23071 8.6616 8.46545ZM9.91829 9.44578C9.99516 9.55585 9.9772 9.64236 9.89584 9.88005C9.82081 10.0993 9.70126 10.4311 9.9018 10.8139L10.3447 10.582C10.2529 10.4067 10.2917 10.2675 10.3689 10.042C10.4398 9.83489 10.568 9.50281 10.3282 9.1595L9.91829 9.44578ZM9.9018 10.8139C9.93171 10.8711 9.90532 10.8516 9.91934 10.7958C9.94061 10.7112 10.01 10.6897 10.0066 10.6906C9.99886 10.6928 9.96782 10.6977 9.89778 10.6954C9.83222 10.6932 9.75244 10.6857 9.65647 10.6755C9.47095 10.6557 9.23194 10.6261 8.99516 10.6239C8.75942 10.6216 8.49806 10.6455 8.26714 10.7488L8.47141 11.2052C8.60594 11.145 8.78308 11.1219 8.99041 11.1239C9.1967 11.1258 9.40532 11.1516 9.60347 11.1727C9.69934 11.1829 9.79541 11.1923 9.88115 11.1951C9.96241 11.1978 10.0581 11.1959 10.144 11.1714C10.2343 11.1456 10.3641 11.0773 10.4043 10.9177C10.4371 10.787 10.3879 10.6644 10.3447 10.582L9.9018 10.8139ZM8.26714 10.7488C8.09706 10.8249 7.89123 10.8909 7.7229 10.9386C7.63979 10.9621 7.56788 10.9806 7.51694 10.9932C7.4915 10.9995 7.47137 11.0043 7.45779 11.0075C7.45101 11.0091 7.44586 11.0103 7.44251 11.011C7.44084 11.0114 7.43961 11.0117 7.43885 11.0119C7.43848 11.0119 7.43822 11.012 7.43807 11.012C7.438 11.012 7.43796 11.0121 7.43795 11.0121C7.43795 11.0121 7.43795 11.0121 7.43796 11.0121C7.43796 11.0121 7.43798 11.0121 7.43798 11.0121C7.438 11.0121 7.43801 11.012 7.49234 11.2561C7.54667 11.5001 7.54669 11.5001 7.54671 11.5001C7.54672 11.5001 7.54674 11.5001 7.54676 11.5001C7.5468 11.5001 7.54685 11.5001 7.54691 11.5C7.54702 11.5 7.54716 11.5 7.54734 11.4999C7.54768 11.4999 7.54815 11.4998 7.54874 11.4996C7.54991 11.4994 7.55157 11.499 7.55367 11.4985C7.55789 11.4976 7.56395 11.4962 7.57167 11.4944C7.58713 11.4907 7.60931 11.4855 7.63697 11.4786C7.69223 11.465 7.76967 11.445 7.8592 11.4196C8.03618 11.3695 8.26882 11.2959 8.47141 11.2052L8.26714 10.7488ZM7.49234 11.2561C7.3767 11.0344 7.37667 11.0344 7.37664 11.0345C7.37662 11.0345 7.37659 11.0345 7.37656 11.0345C7.37651 11.0345 7.37644 11.0346 7.37636 11.0346C7.37619 11.0347 7.37598 11.0348 7.37572 11.0349C7.3752 11.0352 7.37449 11.0356 7.37359 11.0361C7.37179 11.037 7.36924 11.0383 7.36598 11.0401C7.35945 11.0436 7.35005 11.0486 7.3381 11.055C7.3142 11.068 7.28004 11.0867 7.23804 11.1105C7.15419 11.1579 7.03847 11.2256 6.91067 11.307C6.66109 11.466 6.34291 11.6911 6.13495 11.9286L6.51114 12.2579C6.66924 12.0774 6.9357 11.8839 7.17926 11.7287C7.29803 11.6531 7.40599 11.5899 7.48418 11.5457C7.52321 11.5236 7.55466 11.5064 7.57612 11.4948C7.58685 11.4889 7.59507 11.4846 7.60048 11.4817C7.60319 11.4802 7.60519 11.4792 7.60645 11.4785C7.60708 11.4782 7.60753 11.478 7.60779 11.4778C7.60792 11.4778 7.608 11.4777 7.60803 11.4777C7.60805 11.4777 7.60805 11.4777 7.60804 11.4777C7.60804 11.4777 7.60802 11.4777 7.60802 11.4777C7.608 11.4777 7.60798 11.4777 7.49234 11.2561ZM6.13495 11.9286C5.64082 12.4929 5.57588 13.3344 5.63627 14.0619C5.69784 14.8036 5.89653 15.5026 6.00791 15.85L6.48404 15.6974C6.37757 15.3653 6.19159 14.7075 6.13456 14.0205C6.07635 13.3193 6.15887 12.6603 6.51114 12.2579L6.13495 11.9286ZM6.00791 15.85C6.03161 15.9239 6.05157 15.9826 6.06575 16.0232C6.07284 16.0434 6.07848 16.0592 6.08243 16.0701C6.08441 16.0755 6.08596 16.0798 6.08705 16.0827C6.0876 16.0842 6.08803 16.0854 6.08834 16.0862C6.0885 16.0867 6.08863 16.087 6.08873 16.0873C6.08878 16.0874 6.08882 16.0875 6.08885 16.0876C6.08887 16.0876 6.08888 16.0877 6.0889 16.0877C6.0889 16.0877 6.08891 16.0877 6.08891 16.0878C6.08892 16.0878 6.08892 16.0878 6.08892 16.0878C6.08893 16.0878 6.08893 16.0878 6.32304 16.0001C6.55715 15.9124 6.55716 15.9124 6.55716 15.9124C6.55716 15.9124 6.55717 15.9124 6.55717 15.9124C6.55717 15.9124 6.55717 15.9125 6.55718 15.9125C6.55718 15.9125 6.55719 15.9125 6.55719 15.9125C6.55719 15.9125 6.55719 15.9125 6.55718 15.9125C6.55715 15.9124 6.5571 15.9123 6.55702 15.912C6.55686 15.9116 6.55658 15.9108 6.55618 15.9098C6.55539 15.9076 6.55415 15.9043 6.55249 15.8997C6.54917 15.8905 6.54417 15.8766 6.53774 15.8582C6.52487 15.8214 6.5063 15.7668 6.48404 15.6974L6.00791 15.85ZM1.64585 16.0001C1.88985 16.0546 1.88985 16.0546 1.88985 16.0546C1.88985 16.0546 1.88985 16.0545 1.88985 16.0545C1.88986 16.0545 1.88986 16.0545 1.88986 16.0545C1.88987 16.0545 1.88987 16.0545 1.88988 16.0544C1.8899 16.0543 1.88992 16.0543 1.88994 16.0541C1.88999 16.0539 1.89006 16.0536 1.89014 16.0532C1.89031 16.0525 1.89055 16.0514 1.89085 16.05C1.89146 16.0473 1.89233 16.0433 1.89346 16.0381C1.89571 16.0277 1.89898 16.0124 1.90312 15.9926C1.91141 15.9531 1.92323 15.8953 1.93758 15.8214L1.44674 15.7261C1.43289 15.7974 1.42156 15.8528 1.41374 15.8901C1.40984 15.9088 1.40681 15.9229 1.40479 15.9322C1.40377 15.9369 1.40301 15.9404 1.40252 15.9426C1.40227 15.9438 1.40209 15.9446 1.40198 15.9451C1.40193 15.9453 1.40189 15.9455 1.40187 15.9456C1.40186 15.9456 1.40185 15.9457 1.40185 15.9457C1.40185 15.9457 1.40185 15.9457 1.40185 15.9457C1.40185 15.9457 1.40185 15.9457 1.40185 15.9457C1.40185 15.9457 1.40185 15.9457 1.40185 15.9457C1.40186 15.9456 1.40186 15.9456 1.64585 16.0001ZM1.93758 15.8214C1.9759 15.624 2.06116 15.3325 2.16479 14.9502C2.26626 14.5758 2.38035 14.131 2.46701 13.6527C2.63914 12.7026 2.70963 11.5877 2.33152 10.6079L1.86505 10.788C2.1932 11.6382 2.14188 12.6425 1.97502 13.5636C1.89218 14.0208 1.78247 14.4495 1.6822 14.8194C1.5841 15.1813 1.48969 15.5049 1.44674 15.7261L1.93758 15.8214Z" fill="black"/>
<path d="M13 6.35742L15.707 5" stroke="black" stroke-width="0.5" stroke-linecap="round"/>
<path d="M12.9551 8.10376L16 8" stroke="black" stroke-width="0.5" stroke-linecap="round"/>
<path d="M13.1309 9.87671L16 11" stroke="black" stroke-width="0.5" stroke-linecap="round"/>
</svg>
