<svg width="9" height="10" viewBox="0 0 9 10" fill="none" xmlns="http://www.w3.org/2000/svg">
<path fill-rule="evenodd" clip-rule="evenodd" d="M3.52797 5.74877L0.976453 5.74887C0.437173 5.74887 0 6.18945 0 6.73293V7.13549C0 7.38581 0.0774629 7.6299 0.2216 7.83377C0.8912 8.78084 1.98666 9.25 3.47203 9.25L3.52797 9.24966C3.51847 9.23808 3.50919 9.22631 3.50013 9.21437C3.34632 9.0118 3.25493 8.75854 3.25493 8.48377V6.51466L3.25868 6.41861C3.2773 6.18107 3.36436 5.96293 3.5 5.78422C3.50911 5.77223 3.51843 5.76041 3.52797 5.74877ZM5.64301 2.68789C5.64301 1.47955 4.67103 0.5 3.47203 0.5C2.27303 0.5 1.30105 1.47955 1.30105 2.68789C1.30105 3.89623 2.27303 4.87578 3.47203 4.87578C4.67103 4.87578 5.64301 3.89623 5.64301 2.68789ZM3.30641 6.14016L2.64298 5.74999L2.6296 6.50765L3.30641 6.14016Z" fill="#1C1E1C"/>
<path fill-rule="evenodd" clip-rule="evenodd" d="M6.02355 5.74887L3.52797 5.74877C3.51843 5.76041 3.50911 5.77223 3.5 5.78422C3.63564 5.96293 3.7227 6.18107 3.74132 6.41861L3.74506 6.51466V8.48377C3.74506 8.75839 3.65378 9.01183 3.50013 9.21437C3.50919 9.22631 3.51847 9.23808 3.52797 9.24966C3.92309 9.24966 4.24811 9.23551 4.5 9.19314H5.08334L5.11404 7.32526C5.11404 7.32526 5.14395 7.19787 5.19493 7.13549C5.27743 7.03456 5.5 7 5.5 7H6C6.01983 6.90549 6.04804 6.77029 6.07331 6.64785C6.10635 6.48774 6.13434 6.34945 6.13192 6.35255C6.16838 6.3064 6.21144 6.26329 6.2725 6.24467C6.36478 6.21652 6.51953 6.24467 6.51953 6.24467L6.5 6C6.51946 5.84776 6.22514 5.74887 6.02355 5.74887ZM4.37325 6.51211L4.36118 5.75443L3.69708 6.1435L4.37325 6.51211Z" fill="#1C1E1C"/>
<path fill-rule="evenodd" clip-rule="evenodd" d="M6.6087 6.5H7.3913C7.56014 6.5 7.69901 6.63207 7.71571 6.80131L7.71739 6.83562L7.71727 7.17114L8.04348 7.17124C8.29561 7.17124 8.5 7.38161 8.5 7.64111V8.84935C8.5 9.10885 8.29561 9.31922 8.04348 9.31922H5.95652C5.70439 9.31922 5.5 9.10885 5.5 8.84935V7.64111C5.5 7.38161 5.70439 7.17124 5.95652 7.17124L6.28249 7.17114L6.28261 6.83562C6.28261 6.66185 6.41092 6.51892 6.57536 6.50173L6.6087 6.5ZM6.67391 6.90275H7.32609L7.32597 7.17114H6.67379L6.67391 6.90275Z" fill="#4285F4"/>
</svg>
