<svg width="17" height="14" viewBox="0 0 17 14" fill="none" xmlns="http://www.w3.org/2000/svg">
<path d="M6.30634 3.21415C6.47624 2.42126 7.18102 1.8268 8.02464 1.8268C8.8573 1.8268 9.55469 2.4059 9.73604 3.18332C9.73604 3.18332 9.72766 4.39609 9.22701 4.8657C8.85871 5.21116 8.52961 5.58806 8.02464 5.58806C7.51967 5.58806 7.19058 5.21116 6.82227 4.8657C6.32944 4.40342 6.30634 3.21415 6.30634 3.21415Z" fill="#1B291F"/>
<path d="M3.39244 9.72734L4.21924 10.0029L4.40298 9.45174L4.58671 8.7168L4.77044 7.79814C4.77044 7.79814 4.76178 7.24039 4.95418 6.97134C5.0878 6.78448 5.41351 6.60387 5.41351 6.60387L6.42404 6.05267L6.05658 5.86894L4.95418 4.95027L3.20871 3.38853L2.47377 2.19427L1.83071 1V1.91867L2.01444 2.9292L2.29004 3.57227L2.65751 4.39907L2.01444 4.0316L1.00391 3.38853L1.18764 3.84787L1.64697 4.95027L2.29004 5.86894L3.02497 6.42014H1.64697L1.83071 6.7876L2.29004 7.24694L2.84124 7.52254L2.29004 7.79814L1.64697 7.98187C1.64697 7.98187 1.8601 8.32545 2.01444 8.53307C2.1816 8.75795 2.47377 9.08427 2.47377 9.08427C2.47377 9.08427 2.67826 9.33081 2.84124 9.45174C3.03452 9.59514 3.39244 9.72734 3.39244 9.72734Z" fill="#1B291F"/>
<path d="M10.8336 6.7876C11.0049 6.94071 11.2011 7.24694 11.2011 7.24694L11.8539 9.72734C11.8539 9.72734 12.2421 9.76068 12.4872 9.72734C12.8245 9.68146 13.314 9.45174 13.314 9.45174L13.8652 9.08427L14.4164 8.53307L15.0595 7.79814L14.2327 7.70627L13.6815 7.52254L14.4164 7.24694L14.7839 6.7876L15.0595 6.2364H13.6815L14.66 5.58806L15.427 4.67467L16.0039 3.38853V3.18332L14.4164 4.21534L13.6815 4.67467L14.049 3.756L14.1408 2.9292V1L13.314 2.9292L12.4872 4.0316L11.3848 4.95027L9.73125 6.2364L10.1906 6.42014C10.1906 6.42014 10.618 6.59483 10.8336 6.7876Z" fill="#1B291F"/>
<path d="M6.42404 6.05267L5.41351 6.60387C5.41351 6.60387 5.0878 6.78448 4.95418 6.97134C4.76178 7.24039 4.77044 7.79814 4.77044 7.79814L4.58671 8.7168L4.40298 9.45174L4.21924 10.0029L4.03551 10.7379C4.03551 10.7379 3.96134 11.1955 4.03551 11.4728C4.06962 11.6003 4.16104 11.7866 4.16104 11.7866C4.16104 11.7866 4.18015 11.885 4.21924 11.9321C4.27048 11.9939 4.40298 12.024 4.40298 12.024L4.67858 12.1618L5.20235 12.2996L5.68911 12.3744H6.09047L6.23261 12.357C6.23261 12.357 6.53013 12.3705 6.69964 12.2996L6.70203 12.2986C6.82 12.2492 6.89636 12.2173 6.97524 12.1159C7.0245 12.0526 7.06711 11.9321 7.06711 11.9321V11.7484C7.06711 11.7484 7.10951 11.5717 7.06711 11.4728C7.02714 11.3795 6.88338 11.2891 6.88338 11.2891L6.60778 11.1972L6.1417 11.0418C6.1417 11.0418 5.74644 11.0891 5.68911 10.9147C5.66755 10.8491 5.68861 10.8069 5.68911 10.7379C5.69486 9.94536 5.87284 8.7168 5.87284 8.7168L6.05658 10.0029L6.13044 10.8798L6.1417 11.0135V11.0418L6.60778 11.1972L6.88338 11.2891V10.7379H6.60778V10.0029H7.06711V9.268H6.60778V8.34934H7.06711V7.79814H7.58032L7.78535 6.22556L6.7765 6.9045L6.42404 6.05267Z" fill="#1B291F"/>
<path d="M7.06711 11.7484V11.9321C7.06711 11.9321 7.0245 12.0526 6.97524 12.1159C6.89636 12.2173 6.82 12.2492 6.70203 12.2986L6.69964 12.2996C6.53013 12.3705 6.23261 12.357 6.23261 12.357L6.1417 13.0345H10.1906L10.0987 12.2996C10.0987 12.2996 9.74128 12.3934 9.54751 12.2996C9.40137 12.2289 9.30081 12.161 9.25354 12.0056C9.22429 11.9095 9.25354 11.7484 9.25354 11.7484H7.06711Z" fill="#1B291F"/>
<path d="M10.1906 11.1564L10.0068 11.1972L9.54751 11.2891L9.45564 11.354L9.36378 11.4728L9.25354 11.7484C9.25354 11.7484 9.22429 11.9095 9.25354 12.0056C9.30081 12.161 9.40137 12.2289 9.54751 12.2996C9.74128 12.3934 10.0987 12.2996 10.0987 12.2996H10.6499C10.6499 12.2996 10.9483 12.3293 11.1357 12.2996C11.3502 12.2657 11.6604 12.1159 11.6604 12.1159L11.936 11.9321C11.936 11.9321 12.1652 11.7443 12.2219 11.5748C12.266 11.4431 12.2402 11.2196 12.2402 11.2196L12.1198 10.7379L11.8539 9.72734L11.2011 7.24694C11.2011 7.24694 11.0049 6.94071 10.8336 6.7876C10.618 6.59483 10.1906 6.42014 10.1906 6.42014L9.73125 6.2364L9.44707 6.07402L9.01895 6.97134L8.16785 6.22556L8.73123 7.79814H9.36378V8.34934H9.18005V9.268H9.54751V10.0029H9.18005V10.7379H9.45564V11.354L9.54751 11.2891L10.0068 11.1972L10.1906 11.1564V9.268C10.1906 9.268 11.1775 10.8084 10.5121 11.0849C10.3933 11.1343 10.1906 11.1564 10.1906 11.1564Z" fill="#1B291F"/>
<path d="M7.14785 5.58806L6.42404 6.05267L6.7765 6.9045L7.78535 6.22556L7.14785 5.58806Z" fill="#1B291F"/>
<path d="M8.16785 6.22556H7.78535L7.58032 7.79814H8.73123L8.16785 6.22556Z" fill="#1B291F"/>
<path d="M8.80535 5.71556L8.16785 6.22556L9.01895 6.97134L9.44707 6.07402L9.08818 5.86894L8.86289 5.75872L8.80535 5.71556Z" fill="#1B291F"/>
<path d="M6.60778 8.34934V9.268H7.06711H9.18005V8.34934H7.06711H6.60778Z" fill="#4285F4"/>
<path d="M9.36378 8.34934V7.79814H8.73123H7.58032H7.06711V8.34934H9.18005H9.36378Z" fill="#4285F4"/>
<path d="M9.54751 10.0029V9.268H9.18005H7.06711V10.0029H9.18005H9.54751Z" fill="#4285F4"/>
<path d="M6.60778 10.0029V10.7379H6.88338H9.18005V10.0029H7.06711H6.60778Z" fill="#4285F4"/>
<path d="M9.18005 10.7379H6.88338V11.2891C6.88338 11.2891 7.02714 11.3795 7.06711 11.4728C7.10951 11.5717 7.06711 11.7484 7.06711 11.7484H9.25354L9.36378 11.4728L9.45564 11.354V10.7379H9.18005Z" fill="#4285F4"/>
<path d="M3.39244 9.72734L3.34044 9.86812L3.34501 9.86964L3.39244 9.72734ZM2.84124 9.45174L2.75186 9.5722L2.84124 9.45174ZM2.47377 9.08427L2.58931 8.98844L2.58553 8.98422L2.47377 9.08427ZM2.01444 8.53307L1.89406 8.62256L2.01444 8.53307ZM1.64697 7.98187L1.60577 7.83764L1.41483 7.89219L1.51951 8.06094L1.64697 7.98187ZM2.29004 7.79814L2.33125 7.94237L2.34465 7.93854L2.35712 7.9323L2.29004 7.79814ZM2.84124 7.52254L2.90832 7.6567L3.17665 7.52254L2.90832 7.38837L2.84124 7.52254ZM2.29004 7.24694L2.18397 7.353L2.20119 7.37021L2.22296 7.3811L2.29004 7.24694ZM1.83071 6.7876L1.69654 6.85469L1.70743 6.87646L1.72464 6.89367L1.83071 6.7876ZM1.64697 6.42014V6.27014H1.40427L1.51281 6.48722L1.64697 6.42014ZM3.02497 6.42014V6.57014H3.47497L3.11497 6.30014L3.02497 6.42014ZM2.29004 5.86894L2.16716 5.95496L2.18089 5.97457L2.20004 5.98894L2.29004 5.86894ZM1.64697 4.95027L1.50851 5.00796L1.51477 5.02297L1.52409 5.03629L1.64697 4.95027ZM1.18764 3.84787L1.04835 3.90358L1.04918 3.90556L1.18764 3.84787ZM1.00391 3.38853L1.08444 3.26199L0.691783 3.01211L0.864635 3.44424L1.00391 3.38853ZM2.01444 4.0316L1.93382 4.15829L1.94002 4.16184L2.01444 4.0316ZM2.65751 4.39907L2.58309 4.5293L2.98046 4.75637L2.79458 4.33815L2.65751 4.39907ZM2.29004 3.57227L2.15216 3.63136L2.15297 3.63319L2.29004 3.57227ZM2.01444 2.9292L1.86686 2.95603L1.86989 2.97271L1.87657 2.98829L2.01444 2.9292ZM1.83071 1.91867H1.68071V1.93219L1.68313 1.9455L1.83071 1.91867ZM1.83071 1L1.96278 0.928885C1.9302 0.86838 1.86067 0.837752 1.79404 0.854551C1.7274 0.871351 1.68071 0.931281 1.68071 1H1.83071ZM2.47377 2.19427L2.34148 2.2655L2.34603 2.27288L2.47377 2.19427ZM3.20871 3.38853L3.08096 3.46715L3.09241 3.48575L3.10869 3.50032L3.20871 3.38853ZM4.95418 4.95027L4.85409 5.06212L4.85815 5.0655L4.95418 4.95027ZM6.05658 5.86894L5.96055 5.98417L5.97392 5.99531L5.98949 6.0031L6.05658 5.86894ZM5.41351 6.60387L5.34168 6.47218L5.34077 6.47269L5.41351 6.60387ZM4.95418 6.97134L5.07619 7.05859L4.95418 6.97134ZM4.77044 7.79814L4.91753 7.82755L4.92067 7.81184L4.92042 7.79581L4.77044 7.79814ZM4.58671 8.7168L4.73239 8.75323L4.7338 8.74622L4.58671 8.7168ZM4.40298 9.45174L4.5457 9.49931L4.5485 9.48812L4.40298 9.45174ZM4.03551 10.7379L3.88947 10.7014L3.88744 10.7139L4.03551 10.7379ZM4.03551 11.4728L4.18041 11.434L4.03551 11.4728ZM4.21924 11.9321L4.10382 12.0279L4.21924 11.9321ZM7.06711 11.9321L7.20852 11.9822L7.21711 11.9579V11.9321H7.06711ZM7.06711 11.4728L7.20498 11.4137L7.06711 11.4728ZM6.60778 11.1972L6.65521 11.0549L6.60778 11.1972ZM5.87284 8.7168L6.02134 8.69559C6.01079 8.62175 5.94758 8.56688 5.87299 8.5668C5.7984 8.56673 5.73509 8.62148 5.72439 8.6953L5.87284 8.7168ZM6.05658 10.0029L6.2063 9.99033L6.20507 9.98172L6.05658 10.0029ZM6.1417 11.0135H6.29223L6.29117 11.0009L6.1417 11.0135ZM10.6499 12.2996L10.6647 12.1503L10.6573 12.1496H10.6499V12.2996ZM9.54751 12.2996L9.61285 12.1646L9.54751 12.2996ZM9.36378 11.4728L9.24513 11.381L9.2323 11.3976L9.22451 11.4171L9.36378 11.4728ZM10.0068 11.1972L10.0363 11.3443L10.0394 11.3436L10.0068 11.1972ZM10.1906 9.268L10.3169 9.18708C10.2809 9.131 10.2123 9.10533 10.1484 9.12405C10.0845 9.14277 10.0406 9.2014 10.0406 9.268H10.1906ZM10.5121 11.0849L10.4546 10.9464L10.5121 11.0849ZM11.936 11.9321L12.0193 12.0569L12.0254 12.0528L12.0311 12.0481L11.936 11.9321ZM12.1198 10.7379L12.2653 10.7015L12.2648 10.6997L12.1198 10.7379ZM11.2011 7.24694L11.3462 7.20876L11.3402 7.18591L11.3274 7.16602L11.2011 7.24694ZM10.8336 6.7876L10.7337 6.89943L10.8336 6.7876ZM10.1906 6.42014L10.2473 6.28128L10.2463 6.28086L10.1906 6.42014ZM9.73125 6.2364L9.65683 6.36664L9.66587 6.37181L9.67554 6.37567L9.73125 6.2364ZM9.08818 5.86894L9.16119 5.73767L9.1541 5.7342L9.08818 5.86894ZM11.3848 4.95027L11.477 5.06874L11.4809 5.0655L11.3848 4.95027ZM12.4872 4.0316L12.5833 4.14683L12.5967 4.13562L12.6072 4.1216L12.4872 4.0316ZM13.314 2.9292L13.434 3.0192L13.4448 3.00482L13.4519 2.98829L13.314 2.9292ZM14.1408 1H14.2908C14.2908 0.928782 14.2408 0.867383 14.171 0.853063C14.1012 0.838744 14.031 0.875453 14.003 0.940912L14.1408 1ZM14.1408 2.9292L14.2899 2.94577L14.2908 2.93751V2.9292H14.1408ZM14.049 3.756L14.1883 3.81171L14.1958 3.7928L14.1981 3.77257L14.049 3.756ZM13.6815 4.67467L13.5422 4.61896L13.3718 5.04515L13.761 4.80187L13.6815 4.67467ZM14.4164 4.21534L14.496 4.34254L14.497 4.34188L14.4164 4.21534ZM15.0595 6.2364L15.1937 6.30348L15.3022 6.0864H15.0595V6.2364ZM14.7839 6.7876L14.901 6.88131L14.911 6.8689L14.9181 6.85469L14.7839 6.7876ZM14.4164 7.24694L14.4691 7.38739L14.5078 7.37289L14.5336 7.34064L14.4164 7.24694ZM13.6815 7.52254L13.6288 7.38209L13.2321 7.53086L13.6341 7.66484L13.6815 7.52254ZM14.2327 7.70627L14.1853 7.84857L14.2004 7.8536L14.2162 7.85535L14.2327 7.70627ZM15.0595 7.79814L15.1724 7.89691L15.3615 7.68077L15.0761 7.64905L15.0595 7.79814ZM14.4164 8.53307L14.5227 8.63937L14.5293 8.63185L14.4164 8.53307ZM13.8652 9.08427L13.9485 9.20908L13.9608 9.20084L13.9713 9.19034L13.8652 9.08427ZM13.314 9.45174L13.3778 9.58753L13.3879 9.58277L13.3973 9.57655L13.314 9.45174ZM12.4872 9.72734L12.5075 9.87597L12.4872 9.72734ZM11.8539 9.72734L11.7088 9.76551L11.8539 9.72734ZM7.06711 7.79814V7.64814H6.91711V7.79814H7.06711ZM9.36378 7.79814H9.51378V7.64814H9.36378V7.79814ZM9.36378 8.34934V8.49934H9.51378V8.34934H9.36378ZM6.60778 8.34934V8.19934H6.45778V8.34934H6.60778ZM6.60778 9.268H6.45778V9.418H6.60778V9.268ZM9.54751 9.268H9.69751V9.118H9.54751V9.268ZM9.54751 10.0029V10.1529H9.69751V10.0029H9.54751ZM6.60778 10.0029V9.85294H6.45778V10.0029H6.60778ZM6.60778 10.7379H6.45778V10.8879H6.60778V10.7379ZM6.82227 4.8657L6.92489 4.75629L6.82227 4.8657ZM9.22701 4.8657L9.12439 4.75629L9.22701 4.8657ZM6.30634 3.21415L6.15967 3.18272L6.15603 3.1997L6.15637 3.21706L6.30634 3.21415ZM9.73604 3.18332L9.88604 3.18436L9.88616 3.16657L9.88212 3.14924L9.73604 3.18332ZM8.80535 5.71556L8.89535 5.59556L8.80239 5.52584L8.71164 5.59843L8.80535 5.71556ZM7.14785 5.58806L7.25391 5.48199L7.16849 5.39657L7.06682 5.46183L7.14785 5.58806ZM6.7765 6.9045L6.6379 6.96185L6.70804 7.13138L6.86025 7.02894L6.7765 6.9045ZM9.01895 6.97134L8.9201 7.08415L9.06905 7.21467L9.15433 7.03593L9.01895 6.97134ZM8.86289 5.75872L8.77289 5.87872L8.78423 5.88722L8.79697 5.89345L8.86289 5.75872ZM9.45067 6.07056L9.55462 6.1787L9.70089 6.0381L9.52358 5.93948L9.45067 6.07056ZM9.45564 10.7379H9.60565V10.5879H9.45564V10.7379ZM7.06711 11.7484L6.92125 11.7134L6.91711 11.7307V11.7484H7.06711ZM6.1417 13.0345L5.99303 13.0146L5.97023 13.1845H6.1417V13.0345ZM10.0987 12.2996V12.1496H10.0794L10.0607 12.1545L10.0987 12.2996ZM10.1906 13.0345V13.1845H10.3605L10.3394 13.0159L10.1906 13.0345ZM6.69964 12.2996L6.75754 12.438L6.75756 12.438L6.69964 12.2996ZM6.97524 12.1159L7.09365 12.208L6.97524 12.1159ZM9.25354 12.0056L9.39704 11.962L9.25354 12.0056ZM13.6815 6.2364L13.5987 6.11136L13.1836 6.3864H13.6815V6.2364ZM14.66 5.58806L14.7428 5.7131L14.7609 5.70112L14.7749 5.68452L14.66 5.58806ZM15.427 4.67467L15.5419 4.77113L15.5553 4.75513L15.5638 4.73606L15.427 4.67467ZM16.0039 3.38853L16.1408 3.44993L16.1539 3.42064V3.38853H16.0039ZM16.0039 3.18332H16.1539V2.90689L15.9221 3.05756L16.0039 3.18332ZM5.68911 10.7379L5.53911 10.7368L5.68911 10.7379ZM6.13044 10.8798L6.27991 10.8672L6.13044 10.8798ZM9.54751 11.2891L9.5181 11.142L9.48689 11.1482L9.4609 11.1666L9.54751 11.2891ZM12.2402 11.2196L12.3892 11.2025L12.3881 11.1928L12.3857 11.1833L12.2402 11.2196ZM12.2219 11.5748L12.0796 11.5272L12.2219 11.5748ZM11.1357 12.2996L11.1123 12.1514L11.1357 12.2996ZM11.6604 12.1159L11.7257 12.251L11.735 12.2464L11.7437 12.2407L11.6604 12.1159ZM4.16104 11.7866L4.30828 11.758L4.30448 11.7385L4.2957 11.7206L4.16104 11.7866ZM4.40298 12.024L4.47006 11.8898L4.45388 11.8818L4.43624 11.8777L4.40298 12.024ZM4.67858 12.1618L4.61149 12.296L4.62539 12.3029L4.64041 12.3069L4.67858 12.1618ZM5.20235 12.2996L5.16418 12.4447L5.17178 12.4467L5.17955 12.4479L5.20235 12.2996ZM5.68911 12.3744L5.66632 12.5227L5.67765 12.5244H5.68911V12.3744ZM6.09047 12.3744V12.5244H6.09964L6.10875 12.5233L6.09047 12.3744ZM6.23261 12.357L6.23944 12.2071L6.22684 12.2066L6.21432 12.2081L6.23261 12.357ZM5.68911 10.9147L5.54661 10.9615L5.68911 10.9147ZM6.70203 12.2986L6.64413 12.1602L6.64411 12.1602L6.70203 12.2986ZM4.26668 9.86064L3.43988 9.58504L3.34501 9.86964L4.17181 10.1452L4.26668 9.86064ZM3.39244 9.72734C3.44441 9.58663 3.44442 9.58663 3.44443 9.58664C3.44443 9.58664 3.44444 9.58664 3.44445 9.58664C3.44445 9.58664 3.44445 9.58664 3.44445 9.58664C3.44443 9.58664 3.4444 9.58663 3.44435 9.58661C3.44424 9.58657 3.44405 9.5865 3.44378 9.58639C3.44323 9.58619 3.44235 9.58586 3.44116 9.58541C3.43877 9.58452 3.43513 9.58314 3.43036 9.58131C3.42081 9.57765 3.40676 9.57219 3.38922 9.56518C3.35408 9.55112 3.30525 9.53091 3.25071 9.50645C3.1388 9.45625 3.01349 9.39276 2.93062 9.33127L2.75186 9.5722C2.86226 9.65411 3.01256 9.72842 3.12793 9.78018C3.18703 9.80669 3.23976 9.8285 3.27777 9.84371C3.29681 9.85132 3.31223 9.85732 3.32301 9.86145C3.3284 9.86351 3.33264 9.86512 3.33559 9.86623C3.33707 9.86678 3.33822 9.86721 3.33904 9.86752C3.33945 9.86767 3.33977 9.86779 3.34001 9.86788C3.34013 9.86792 3.34023 9.86796 3.34031 9.86799C3.34034 9.868 3.34038 9.86801 3.3404 9.86802C3.34042 9.86803 3.34043 9.86803 3.34044 9.86804C3.34046 9.86804 3.34047 9.86805 3.39244 9.72734ZM2.93062 9.33127C2.8607 9.2794 2.77653 9.19598 2.70615 9.12042C2.67184 9.08359 2.64237 9.05033 2.62152 9.02632C2.61111 9.01433 2.60289 9.00471 2.59734 8.99816C2.59457 8.99488 2.59247 8.99238 2.59109 8.99074C2.59041 8.98992 2.5899 8.98932 2.58959 8.98895C2.58943 8.98876 2.58933 8.98863 2.58927 8.98855C2.58923 8.98852 2.58922 8.9885 2.58921 8.98849C2.58921 8.98849 2.58921 8.98849 2.58921 8.98849C2.58921 8.98849 2.58922 8.9885 2.58922 8.9885C2.58922 8.9885 2.58923 8.98851 2.47377 9.08427C2.35832 9.18003 2.35833 9.18004 2.35833 9.18005C2.35834 9.18006 2.35835 9.18007 2.35836 9.18008C2.35837 9.18009 2.35839 9.18012 2.35841 9.18014C2.35846 9.1802 2.35851 9.18026 2.35858 9.18035C2.35872 9.18051 2.3589 9.18074 2.35914 9.18102C2.35961 9.18158 2.36028 9.18238 2.36113 9.1834C2.36283 9.18543 2.36528 9.18834 2.36842 9.19205C2.37469 9.19945 2.38372 9.21003 2.39502 9.22305C2.4176 9.24904 2.44944 9.28497 2.48663 9.3249C2.55923 9.40284 2.6588 9.50315 2.75186 9.5722L2.93062 9.33127ZM2.47377 9.08427C2.58553 8.98422 2.58553 8.98422 2.58553 8.98422C2.58553 8.98422 2.58553 8.98422 2.58552 8.98421C2.58552 8.98421 2.58551 8.9842 2.5855 8.98418C2.58547 8.98415 2.58542 8.9841 2.58536 8.98403C2.58523 8.98389 2.58504 8.98367 2.58478 8.98338C2.58425 8.98279 2.58345 8.98189 2.58239 8.98071C2.58028 8.97834 2.57713 8.9748 2.57304 8.9702C2.56487 8.961 2.55296 8.94755 2.53814 8.9307C2.50847 8.89697 2.46717 8.84966 2.42072 8.79543C2.3272 8.68623 2.21517 8.55167 2.13482 8.44358L1.89406 8.62256C1.98088 8.73935 2.09851 8.88039 2.19286 8.99057C2.24036 9.04603 2.28255 9.09436 2.31289 9.12884C2.32806 9.14609 2.34029 9.1599 2.34874 9.16942C2.35297 9.17418 2.35626 9.17788 2.35851 9.1804C2.35963 9.18165 2.3605 9.18262 2.36108 9.18328C2.36138 9.18361 2.36161 9.18386 2.36176 9.18404C2.36184 9.18413 2.3619 9.18419 2.36194 9.18424C2.36197 9.18427 2.36198 9.18429 2.362 9.1843C2.362 9.18431 2.36201 9.18431 2.36201 9.18432C2.36202 9.18432 2.36202 9.18433 2.47377 9.08427ZM2.13482 8.44358C2.06064 8.34379 1.97091 8.20931 1.89866 8.09796C1.86278 8.04266 1.83165 7.99376 1.80951 7.9587C1.79844 7.94118 1.78963 7.92713 1.78361 7.9175C1.7806 7.91269 1.77828 7.90898 1.77673 7.90649C1.77596 7.90524 1.77537 7.9043 1.77499 7.90368C1.7748 7.90337 1.77465 7.90314 1.77456 7.903C1.77452 7.90292 1.77448 7.90287 1.77446 7.90284C1.77445 7.90282 1.77445 7.90281 1.77444 7.9028C1.77444 7.9028 1.77444 7.9028 1.77444 7.9028C1.77444 7.9028 1.77444 7.9028 1.64697 7.98187C1.51951 8.06094 1.51951 8.06095 1.51951 8.06095C1.51951 8.06095 1.51952 8.06096 1.51952 8.06097C1.51953 8.06098 1.51955 8.061 1.51956 8.06103C1.51959 8.06108 1.51964 8.06115 1.51969 8.06124C1.51981 8.06143 1.51997 8.06169 1.52019 8.06204C1.52062 8.06274 1.52125 8.06375 1.52208 8.06507C1.52372 8.06772 1.52614 8.07159 1.52926 8.07658C1.53549 8.08654 1.54454 8.10097 1.55586 8.1189C1.5785 8.15474 1.6103 8.20471 1.647 8.26126C1.71989 8.3736 1.8139 8.51473 1.89406 8.62256L2.13482 8.44358ZM1.68818 8.1261L2.33125 7.94237L2.24883 7.65391L1.60577 7.83764L1.68818 8.1261ZM2.35712 7.9323L2.90832 7.6567L2.77416 7.38837L2.22296 7.66397L2.35712 7.9323ZM2.90832 7.38837L2.35712 7.11277L2.22296 7.3811L2.77416 7.6567L2.90832 7.38837ZM2.39611 7.14087L1.93677 6.68154L1.72464 6.89367L2.18397 7.353L2.39611 7.14087ZM1.96487 6.72052L1.78114 6.35305L1.51281 6.48722L1.69654 6.85469L1.96487 6.72052ZM3.11497 6.30014L2.38004 5.74894L2.20004 5.98894L2.93497 6.54014L3.11497 6.30014ZM2.41293 5.78292L1.76986 4.86425L1.52409 5.03629L2.16716 5.95496L2.41293 5.78292ZM1.78543 4.89258L1.3261 3.79018L1.04918 3.90556L1.50851 5.00796L1.78543 4.89258ZM1.32691 3.79216L1.14318 3.33283L0.864635 3.44424L1.04837 3.90358L1.32691 3.79216ZM0.923375 3.51508L1.93391 4.15815L2.09497 3.90505L1.08444 3.26199L0.923375 3.51508ZM1.94002 4.16184L2.58309 4.5293L2.73193 4.26883L2.08886 3.90137L1.94002 4.16184ZM2.79458 4.33815L2.42711 3.51135L2.15297 3.63319L2.52044 4.45999L2.79458 4.33815ZM2.42791 3.51318L2.15231 2.87011L1.87657 2.98829L2.15217 3.63136L2.42791 3.51318ZM2.16202 2.90237L1.97829 1.89183L1.68313 1.9455L1.86686 2.95603L2.16202 2.90237ZM1.98071 1.91867V1H1.68071V1.91867H1.98071ZM1.69864 1.07111L2.3417 2.26538L2.60584 2.12315L1.96278 0.928885L1.69864 1.07111ZM2.34603 2.27288L3.08096 3.46715L3.33646 3.30992L2.60152 2.11565L2.34603 2.27288ZM3.10869 3.50032L4.85416 5.06206L5.05419 4.83848L3.30873 3.27675L3.10869 3.50032ZM4.85815 5.0655L5.96055 5.98417L6.1526 5.7537L5.0502 4.83504L4.85815 5.0655ZM5.98949 6.0031L6.35696 6.18683L6.49113 5.91851L6.12366 5.73477L5.98949 6.0031ZM6.50122 6.18129L6.96055 5.90569L6.8062 5.64845L6.34687 5.92405L6.50122 6.18129ZM6.35222 5.92099L5.34168 6.47219L5.48534 6.73555L6.49587 6.18435L6.35222 5.92099ZM5.41351 6.60387C5.34077 6.47269 5.34075 6.4727 5.34073 6.47271C5.34072 6.47271 5.3407 6.47272 5.34069 6.47273C5.34065 6.47275 5.34062 6.47277 5.34057 6.4728C5.34049 6.47284 5.34038 6.4729 5.34026 6.47297C5.34001 6.47311 5.33968 6.47329 5.33928 6.47352C5.33847 6.47397 5.33735 6.4746 5.33594 6.4754C5.33313 6.47699 5.32915 6.47926 5.32414 6.48216C5.31411 6.48796 5.29991 6.49631 5.28255 6.50687C5.24794 6.52793 5.20031 6.55808 5.14808 6.59454C5.04776 6.66458 4.91477 6.76856 4.83216 6.88409L5.07619 7.05859C5.1272 6.98725 5.22388 6.9075 5.31982 6.84052C5.36572 6.80848 5.40787 6.78179 5.4385 6.76315C5.45377 6.75386 5.46606 6.74664 5.47437 6.74183C5.47852 6.73943 5.48167 6.73764 5.48369 6.73649C5.48471 6.73592 5.48544 6.73551 5.48587 6.73527C5.48608 6.73515 5.48622 6.73507 5.48629 6.73503C5.48632 6.73501 5.48633 6.73501 5.48633 6.73501C5.48632 6.73501 5.48632 6.73502 5.4863 6.73502C5.4863 6.73503 5.48628 6.73503 5.48628 6.73504C5.48627 6.73504 5.48625 6.73505 5.41351 6.60387ZM4.83216 6.88409C4.71264 7.05123 4.66361 7.29071 4.64135 7.46681C4.62973 7.55871 4.62452 7.64132 4.62221 7.70096C4.62105 7.73087 4.6206 7.75522 4.62045 7.77233C4.62038 7.78088 4.62037 7.78765 4.62039 7.7924C4.6204 7.79478 4.62042 7.79666 4.62043 7.79801C4.62044 7.79869 4.62044 7.79923 4.62045 7.79964C4.62045 7.79985 4.62045 7.80002 4.62046 7.80016C4.62046 7.80023 4.62046 7.80029 4.62046 7.80034C4.62046 7.80036 4.62046 7.8004 4.62046 7.80041C4.62046 7.80044 4.62046 7.80047 4.77044 7.79814C4.92042 7.79581 4.92042 7.79583 4.92042 7.79585C4.92042 7.79586 4.92043 7.79588 4.92043 7.79589C4.92043 7.7959 4.92043 7.79591 4.92043 7.79591C4.92043 7.79592 4.92043 7.79588 4.92042 7.79582C4.92042 7.79569 4.92042 7.79543 4.92042 7.79505C4.92041 7.79427 4.9204 7.79298 4.92039 7.79121C4.92038 7.78767 4.92038 7.78218 4.92044 7.77497C4.92057 7.76052 4.92095 7.73919 4.92198 7.71261C4.92405 7.65926 4.92871 7.58562 4.93898 7.50445C4.96048 7.33441 5.00332 7.16049 5.07619 7.05859L4.83216 6.88409ZM4.62336 7.76872L4.43962 8.68739L4.7338 8.74622L4.91753 7.82755L4.62336 7.76872ZM4.44119 8.68042L4.25745 9.41536L4.5485 9.48812L4.73223 8.75318L4.44119 8.68042ZM4.26067 9.4043L4.07694 9.9555L4.36154 10.0504L4.54528 9.49917L4.26067 9.4043ZM4.03551 10.7379C3.88744 10.7139 3.88744 10.7139 3.88743 10.7139C3.88743 10.7139 3.88743 10.714 3.88742 10.714C3.88742 10.714 3.88741 10.7141 3.8874 10.7141C3.88739 10.7142 3.88736 10.7143 3.88734 10.7145C3.88729 10.7148 3.88722 10.7153 3.88713 10.7158C3.88696 10.7169 3.88673 10.7184 3.88643 10.7203C3.88584 10.7242 3.88501 10.7297 3.884 10.7367C3.88198 10.7507 3.87923 10.7707 3.87619 10.7955C3.87013 10.8449 3.86285 10.9138 3.85798 10.9921C3.84855 11.1437 3.84686 11.348 3.8906 11.5116L4.18041 11.434C4.14999 11.3203 4.1483 11.1572 4.15741 11.0107C4.16181 10.9398 4.16844 10.877 4.17396 10.832C4.17672 10.8095 4.17918 10.7916 4.18093 10.7795C4.1818 10.7734 4.1825 10.7688 4.18296 10.7658C4.18319 10.7643 4.18336 10.7633 4.18346 10.7626C4.18352 10.7623 4.18355 10.762 4.18357 10.7619C4.18358 10.7618 4.18359 10.7618 4.18359 10.7618C4.18359 10.7618 4.18359 10.7618 4.18359 10.7618C4.18358 10.7618 4.18358 10.7618 4.18358 10.7618C4.18358 10.7619 4.18358 10.7619 4.03551 10.7379ZM4.18103 10.7743L4.36476 10.0393L4.07372 9.96656L3.88999 10.7015L4.18103 10.7743ZM5.72435 8.73802L5.90808 10.0242L6.20507 9.98172L6.02134 8.69559L5.72435 8.73802ZM10.0394 11.3436L10.2231 11.3028L10.158 11.0099L9.97431 11.0508L10.0394 11.3436ZM10.3406 11.1564V9.268H10.0406V11.1564H10.3406ZM10.1906 11.1564C10.2068 11.3055 10.2068 11.3055 10.2069 11.3055C10.2069 11.3055 10.2069 11.3055 10.2069 11.3055C10.2069 11.3055 10.2069 11.3055 10.207 11.3055C10.207 11.3055 10.2071 11.3055 10.2072 11.3055C10.2074 11.3054 10.2076 11.3054 10.2078 11.3054C10.2084 11.3053 10.2091 11.3052 10.21 11.3051C10.2118 11.3049 10.2144 11.3046 10.2176 11.3042C10.224 11.3035 10.2331 11.3023 10.2444 11.3008C10.2668 11.2977 10.2979 11.2931 10.3332 11.2868C10.4006 11.2748 10.4944 11.2547 10.5697 11.2234L10.4546 10.9464C10.411 10.9645 10.3441 10.9801 10.2805 10.9915C10.2502 10.9969 10.2232 11.0009 10.2039 11.0035C10.1942 11.0048 10.1866 11.0058 10.1815 11.0064C10.1789 11.0067 10.177 11.007 10.1758 11.0071C10.1752 11.0072 10.1747 11.0072 10.1745 11.0072C10.1744 11.0073 10.1743 11.0073 10.1743 11.0073C10.1743 11.0073 10.1743 11.0073 10.1743 11.0073C10.1743 11.0073 10.1743 11.0073 10.1743 11.0073C10.1743 11.0073 10.1743 11.0073 10.1743 11.0073C10.1743 11.0073 10.1743 11.0073 10.1906 11.1564ZM10.1906 9.268C10.0643 9.34893 10.0643 9.34891 10.0643 9.3489C10.0643 9.3489 10.0643 9.34889 10.0643 9.3489C10.0643 9.34891 10.0643 9.34895 10.0643 9.34901C10.0644 9.34914 10.0645 9.34935 10.0647 9.34965C10.0651 9.35026 10.0657 9.35124 10.0666 9.35256C10.0683 9.35521 10.0708 9.35927 10.0742 9.36465C10.0809 9.37541 10.0908 9.39146 10.1032 9.41211C10.1281 9.45343 10.1631 9.51305 10.2031 9.58552C10.2834 9.73105 10.3826 9.92587 10.4611 10.1272C10.5408 10.3318 10.5935 10.529 10.5926 10.6835C10.5922 10.7595 10.5788 10.8162 10.5571 10.8567C10.537 10.8943 10.5062 10.9249 10.4546 10.9464L10.5697 11.2234C10.6844 11.1758 10.7683 11.0978 10.8216 10.9982C10.8733 10.9016 10.892 10.7926 10.8926 10.6852C10.8938 10.4732 10.8245 10.2335 10.7406 10.0183C10.6556 9.80001 10.5496 9.59245 10.4657 9.44051C10.4236 9.36425 10.3867 9.30136 10.3602 9.25736C10.3469 9.23535 10.3363 9.21803 10.3288 9.20609C10.3251 9.20012 10.3222 9.1955 10.3202 9.1923C10.3192 9.19071 10.3184 9.18946 10.3178 9.18859C10.3176 9.18815 10.3173 9.18781 10.3172 9.18756C10.3171 9.18743 10.317 9.18733 10.317 9.18725C10.317 9.18721 10.3169 9.18717 10.3169 9.18715C10.3169 9.18711 10.3169 9.18708 10.1906 9.268ZM11.2011 7.24694C11.3274 7.16602 11.3274 7.166 11.3274 7.16599C11.3274 7.16599 11.3274 7.16597 11.3274 7.16596C11.3274 7.16594 11.3273 7.16591 11.3273 7.16588C11.3273 7.16581 11.3272 7.16573 11.3272 7.16562C11.327 7.16542 11.3269 7.16514 11.3266 7.16479C11.3262 7.16409 11.3255 7.1631 11.3247 7.16184C11.3231 7.15932 11.3207 7.1557 11.3177 7.1511C11.3117 7.1419 11.3029 7.12875 11.292 7.11257C11.2701 7.08024 11.239 7.03552 11.2024 6.98575C11.1309 6.88859 11.0314 6.76321 10.9336 6.67577L10.7337 6.89943C10.8071 6.9651 10.8914 7.06939 10.9608 7.16362C10.9946 7.20954 11.0234 7.25095 11.0436 7.28083C11.0537 7.29574 11.0616 7.30771 11.067 7.31586C11.0697 7.31993 11.0717 7.32304 11.073 7.32508C11.0737 7.3261 11.0742 7.32685 11.0745 7.32732C11.0746 7.32755 11.0747 7.32771 11.0748 7.3278C11.0748 7.32785 11.0748 7.32788 11.0748 7.32789C11.0748 7.32789 11.0748 7.32789 11.0748 7.32789C11.0748 7.32788 11.0748 7.32788 11.0748 7.32788C11.0748 7.32787 11.0748 7.32786 11.2011 7.24694ZM10.9336 6.67577C10.8104 6.56561 10.6348 6.46653 10.499 6.39776C10.4294 6.36252 10.367 6.33361 10.3219 6.31347C10.2993 6.30338 10.2809 6.29546 10.2681 6.29C10.2617 6.28727 10.2566 6.28515 10.2531 6.28369C10.2514 6.28295 10.25 6.28238 10.249 6.28198C10.2485 6.28178 10.2482 6.28162 10.2479 6.28151C10.2477 6.28145 10.2476 6.2814 10.2475 6.28136C10.2475 6.28135 10.2474 6.28133 10.2474 6.28132C10.2474 6.28131 10.2474 6.2813 10.2474 6.2813C10.2473 6.28129 10.2473 6.28129 10.1906 6.42014C10.1338 6.55899 10.1338 6.55898 10.1338 6.55898C10.1338 6.55898 10.1338 6.55897 10.1338 6.55897C10.1338 6.55897 10.1338 6.55897 10.1338 6.55897C10.1338 6.55898 10.1338 6.55899 10.1339 6.55902C10.134 6.55907 10.1343 6.55917 10.1346 6.5593C10.1353 6.55957 10.1363 6.56001 10.1377 6.5606C10.1406 6.56179 10.1449 6.56362 10.1506 6.56604C10.162 6.57089 10.1788 6.57811 10.1996 6.58742C10.2414 6.60606 10.2992 6.63286 10.3635 6.6654C10.4953 6.73217 10.6413 6.81682 10.7337 6.89943L10.9336 6.67577ZM10.2463 6.28086L9.78695 6.09713L9.67554 6.37567L10.1349 6.55941L10.2463 6.28086ZM9.82334 6.35481L11.4769 5.06867L11.2928 4.83187L9.63915 6.118L9.82334 6.35481ZM11.4809 5.0655L12.5833 4.14683L12.3912 3.91637L11.2888 4.83504L11.4809 5.0655ZM12.6072 4.1216L13.434 3.0192L13.194 2.8392L12.3672 3.9416L12.6072 4.1216ZM13.4519 2.98829L14.2787 1.05909L14.003 0.940912L13.1762 2.87011L13.4519 2.98829ZM13.9918 2.91264L13.8999 3.73944L14.1981 3.77257L14.2899 2.94577L13.9918 2.91264ZM13.9097 3.70029L13.5422 4.61896L13.8208 4.73038L14.1883 3.81171L13.9097 3.70029ZM13.761 4.80187L14.4959 4.34254L14.3369 4.08814L13.602 4.54747L13.761 4.80187ZM14.497 4.34188L15.5075 3.69882L15.3465 3.44572L14.3359 4.08879L14.497 4.34188ZM14.9254 6.16932L14.6498 6.72052L14.9181 6.85469L15.1937 6.30348L14.9254 6.16932ZM14.6668 6.6939L14.2993 7.15323L14.5336 7.34064L14.901 6.88131L14.6668 6.6939ZM14.3638 7.10649L13.6288 7.38209L13.7342 7.66299L14.4691 7.38739L14.3638 7.10649ZM13.6341 7.66484L14.1853 7.84857L14.2801 7.56397L13.7289 7.38023L13.6341 7.66484ZM14.2162 7.85535L15.043 7.94722L15.0761 7.64905L14.2493 7.55719L14.2162 7.85535ZM14.9466 7.69936L14.3036 8.4343L14.5293 8.63185L15.1724 7.89691L14.9466 7.69936ZM14.3104 8.427L13.7592 8.97821L13.9713 9.19034L14.5225 8.63914L14.3104 8.427ZM13.782 8.95946L13.2308 9.32693L13.3973 9.57655L13.9485 9.20908L13.782 8.95946ZM13.314 9.45174C13.2503 9.31595 13.2503 9.31594 13.2503 9.31594C13.2503 9.31594 13.2504 9.31593 13.2504 9.31593C13.2504 9.31593 13.2504 9.31593 13.2503 9.31594C13.2503 9.31595 13.2503 9.31598 13.2502 9.31602C13.25 9.3161 13.2497 9.31623 13.2493 9.31641C13.2485 9.31679 13.2473 9.31737 13.2456 9.31815C13.2422 9.31971 13.2371 9.32206 13.2304 9.3251C13.217 9.33118 13.1973 9.34001 13.1725 9.3508C13.1228 9.3724 13.0531 9.40167 12.9734 9.4323C12.8107 9.49475 12.6175 9.55824 12.467 9.57871L12.5075 9.87597C12.6942 9.85056 12.9145 9.77625 13.0809 9.71237C13.1656 9.67983 13.2394 9.64881 13.2921 9.6259C13.3185 9.61443 13.3396 9.60496 13.3543 9.5983C13.3617 9.59497 13.3674 9.59234 13.3714 9.59051C13.3733 9.5896 13.3749 9.58888 13.3759 9.58838C13.3765 9.58813 13.3769 9.58793 13.3772 9.58779C13.3774 9.58772 13.3775 9.58766 13.3776 9.58762C13.3776 9.5876 13.3777 9.58758 13.3777 9.58757C13.3777 9.58756 13.3777 9.58755 13.3777 9.58755C13.3778 9.58754 13.3778 9.58753 13.314 9.45174ZM12.2648 10.6997L11.9989 9.68917L11.7088 9.76551L11.9747 10.776L12.2648 10.6997ZM11.9989 9.68917L11.3462 7.20876L11.0561 7.28511L11.7088 9.76551L11.9989 9.68917ZM12.467 9.57871C12.3576 9.59359 12.2097 9.59404 12.0835 9.58992C12.0216 9.5879 11.9671 9.58487 11.928 9.58234C11.9086 9.58108 11.893 9.57995 11.8824 9.57914C11.8771 9.57874 11.8731 9.57841 11.8704 9.5782C11.8691 9.57809 11.8681 9.57801 11.8675 9.57796C11.8672 9.57793 11.8669 9.57791 11.8668 9.5779C11.8667 9.57789 11.8667 9.57789 11.8667 9.57789C11.8667 9.57789 11.8667 9.57789 11.8667 9.57789C11.8667 9.57789 11.8667 9.57789 11.8667 9.57789C11.8667 9.57789 11.8667 9.57789 11.8539 9.72734C11.841 9.87679 11.841 9.87679 11.841 9.87679C11.841 9.87679 11.8411 9.87679 11.8411 9.87679C11.8411 9.8768 11.8411 9.8768 11.8412 9.8768C11.8412 9.87681 11.8413 9.87682 11.8415 9.87683C11.8417 9.87685 11.842 9.87688 11.8425 9.87691C11.8433 9.87698 11.8445 9.87708 11.8461 9.87721C11.8493 9.87747 11.8538 9.87783 11.8596 9.87827C11.8712 9.87916 11.8879 9.88037 11.9087 9.88171C11.9501 9.8844 12.0079 9.88761 12.0737 9.88976C12.203 9.89398 12.3718 9.89443 12.5075 9.87597L12.467 9.57871ZM9.21378 7.79814V8.34934H9.51378V7.79814H9.21378ZM6.45778 8.34934V9.268H6.75778V8.34934H6.45778ZM9.39751 9.268V10.0029H9.69751V9.268H9.39751ZM6.45778 10.0029V10.7379H6.75778V10.0029H6.45778ZM6.60778 10.8879H9.18005V10.5879H6.60778V10.8879ZM9.54751 9.85294H9.18005V10.1529H9.54751V9.85294ZM9.33005 10.7379V10.0029H9.03005V10.7379H9.33005ZM9.18005 9.85294H7.06711V10.1529H9.18005V9.85294ZM7.06711 9.85294H6.60778V10.1529H7.06711V9.85294ZM6.60778 9.418H7.06711V9.118H6.60778V9.418ZM7.21711 10.0029V9.268H6.91711V10.0029H7.21711ZM7.06711 9.418H9.18005V9.118H7.06711V9.418ZM9.18005 9.418H9.54751V9.118H9.18005V9.418ZM9.36378 8.19934H9.18005V8.49934H9.36378V8.19934ZM9.33005 9.268V8.34934H9.03005V9.268H9.33005ZM9.18005 8.19934H7.06711V8.49934H9.18005V8.19934ZM7.06711 8.19934H6.60778V8.49934H7.06711V8.19934ZM7.21711 8.34934V7.79814H6.91711V8.34934H7.21711ZM6.45301 3.24558C6.6084 2.52041 7.25321 1.9768 8.02464 1.9768V1.6768C7.10883 1.6768 6.34408 2.32211 6.15967 3.18272L6.45301 3.24558ZM6.30634 3.21415C6.15637 3.21706 6.15637 3.2171 6.15637 3.21714C6.15637 3.21715 6.15637 3.2172 6.15638 3.21724C6.15638 3.21731 6.15638 3.21741 6.15638 3.21752C6.15639 3.21774 6.15639 3.21804 6.1564 3.21841C6.15642 3.21915 6.15644 3.22017 6.15648 3.22147C6.15654 3.22406 6.15665 3.22777 6.1568 3.23254C6.15712 3.24206 6.15763 3.25581 6.15847 3.2733C6.16014 3.30827 6.16307 3.35831 6.16817 3.41962C6.17834 3.54202 6.19721 3.71052 6.23213 3.89453C6.29999 4.25218 6.43532 4.70839 6.71965 4.9751L6.92489 4.75629C6.7164 4.56072 6.59376 4.19117 6.52687 3.83861C6.4944 3.66751 6.4767 3.50981 6.46714 3.39477C6.46237 3.33737 6.45965 3.29088 6.45813 3.25901C6.45737 3.24308 6.45691 3.23082 6.45664 3.2227C6.45651 3.21864 6.45642 3.21562 6.45637 3.21369C6.45635 3.21272 6.45633 3.21203 6.45632 3.21162C6.45632 3.21141 6.45632 3.21128 6.45632 3.21121C6.45631 3.21118 6.45631 3.21117 6.45631 3.21117C6.45631 3.21117 6.45631 3.21119 6.45631 3.21119C6.45632 3.21121 6.45632 3.21124 6.30634 3.21415ZM8.02464 1.9768C8.78603 1.9768 9.4241 2.50635 9.58996 3.2174L9.88212 3.14924C9.68529 2.30546 8.92856 1.6768 8.02464 1.6768V1.9768ZM9.32963 4.9751C9.61858 4.70407 9.75181 4.23916 9.81693 3.8748C9.85044 3.6873 9.86766 3.51555 9.87653 3.39079C9.88098 3.3283 9.88335 3.2773 9.88461 3.24166C9.88524 3.22383 9.8856 3.20982 9.88579 3.20012C9.88589 3.19526 9.88595 3.19148 9.88599 3.18884C9.88601 3.18751 9.88602 3.18647 9.88603 3.18572C9.88603 3.18535 9.88603 3.18505 9.88603 3.18482C9.88603 3.18471 9.88604 3.18461 9.88604 3.18453C9.88604 3.18449 9.88604 3.18445 9.88604 3.18443C9.88604 3.18439 9.88604 3.18436 9.73604 3.18332C9.58605 3.18228 9.58605 3.18226 9.58605 3.18224C9.58605 3.18224 9.58605 3.18222 9.58605 3.18222C9.58605 3.18222 9.58605 3.18223 9.58605 3.18226C9.58604 3.18233 9.58604 3.18247 9.58604 3.18268C9.58604 3.1831 9.58603 3.18381 9.58602 3.18479C9.58599 3.18676 9.58594 3.18985 9.58586 3.19399C9.58569 3.20228 9.58537 3.21479 9.5848 3.23104C9.58365 3.26355 9.58145 3.31097 9.57729 3.36951C9.56894 3.48683 9.55278 3.64762 9.52161 3.82202C9.45737 4.18144 9.33609 4.55772 9.12439 4.75629L9.32963 4.9751ZM6.71965 4.9751C6.89594 5.14046 7.0827 5.33327 7.28474 5.47829C7.49237 5.62732 7.73099 5.73806 8.02464 5.73806V5.43806C7.81332 5.43806 7.63491 5.36035 7.45967 5.23457C7.27884 5.10477 7.11691 4.9364 6.92489 4.75629L6.71965 4.9751ZM9.12439 4.75629C8.93238 4.9364 8.77044 5.10477 8.58961 5.23457C8.41437 5.36035 8.23597 5.43806 8.02464 5.43806V5.73806C8.31829 5.73806 8.55692 5.62732 8.76454 5.47829C8.96658 5.33327 9.15334 5.14046 9.32963 4.9751L9.12439 4.75629ZM7.78535 6.37556H8.16785V6.07556H7.78535V6.37556ZM8.26155 6.34269L8.89905 5.83269L8.71164 5.59843L8.07414 6.10843L8.26155 6.34269ZM5.94462 6.48477L6.49582 6.18438L6.35226 5.92096L5.80106 6.22135L5.94462 6.48477ZM6.50507 6.1789L7.22887 5.71429L7.06682 5.46183L6.34301 5.92644L6.50507 6.1789ZM6.28544 6.11002L6.6379 6.96185L6.91511 6.84715L6.56265 5.99532L6.28544 6.11002ZM6.86025 7.02894L7.8691 6.35L7.7016 6.10112L6.69275 6.78006L6.86025 7.02894ZM8.06899 6.33838L8.9201 7.08415L9.11781 6.85852L8.2667 6.11274L8.06899 6.33838ZM7.04178 5.69412L7.67928 6.33163L7.89141 6.1195L7.25391 5.48199L7.04178 5.69412ZM8.71535 5.83556L8.77289 5.87872L8.95289 5.63872L8.89535 5.59556L8.71535 5.83556ZM8.79697 5.89345L9.02226 6.00367L9.1541 5.7342L8.92881 5.62398L8.79697 5.89345ZM9.01526 6.00002L9.37775 6.20165L9.52358 5.93948L9.16109 5.73785L9.01526 6.00002ZM1.64697 6.57014H3.02497V6.27014H1.64697V6.57014ZM13.9908 1V2.9292H14.2908V1H13.9908ZM7.63661 6.20617L7.43158 7.77875L7.72906 7.81753L7.93409 6.24495L7.63661 6.20617ZM7.06711 7.94814H7.58032V7.64814H7.06711V7.94814ZM7.58032 7.94814H8.73123V7.64814H7.58032V7.94814ZM8.73123 7.94814H9.36378V7.64814H8.73123V7.94814ZM8.87244 7.74755L8.30906 6.17497L8.02664 6.27615L8.59002 7.84873L8.87244 7.74755ZM9.45564 10.5879H9.18005V10.8879H9.45564V10.5879ZM7.21711 11.9321V11.7484H6.91711V11.9321H7.21711ZM7.06711 11.7484C7.21297 11.7834 7.21298 11.7834 7.21298 11.7834C7.21298 11.7833 7.21299 11.7833 7.213 11.7833C7.213 11.7833 7.21301 11.7832 7.21303 11.7832C7.21305 11.7831 7.21307 11.783 7.2131 11.7829C7.21315 11.7826 7.21321 11.7824 7.21329 11.7821C7.21343 11.7815 7.21361 11.7807 7.21383 11.7797C7.21427 11.7778 7.21484 11.7752 7.21552 11.772C7.21688 11.7657 7.21867 11.7569 7.22062 11.7462C7.22451 11.725 7.2292 11.6954 7.23235 11.6617C7.23794 11.6021 7.24209 11.5003 7.20498 11.4137L6.92924 11.5319C6.93453 11.5442 6.93868 11.5802 6.93366 11.6337C6.93152 11.6566 6.92826 11.6773 6.92552 11.6923C6.92416 11.6997 6.92297 11.7055 6.92218 11.7092C6.92178 11.711 6.92149 11.7124 6.92132 11.7131C6.92124 11.7135 6.92119 11.7137 6.92118 11.7137C6.92117 11.7137 6.92117 11.7137 6.92118 11.7137C6.92119 11.7137 6.9212 11.7136 6.92121 11.7136C6.92122 11.7136 6.92122 11.7135 6.92123 11.7135C6.92123 11.7135 6.92124 11.7135 6.92124 11.7135C6.92125 11.7134 6.92125 11.7134 7.06711 11.7484ZM7.06711 11.8984H9.25354V11.5984H7.06711V11.8984ZM9.39281 11.8041L9.50305 11.5285L9.22451 11.4171L9.11427 11.6927L9.39281 11.8041ZM9.80567 6.10617L9.52149 5.94378L9.37265 6.20426L9.65683 6.36664L9.80567 6.10617ZM9.52149 5.94378L9.1626 5.7387L9.01376 5.99917L9.37265 6.20426L9.52149 5.94378ZM9.15433 7.03593L9.58245 6.13861L9.31169 6.00943L8.88357 6.90675L9.15433 7.03593ZM9.55102 6.18216L9.55462 6.1787L9.34672 5.96242L9.34312 5.96588L9.55102 6.18216ZM6.88338 10.5879H6.60778V10.8879H6.88338V10.5879ZM9.18005 10.5879H6.88338V10.8879H9.18005V10.5879ZM10.6499 12.1496H10.0987V12.4496H10.6499V12.1496ZM10.0987 12.2996C10.0607 12.1545 10.0607 12.1545 10.0607 12.1545C10.0607 12.1545 10.0607 12.1545 10.0607 12.1545C10.0608 12.1545 10.0608 12.1545 10.0608 12.1545C10.0608 12.1545 10.0608 12.1545 10.0608 12.1545C10.0608 12.1545 10.0607 12.1545 10.0605 12.1546C10.0601 12.1546 10.0594 12.1548 10.0584 12.1551C10.0564 12.1556 10.0531 12.1564 10.0487 12.1574C10.04 12.1595 10.0269 12.1624 10.0104 12.1657C9.97715 12.1724 9.93127 12.1803 9.88038 12.1856C9.76974 12.197 9.66906 12.1918 9.61285 12.1646L9.48218 12.4346C9.61973 12.5012 9.79465 12.496 9.91117 12.484C9.97386 12.4775 10.0294 12.4679 10.0693 12.4599C10.0894 12.4558 10.1057 12.4522 10.1172 12.4495C10.123 12.4481 10.1276 12.447 10.1309 12.4462C10.1326 12.4458 10.1339 12.4454 10.1349 12.4452C10.1354 12.4451 10.1358 12.445 10.1361 12.4449C10.1362 12.4448 10.1364 12.4448 10.1365 12.4448C10.1365 12.4448 10.1366 12.4447 10.1366 12.4447C10.1367 12.4447 10.1367 12.4447 10.1367 12.4447C10.1367 12.4447 10.1368 12.4447 10.0987 12.2996ZM6.1417 13.1845H10.1906V12.8845H6.1417V13.1845ZM9.94987 12.3182L10.0417 13.0531L10.3394 13.0159L10.2476 12.281L9.94987 12.3182ZM7.09365 12.208C7.13017 12.161 7.15917 12.1009 7.17683 12.0609C7.18638 12.0393 7.19413 12.0201 7.19952 12.0062C7.20223 11.9992 7.20438 11.9935 7.2059 11.9894C7.20666 11.9873 7.20726 11.9857 7.2077 11.9845C7.20792 11.9839 7.2081 11.9834 7.20823 11.983C7.2083 11.9828 7.20836 11.9826 7.20841 11.9825C7.20843 11.9824 7.20845 11.9824 7.20847 11.9823C7.20848 11.9823 7.20849 11.9823 7.20849 11.9822C7.2085 11.9822 7.2085 11.9822 7.20851 11.9822C7.20851 11.9822 7.20852 11.9822 7.06711 11.9321C6.9257 11.8821 6.92571 11.8821 6.92571 11.8821C6.92572 11.8821 6.92572 11.8821 6.92572 11.882C6.92573 11.882 6.92573 11.882 6.92574 11.882C6.92574 11.882 6.92575 11.882 6.92575 11.882C6.92576 11.8819 6.92575 11.882 6.92574 11.882C6.92571 11.8821 6.92565 11.8823 6.92554 11.8825C6.92533 11.8831 6.92497 11.8841 6.92447 11.8855C6.92346 11.8882 6.9219 11.8924 6.91984 11.8977C6.9157 11.9083 6.90972 11.9232 6.90246 11.9396C6.8865 11.9757 6.86956 12.0074 6.85684 12.0238L7.09365 12.208ZM6.73338 10.7379V11.2891H7.03338V10.7379H6.73338ZM6.56034 11.3395L6.83594 11.4314L6.93081 11.1468L6.65521 11.0549L6.56034 11.3395ZM6.88338 11.2891C6.80349 11.416 6.80347 11.416 6.80345 11.416C6.80344 11.416 6.80342 11.416 6.80341 11.416C6.80339 11.416 6.80336 11.4159 6.80334 11.4159C6.8033 11.4159 6.80327 11.4159 6.80325 11.4159C6.80321 11.4158 6.80319 11.4158 6.80321 11.4159C6.80325 11.4159 6.80342 11.416 6.8037 11.4162C6.80428 11.4165 6.80533 11.4172 6.80679 11.4182C6.80973 11.4201 6.81431 11.4232 6.82005 11.4273C6.83168 11.4355 6.84744 11.4471 6.86396 11.461C6.90256 11.4933 6.92417 11.5201 6.92924 11.5319L7.20498 11.4137C7.17008 11.3323 7.09982 11.2672 7.05655 11.231C7.03213 11.2105 7.00945 11.1937 6.99287 11.1821C6.98452 11.1762 6.97755 11.1715 6.97247 11.1681C6.96993 11.1664 6.96785 11.1651 6.9663 11.1641C6.96552 11.1636 6.96488 11.1631 6.96437 11.1628C6.96411 11.1627 6.96389 11.1625 6.96371 11.1624C6.96362 11.1623 6.96354 11.1623 6.96346 11.1622C6.96342 11.1622 6.96339 11.1622 6.96336 11.1622C6.96334 11.1622 6.96332 11.1621 6.96331 11.1621C6.96329 11.1621 6.96327 11.1621 6.88338 11.2891ZM9.61285 12.1646C9.47742 12.0991 9.42554 12.0556 9.39704 11.962L9.11004 12.0493C9.17609 12.2663 9.32531 12.3587 9.48218 12.4346L9.61285 12.1646ZM9.39704 11.962C9.39091 11.9418 9.38874 11.901 9.39221 11.8514C9.39375 11.8294 9.39608 11.8097 9.39803 11.7955C9.39899 11.7885 9.39984 11.783 9.40042 11.7795C9.4007 11.7777 9.40092 11.7764 9.40104 11.7757C9.40111 11.7753 9.40115 11.7751 9.40116 11.775C9.40117 11.775 9.40117 11.775 9.40117 11.775C9.40116 11.775 9.40116 11.775 9.40115 11.7751C9.40115 11.7751 9.40114 11.7751 9.40114 11.7751C9.40114 11.7751 9.40113 11.7752 9.40113 11.7752C9.40113 11.7752 9.40113 11.7752 9.25354 11.7484C9.10595 11.7216 9.10595 11.7216 9.10594 11.7217C9.10594 11.7217 9.10594 11.7217 9.10593 11.7217C9.10593 11.7217 9.10592 11.7218 9.10592 11.7218C9.1059 11.7219 9.10589 11.722 9.10587 11.7221C9.10584 11.7222 9.1058 11.7225 9.10575 11.7227C9.10565 11.7233 9.10553 11.724 9.10539 11.7248C9.1051 11.7265 9.10472 11.7288 9.10426 11.7316C9.10335 11.7372 9.10215 11.745 9.10083 11.7546C9.0982 11.7737 9.09505 11.8003 9.09294 11.8305C9.08909 11.8856 9.08691 11.9733 9.11004 12.0493L9.39704 11.962ZM13.6815 6.3864H15.0595V6.0864H13.6815V6.3864ZM13.7644 6.36144L14.7428 5.7131L14.5771 5.46302L13.5987 6.11136L13.7644 6.36144ZM14.7749 5.68452L15.5419 4.77113L15.3121 4.57821L14.5451 5.4916L14.7749 5.68452ZM15.5638 4.73606L16.1408 3.44993L15.867 3.32714L15.2901 4.61328L15.5638 4.73606ZM14.4982 4.3411L16.0857 3.30908L15.9221 3.05756L14.3347 4.08957L14.4982 4.3411ZM15.8539 3.18332V3.38853H16.1539V3.18332H15.8539ZM5.87284 8.7168C5.72439 8.6953 5.72439 8.69531 5.72439 8.69532C5.72439 8.69534 5.72438 8.69536 5.72438 8.69538C5.72437 8.69543 5.72436 8.69549 5.72435 8.69557C5.72433 8.69574 5.72429 8.69598 5.72425 8.69629C5.72416 8.69692 5.72403 8.69784 5.72385 8.69905C5.72351 8.70147 5.72299 8.70504 5.72233 8.70971C5.72101 8.71905 5.71907 8.73279 5.71661 8.75052C5.71169 8.78598 5.70466 8.83742 5.69622 8.90159C5.67935 9.0299 5.6568 9.20925 5.63405 9.41355C5.58873 9.8207 5.54205 10.3324 5.53911 10.7368L5.83911 10.739C5.84192 10.3509 5.8871 9.852 5.93221 9.44674C5.95469 9.24484 5.97699 9.06752 5.99366 8.94071C6.002 8.87732 6.00893 8.82659 6.01376 8.79177C6.01618 8.77435 6.01807 8.76092 6.01935 8.75188C6.02 8.74736 6.02049 8.74393 6.02081 8.74165C6.02098 8.74051 6.0211 8.73966 6.02118 8.7391C6.02122 8.73882 6.02125 8.73862 6.02127 8.73848C6.02128 8.73842 6.02128 8.73837 6.02129 8.73834C6.02129 8.73833 6.02129 8.73832 6.02129 8.73831C6.02129 8.73831 6.02129 8.73831 5.87284 8.7168ZM5.90711 10.0155L5.98097 10.8924L6.27991 10.8672L6.20605 9.99035L5.90711 10.0155ZM5.98097 10.8924L5.99223 11.0261L6.29117 11.0009L6.27991 10.8672L5.98097 10.8924ZM6.65521 11.0549L6.18914 10.8995L6.09427 11.1842L6.56034 11.3395L6.65521 11.0549ZM5.9917 11.0135V11.0418H6.2917V11.0135H5.9917ZM9.60565 11.354V10.7379H9.30564V11.354H9.60565ZM9.48243 11.5646L9.57429 11.4458L9.337 11.2623L9.24513 11.381L9.48243 11.5646ZM9.54226 11.4765L9.63412 11.4115L9.4609 11.1666L9.36903 11.2316L9.54226 11.4765ZM9.57693 11.4362L10.0363 11.3443L9.97743 11.0501L9.5181 11.142L9.57693 11.4362ZM12.3857 11.1833L12.2653 10.7015L11.9743 10.7743L12.0947 11.256L12.3857 11.1833ZM11.936 11.9321C12.0311 12.0481 12.0312 12.0481 12.0312 12.0481C12.0312 12.0481 12.0312 12.0481 12.0312 12.0481C12.0313 12.0481 12.0313 12.048 12.0313 12.048C12.0314 12.0479 12.0315 12.0479 12.0316 12.0478C12.0318 12.0476 12.0321 12.0474 12.0324 12.0471C12.033 12.0466 12.0339 12.0459 12.0349 12.045C12.0371 12.0432 12.04 12.0407 12.0436 12.0376C12.0509 12.0314 12.0611 12.0225 12.0734 12.0113C12.0979 11.9892 12.1313 11.9576 12.1668 11.92C12.2332 11.8497 12.3247 11.7403 12.3641 11.6224L12.0796 11.5272C12.0624 11.5788 12.011 11.6481 11.9487 11.714C11.9198 11.7446 11.8923 11.7706 11.8721 11.789C11.862 11.7981 11.8538 11.8052 11.8484 11.8099C11.8456 11.8122 11.8436 11.8139 11.8423 11.815C11.8417 11.8155 11.8413 11.8159 11.841 11.8161C11.8409 11.8162 11.8408 11.8162 11.8408 11.8162C11.8408 11.8162 11.8408 11.8162 11.8409 11.8162C11.8409 11.8162 11.8409 11.8162 11.8409 11.8162C11.8409 11.8162 11.8409 11.8162 11.8409 11.8162C11.8409 11.8161 11.841 11.8161 11.936 11.9321ZM12.2402 11.2196C12.0912 11.2368 12.0912 11.2368 12.0912 11.2368C12.0912 11.2368 12.0912 11.2367 12.0912 11.2367C12.0912 11.2367 12.0912 11.2367 12.0912 11.2367C12.0912 11.2367 12.0912 11.2367 12.0912 11.2367C12.0912 11.2367 12.0912 11.2367 12.0912 11.2368C12.0912 11.237 12.0913 11.2375 12.0913 11.2381C12.0915 11.2393 12.0917 11.2413 12.0919 11.244C12.0925 11.2494 12.0932 11.2575 12.094 11.2678C12.0955 11.2885 12.0972 11.3174 12.0976 11.3498C12.0985 11.4194 12.0932 11.4868 12.0796 11.5272L12.3641 11.6224C12.3947 11.5312 12.3985 11.4209 12.3976 11.3459C12.3971 11.3059 12.395 11.2707 12.3931 11.2454C12.3922 11.2327 12.3913 11.2224 12.3905 11.215C12.3902 11.2113 12.3899 11.2084 12.3897 11.2063C12.3895 11.2052 12.3895 11.2044 12.3894 11.2038C12.3893 11.2034 12.3893 11.2032 12.3893 11.203C12.3893 11.2028 12.3893 11.2028 12.3893 11.2027C12.3893 11.2026 12.3893 11.2026 12.3892 11.2026C12.3892 11.2026 12.3892 11.2025 12.3892 11.2025C12.3892 11.2025 12.3892 11.2025 12.2402 11.2196ZM10.6499 12.2996C10.6351 12.4489 10.6351 12.4489 10.6351 12.4489C10.6351 12.4489 10.6351 12.4489 10.6351 12.4489C10.6352 12.4489 10.6352 12.4489 10.6352 12.4489C10.6353 12.4489 10.6354 12.4489 10.6355 12.4489C10.6357 12.4489 10.636 12.449 10.6363 12.449C10.637 12.4491 10.638 12.4492 10.6393 12.4493C10.6418 12.4495 10.6453 12.4498 10.6499 12.4502C10.659 12.451 10.6721 12.4521 10.6883 12.4534C10.7206 12.4558 10.7656 12.4587 10.8169 12.4606C10.9166 12.4644 11.0503 12.465 11.1592 12.4478L11.1123 12.1514C11.0338 12.1639 10.9245 12.1645 10.8282 12.1608C10.7815 12.1591 10.7402 12.1564 10.7107 12.1542C10.696 12.1531 10.6842 12.1521 10.6763 12.1514C10.6723 12.1511 10.6693 12.1508 10.6674 12.1506C10.6664 12.1505 10.6657 12.1504 10.6652 12.1504C10.665 12.1504 10.6649 12.1504 10.6648 12.1503C10.6647 12.1503 10.6647 12.1503 10.6647 12.1503C10.6647 12.1503 10.6647 12.1503 10.6647 12.1503C10.6647 12.1503 10.6647 12.1503 10.6647 12.1503C10.6647 12.1503 10.6647 12.1503 10.6499 12.2996ZM11.7437 12.2407L12.0193 12.0569L11.8528 11.8073L11.5772 11.9911L11.7437 12.2407ZM11.1592 12.4478C11.2838 12.428 11.428 12.3767 11.5342 12.3343C11.5887 12.3125 11.6362 12.2919 11.6701 12.2766C11.6871 12.269 11.7007 12.2627 11.7102 12.2583C11.715 12.256 11.7187 12.2543 11.7213 12.253C11.7226 12.2524 11.7236 12.2519 11.7244 12.2516C11.7247 12.2514 11.725 12.2513 11.7252 12.2512C11.7253 12.2511 11.7254 12.2511 11.7255 12.251C11.7255 12.251 11.7256 12.251 11.7256 12.251C11.7256 12.251 11.7256 12.251 11.7256 12.251C11.7256 12.251 11.7257 12.251 11.6604 12.1159C11.5952 11.9808 11.5952 11.9808 11.5953 11.9808C11.5953 11.9808 11.5953 11.9808 11.5953 11.9808C11.5953 11.9808 11.5953 11.9808 11.5953 11.9808C11.5953 11.9808 11.5952 11.9808 11.5952 11.9808C11.5951 11.9808 11.595 11.9809 11.5947 11.981C11.5943 11.9813 11.5935 11.9816 11.5925 11.9821C11.5905 11.9831 11.5873 11.9846 11.5832 11.9865C11.5749 11.9904 11.5626 11.996 11.5471 12.003C11.5162 12.0169 11.4727 12.0358 11.4229 12.0557C11.3203 12.0967 11.2021 12.1372 11.1123 12.1514L11.1592 12.4478ZM3.8906 11.5116C3.91067 11.5866 3.9458 11.6735 3.97345 11.7372C3.9877 11.7701 4.0008 11.7987 4.01035 11.8191C4.01514 11.8293 4.01906 11.8376 4.02183 11.8433C4.02321 11.8462 4.02431 11.8485 4.02507 11.85C4.02546 11.8508 4.02576 11.8515 4.02598 11.8519C4.02609 11.8521 4.02618 11.8523 4.02624 11.8524C4.02628 11.8525 4.0263 11.8526 4.02633 11.8526C4.02634 11.8526 4.02635 11.8526 4.02635 11.8527C4.02636 11.8527 4.02636 11.8527 4.02637 11.8527C4.02637 11.8527 4.02637 11.8527 4.16104 11.7866C4.2957 11.7206 4.2957 11.7206 4.29571 11.7206C4.29571 11.7206 4.29571 11.7206 4.29571 11.7206C4.29571 11.7206 4.29571 11.7206 4.29571 11.7206C4.29571 11.7206 4.29571 11.7206 4.2957 11.7205C4.29567 11.7205 4.29563 11.7204 4.29556 11.7203C4.29543 11.72 4.29522 11.7196 4.29493 11.719C4.29434 11.7178 4.29344 11.7159 4.29226 11.7134C4.28989 11.7085 4.2864 11.7012 4.28209 11.692C4.27344 11.6735 4.26155 11.6475 4.24867 11.6178C4.22209 11.5566 4.19445 11.4865 4.18041 11.434L3.8906 11.5116ZM4.16104 11.7866C4.01379 11.8152 4.01379 11.8153 4.0138 11.8153C4.0138 11.8153 4.0138 11.8153 4.01381 11.8153C4.01381 11.8153 4.01382 11.8154 4.01383 11.8154C4.01384 11.8155 4.01385 11.8156 4.01387 11.8156C4.0139 11.8158 4.01394 11.816 4.01398 11.8162C4.01406 11.8166 4.01417 11.8171 4.01429 11.8178C4.01454 11.819 4.01488 11.8206 4.01529 11.8225C4.01612 11.8264 4.0173 11.8316 4.01882 11.8379C4.02183 11.8504 4.02635 11.8677 4.03249 11.887C4.04303 11.9203 4.06454 11.9806 4.10382 12.0279L4.33467 11.8363C4.33485 11.8366 4.32727 11.8242 4.31847 11.7964C4.31494 11.7853 4.31225 11.775 4.31045 11.7676C4.30957 11.7639 4.30894 11.7611 4.30858 11.7594C4.30839 11.7585 4.30828 11.758 4.30823 11.7577C4.3082 11.7576 4.3082 11.7576 4.3082 11.7576C4.30821 11.7576 4.30822 11.7577 4.30823 11.7578C4.30824 11.7578 4.30825 11.7578 4.30825 11.7579C4.30826 11.7579 4.30826 11.7579 4.30827 11.7579C4.30827 11.758 4.30827 11.758 4.30828 11.758C4.30828 11.758 4.30828 11.758 4.16104 11.7866ZM4.10382 12.0279C4.15586 12.0906 4.23396 12.1248 4.27633 12.1412C4.30126 12.1508 4.32382 12.1578 4.34014 12.1625C4.34839 12.1649 4.35525 12.1667 4.36029 12.168C4.36282 12.1686 4.3649 12.1691 4.36649 12.1695C4.36728 12.1697 4.36795 12.1699 4.36849 12.17C4.36876 12.1701 4.36899 12.1701 4.3692 12.1702C4.3693 12.1702 4.36939 12.1702 4.36948 12.1702C4.36952 12.1702 4.36956 12.1702 4.3696 12.1702C4.36962 12.1702 4.36965 12.1703 4.36966 12.1703C4.36968 12.1703 4.36971 12.1703 4.40298 12.024C4.43624 11.8777 4.43627 11.8777 4.43629 11.8778C4.4363 11.8778 4.43632 11.8778 4.43634 11.8778C4.43637 11.8778 4.4364 11.8778 4.43642 11.8778C4.43648 11.8778 4.43652 11.8778 4.43656 11.8778C4.43664 11.8778 4.43668 11.8778 4.4367 11.8778C4.43674 11.8779 4.43666 11.8778 4.43646 11.8778C4.43608 11.8777 4.43527 11.8775 4.43407 11.8772C4.43166 11.8766 4.42778 11.8756 4.4228 11.8741C4.41267 11.8712 4.39891 11.8669 4.38431 11.8613C4.36939 11.8555 4.35593 11.8493 4.34543 11.8431C4.33393 11.8364 4.33217 11.8333 4.33467 11.8363L4.10382 12.0279ZM4.33589 12.1582L4.61149 12.296L4.74566 12.0276L4.47006 11.8898L4.33589 12.1582ZM4.64041 12.3069L5.16418 12.4447L5.24051 12.1545L4.71674 12.0167L4.64041 12.3069ZM5.17955 12.4479L5.66632 12.5227L5.7119 12.2262L5.22514 12.1513L5.17955 12.4479ZM5.68911 12.5244H6.09047V12.2244H5.68911V12.5244ZM6.10875 12.5233L6.2509 12.5059L6.21432 12.2081L6.07218 12.2256L6.10875 12.5233ZM6.23261 12.357C6.22578 12.5068 6.2258 12.5068 6.22582 12.5068C6.22583 12.5068 6.22585 12.5068 6.22587 12.5068C6.22591 12.5068 6.22595 12.5068 6.22599 12.5068C6.22608 12.5068 6.22618 12.5068 6.22631 12.5068C6.22656 12.5069 6.22688 12.5069 6.22727 12.5069C6.22806 12.5069 6.22912 12.507 6.23046 12.507C6.23313 12.5071 6.23688 12.5072 6.24161 12.5074C6.25107 12.5076 6.26446 12.5079 6.28095 12.508C6.31381 12.5082 6.35952 12.5076 6.41114 12.5046C6.50937 12.499 6.64784 12.4839 6.75754 12.438L6.64174 12.1612C6.58193 12.1863 6.48688 12.1998 6.39398 12.2051C6.35003 12.2077 6.31077 12.2081 6.28255 12.208C6.2685 12.2079 6.25732 12.2077 6.24984 12.2075C6.24611 12.2074 6.2433 12.2073 6.24153 12.2072C6.24065 12.2072 6.24002 12.2072 6.23967 12.2071C6.23949 12.2071 6.23939 12.2071 6.23935 12.2071C6.23933 12.2071 6.23933 12.2071 6.23934 12.2071C6.23935 12.2071 6.23936 12.2071 6.23938 12.2071C6.23939 12.2071 6.23941 12.2071 6.23941 12.2071C6.23943 12.2071 6.23944 12.2071 6.23261 12.357ZM6.08394 12.337L5.99303 13.0146L6.29037 13.0545L6.38128 12.3769L6.08394 12.337ZM5.53911 10.7368C5.53892 10.7633 5.53585 10.7682 5.53152 10.8132C5.5277 10.853 5.52718 10.9024 5.54661 10.9615L5.83161 10.8679C5.82948 10.8614 5.8287 10.8569 5.83015 10.8419C5.83136 10.8294 5.83239 10.824 5.83486 10.8027C5.83689 10.7853 5.83893 10.7638 5.83911 10.739L5.53911 10.7368ZM5.54661 10.9615C5.57907 11.0603 5.65637 11.1155 5.72298 11.1452C5.78929 11.1747 5.86233 11.1873 5.92284 11.193C5.98497 11.1989 6.04356 11.1983 6.08578 11.1964C6.10715 11.1954 6.12493 11.1941 6.13763 11.193C6.144 11.1924 6.14912 11.1919 6.15282 11.1915C6.15467 11.1913 6.15617 11.1912 6.15729 11.191C6.15785 11.191 6.15832 11.1909 6.15869 11.1909C6.15888 11.1909 6.15904 11.1908 6.15918 11.1908C6.15924 11.1908 6.15931 11.1908 6.15936 11.1908C6.15939 11.1908 6.15943 11.1908 6.15944 11.1908C6.15948 11.1908 6.15951 11.1908 6.1417 11.0418C6.12389 10.8929 6.12392 10.8929 6.12395 10.8929C6.12396 10.8929 6.12399 10.8929 6.12401 10.8929C6.12404 10.8929 6.12406 10.8929 6.12408 10.8929C6.12413 10.8929 6.12414 10.8929 6.12414 10.8929C6.12413 10.8929 6.12403 10.8929 6.12384 10.8929C6.12346 10.893 6.12274 10.893 6.12168 10.8931C6.11956 10.8934 6.11614 10.8937 6.11158 10.8941C6.10244 10.8949 6.0889 10.8959 6.07231 10.8967C6.03863 10.8982 5.99482 10.8985 5.95097 10.8943C5.90549 10.8901 5.86897 10.8818 5.84504 10.8711C5.82142 10.8606 5.82782 10.8563 5.83161 10.8679L5.54661 10.9615ZM6.75756 12.438L6.75994 12.437L6.64411 12.1602L6.64173 12.1612L6.75756 12.438ZM6.75992 12.437C6.87844 12.3874 6.98848 12.3432 7.09365 12.208L6.85684 12.0238C6.80424 12.0914 6.76156 12.1111 6.64413 12.1602L6.75992 12.437Z" fill="white"/>
</svg>
