<svg width="15" height="10" viewBox="0 0 15 10" fill="none" xmlns="http://www.w3.org/2000/svg">
<path d="M2.90443 8.24104C2.76 8.03676 2.68238 7.79217 2.68238 7.54133V7.13794C2.68238 6.59335 3.12045 6.15186 3.66083 6.15186L5.36085 6.1518V5.97525L5.09797 5.75941L4.86387 5.55217L4.62322 5.30563L4.57222 5.24674L4.44535 5.0591L4.30934 4.81256L3.53911 4.81253H3.46252L0.982362 4.81263C0.441976 4.81263 0.00390625 5.25411 0.00390625 5.79871V6.20209C0.00390625 6.45293 0.081528 6.69752 0.22596 6.90181C0.813578 7.73293 1.72849 8.19674 2.9465 8.29916C2.93229 8.27999 2.91827 8.26062 2.90443 8.24104Z" fill="#1B291F"/>
<path d="M6.55675 1.68061C5.46316 1.68942 4.57934 2.58557 4.57934 3.68976C4.57934 4.79394 5.46316 5.69009 6.55675 5.6989C7.65034 5.69009 8.53416 4.79394 8.53416 3.68976C8.53416 2.58557 7.65034 1.68942 6.55675 1.68061Z" fill="#4285F4"/>
<path fill-rule="evenodd" clip-rule="evenodd" d="M6.57302 9.71595L6.59184 9.71564C6.58313 9.705 6.5746 9.6942 6.56628 9.68324L6.55675 9.6705L6.54722 9.68324C6.5389 9.6942 6.53037 9.705 6.52166 9.71564L6.54047 9.71595L6.55675 9.71585L6.57302 9.71595ZM6.55675 6.5458L6.56616 6.53322C6.57452 6.5222 6.58308 6.51135 6.59184 6.50066H6.52166C6.53041 6.51135 6.53898 6.5222 6.54734 6.53322L6.55675 6.5458ZM6.55675 1.68061C7.65034 1.68942 8.53416 2.58557 8.53416 3.68976C8.53416 4.79394 7.65034 5.69009 6.55675 5.6989C5.46316 5.69009 4.57934 4.79394 4.57934 3.68976C4.57934 2.58557 5.46316 1.68942 6.55675 1.68061Z" fill="#4285F4"/>
<path fill-rule="evenodd" clip-rule="evenodd" d="M6.52166 6.50066L4.2487 6.50075C3.75347 6.50075 3.35199 6.90535 3.35199 7.40445V7.77413C3.35199 8.00401 3.42313 8.22817 3.5555 8.41539C4.17041 9.28511 5.17641 9.71595 6.54047 9.71595L6.52166 9.71564C6.53037 9.705 6.5389 9.6942 6.54722 9.68324L6.55675 9.6705C6.42126 9.48665 6.34111 9.25891 6.34111 9.0123V7.20401L6.34455 7.1158C6.36121 6.90319 6.43757 6.70752 6.55675 6.5458L6.54734 6.53322C6.53898 6.5222 6.53041 6.51135 6.52166 6.50066ZM6.38838 6.86009L5.77913 6.50179L5.76685 7.19757L6.38838 6.86009Z" fill="#4285F4"/>
<path d="M8.69847 4.81256L8.56246 5.0591L8.4356 5.24674L8.38459 5.30563L8.14395 5.55217L7.90984 5.75941L7.64696 5.97525V6.1518L9.05483 6.15185L9.08734 4.81255L8.69847 4.81256Z" fill="#1B291F"/>
<path fill-rule="evenodd" clip-rule="evenodd" d="M6.59184 6.50066C6.58308 6.51135 6.57452 6.5222 6.56616 6.53322L6.55675 6.5458C6.67592 6.70752 6.75229 6.90319 6.76895 7.1158L6.77239 7.20401V9.0123C6.77239 9.25891 6.69224 9.48665 6.55675 9.6705L6.56628 9.68324C6.5746 9.6942 6.58313 9.705 6.59184 9.71564L6.57302 9.71595C7.93709 9.71595 8.94309 9.28511 9.558 8.41539C9.61348 8.33692 9.6582 8.25197 9.69143 8.16283C9.65371 8.1279 9.62175 8.08711 9.59704 8.04154C9.47524 7.81688 9.33062 7.53227 9.2185 7.25922C9.10031 6.97142 9.04036 6.74769 9.04334 6.62484L9.04591 6.51919C8.98741 6.5071 8.92684 6.50075 8.86479 6.50075L6.59184 6.50066ZM6.72512 6.86009L7.33437 6.50179L7.34665 7.19757L6.72512 6.86009Z" fill="#4285F4"/>
<path d="M12.0674 7.84282C12.3236 7.50736 12.6169 7.20195 12.9417 6.93233L13.3822 6.56666C13.3903 6.55995 13.3988 6.55361 13.4075 6.54767L13.5914 6.4227C13.5705 6.63048 13.4964 6.83001 13.3754 7.00123C12.9949 7.53938 12.4772 7.92354 11.8288 8.1553L12.0674 7.84282Z" fill="#1B291F"/>
<path d="M4.22488 4.30241C4.13631 4.06357 4.08789 3.80499 4.08789 3.53502C4.08789 2.5356 4.75146 1.69237 5.65881 1.42839C5.38532 0.690873 4.72903 0.141547 3.93357 0.0259567C3.91651 0.0241986 3.89805 0.0223436 3.87962 0.0205122C3.90929 0.0250006 3.93877 0.0300932 3.96804 0.035777C3.94403 0.0347903 3.8614 0.0289939 3.77176 0.0227049L3.68177 0.0164176C3.6007 0.0108012 3.52813 0.00597575 3.50357 0.00524749L3.49635 0.00518474C3.46868 0.0063002 3.44116 0.00793618 3.41377 0.0100832C3.38983 0.00742358 3.36764 0.00544055 3.34919 0.00476393L3.31951 0.00517118C2.21132 0.10645 1.34307 1.04529 1.34307 2.1885C1.34307 3.34034 2.22447 4.28471 3.34464 4.37398C3.26765 4.36545 3.19176 4.35383 3.11741 4.33743L3.34464 4.37398C3.34738 4.37428 3.35011 4.37478 3.35284 4.3753L3.36245 4.37684C3.40671 4.38137 3.45135 4.38456 3.49635 4.38638H3.70888C3.88724 4.37919 4.06008 4.35035 4.22488 4.30241Z" fill="#1B291F"/>
<path d="M13.1484 4.41618L13.1382 4.41295C13.0466 4.38435 12.9492 4.36894 12.8483 4.36894L12.7659 4.36894L12.7443 5.25746L12.9228 5.183C12.9228 5.183 13.1015 5.08935 13.2263 5.06556C13.3562 5.04082 13.5649 5.06556 13.5649 5.06556H13.7206L13.7778 5.04633C13.6803 4.74794 13.4453 4.5125 13.1484 4.41618Z" fill="#303231"/>
<path d="M11.6647 2.1885C11.6647 1.04529 10.7965 0.10645 9.6883 0.00517118L9.65863 0.00476393C9.64017 0.00544055 9.61799 0.00742357 9.59404 0.0100832C9.56666 0.00793617 9.53913 0.0063002 9.51147 0.00518474L9.50424 0.00524749C9.47968 0.00597575 9.40711 0.0108012 9.32605 0.0164176L9.23604 0.022706C9.1464 0.0289946 9.06378 0.0347903 9.03977 0.035777C9.06904 0.0300931 9.09852 0.0250005 9.1282 0.020512L9.07424 0.0259566C8.27878 0.141547 7.62249 0.690872 7.349 1.42839C8.25635 1.69237 8.91992 2.5356 8.91992 3.53502C8.91992 3.80499 8.8715 4.06357 8.78293 4.30241C8.8851 4.33213 8.99036 4.35451 9.09811 4.36894C9.09811 4.36894 9.06607 4.22206 9.09811 4.13758C9.09811 4.13758 9.18291 3.86732 9.2185 3.68976C9.24729 3.54611 9.27284 3.31856 9.27284 3.31856C9.27284 3.31856 9.43768 3.09438 9.59404 3.07371C9.71261 3.05804 9.89041 3.15092 9.89041 3.15092H10.0039L10.113 2.9193C10.113 2.9193 10.1944 2.7056 10.3086 2.63253C10.4256 2.55762 10.6602 2.57738 10.6602 2.57738L10.8684 2.70974H11.0039C11.0039 2.70974 11.0194 2.52521 11.0934 2.44503C11.1684 2.36388 11.3539 2.33473 11.3539 2.33473L11.6559 2.38706C11.6618 2.32166 11.6647 2.25543 11.6647 2.1885Z" fill="#303231"/>
<path d="M11.3868 2.75744C11.3674 2.77756 11.3552 2.80693 11.3545 2.83491L11.3474 3.1272C11.3475 3.14178 11.3472 3.15639 11.3464 3.171L11.3065 4.81281C11.3021 4.9948 11.151 5.13876 10.969 5.13434C10.787 5.12992 10.643 4.9788 10.6474 4.79681L10.688 3.12647C10.6867 3.11025 10.6796 3.0897 10.6636 3.0717C10.6476 3.05362 10.6223 3.03766 10.5803 3.03664C10.5384 3.03562 10.5154 3.04958 10.5001 3.06548C10.4809 3.0854 10.4685 3.11495 10.4677 3.1439L10.4224 5.0114C10.418 5.1934 10.2669 5.33735 10.0849 5.33293C9.90289 5.32852 9.75893 5.1774 9.76335 4.9954L9.79536 3.67703C9.79605 3.64846 9.78517 3.61834 9.76676 3.59733C9.752 3.58048 9.72964 3.56553 9.68818 3.56452C9.64672 3.56351 9.62366 3.57737 9.6081 3.59348C9.5887 3.61357 9.57636 3.64312 9.57567 3.6717L9.51167 6.30794C9.50868 6.43079 9.56863 6.65453 9.68682 6.94232C9.79894 7.21537 9.94356 7.49999 10.0654 7.72465C10.148 7.87701 10.3117 7.97599 10.5006 7.98058L11.2206 7.99806C11.3965 8.00233 11.5638 7.92211 11.6705 7.7823L11.9422 7.42651C12.1985 7.09105 12.4917 6.78563 12.8165 6.51602L13.257 6.15035C13.2652 6.14364 13.2736 6.1373 13.2823 6.13135L13.9007 5.71105C13.8502 5.53044 13.6985 5.42067 13.4916 5.41564C13.2117 5.40885 13.0086 5.57972 12.9403 5.63719C12.9349 5.6417 12.9304 5.64551 12.9267 5.64848C12.8268 5.72931 12.6891 5.74474 12.5738 5.688C12.4585 5.63126 12.3867 5.5127 12.3898 5.38425L12.443 3.19177C12.4437 3.16214 12.4326 3.13189 12.4147 3.11131C12.4005 3.09505 12.379 3.08031 12.3378 3.07931C12.2959 3.07829 12.2729 3.09225 12.2575 3.10809C12.2384 3.12786 12.226 3.15727 12.2252 3.18648L12.1852 4.83414C12.1808 5.01614 12.0297 5.16009 11.8477 5.15568C11.6657 5.15126 11.5218 5.00014 11.5262 4.81814L11.5742 2.84024C11.5749 2.81226 11.5642 2.78233 11.5457 2.7613C11.5309 2.74442 11.5085 2.72945 11.467 2.72844C11.4255 2.72743 11.4024 2.7413 11.3868 2.75744Z" fill="#4285F4"/>
<path d="M11.3868 2.75744C11.3674 2.77756 11.3552 2.80693 11.3545 2.83491L11.3474 3.1272C11.3475 3.14178 11.3472 3.15639 11.3464 3.171L11.3065 4.81281C11.3021 4.9948 11.151 5.13876 10.969 5.13434C10.787 5.12992 10.643 4.9788 10.6474 4.79681L10.688 3.12647C10.6867 3.11025 10.6796 3.0897 10.6636 3.0717C10.6476 3.05362 10.6223 3.03766 10.5803 3.03664C10.5384 3.03562 10.5154 3.04958 10.5001 3.06548C10.4809 3.0854 10.4685 3.11495 10.4677 3.1439L10.4224 5.0114C10.418 5.1934 10.2669 5.33735 10.0849 5.33293C9.90289 5.32852 9.75893 5.1774 9.76335 4.9954L9.79536 3.67703C9.79605 3.64846 9.78517 3.61834 9.76676 3.59733C9.752 3.58048 9.72964 3.56553 9.68818 3.56452C9.64672 3.56351 9.62366 3.57737 9.6081 3.59348C9.5887 3.61357 9.57636 3.64312 9.57567 3.6717L9.51167 6.30794C9.50868 6.43079 9.56863 6.65453 9.68682 6.94232C9.79894 7.21537 9.94356 7.49999 10.0654 7.72465C10.148 7.87701 10.3117 7.97599 10.5006 7.98058L11.2206 7.99806C11.3965 8.00233 11.5638 7.92211 11.6705 7.7823L11.9422 7.42651C12.1985 7.09105 12.4917 6.78563 12.8165 6.51602L13.257 6.15035C13.2652 6.14364 13.2736 6.1373 13.2823 6.13135L13.9007 5.71105C13.8502 5.53044 13.6985 5.42067 13.4916 5.41564C13.2117 5.40885 13.0086 5.57972 12.9403 5.63719L12.9267 5.64848C12.8268 5.72931 12.6891 5.74474 12.5738 5.688C12.4585 5.63126 12.3867 5.5127 12.3898 5.38425L12.443 3.19177C12.4437 3.16214 12.4326 3.13189 12.4147 3.11131C12.4005 3.09505 12.379 3.08031 12.3378 3.07931C12.2959 3.07829 12.2729 3.09225 12.2575 3.10809C12.2384 3.12786 12.226 3.15727 12.2252 3.18648L12.1852 4.83414C12.1808 5.01614 12.0297 5.16009 11.8477 5.15568C11.6657 5.15126 11.5218 5.00014 11.5262 4.81814L11.5742 2.84024C11.5749 2.81226 11.5642 2.78233 11.5457 2.7613C11.5309 2.74442 11.5085 2.72945 11.467 2.72844C11.4255 2.72743 11.4024 2.7413 11.3868 2.75744Z" fill="#4285F4"/>
<path d="M12.9403 5.63719C13.0086 5.57972 13.2117 5.40885 13.4916 5.41564C13.6985 5.42067 13.8502 5.53044 13.9007 5.71105L13.2823 6.13135C13.2736 6.1373 13.2652 6.14364 13.257 6.15035L12.8165 6.51602C12.4917 6.78563 12.1985 7.09105 11.9422 7.42651L11.6705 7.7823C11.5638 7.92211 11.3965 8.00233 11.2206 7.99806L10.5006 7.98058C10.3117 7.97599 10.148 7.87701 10.0654 7.72465C9.94356 7.49999 9.79894 7.21537 9.68682 6.94232C9.56863 6.65453 9.50868 6.43079 9.51167 6.30794L9.57567 3.6717C9.57636 3.64312 9.5887 3.61357 9.6081 3.59348C9.62366 3.57737 9.64672 3.56351 9.68818 3.56452C9.72964 3.56553 9.752 3.58048 9.76676 3.59733C9.78517 3.61834 9.79605 3.64846 9.79536 3.67703L9.76335 4.9954C9.75893 5.1774 9.90289 5.32852 10.0849 5.33293C10.2669 5.33735 10.418 5.1934 10.4224 5.0114L10.4677 3.1439C10.4685 3.11495 10.4809 3.0854 10.5001 3.06548C10.5154 3.04958 10.5384 3.03562 10.5803 3.03664C10.6223 3.03766 10.6476 3.05362 10.6636 3.0717C10.6796 3.0897 10.6867 3.11025 10.688 3.12647L10.6474 4.79681C10.643 4.9788 10.787 5.12992 10.969 5.13434C11.151 5.13876 11.3021 4.9948 11.3065 4.81281L11.3464 3.171C11.3472 3.15639 11.3475 3.14178 11.3474 3.1272L11.3545 2.83491C11.3552 2.80693 11.3674 2.77756 11.3868 2.75744C11.4024 2.7413 11.4255 2.72743 11.467 2.72844C11.5085 2.72945 11.5309 2.74442 11.5457 2.7613C11.5642 2.78233 11.5749 2.81226 11.5742 2.84024L11.5262 4.81814C11.5218 5.00014 11.6657 5.15126 11.8477 5.15568C12.0297 5.16009 12.1808 5.01614 12.1852 4.83414L12.2252 3.18648C12.226 3.15727 12.2384 3.12786 12.2575 3.10809C12.2729 3.09225 12.2959 3.07829 12.3378 3.07931C12.379 3.08031 12.4005 3.09505 12.4147 3.11131C12.4326 3.13189 12.4437 3.16214 12.443 3.19177L12.3898 5.38425C12.3867 5.5127 12.4585 5.63126 12.5738 5.688C12.6891 5.74474 12.8268 5.72931 12.9267 5.64848M12.9403 5.63719C12.9349 5.6417 12.9304 5.64551 12.9267 5.64848M12.9403 5.63719L12.9267 5.64848" stroke="#4285F4" stroke-width="0.3"/>
</svg>
