<svg width="17" height="13" viewBox="0 0 17 13" fill="none" xmlns="http://www.w3.org/2000/svg">
<path d="M5.26066 8.09459L4.95661 8.19595L4.38904 8.09459C4.38904 8.09459 4.39203 8.35072 4.44985 8.5C4.52133 8.68454 4.75391 8.90541 4.75391 8.90541L5.94628 9.91892C5.94628 9.91892 6.36326 10.5359 6.78093 10.6284C6.97415 10.6712 7.09589 10.6771 7.28769 10.6284C7.51136 10.5715 7.64425 10.4996 7.79445 10.3243C7.90964 10.1899 7.98048 10.0951 7.99715 9.91892C8.01252 9.75645 7.96354 9.66198 7.8958 9.51351C7.83656 9.38368 7.6931 9.20946 7.6931 9.20946L6.37553 7.99324C6.37553 7.99324 6.23825 7.88138 6.17283 7.79054C6.12519 7.72441 6.07147 7.60811 6.07147 7.60811C6.07147 7.60811 5.604 7.95868 5.26066 8.09459Z" fill="#1B291F"/>
<path d="M12.1526 8.19595C12.1526 8.19595 11.9658 8.21447 11.8485 8.19595C11.7249 8.17643 11.5444 8.09459 11.5444 8.09459L10.7843 7.63851L10.5309 7.89189L9.72012 8.60135C9.72012 8.60135 9.23577 8.92226 9.01066 9.20946C8.92263 9.32178 8.85596 9.37912 8.80796 9.51351C8.7414 9.69989 8.77192 9.82568 8.80796 10.0203C8.84677 10.2299 8.87298 10.3643 9.01066 10.527C9.18217 10.7297 9.35425 10.8082 9.61877 10.8311C9.81984 10.8485 9.93743 10.8029 10.1255 10.7297C10.5115 10.5796 10.9138 10.0203 10.9138 10.0203C10.9138 10.0203 11.7677 9.43025 12.1526 8.90541C12.2369 8.79032 12.3099 8.73666 12.3553 8.60135C12.4104 8.43681 12.3553 8.15697 12.3553 8.15697L12.1526 8.19595Z" fill="#1B291F"/>
<path d="M12.0512 6.37162C12.1691 6.38534 12.3553 6.37162 12.3553 6.37162L14.1796 6.06757C14.1796 6.06757 14.5098 6.0712 14.6863 6.16892C14.9081 6.29163 15.0106 6.43559 15.0917 6.67568C15.1678 6.90065 15.1736 7.06087 15.0917 7.28378C15.0235 7.46955 14.7877 7.68919 14.7877 7.68919L12.3553 8.15697C12.3553 8.15697 12.4104 8.43681 12.3553 8.60135C12.3099 8.73666 12.2369 8.79032 12.1526 8.90541C11.7677 9.43025 10.9138 10.0203 10.9138 10.0203V11.6419C10.9138 11.6419 12.8485 11.9903 14.0039 11.6419C14.86 11.3837 16.0039 10.527 16.0039 10.527V6.37162C16.0039 6.37162 15.9062 6.05038 15.8012 5.86487C15.6764 5.64428 15.5989 5.50964 15.3958 5.35811C15.2539 5.25228 15.1574 5.21399 14.9904 5.15541C14.7632 5.07572 14.3823 5.05405 14.3823 5.05405H13.4701H12.558C12.558 5.05405 12.1124 5.06226 11.8485 5.15541C11.6816 5.21432 11.585 5.25228 11.4431 5.35811C11.2745 5.48389 11.0884 5.76351 11.0884 5.76351C11.0884 5.76351 11.6095 6.32024 12.0512 6.37162Z" fill="#1B291F"/>
<path d="M3.33499 5.15541C4.45448 5.15541 5.36201 4.24787 5.36201 3.12838C5.36201 2.00888 4.45448 1.10135 3.33499 1.10135C2.21549 1.10135 1.30796 2.00888 1.30796 3.12838C1.30796 4.24787 2.21549 5.15541 3.33499 5.15541Z" fill="#1B291F"/>
<path d="M13.4701 5.05405C14.5896 5.05405 15.4971 4.14652 15.4971 3.02703C15.4971 1.90753 14.5896 1 13.4701 1C12.3506 1 11.4431 1.90753 11.4431 3.02703C11.4431 4.14652 12.3506 5.05405 13.4701 5.05405Z" fill="#1B291F"/>
<path fill-rule="evenodd" clip-rule="evenodd" d="M1.00391 6.37162C1.00391 6.37162 1.11956 5.89747 1.30796 5.66216C1.54134 5.37068 2.11877 5.15541 2.11877 5.15541H3.33499H3.53769C3.53769 5.15541 4.30211 5.00888 4.75391 5.15541C5.10909 5.2706 5.62231 5.76351 5.62231 5.76351L5.61923 5.76648C5.50888 5.87275 5.37784 5.98923 5.26066 6.06757C5.22682 6.0902 5.1952 6.11196 5.16499 6.13277C4.99816 6.24763 4.87403 6.3331 4.65255 6.37162C4.49658 6.39875 4.24715 6.37162 4.24715 6.37162L2.42283 6.06757L2.11877 6.16892C2.11877 6.16892 1.91126 6.26653 1.81472 6.37162C1.67052 6.52858 1.62453 6.6656 1.61201 6.87838C1.59731 7.12827 1.64483 7.30264 1.81472 7.48649C1.91157 7.5913 2.11877 7.68919 2.11877 7.68919L4.38904 8.09459C4.38904 8.09459 4.39203 8.35072 4.44985 8.5C4.52133 8.68454 4.75391 8.90541 4.75391 8.90541L5.94628 9.91892V11.6419L5.95275 11.7431L5.94628 11.7432C5.94628 11.7432 4.33281 11.9537 3.33499 11.7432C2.36369 11.5384 1.00391 10.7297 1.00391 10.7297V6.37162ZM5.86877 5.51014L5.64254 5.74389L5.62231 5.76351C5.62914 5.75693 5.63588 5.75038 5.64254 5.74389C5.77273 5.61693 5.86877 5.51014 5.86877 5.51014Z" fill="#1B291F"/>
<path d="M7.38904 4.9527L6.57823 5.15541L5.86877 5.51014C5.86877 5.51014 5.77273 5.61693 5.64254 5.74389L5.62231 5.76351L5.61923 5.76648C5.50888 5.87275 5.37784 5.98923 5.26066 6.06757C5.22682 6.0902 5.1952 6.11196 5.16499 6.13277C4.99816 6.24763 4.87403 6.3331 4.65255 6.37162C4.49658 6.39875 4.24715 6.37162 4.24715 6.37162L2.42283 6.06757L2.11877 6.16892C2.11877 6.16892 1.91126 6.26653 1.81472 6.37162C1.67052 6.52858 1.62453 6.6656 1.61201 6.87838C1.59731 7.12827 1.64483 7.30264 1.81472 7.48649C1.91157 7.5913 2.11877 7.68919 2.11877 7.68919L4.38904 8.09459L4.95661 8.19595L5.26066 8.09459C5.604 7.95868 6.07147 7.60811 6.07147 7.60811C6.07147 7.60811 6.12519 7.72441 6.17283 7.79054C6.23825 7.88138 6.37553 7.99324 6.37553 7.99324L7.6931 9.20946C7.6931 9.20946 7.83656 9.38368 7.8958 9.51351C7.96354 9.66198 8.01252 9.75645 7.99715 9.91892C7.98048 10.0951 7.90964 10.1899 7.79445 10.3243C7.64425 10.4996 7.51136 10.5715 7.28769 10.6284C7.09589 10.6771 6.97415 10.6712 6.78093 10.6284C6.36326 10.5359 5.94628 9.91892 5.94628 9.91892V11.6419L5.95275 11.7431L10.9138 11.6419V10.0203C10.9138 10.0203 10.5115 10.5796 10.1255 10.7297C9.93743 10.8029 9.81984 10.8485 9.61877 10.8311C9.35425 10.8082 9.18217 10.7297 9.01066 10.527C8.87298 10.3643 8.84677 10.2299 8.80796 10.0203C8.77192 9.82568 8.7414 9.69989 8.80796 9.51351C8.85596 9.37912 8.92263 9.32178 9.01066 9.20946C9.23577 8.92226 9.72012 8.60135 9.72012 8.60135L10.5309 7.89189L10.7843 7.63851L11.5444 8.09459C11.5444 8.09459 11.7249 8.17643 11.8485 8.19595C11.9658 8.21447 12.1526 8.19595 12.1526 8.19595L12.3553 8.15697L14.7877 7.68919C14.7877 7.68919 15.0235 7.46955 15.0917 7.28378C15.1736 7.06087 15.1678 6.90065 15.0917 6.67568C15.0106 6.43559 14.9081 6.29163 14.6863 6.16892C14.5098 6.0712 14.1796 6.06757 14.1796 6.06757L12.3553 6.37162C12.3553 6.37162 12.1691 6.38534 12.0512 6.37162C11.6095 6.32024 11.0884 5.76351 11.0884 5.76351C11.0884 5.76351 10.5368 5.32455 10.1255 5.15541C9.85903 5.04581 9.41607 4.9527 9.41607 4.9527H9.03725C8.8376 5.01847 8.62423 5.05405 8.40255 5.05405C8.18088 5.05405 7.96751 5.01847 7.76786 4.9527H7.38904Z" fill="#4285F4"/>
<path d="M8.40255 1C7.28306 1 6.37553 1.90753 6.37553 3.02703C6.37553 3.92485 6.95923 4.68634 7.76786 4.9527C7.96751 5.01847 8.18088 5.05405 8.40255 5.05405C8.62423 5.05405 8.8376 5.01847 9.03725 4.9527C9.84587 4.68634 10.4296 3.92485 10.4296 3.02703C10.4296 1.90753 9.52205 1 8.40255 1Z" fill="#4285F4"/>
<path d="M3.33499 5.15541C4.45448 5.15541 5.36201 4.24787 5.36201 3.12838C5.36201 2.00888 4.45448 1.10135 3.33499 1.10135C2.21549 1.10135 1.30796 2.00888 1.30796 3.12838C1.30796 4.24787 2.21549 5.15541 3.33499 5.15541ZM3.33499 5.15541H3.53769M3.33499 5.15541H2.11877M13.4701 5.05405C14.5896 5.05405 15.4971 4.14652 15.4971 3.02703C15.4971 1.90753 14.5896 1 13.4701 1C12.3506 1 11.4431 1.90753 11.4431 3.02703C11.4431 4.14652 12.3506 5.05405 13.4701 5.05405ZM13.4701 5.05405H14.3823M13.4701 5.05405H12.558M2.11877 5.15541C2.11877 5.15541 1.54134 5.37068 1.30796 5.66216C1.11956 5.89747 1.00391 6.37162 1.00391 6.37162V10.7297C1.00391 10.7297 2.36369 11.5384 3.33499 11.7432C4.33281 11.9537 5.94628 11.7432 5.94628 11.7432L5.95275 11.7431M2.11877 5.15541H3.53769M3.53769 5.15541C3.53769 5.15541 4.30211 5.00888 4.75391 5.15541C5.10909 5.2706 5.62231 5.76351 5.62231 5.76351M5.62231 5.76351L5.61923 5.76648M5.62231 5.76351C5.62914 5.75693 5.63588 5.75038 5.64254 5.74389M5.62231 5.76351L5.64254 5.74389M5.86877 5.51014L6.57823 5.15541L7.38904 4.9527H7.76786M5.86877 5.51014C5.86877 5.51014 5.77273 5.61693 5.64254 5.74389M5.86877 5.51014L5.64254 5.74389M4.38904 8.09459L4.95661 8.19595L5.26066 8.09459C5.604 7.95868 6.07147 7.60811 6.07147 7.60811M4.38904 8.09459L2.11877 7.68919C2.11877 7.68919 1.91157 7.5913 1.81472 7.48649C1.64483 7.30264 1.59731 7.12827 1.61201 6.87838C1.62453 6.6656 1.67052 6.52858 1.81472 6.37162C1.91126 6.26653 2.11877 6.16892 2.11877 6.16892L2.42283 6.06757L4.24715 6.37162C4.24715 6.37162 4.49658 6.39875 4.65255 6.37162C4.87403 6.3331 4.99816 6.24763 5.16499 6.13277C5.1952 6.11196 5.22682 6.0902 5.26066 6.06757C5.37784 5.98923 5.50888 5.87275 5.61923 5.76648M4.38904 8.09459C4.38904 8.09459 4.39203 8.35072 4.44985 8.5C4.52133 8.68454 4.75391 8.90541 4.75391 8.90541L5.94628 9.91892M6.78093 7.18243L6.07147 7.60811M6.07147 7.60811C6.07147 7.60811 6.12519 7.72441 6.17283 7.79054C6.23825 7.88138 6.37553 7.99324 6.37553 7.99324L7.6931 9.20946C7.6931 9.20946 7.83655 9.38368 7.8958 9.51351C7.96354 9.66198 8.01252 9.75645 7.99715 9.91892C7.98048 10.0951 7.90964 10.1899 7.79445 10.3243C7.64425 10.4996 7.51136 10.5715 7.28769 10.6284C7.09589 10.6771 6.97415 10.6712 6.78093 10.6284C6.36326 10.5359 5.94628 9.91892 5.94628 9.91892M5.94628 9.91892V11.6419L5.95275 11.7431M10.7843 7.63851L11.5444 8.09459C11.5444 8.09459 11.7249 8.17643 11.8485 8.19595C11.9658 8.21447 12.1526 8.19595 12.1526 8.19595L12.3553 8.15697M10.7843 7.63851L10.0242 7.18243M10.7843 7.63851L10.5309 7.89189L9.72012 8.60135C9.72012 8.60135 9.23577 8.92225 9.01066 9.20946C8.92263 9.32178 8.85596 9.37912 8.80796 9.51351C8.7414 9.69989 8.77192 9.82568 8.80796 10.0203C8.84677 10.2299 8.87298 10.3643 9.01066 10.527C9.18217 10.7297 9.35425 10.8082 9.61877 10.8311C9.81984 10.8485 9.93743 10.8029 10.1255 10.7297C10.5115 10.5796 10.9138 10.0203 10.9138 10.0203M12.3553 8.15697L14.7877 7.68919C14.7877 7.68919 15.0235 7.46955 15.0917 7.28378C15.1736 7.06087 15.1678 6.90065 15.0917 6.67568C15.0106 6.43558 14.9081 6.29163 14.6863 6.16892C14.5098 6.0712 14.1796 6.06757 14.1796 6.06757L12.3553 6.37162C12.3553 6.37162 12.1691 6.38534 12.0512 6.37162C11.6095 6.32024 11.0884 5.76351 11.0884 5.76351M12.3553 8.15697C12.3553 8.15697 12.4104 8.43681 12.3553 8.60135C12.3099 8.73666 12.2369 8.79032 12.1526 8.90541C11.7677 9.43025 10.9138 10.0203 10.9138 10.0203M10.9138 10.0203V11.6419M10.9138 11.6419C10.9138 11.6419 12.8485 11.9903 14.0039 11.6419C14.86 11.3837 16.0039 10.527 16.0039 10.527V6.37162C16.0039 6.37162 15.9062 6.05038 15.8012 5.86487C15.6764 5.64428 15.5989 5.50964 15.3958 5.35811C15.2539 5.25228 15.1574 5.21399 14.9904 5.15541C14.7632 5.07572 14.3823 5.05405 14.3823 5.05405M10.9138 11.6419L5.95275 11.7431M11.0884 5.76351C11.0884 5.76351 10.5368 5.32455 10.1255 5.15541C9.85903 5.04581 9.41607 4.9527 9.41607 4.9527H9.03725M11.0884 5.76351C11.0884 5.76351 11.2745 5.48389 11.4431 5.35811C11.585 5.25228 11.6816 5.21432 11.8485 5.15541C12.1124 5.06226 12.558 5.05405 12.558 5.05405M12.558 5.05405H14.3823M7.76786 4.9527C7.96751 5.01847 8.18088 5.05405 8.40255 5.05405C8.62423 5.05405 8.8376 5.01847 9.03725 4.9527M7.76786 4.9527C6.95923 4.68634 6.37553 3.92485 6.37553 3.02703C6.37553 1.90753 7.28306 1 8.40255 1C9.52205 1 10.4296 1.90753 10.4296 3.02703C10.4296 3.92485 9.84588 4.68634 9.03725 4.9527M5.61923 5.76648C5.62711 5.75889 5.63488 5.75135 5.64254 5.74389" stroke="white" stroke-width="0.5" stroke-linecap="round"/>
</svg>
