<svg width="14" height="11" viewBox="0 0 14 11" fill="none" xmlns="http://www.w3.org/2000/svg">
<path d="M3.40443 9.14729C3.26 8.94301 3.18238 8.69842 3.18238 8.44758V8.04419C3.18238 7.4996 3.62045 7.05811 4.16083 7.05811L5.86085 7.05805V6.8815L5.59797 6.66566L5.36387 6.45842L5.12322 6.21188L5.07222 6.15299L4.94535 5.96535L4.80934 5.71881L4.03911 5.71878H3.96252L1.48236 5.71888C0.941976 5.71888 0.503906 6.16036 0.503906 6.70496V7.10834C0.503906 7.35918 0.581528 7.60377 0.72596 7.80806C1.31358 8.63918 2.22849 9.10299 3.4465 9.20541C3.43229 9.18624 3.41827 9.16687 3.40443 9.14729Z" fill="#1B291F"/>
<path d="M10.6034 9.14729C10.7478 8.94301 10.8254 8.69842 10.8254 8.44758V8.04419C10.8254 7.4996 10.3874 7.05811 9.84698 7.05811L8.14696 7.05805V6.8815L8.40984 6.66566L8.64395 6.45842L8.88459 6.21188L8.9356 6.15299L9.06246 5.96535L9.19847 5.71881L9.9687 5.71878H10.0453L12.5255 5.71888C13.0658 5.71888 13.5039 6.16036 13.5039 6.70496V7.10834C13.5039 7.35918 13.4263 7.60377 13.2819 7.80806C12.6942 8.63918 11.7793 9.10299 10.5613 9.20541C10.5755 9.18624 10.5895 9.16687 10.6034 9.14729Z" fill="#1B291F"/>
<path d="M7.05675 2.58686C5.96316 2.59567 5.07934 3.49182 5.07934 4.59601C5.07934 5.70019 5.96316 6.59634 7.05675 6.60515C8.15034 6.59634 9.03416 5.70019 9.03416 4.59601C9.03416 3.49182 8.15034 2.59567 7.05675 2.58686Z" fill="#4285F4"/>
<path fill-rule="evenodd" clip-rule="evenodd" d="M7.07302 10.6222L7.09184 10.6219C7.08313 10.6113 7.0746 10.6005 7.06628 10.5895L7.05675 10.5768L7.04722 10.5895C7.0389 10.6005 7.03037 10.6113 7.02166 10.6219L7.04047 10.6222L7.05675 10.6221L7.07302 10.6222ZM7.05675 7.45205L7.06616 7.43947C7.07452 7.42845 7.08308 7.4176 7.09184 7.40691H7.02166C7.03041 7.4176 7.03898 7.42845 7.04734 7.43947L7.05675 7.45205ZM7.05675 2.58686L7.04047 2.58679C5.93939 2.58679 5.04679 3.48635 5.04679 4.59601C5.04679 5.70566 5.93939 6.60522 7.04047 6.60522L7.05675 6.60515L7.07302 6.60522C8.1741 6.60522 9.06671 5.70566 9.06671 4.59601C9.06671 3.48635 8.1741 2.58679 7.07302 2.58679L7.05675 2.58686ZM7.05675 2.58686C8.15034 2.59567 9.03416 3.49182 9.03416 4.59601C9.03416 5.70019 8.15034 6.59634 7.05675 6.60515C5.96316 6.59634 5.07934 5.70019 5.07934 4.59601C5.07934 3.49182 5.96316 2.59567 7.05675 2.58686Z" fill="#1B291F"/>
<path fill-rule="evenodd" clip-rule="evenodd" d="M7.09184 7.40691C7.08308 7.4176 7.07452 7.42845 7.06616 7.43947L7.05675 7.45205C7.17592 7.61377 7.25229 7.80944 7.26895 8.02205L7.27239 8.11026V9.91855C7.27239 10.1652 7.19224 10.3929 7.05675 10.5768L7.06628 10.5895C7.0746 10.6005 7.08313 10.6113 7.09184 10.6219L7.07302 10.6222C8.43709 10.6222 9.44309 10.1914 10.058 9.32164C10.1904 9.13442 10.2615 8.91026 10.2615 8.68038V8.3107C10.2615 7.8116 9.86003 7.407 9.36479 7.407L7.09184 7.40691ZM7.22512 7.76634L7.83437 7.40804L7.84665 8.10382L7.22512 7.76634Z" fill="#4285F4"/>
<path fill-rule="evenodd" clip-rule="evenodd" d="M7.02166 7.40691L4.7487 7.407C4.25347 7.407 3.85199 7.8116 3.85199 8.3107V8.68038C3.85199 8.91026 3.92313 9.13442 4.0555 9.32164C4.67041 10.1914 5.67641 10.6222 7.04047 10.6222L7.02166 10.6219C7.03037 10.6113 7.0389 10.6005 7.04722 10.5895L7.05675 10.5768C6.92126 10.3929 6.84111 10.1652 6.84111 9.91855V8.11026L6.84455 8.02205C6.86121 7.80944 6.93757 7.61377 7.05675 7.45205L7.04734 7.43947C7.03898 7.42845 7.03041 7.4176 7.02166 7.40691ZM6.88838 7.76634L6.27913 7.40804L6.26685 8.10382L6.88838 7.76634Z" fill="#4285F4"/>
<path fill-rule="evenodd" clip-rule="evenodd" d="M10.1632 5.28023C11.2833 5.19096 12.1647 4.24659 12.1647 3.09475C12.1647 1.95154 11.2965 1.0127 10.1883 0.911421L10.1586 0.911014C10.1402 0.911691 10.118 0.913674 10.094 0.916333C11.2155 1.00426 12.0984 1.94924 12.0984 3.10203C12.0984 4.15113 11.3672 5.02813 10.3904 5.24368L10.1632 5.28023ZM9.82944 0.906496L9.82111 0.906382C9.77448 0.909209 9.72824 0.913517 9.68244 0.91926C8.83862 0.998743 8.13479 1.56394 7.849 2.33464C8.75635 2.59862 9.41992 3.44185 9.41992 4.44127C9.41992 4.71124 9.3715 4.96982 9.28293 5.20866C9.44773 5.2566 9.62057 5.28544 9.79894 5.29263H10.0115C10.0565 5.29081 10.1011 5.28762 10.1454 5.28309L10.1632 5.28023C10.1349 5.28248 10.1064 5.28419 10.0778 5.28535H9.86528C9.84797 5.28465 9.83071 5.28375 9.81351 5.28264C9.73485 5.2776 9.65733 5.26834 9.58117 5.25509C9.50234 5.24138 9.42496 5.22339 9.34928 5.20137C9.36847 5.14962 9.38578 5.09693 9.40112 5.0434C9.45656 4.84993 9.48627 4.64545 9.48627 4.43399C9.48627 3.5081 8.91676 2.71628 8.11151 2.39487C8.04756 2.36935 7.98211 2.34679 7.91534 2.32736L8.03881 2.05365C8.34365 1.48536 8.89029 1.06814 9.53977 0.942027C9.56378 0.94104 9.6464 0.935245 9.73604 0.928956C9.7659 0.926861 9.79653 0.924712 9.82605 0.922668C9.90711 0.917051 9.97968 0.912226 10.0042 0.911497L9.83402 0.912976C9.83574 0.909697 9.8351 0.907254 9.82944 0.906496Z" fill="#1B291F"/>
<path fill-rule="evenodd" clip-rule="evenodd" d="M3.84464 5.28023C2.72447 5.19096 1.84307 4.24659 1.84307 3.09475C1.84307 1.95154 2.71132 1.0127 3.81951 0.911421L4.1867 0.906382C4.23333 0.909209 4.27957 0.913517 4.32537 0.91926C5.16919 0.998743 5.87302 1.56394 6.15881 2.33464C5.25146 2.59862 4.58789 3.44185 4.58789 4.44127C4.58789 4.71124 4.63631 4.96982 4.72488 5.20866C4.56008 5.2566 4.38724 5.28544 4.20888 5.29263H3.99635C3.95135 5.29081 3.90671 5.28762 3.86245 5.28309L3.84464 5.28023ZM3.84464 5.28023C3.87294 5.28248 3.9014 5.28419 3.93 5.28535H4.14253C4.15984 5.28465 4.1771 5.28375 4.19431 5.28264C4.27296 5.2776 4.35048 5.26834 4.42664 5.25509C4.50547 5.24138 4.58285 5.22339 4.65853 5.20137C4.63934 5.14962 4.62203 5.09693 4.60669 5.0434C4.55125 4.84993 4.52155 4.64545 4.52155 4.43399C4.52155 3.5081 5.09105 2.71628 5.8963 2.39487C5.96026 2.36935 6.0257 2.34679 6.09247 2.32736L5.969 2.05365C5.66416 1.48536 5.11752 1.06814 4.46804 0.942027C4.44403 0.94104 4.3614 0.935244 4.27176 0.928955C4.24191 0.926861 4.21127 0.924712 4.18177 0.922668C4.1007 0.917051 4.02813 0.912226 4.00357 0.911497L3.99635 0.911435C3.96868 0.91255 3.94116 0.914186 3.91377 0.916333C2.79228 1.00426 1.90942 1.94924 1.90942 3.10203C1.90942 4.15113 2.6406 5.02813 3.61741 5.24368L3.84464 5.28023Z" fill="#1B291F"/>
<path d="M1.90942 3.10203C1.90942 4.15113 2.6406 5.02813 3.61741 5.24368L3.84464 5.28023C3.87294 5.28248 3.9014 5.28419 3.93 5.28535H4.14253C4.15984 5.28465 4.1771 5.28375 4.19431 5.28264C4.27296 5.2776 4.35048 5.26834 4.42664 5.25509C4.50547 5.24138 4.58285 5.22339 4.65853 5.20137C4.63934 5.14962 4.62203 5.09693 4.60669 5.0434C4.55125 4.84993 4.52155 4.64545 4.52155 4.43399C4.52155 3.5081 5.09105 2.71628 5.8963 2.39487C5.96026 2.36935 6.0257 2.34679 6.09247 2.32736L5.969 2.05365C5.66416 1.48536 5.11752 1.06814 4.46804 0.942027C4.44403 0.94104 4.3614 0.935244 4.27176 0.928955L4.18177 0.922668C4.1007 0.917051 4.02813 0.912226 4.00357 0.911497L3.99635 0.911435C3.96868 0.91255 3.94116 0.914186 3.91377 0.916333C2.79228 1.00426 1.90942 1.94924 1.90942 3.10203Z" fill="#1B291F"/>
<path d="M9.81351 5.28264C9.83071 5.28375 9.84797 5.28465 9.86528 5.28535H10.0778C10.1064 5.28419 10.1349 5.28248 10.1632 5.28023L10.3904 5.24368C11.3672 5.02813 12.0984 4.15113 12.0984 3.10203C12.0984 1.94924 11.2155 1.00426 10.094 0.916333C10.0667 0.914186 10.0391 0.91255 10.0115 0.911435L10.0042 0.911497C9.97968 0.912226 9.90711 0.917051 9.82605 0.922668L9.73604 0.928956C9.6464 0.935245 9.56378 0.94104 9.53977 0.942027C8.89029 1.06814 8.34365 1.48536 8.03881 2.05365L7.91534 2.32736C7.98211 2.34679 8.04756 2.36935 8.11151 2.39487C8.91676 2.71628 9.48627 3.5081 9.48627 4.43399C9.48627 4.64545 9.45656 4.84993 9.40112 5.0434C9.38578 5.09693 9.36847 5.14962 9.34928 5.20137C9.42496 5.22339 9.50234 5.24138 9.58117 5.25509C9.65733 5.26834 9.73485 5.2776 9.81351 5.28264Z" fill="#1B291F"/>
</svg>
