<svg width="28" height="28" viewBox="0 0 28 28" fill="none" xmlns="http://www.w3.org/2000/svg">
<path d="M27.9746 13.5C27.9746 20.9558 21.9305 27 14.4746 27C7.01877 27 0.974609 20.9558 0.974609 13.5C0.974609 6.04416 7.01877 0 14.4746 0C21.9305 0 27.9746 6.04416 27.9746 13.5Z" fill="#1B291F"/>
<path d="M17.7807 5.12744L18.7468 6.4674L20.4833 5.96825L19.3439 7.29554L20.31 8.6355L18.6397 8.11585L17.5003 9.44314L17.6074 7.79469L15.9371 7.27503L17.6736 6.77589L17.7807 5.12744Z" fill="white"/>
<path d="M23.4703 6.86146L23.705 8.09479L25.0613 8.30916L23.85 8.85704L24.0847 10.0904L23.1014 9.19564L21.8901 9.74352L22.4937 8.64267L21.5104 7.74794L22.8668 7.96231L23.4703 6.86146Z" fill="white"/>
<path d="M21.553 4.31075L22.0765 4.81499L22.7891 4.46251L22.4001 5.12663L22.9236 5.63087L22.1596 5.53707L21.7706 6.20119L21.6875 5.47911L20.9236 5.38531L21.6361 5.03284L21.553 4.31075Z" fill="white"/>
<path fill-rule="evenodd" clip-rule="evenodd" d="M16.0224 18.6138L16.0134 18.6233L15.9881 18.6498C15.9965 18.641 16.005 18.6321 16.0134 18.6233C16.0164 18.6201 16.0194 18.617 16.0224 18.6138ZM15.8865 18.7549L15.854 18.7882L15.8661 18.7759L15.8865 18.7549ZM14.1193 20.6952C14.1165 20.7006 14.1138 20.706 14.111 20.7114C14.1053 20.7225 14.0997 20.7335 14.0942 20.7445L14.1193 20.6952ZM10.6764 27.5148L10.5574 27.52L10.6018 27.5181L10.6764 27.5148Z" fill="white"/>
<path d="M18.4327 11.5022C18.4291 11.5148 18.4256 11.5269 18.4222 11.5386C18.4195 11.5479 18.4169 11.5569 18.4142 11.5655C18.4125 11.5715 18.4107 11.5773 18.4089 11.5829L18.4051 11.5952C18.4007 11.609 18.3964 11.6217 18.3921 11.6333C18.3897 11.64 18.3873 11.6463 18.3848 11.6522C18.3809 11.6618 18.377 11.6704 18.3731 11.6777C18.3694 11.6845 18.3657 11.6903 18.362 11.6949C18.356 11.7023 18.35 11.7096 18.3439 11.7166C18.3404 11.7207 18.3368 11.7248 18.3332 11.7288C18.3255 11.7375 18.3179 11.7458 18.3102 11.754C18.3043 11.7603 18.2984 11.7666 18.2925 11.7727L18.2329 11.8379L18.212 11.8625C18.2031 11.874 18.1946 11.8859 18.1866 11.8984C18.1806 11.9079 18.1749 11.9177 18.1694 11.9281C18.1669 11.9329 18.1644 11.9379 18.162 11.9429L18.1449 11.9847C18.1412 11.9951 18.1378 12.006 18.1348 12.0174L18.1275 12.0288L18.0997 12.0748L18.0837 12.1003L18.0273 12.1903L17.9838 12.2599L17.8945 12.4034L17.8714 12.4405L17.8477 12.4787C17.8277 12.5108 17.808 12.5426 17.7885 12.5742C17.767 12.6088 17.7458 12.6431 17.7249 12.6771C17.7014 12.7152 17.6782 12.7528 17.6554 12.79L17.5684 12.9318C17.5437 12.9723 17.5193 13.0122 17.4953 13.0516L17.4057 13.1992C17.3755 13.2491 17.346 13.298 17.317 13.3462L17.2269 13.4965C17.2081 13.5281 17.1895 13.5593 17.1712 13.5901L17.0921 13.7239L17.0631 13.7731L17.0352 13.8094L16.9991 13.8562L16.953 13.9162L16.8821 14.0084L16.7462 14.1656L16.6959 14.2208C16.6777 14.2408 16.6597 14.2606 16.6419 14.2803C15.8926 15.1064 15.482 15.6073 15.2832 15.9062L15.0081 16.2535C14.6653 16.6234 14.3758 16.942 14.1326 17.2163L14.0039 17.3622C13.944 17.4305 13.8872 17.4958 13.8334 17.5582L13.5605 17.7791C13.4663 17.8336 13.3711 17.8859 13.2872 17.9411C13.2719 17.9512 13.2569 17.9614 13.2424 17.9717L12.9635 18.1161C12.9381 18.1245 12.9119 18.1329 12.8846 18.141C12.7416 18.1838 12.5895 18.2156 12.4563 18.2579L12.435 18.2557L12.3496 18.2465L12.3054 18.2417L12.2554 18.2364L12.1807 18.2219L12.0768 18.2018L12.0161 18.1917C12.0014 18.1873 11.9866 18.183 11.9717 18.1788L11.9278 18.1668C11.9097 18.1619 11.8914 18.1572 11.8729 18.1525L11.7936 18.1334C11.7016 18.1118 11.6096 18.0916 11.518 18.0728L11.422 18.0221C11.4038 17.9979 11.387 17.971 11.3726 17.9411C11.3584 17.9117 11.3466 17.8793 11.3381 17.8435C11.3237 17.783 11.3308 17.7346 11.35 17.6942C11.3777 17.636 11.4304 17.5947 11.4793 17.5582C11.4994 17.5598 11.5213 17.5605 11.545 17.5601C11.5825 17.5595 11.6245 17.5563 11.6716 17.5502C11.7036 17.5461 11.738 17.5406 11.7749 17.5337L11.8941 17.5084C11.9253 17.5011 11.9579 17.493 11.992 17.484C12.0224 17.476 12.0541 17.4673 12.0869 17.4579C12.1049 17.4528 12.1226 17.4476 12.1399 17.4425C12.1803 17.4304 12.2188 17.4183 12.2554 17.4061C12.2996 17.3915 12.3409 17.3769 12.3796 17.3622C12.4094 17.351 12.4377 17.3397 12.4645 17.3284L12.5548 17.288C12.5959 17.2682 12.6327 17.2486 12.6655 17.2291C12.6996 17.2088 12.7294 17.1888 12.7553 17.1689C12.7948 17.1387 12.8253 17.1091 12.8484 17.0803C12.8663 17.058 12.8798 17.0362 12.8895 17.0149C12.9048 16.9813 12.9108 16.9493 12.9101 16.9192C12.9095 16.8959 12.905 16.8737 12.8978 16.8531C12.887 16.8224 12.8704 16.7949 12.8523 16.7714L12.7993 16.655L12.7727 16.5386L12.7553 16.4073V16.2535C12.7799 16.2145 12.8013 16.1765 12.8191 16.1399C12.8385 16.1002 12.8537 16.0621 12.8644 16.026C12.8772 15.9831 12.8837 15.943 12.8834 15.9062C12.8831 15.8594 12.8717 15.818 12.8484 15.783C12.8323 15.7589 12.8105 15.7378 12.7826 15.7203C12.7622 15.7074 12.7386 15.6964 12.7116 15.6874C12.6364 15.6624 12.5631 15.6221 12.4903 15.5696C12.4817 15.5634 12.4731 15.557 12.4645 15.5504V15.4954C12.4727 15.4673 12.4814 15.4389 12.4903 15.4104C12.4958 15.393 12.5013 15.3756 12.5069 15.3582L12.5347 15.2701C12.548 15.2274 12.5605 15.1855 12.5711 15.1454C12.6164 15.0735 12.6435 15.0135 12.6556 14.9629C12.6708 14.8989 12.6621 14.8499 12.6358 14.8107C12.6135 14.7774 12.5784 14.7513 12.5347 14.7293C12.5109 14.7174 12.4846 14.7066 12.4563 14.6966L12.4167 14.5924C12.4116 14.5633 12.4033 14.5331 12.3914 14.5018L12.3796 14.4731C12.4689 14.3921 12.5362 14.3221 12.5848 14.2612C12.605 14.2359 12.6219 14.2122 12.6358 14.1899L12.6655 14.1349C12.6724 14.1194 12.6776 14.1048 12.6813 14.0908C12.6871 14.0685 12.6889 14.048 12.6871 14.0291C12.6835 13.9908 12.6652 13.9591 12.6358 13.9318C12.6142 13.9117 12.5867 13.894 12.5548 13.8778C12.5253 13.8629 12.4921 13.8493 12.4563 13.8363L12.2763 13.7781C12.2313 13.7641 12.1853 13.7497 12.1399 13.7339C12.0892 13.7163 12.0392 13.697 11.992 13.6747C11.9067 13.6346 11.8303 13.5849 11.7749 13.5186C11.7483 13.4868 11.7265 13.4511 11.7109 13.4107L11.7016 13.3751L11.6875 13.3221L11.6809 13.2972C11.6701 13.2635 11.6571 13.2307 11.642 13.1992L11.5706 13.0873C11.5626 13.0565 11.554 13.0259 11.545 12.9956C11.5218 12.9176 11.4955 12.8412 11.4663 12.7664C11.4435 12.708 11.4189 12.6507 11.3926 12.5943C11.3613 12.5271 11.3275 12.4614 11.2913 12.3972C11.2589 12.3395 11.2245 12.283 11.1884 12.2278L11.1111 12.1155C11.0819 12.075 11.0517 12.0352 11.0205 11.9962L10.8941 11.8482C10.8436 11.7926 10.7909 11.7389 10.7364 11.6869L10.6357 11.5952C10.6126 11.5751 10.5893 11.5553 10.5656 11.5358L10.472 11.4615C10.4141 11.4173 10.3546 11.3749 10.2936 11.3344C10.2361 11.2962 10.1773 11.2598 10.1172 11.225C10.0783 11.2025 10.0388 11.1807 9.99877 11.1596C9.93206 11.1245 9.86395 11.0914 9.79458 11.0605C9.73527 11.0341 9.67503 11.0092 9.61394 10.9859C9.53154 10.9546 9.44758 10.9261 9.36224 10.9007C9.28188 10.8768 9.20031 10.8555 9.11766 10.8371C9.04152 10.82 8.96447 10.8054 8.88662 10.7932C8.80753 10.7807 8.72762 10.7708 8.64701 10.7635C8.58174 10.7575 8.51602 10.7533 8.4499 10.7507C8.36524 10.7475 8.27994 10.7471 8.19413 10.7496C8.11717 10.7519 8.0398 10.7565 7.96212 10.7635C7.88139 10.7708 7.80032 10.7806 7.71904 10.7932C7.65683 10.8028 7.59449 10.8139 7.53207 10.8266C7.51565 10.83 7.4993 10.8335 7.48301 10.8371C7.40027 10.8553 7.31924 10.8766 7.23998 10.9007C7.1569 10.926 7.07576 10.9545 6.9966 10.9859C6.8696 11.0364 6.74771 11.0945 6.63111 11.1596C6.5081 11.2283 6.39099 11.3047 6.27998 11.3879C6.1576 11.4796 6.04265 11.5797 5.93543 11.6869L5.73017 11.8901C5.63745 11.9748 5.54844 12.0654 5.46366 12.162C5.38096 12.2561 5.30599 12.354 5.2385 12.4549C5.20321 12.5076 5.16997 12.5612 5.13873 12.6156L5.06525 12.7522C5.02289 12.8366 4.98509 12.9225 4.95171 13.0098C4.93911 13.0428 4.92713 13.0759 4.91579 13.1093L4.90266 13.1488C4.89599 13.1693 4.88955 13.19 4.88335 13.2107L4.87004 13.2565C4.86334 13.2803 4.85694 13.3041 4.85084 13.3281L4.83321 13.4011C4.82725 13.4273 4.82164 13.4535 4.81639 13.4798L4.80449 13.5428L4.80122 13.5615L4.7947 13.6011C4.78999 13.6309 4.78572 13.6608 4.78187 13.6907L4.778 13.7221C4.77507 13.747 4.77244 13.7718 4.77009 13.7968L4.76423 13.8676C4.75807 13.9535 4.75534 14.0398 4.75594 14.1264C4.75677 14.2454 4.76389 14.3648 4.77705 14.4842C4.78607 14.566 4.79793 14.6478 4.81256 14.7293L4.82678 14.9143C4.84148 15.0112 4.86041 15.1078 4.88364 15.2039C4.91742 15.3435 4.96029 15.482 5.01241 15.6183C5.05542 15.7308 5.10472 15.8419 5.16043 15.951C5.19068 16.0103 5.22281 16.069 5.25685 16.1271C5.28582 16.1765 5.31617 16.2255 5.3479 16.2739C5.38513 16.3308 5.42376 16.3862 5.46372 16.4401L5.61928 16.6347C5.64744 16.6674 5.67613 16.6995 5.70532 16.731C5.75261 16.7819 5.80122 16.8311 5.85107 16.8787C5.89015 16.9159 5.92999 16.9521 5.97055 16.9873L6.15843 17.1387C6.20002 17.1699 6.24222 17.2 6.28501 17.2291C6.33587 17.2637 6.38754 17.2968 6.43997 17.3284C6.50693 17.3689 6.57512 17.4069 6.6444 17.4425C6.72001 17.4813 6.79692 17.5172 6.87494 17.5502C6.95494 17.584 7.03611 17.6148 7.11825 17.6424L7.28658 17.6942C7.32967 17.7063 7.37298 17.7175 7.41649 17.7279C7.43291 17.7447 7.44911 17.7617 7.46496 17.7791C7.48411 17.8 7.50275 17.8214 7.52067 17.843C7.53707 17.8628 7.55287 17.8829 7.56789 17.9032C7.59682 17.9423 7.62285 17.9821 7.64472 18.0221C7.68358 18.0933 7.6672 18.2077 7.63215 18.3336C7.62123 18.3728 7.60849 18.4131 7.59505 18.4536C7.57036 18.528 7.54328 18.6029 7.52067 18.6724L7.48549 18.7935C7.48267 18.8053 7.48017 18.8167 7.47806 18.8278L7.47174 18.8699L7.46154 18.9084C7.45515 18.9172 7.44881 18.9261 7.44251 18.9349L7.42544 18.9598L7.39272 19.0074L7.24829 19.2414C7.19392 19.3381 7.14422 19.4374 7.0994 19.539C7.06413 19.619 7.03188 19.7003 7.00275 19.7829C6.96698 19.8844 6.93592 19.9877 6.90976 20.0925C6.8831 20.1993 6.86153 20.3077 6.84525 20.4174C6.81919 20.5929 6.8067 20.7716 6.80861 20.952C6.80955 21.0408 6.81397 21.13 6.82197 21.2194C6.82992 21.3083 6.84142 21.3975 6.85655 21.4867C6.86411 21.5313 6.87257 21.5758 6.88195 21.6204L6.89497 21.6797C6.89834 21.6944 6.9018 21.7091 6.90537 21.7238L6.91833 21.7718L6.92509 21.8342L6.93097 21.8877L6.93417 21.9167C6.93799 21.9511 6.94191 21.986 6.94591 22.0214L7.0267 22.6897C7.03466 22.7515 7.04285 22.8139 7.05127 22.8769L7.07534 23.0507L7.16937 23.6861L7.19327 23.837C7.20136 23.8864 7.20959 23.9357 7.21795 23.985L7.2759 24.3102L7.30351 24.4602C7.30752 24.4812 7.31156 24.5021 7.31562 24.5229C7.31918 24.5412 7.32275 24.5594 7.32635 24.5776C7.33412 24.6169 7.34197 24.6559 7.34992 24.6948L7.35621 24.7515L7.38593 24.9806L7.4139 25.1322L7.41905 25.1601C7.42093 25.1864 7.42289 25.2125 7.42495 25.2385L7.46112 25.5695L7.46876 25.6394L7.4764 25.7093L7.48215 25.7582L7.4764 25.8882L7.47423 25.9034L7.45886 26.0118L7.44348 26.1203L7.42495 26.2509L7.37506 26.4325L7.30338 26.8888C7.30581 26.942 7.31148 26.9976 7.32095 27.0537C7.33275 27.1237 7.35044 27.1945 7.37506 27.2626C7.3893 27.302 7.40587 27.3404 7.42495 27.3772C7.45244 27.4302 7.48517 27.4798 7.52373 27.5239C7.58764 27.597 7.66758 27.655 7.76631 27.6884C7.7794 27.6928 7.79281 27.6968 7.80656 27.7003C7.84524 27.7103 7.88658 27.7166 7.93073 27.7188C7.96719 27.7207 8.02845 27.7197 8.11076 27.7162C8.14537 27.7147 8.18371 27.7127 8.22549 27.7104C8.27435 27.7076 8.32794 27.7042 8.38579 27.7003L8.42743 27.6973L8.43999 27.6965L8.4411 27.6964L8.46908 27.6944L8.6692 27.6769L8.80831 27.6648L8.94886 27.6525L9.11716 27.6378L9.28331 27.6234L9.38155 27.6148L9.52453 27.6023L9.62172 27.5934C9.66422 27.5891 9.70713 27.5848 9.75041 27.5805L9.86347 27.5689L9.88396 27.5668L9.93947 27.561C9.97201 27.5576 10.0047 27.5542 10.0375 27.5507L10.1071 27.5433L10.1564 27.538L10.1845 27.5367L10.3256 27.53L10.3831 27.5273C10.4146 27.526 10.4463 27.5247 10.4781 27.5234L10.5574 27.52L10.6764 27.5148L10.7371 27.512L10.7785 27.5102L10.8111 27.5086C10.8389 27.5073 10.8667 27.506 10.8946 27.5046L11.0703 27.4958L11.1001 27.4943L11.1362 27.4924L11.1546 27.4914L11.2537 27.4862C11.2914 27.4841 11.3291 27.482 11.3667 27.4799L11.5549 27.4687L11.6268 27.4643L11.7155 27.4588L11.8304 27.4514L11.8941 27.4471C11.9106 27.446 11.9271 27.4449 11.9436 27.4437C11.9523 27.4431 11.961 27.4425 11.9696 27.4419L12.156 27.4284L12.2105 27.4243L12.4288 27.4069L12.4759 27.4029L12.6208 27.3901C12.6512 27.3874 12.6812 27.3846 12.7109 27.3818L12.7681 27.3762L13.0477 27.3464L13.2181 27.3264C13.2562 27.3216 13.2932 27.3167 13.3292 27.3117L13.4056 27.2995L13.5766 27.2722L13.6065 27.2674L13.7276 27.2442C13.7457 27.2403 13.7631 27.2364 13.7798 27.2324L13.869 27.209C13.8869 27.2038 13.9036 27.1985 13.9191 27.1932C13.9362 27.1873 13.9519 27.1813 13.966 27.1752C13.9954 27.1625 14.0179 27.1496 14.0328 27.1363C14.0456 27.125 14.0529 27.1134 14.0543 27.1016C14.0557 27.09 14.0535 27.0739 14.0479 27.0537C14.0404 27.0263 14.0267 26.9913 14.0074 26.9495L13.9767 26.8866C13.9733 26.8798 13.9697 26.8728 13.966 26.8657L13.9587 26.8389L13.9474 26.7975L13.9413 26.7754L13.9275 26.7246L13.9233 26.7091L13.9191 26.6937L13.9113 26.6535L13.8983 26.5866L13.8882 26.5343L13.8748 26.4654L13.8685 26.4325L13.8672 26.4011L13.8651 26.352L13.8599 26.233L13.8558 26.1401L13.8509 26.0315L13.8492 25.9921L13.8479 25.9656L13.8443 25.8853L13.8395 25.7829L13.8348 25.6827L13.8311 25.6025L13.8276 25.564L13.8216 25.4968L13.8176 25.4517L13.8102 25.3684L13.8013 25.2688L13.7996 25.2492L13.7978 25.2295L13.7968 25.1824L13.7957 25.1302L13.7945 25.0728L13.7929 24.9998L13.7911 24.9141L13.7898 24.8567L13.7883 24.7835L13.7863 24.6896L13.7837 24.6237L13.7821 24.5904L13.7787 24.5213L13.7747 24.441L13.769 24.3251L13.7669 24.2822L13.7652 24.2488L13.7641 24.2265L13.7628 24.1998L13.7616 24.1748L13.76 24.1434L13.7585 24.1131L13.7566 24.0744L13.7542 24.0264L13.7518 23.9764L13.7492 23.9251L13.7464 23.8676L13.744 23.8196L13.7418 23.7749L13.7354 23.6452L13.7344 23.6254L13.7307 23.5502L13.7288 23.5126L13.7255 23.4458L13.7224 23.3831L13.7205 23.3435L13.7167 23.2662L13.7121 23.1746L13.7096 23.1221L13.7063 23.0562L13.7039 23.0061L13.7015 22.9571L13.6986 22.8975L13.6885 22.6897L13.6855 22.6283L13.6807 22.5268L13.6773 22.4548L13.6743 22.3919L13.6762 22.3649L13.6802 22.3085L13.6859 22.2268L13.691 22.1551L13.6955 22.0913L13.6999 22.0295L13.7059 21.9445L13.7119 21.8594L13.7148 21.8189C13.7159 21.8115 13.717 21.8041 13.7181 21.7967C13.7205 21.7808 13.7227 21.7649 13.7249 21.749C13.729 21.7181 13.7327 21.6872 13.736 21.6561C13.7386 21.6316 13.741 21.6071 13.7431 21.5825L13.755 21.5448L13.7678 21.5042L13.7795 21.4674L13.7916 21.4292L13.8047 21.3878L13.8182 21.3452L13.8381 21.2823L13.8518 21.2391L13.8722 21.1939C13.8811 21.1776 13.8901 21.1606 13.8991 21.1432L13.9314 21.0794L13.9438 21.0543L13.9555 21.0302L13.9593 21.0223L13.9995 20.9391L14.011 20.9151L14.0232 20.8898C14.0311 20.8735 14.039 20.8569 14.0472 20.8402C14.0597 20.8144 14.0726 20.788 14.0858 20.7613L14.0942 20.7445C14.0997 20.7335 14.1053 20.7225 14.111 20.7114L14.1193 20.6952L14.1199 20.6939C14.1284 20.6773 14.1369 20.6603 14.1457 20.6434L14.1569 20.622C14.1665 20.6038 14.1762 20.5856 14.1862 20.5672L14.1917 20.5571C14.198 20.5456 14.2043 20.5341 14.2107 20.5226C14.2208 20.5044 14.2311 20.4862 14.2417 20.4678C14.2482 20.4565 14.2549 20.4451 14.2616 20.4337L14.2711 20.4176C14.2775 20.4068 14.2841 20.3959 14.2907 20.3849L14.3002 20.3695C14.3054 20.361 14.3106 20.3525 14.3159 20.3441C14.3223 20.3339 14.3286 20.3238 14.3351 20.3137C14.3472 20.2946 14.3595 20.2756 14.3719 20.2567C14.3894 20.2302 14.407 20.2039 14.4248 20.1779L14.4393 20.1568C14.4516 20.1389 14.4639 20.1211 14.4763 20.1035L14.5682 20.0116L14.591 19.9912L14.593 19.9894L14.621 19.9651L14.634 19.9536L14.6747 19.9178L14.7237 19.8742L14.7421 19.8578L14.7673 19.8352C14.7863 19.818 14.8056 19.8006 14.8251 19.7829L14.8414 19.7681L14.8741 19.7383L14.9134 19.7023L15.0163 19.6068L15.05 19.5754L15.2718 19.3653L15.2898 19.348L15.3505 19.2894L15.4036 19.2379L15.4277 19.2143L15.4408 19.2015L15.4505 19.192L15.5243 19.1195C15.5401 19.104 15.5558 19.0884 15.5716 19.0728L15.6464 18.9983L15.6767 18.9679L15.6975 18.947L15.723 18.9214L15.7456 18.8985L15.7909 18.8526L15.8101 18.8331L15.837 18.8057L15.854 18.7882L15.8865 18.7549L15.9147 18.7258C15.932 18.708 15.9492 18.6902 15.9663 18.6724L15.9881 18.6498L16.0134 18.6233L16.0224 18.6138L16.0299 18.6059L16.0618 18.5724L16.1074 18.5245L16.1342 18.4961L16.1715 18.4563L16.2125 18.4123L16.2516 18.3702L16.277 18.3427L16.2977 18.3202L16.3589 18.2529L16.3666 18.2444L16.3823 18.2271L16.4075 18.1991C16.4238 18.1809 16.4399 18.1629 16.4558 18.145L16.4718 18.1236L16.4877 18.1022C16.4967 18.0959 16.5088 18.0867 16.5245 18.0743L16.561 18.0452L16.5716 18.0366C16.5774 18.0318 16.5837 18.0262 16.5903 18.0197L16.6542 17.9459C16.6584 17.9406 16.6626 17.9351 16.6669 17.9294L16.7062 17.8754C16.7111 17.8685 16.716 17.8614 16.7211 17.8541L16.7605 17.7958C16.7655 17.7883 16.7705 17.7806 16.7756 17.7729C16.7819 17.7632 16.7883 17.7534 16.7948 17.7433L16.8092 17.7249C16.8183 17.7133 16.8273 17.7018 16.836 17.6905L16.9012 17.6035L16.9067 17.596L16.9094 17.5924L16.9134 17.587C16.9199 17.5779 16.9264 17.5689 16.9327 17.5601L16.9948 17.4682L16.9992 17.4616L16.9993 17.4614L17.0045 17.4535C17.0117 17.4421 17.0187 17.4309 17.0253 17.42L17.0718 17.3347L17.0813 17.3161C17.0864 17.305 17.091 17.2942 17.095 17.284L17.1011 17.2672C17.1041 17.2586 17.1066 17.2502 17.1087 17.2423L17.1193 17.2178L17.1371 17.1766L17.155 17.1354L17.1736 17.1022L17.1813 17.0885L17.1971 17.0602L17.2326 16.9963L17.2521 16.9612L17.2698 16.9291L17.3215 16.8349L17.3287 16.8218L17.3551 16.7735L17.3682 16.7492L17.3805 16.7267L17.3983 16.6938C17.4105 16.6713 17.4227 16.6487 17.4349 16.626L17.464 16.5721L17.4807 16.541L17.5275 16.4535C17.5411 16.428 17.5548 16.4025 17.5684 16.3768L17.626 16.2683L17.6604 16.2032L17.6733 16.1787L17.7342 16.0629L17.7443 16.0437L17.7683 15.998L17.7954 15.9462C17.812 15.9144 17.8286 15.8825 17.8452 15.8507L17.8693 15.8043L17.8821 15.7797L17.9601 15.6292L17.9769 15.5967L17.99 15.5712L18.056 15.4431L18.0829 15.3908L18.1152 15.3279L18.1562 15.2478L18.181 15.1992L18.2178 15.1272L18.2546 15.0548L18.2792 15.0065L18.2982 14.969L18.2995 14.9665L18.3564 14.8544L18.3654 14.8366L18.4029 14.7624L18.4356 14.6977L18.4585 14.6523L18.4878 14.5941L18.5172 14.5359L18.5272 14.516L18.5528 14.465L18.5692 14.4324L18.6132 14.3447L18.6421 14.2869L18.6553 14.2605L18.6812 14.2087L18.7071 14.1569L18.7119 14.1472L18.7313 14.1084L18.7442 14.0825L18.7887 13.993L18.7976 13.9753L18.8291 13.9119L18.851 13.8676L18.8583 13.853L18.8655 13.8385L18.8868 13.8132L18.903 13.7941L18.9326 13.7592L18.9186 13.7731C18.9241 13.7674 18.9295 13.7618 18.9349 13.7564C18.9472 13.744 18.9591 13.7322 18.9708 13.721C18.9761 13.716 18.9813 13.7111 18.9864 13.7064C18.9916 13.7015 18.9968 13.6969 19.0018 13.6923C19.0166 13.6791 19.0308 13.667 19.0446 13.656C19.0488 13.6526 19.053 13.6494 19.0572 13.6462C19.062 13.6426 19.0667 13.6391 19.0714 13.6357C19.0792 13.6301 19.0868 13.625 19.0942 13.6203C19.1046 13.6137 19.1149 13.607 19.125 13.6002C19.1335 13.5944 19.142 13.5886 19.1504 13.5826L19.2281 13.5228L19.2393 13.5134C19.2465 13.5073 19.2536 13.5011 19.2606 13.4948L19.3087 13.449L19.3225 13.4355C19.3287 13.4291 19.3348 13.4227 19.3408 13.4162L19.3876 13.3629C19.3958 13.353 19.4038 13.343 19.4116 13.3329C19.4199 13.3222 19.428 13.3113 19.4359 13.3004C19.4433 13.2901 19.4505 13.2797 19.4575 13.2693L19.4932 13.2125C19.5002 13.2008 19.5068 13.1889 19.5133 13.1771L19.5261 13.1518L19.5539 13.0937C19.5565 13.0878 19.559 13.0819 19.5615 13.0759L19.5762 13.0386C19.5799 13.0286 19.5834 13.0186 19.5868 13.0086L19.5883 13.0038L19.5896 12.9999L19.5923 12.9911L19.5979 12.9737C19.6002 12.966 19.6024 12.9583 19.6044 12.9507L19.6194 12.9335L19.6238 12.9285C19.627 12.9265 19.6301 12.9244 19.6332 12.9222L19.6509 12.909L19.6771 12.8894C19.682 12.8854 19.6867 12.8813 19.6914 12.8772C19.6989 12.8707 19.7061 12.864 19.7132 12.8572L19.7303 12.8391L19.7474 12.821C19.7527 12.8149 19.7578 12.8086 19.7628 12.8023L19.7848 12.7718L19.7865 12.7694L19.7874 12.7681L19.7907 12.7632C19.7949 12.7567 19.7989 12.7502 19.8027 12.7436L19.8126 12.7255C19.8133 12.7243 19.8139 12.7231 19.8145 12.7219C19.815 12.7209 19.8155 12.7199 19.816 12.7189L19.8439 12.7001L19.8718 12.6812L19.8872 12.6757L19.9026 12.6701L19.9355 12.6583L19.9648 12.6478L20.0122 12.6307L20.0244 12.6263L20.0479 12.6178L20.084 12.6048L20.1525 12.5802L20.1905 12.5665L20.2226 12.5549L20.2452 12.5468C20.2565 12.5427 20.2703 12.5378 20.2859 12.532L20.3263 12.5167C20.3387 12.5119 20.3516 12.5067 20.3649 12.5013C20.3742 12.4975 20.3836 12.4936 20.3932 12.4895C20.4014 12.486 20.4097 12.4824 20.418 12.4787L20.4382 12.4717L20.466 12.462L20.5031 12.4492L20.5402 12.4364L20.5486 12.4348L20.5835 12.4284L20.6239 12.4186C20.6332 12.4154 20.6421 12.4115 20.6507 12.4071C20.655 12.4048 20.6592 12.4025 20.6633 12.3999L20.7026 12.3682C20.7077 12.3629 20.7124 12.3574 20.7169 12.3516C20.7217 12.3453 20.7262 12.3387 20.7303 12.3319C20.7349 12.3242 20.7389 12.3162 20.7425 12.308C20.7485 12.2938 20.753 12.2789 20.7557 12.2635C20.7572 12.2545 20.7582 12.2453 20.7585 12.236L20.7565 12.2005C20.756 12.1971 20.7554 12.1937 20.7547 12.1903C20.7543 12.1883 20.7539 12.1863 20.7534 12.1843C20.7515 12.1757 20.749 12.1674 20.746 12.1594C20.7418 12.1479 20.7365 12.1368 20.7303 12.1265C20.7262 12.1197 20.7217 12.1131 20.7169 12.1068L20.7026 12.0903C20.6951 12.0825 20.687 12.0754 20.6784 12.0689C20.6697 12.0624 20.6604 12.0565 20.6507 12.0515C20.639 12.0454 20.6267 12.0404 20.6139 12.0367L20.5835 12.0304C20.5753 12.0294 20.567 12.0288 20.5586 12.0288L20.5402 12.0317L20.5271 12.0337L20.5031 12.0375L20.4796 12.0412L20.4589 12.0444L20.4176 12.0515L20.4005 12.0546L20.3735 12.0596L20.3297 12.0677L20.2859 12.0758L20.2688 12.079L20.2384 12.0846L20.2067 12.0905L20.1749 12.0964L20.1608 12.099L20.1272 12.1052L20.0978 12.1107L20.0666 12.1164L20.0394 12.1215L20.0122 12.1265L19.9993 12.1289L19.9648 12.1353L19.9303 12.1417L19.8959 12.148L19.8833 12.1504L19.8571 12.1552L19.8457 12.1573L19.8037 12.1552L19.7689 12.1504L19.734 12.1456C19.7186 12.143 19.7038 12.1416 19.6908 12.1417L19.6721 12.1242L19.6627 12.1155L19.646 12.0846L19.6354 12.0546L19.625 12.0288V12.0181V11.9847L19.6198 11.9667V11.9429V11.9179L19.625 11.9074L19.6534 11.8719L19.6908 11.8483L19.7054 11.8379L19.7303 11.8202L19.7553 11.8026L19.7984 11.7738L19.8157 11.7622L19.8343 11.7498L19.8959 11.7087L19.9242 11.6899L19.9425 11.6777L19.9918 11.6448L20.0059 11.6349L20.0629 11.5952C20.0738 11.586 20.0839 11.5761 20.093 11.5655L20.1122 11.5477L20.1513 11.5115L20.1749 11.4895L20.2023 11.4712L20.2524 11.4376L20.2757 11.422L20.3029 11.4037L20.3435 11.3765L20.3735 11.3564L20.4176 11.3268L20.4696 11.2919L20.4957 11.2745L20.5217 11.257L20.5522 11.2366L20.5826 11.2162L20.6097 11.198L20.6368 11.1798L20.6527 11.1692L20.6685 11.1586L20.6824 11.1493C20.6876 11.1458 20.6927 11.1421 20.6976 11.1382L20.7259 11.1118L20.7352 11.101C20.7381 11.0974 20.7408 11.0938 20.7435 11.0901L20.7587 11.0651L20.765 11.0536C20.7675 11.0482 20.7698 11.0428 20.772 11.0373L20.7853 10.9872C20.786 10.9823 20.7866 10.9774 20.7871 10.9724L20.788 10.9523V10.9497L20.7846 10.9143L20.782 10.8977C20.7814 10.8953 20.7809 10.893 20.7802 10.8906C20.778 10.882 20.7752 10.8735 20.772 10.8651L20.7524 10.8259C20.7503 10.8224 20.748 10.819 20.7456 10.8155C20.7395 10.8067 20.7329 10.7984 20.7259 10.7907L20.7015 10.7674C20.6982 10.7647 20.6949 10.7621 20.6915 10.7596L20.6768 10.7495C20.669 10.7446 20.6609 10.7402 20.6527 10.7362L20.6097 10.7205C20.608 10.7201 20.6062 10.7196 20.6045 10.7192L20.5826 10.7151C20.5759 10.7142 20.569 10.7135 20.5622 10.7131L20.5301 10.7136C20.5199 10.7144 20.5097 10.7159 20.4996 10.718L20.4664 10.7277C20.4561 10.7315 20.446 10.7362 20.4361 10.7415L20.3824 10.7763L20.3571 10.7932L20.348 10.7993L20.3281 10.8126L20.3083 10.8259L20.292 10.8369L20.2757 10.8478L20.2499 10.8651L20.2407 10.8713L20.221 10.8845L20.2012 10.8977L20.1825 10.9103L20.1638 10.9228L20.1418 10.9376L20.1198 10.9523L20.0984 10.9666L20.0771 10.981L20.0595 10.9927L20.0332 11.0104L20.0169 11.0213L20.0006 11.0323L19.9847 11.0429L19.9688 11.0536L19.9469 11.0682L19.9306 11.0792L19.8874 11.0922L19.8767 11.0835C19.8742 11.0782 19.8714 11.0731 19.8683 11.0682C19.8634 11.0605 19.8576 11.0532 19.8512 11.0466L19.8348 11.0323V11.0233L19.867 10.99L19.8827 10.9774L19.8985 10.9649L19.9143 10.9523L19.9328 10.9376L19.9513 10.9228L19.9716 10.9067L19.9918 10.8906L20.0239 10.8651L20.0415 10.8511L20.0974 10.8066L20.122 10.787L20.1466 10.7674L20.1645 10.7532L20.2012 10.724L20.221 10.7083L20.2355 10.6967L20.2501 10.6851L20.2662 10.6723L20.2823 10.6595L20.2953 10.6491L20.3083 10.6388L20.3405 10.6132L20.3588 10.5986L20.3771 10.584L20.4062 10.5609L20.4187 10.5509L20.4312 10.541L20.4466 10.5287L20.4621 10.5164L20.475 10.5061L20.508 10.4789L20.5151 10.4729C20.5204 10.4677 20.5254 10.4622 20.5301 10.4565L20.5423 10.4384L20.5566 10.4143C20.5586 10.4099 20.5605 10.4054 20.5622 10.4009L20.5746 10.3236L20.5742 10.3087C20.5733 10.3002 20.5718 10.2916 20.5698 10.2832L20.5622 10.2585C20.5567 10.2439 20.5494 10.2298 20.5402 10.2165L20.5199 10.1947L20.5098 10.1838L20.475 10.1561C20.4722 10.1545 20.4693 10.1529 20.4664 10.1514L20.4466 10.1444L20.4187 10.1344L20.383 10.1295C20.3775 10.1293 20.372 10.1293 20.3665 10.1295L20.3409 10.1339L20.3281 10.1361L20.3153 10.1383C20.3017 10.1426 20.2884 10.1483 20.2757 10.1556L20.2155 10.2005L20.1981 10.2143L20.1808 10.228L20.1723 10.2348L20.1556 10.2481L20.1198 10.2766L20.1115 10.2832L20.0771 10.3106L20.0624 10.3223L20.0239 10.3529L20.0111 10.3631L19.9837 10.3849L19.9564 10.4066L19.9304 10.4273L19.9044 10.448L19.8744 10.4719L19.8443 10.4958L19.8159 10.5184L19.7875 10.541L19.775 10.5509L19.7484 10.5722L19.7415 10.5777L19.7065 10.6055L19.6968 10.6132L19.6821 10.6249L19.6673 10.6367L19.6469 10.6529L19.6386 10.6595L19.6274 10.6684L19.6017 10.6967H19.5842L19.5535 10.6773L19.5415 10.6657V10.6388L19.5535 10.6201L19.5689 10.6021L19.5842 10.584L19.6324 10.5275L19.6673 10.4865L19.6738 10.4789L19.7127 10.433L19.7285 10.4143L19.742 10.3982L19.7713 10.3631C19.7782 10.3548 19.785 10.3465 19.7917 10.3384L19.8222 10.3006L19.8527 10.2628C19.8698 10.241 19.8851 10.2209 19.8981 10.203L19.9147 10.1835L19.9312 10.1639L19.952 10.1415L19.9624 10.1303L19.9931 10.0992L20.0111 10.0809L20.0479 10.0434C20.0502 10.0406 20.0523 10.0377 20.0543 10.0348L20.0756 9.99575C20.0793 9.98658 20.0823 9.97719 20.0846 9.96767L20.0899 9.9336C20.0903 9.92736 20.0904 9.92111 20.0903 9.91487C20.0902 9.91212 20.0901 9.90937 20.0899 9.90662C20.0892 9.89711 20.0879 9.88763 20.0859 9.87828C20.0845 9.8717 20.0828 9.86518 20.0807 9.85874L20.069 9.83427L20.0573 9.80981C20.05 9.79884 20.0416 9.78841 20.0319 9.77872C20.0253 9.77208 20.0184 9.76599 20.0111 9.76047C19.9964 9.74928 19.9805 9.7404 19.9639 9.73382C19.9614 9.73283 19.9589 9.7319 19.9564 9.73101L19.92 9.72199C19.9098 9.72044 19.8995 9.71969 19.8892 9.71973C19.8818 9.71976 19.8744 9.72019 19.867 9.72104C19.8496 9.72303 19.8325 9.72729 19.816 9.73382C19.8112 9.73572 19.8064 9.73782 19.8018 9.7401L19.775 9.75591C19.7683 9.76065 19.7618 9.76585 19.7555 9.77151L19.7159 9.80981L19.6821 9.84266L19.6655 9.85874L19.6469 9.87677L19.6162 9.90662L19.6017 9.92072L19.5768 9.9449L19.5543 9.96676L19.5318 9.98862L19.5244 9.99575L19.4842 10.0348L19.4655 10.053L19.4505 10.0675L19.4141 10.1029L19.3975 10.119L19.3787 10.1373L19.3599 10.1556L19.3509 10.1642L19.342 10.1729L19.3292 10.1838L19.3065 10.203L19.2968 10.2099L19.2713 10.228L19.2657 10.2321C19.2553 10.2393 19.2492 10.2435 19.2486 10.2437C19.242 10.2455 19.2342 10.2493 19.2254 10.255C19.2147 10.2619 19.2025 10.2714 19.1891 10.2832L19.1597 10.3106L19.1535 10.3167C19.1496 10.3206 19.1457 10.3245 19.1417 10.3286L19.0829 10.3922L19.0469 10.433L19.0178 10.4669L19.0077 10.4789L18.9749 10.5184L18.945 10.5549L18.9265 10.5777L18.9213 10.584C18.9022 10.6077 18.8836 10.6309 18.8661 10.6529L18.8531 10.6692L18.8374 10.6889C18.8278 10.701 18.8187 10.7124 18.8101 10.7232L18.8089 10.7247L18.8024 10.7328L18.796 10.7408C18.7926 10.7451 18.7893 10.7492 18.7861 10.7532C18.7755 10.7664 18.7662 10.7779 18.7585 10.787C18.7533 10.7932 18.7489 10.7984 18.7453 10.8024C18.7383 10.8101 18.7316 10.8179 18.7249 10.8259C18.708 10.8464 18.692 10.8681 18.6768 10.8906L18.6558 10.9248L18.6164 10.9927C18.6127 10.9999 18.609 11.0071 18.6054 11.0143L18.5956 11.0347L18.573 11.0835C18.5695 11.0916 18.566 11.0998 18.5625 11.108L18.5479 11.1449L18.5029 11.2693L18.5026 11.27L18.4922 11.3016C18.4872 11.3173 18.4823 11.3328 18.4777 11.3481L18.4642 11.393L18.4513 11.4376L18.4377 11.4848L18.4327 11.5022Z" fill="white"/>
</svg>
