<svg width="45" height="17" viewBox="0 0 45 17" fill="none" xmlns="http://www.w3.org/2000/svg">
<path d="M26.9885 3.72516C25.8075 2.54415 24.4054 1.60728 22.8624 0.968122C21.3193 0.328964 19.6655 0 17.9952 0C16.325 0 14.6712 0.328964 13.1281 0.968122C11.5851 1.60728 10.183 2.54415 9.00195 3.72516L17.9952 12.7184L26.9885 3.72516Z" fill="#FFD200"/>
<path d="M18.0117 12.7296C19.1927 13.9106 20.5948 14.8475 22.1379 15.4866C23.6809 16.1258 25.3348 16.4547 27.005 16.4547C28.6751 16.4547 30.3292 16.1258 31.8722 15.4866C33.4152 14.8475 34.8174 13.9106 35.9984 12.7296L27.005 3.73633L18.0117 12.7296Z" fill="#06E07F"/>
<path d="M17.9866 12.7286C16.8056 13.9097 15.4035 14.8465 13.8604 15.4856C12.3173 16.1248 10.6635 16.4538 8.99329 16.4538C7.32306 16.4538 5.66924 16.1248 4.12615 15.4856C2.58311 14.8465 1.18102 13.9097 0 12.7286L8.99329 3.73535L17.9866 12.7286Z" fill="#E3073C"/>
<path d="M27.0137 3.7261C28.1946 2.54508 29.5968 1.60826 31.1398 0.969099C32.6828 0.329941 34.3369 0.000976562 36.0069 0.000976562C37.6773 0.000976562 39.331 0.329941 40.874 0.969099C42.417 1.60826 43.8192 2.54508 45.0001 3.7261L36.0069 12.7194L27.0137 3.7261Z" fill="#1F84EF"/>
</svg>
