<svg width="31" height="22" viewBox="0 0 31 22" fill="none" xmlns="http://www.w3.org/2000/svg">
<path d="M7.13686 2.24959L11.9742 5.59668L16.8115 3.16243L10.1602 0.72819H9.55553L7.13686 1.94531V2.24959Z" fill="#1B291F"/>
<path d="M0.787868 7.72664L1.9972 7.11808L7.4392 8.94376L25.1747 0.472726L25.3947 0.394264L26.3261 0.159901L26.4862 0.119629H26.6374H26.7885H28.6025L29.0676 0.20155L30.0071 0.674278L30.1697 0.78407L30.5368 1.15347L30.7189 1.64103V1.79317C30.7189 1.85259 30.7365 1.88861 30.7189 1.94531C30.7094 1.97557 30.6828 2.01793 30.6828 2.01793L30.4165 2.55387L29.2072 3.77099L28.3002 4.37955L27.6955 4.68383L22.5559 7.11808L18.3232 19.5936L18.0209 19.8979L17.1139 20.5064L15.2999 21.4193V20.8107L16.2069 10.4652V10.313L7.28803 12.8994H5.32287L0.485535 8.03092L0.787868 7.72664Z" fill="#1B291F"/>
</svg>
