<svg width="15" height="18" viewBox="0 0 15 18" fill="none" xmlns="http://www.w3.org/2000/svg">
<path d="M5.80919 7.72416L7.24316 6.51197C8.04645 5.83292 8.322 4.77244 7.93959 3.83174L7.32683 2.32435C6.8521 1.15654 5.47351 0.530603 4.17951 0.895323C1.88527 1.54196 0.122015 3.5067 0.664869 5.84084C1.02185 7.37583 1.70438 9.30254 2.99897 11.3535C4.29578 13.4079 5.77675 14.9267 7.04629 15.9919C8.96385 17.6008 11.7046 17.1984 13.4679 15.6834C14.4488 14.8405 14.5489 13.4398 13.6966 12.4855L12.5729 11.2276C11.8801 10.452 10.7458 10.1417 9.70605 10.4433L7.84995 10.9817C7.77857 10.9141 7.69587 10.8333 7.60569 10.7406C7.30072 10.4272 6.91925 9.98802 6.59843 9.47592C6.27761 8.96381 6.05563 8.43975 5.91364 8.03968C5.87165 7.92136 5.83703 7.81494 5.80919 7.72416Z" fill="#1B291F"/>
</svg>
