<svg width="27" height="19" viewBox="0 0 27 19" fill="none" xmlns="http://www.w3.org/2000/svg">
<path fill-rule="evenodd" clip-rule="evenodd" d="M24.1334 13.726L24.0903 8.89781C24.0807 7.83118 23.1753 6.97396 22.068 6.98313L21.6098 6.98693L13.4196 7.05482C12.3825 7.06341 11.549 7.88019 11.5579 8.87914L11.6108 14.7956C11.6116 14.8864 11.6189 14.9757 11.6323 15.0632C11.776 16.0019 12.62 16.7186 13.633 16.7102L21.0265 16.6489L26.6785 18.0507L24.1334 13.726Z" fill="#1B291F"/>
<path fill-rule="evenodd" clip-rule="evenodd" d="M4.09292 3.69674L4.03254 10.7594L0.469452 17.0854L8.38224 15.035L11.0539 15.0582V7.99759L11.5579 6.98313L12.5659 6.47579H21.6142L21.6382 3.66944C21.6507 2.20819 20.4838 1.01341 19.0319 1.00084L6.92407 0.895981C5.37381 0.882555 4.10626 2.1365 4.09292 3.69674ZM21.6098 6.98693L13.4196 7.05482C12.3825 7.06341 11.549 7.88019 11.5579 8.87914L11.6108 14.7956C11.6116 14.8864 11.6189 14.9757 11.6323 15.0632L18.733 15.1247C20.2833 15.1381 21.5508 13.8841 21.5642 12.3239L21.6098 6.98693Z" fill="#1B291F"/>
</svg>
