<svg width="9" height="10" viewBox="0 0 9 10" fill="none" xmlns="http://www.w3.org/2000/svg">
<path d="M5.34819 1.51536L5.32043 1.51079M5.32043 1.51079C5.3551 1.62205 5.39121 1.75541 5.41958 1.90125C5.49614 2.29474 5.53215 2.85814 5.23382 3.30041C4.95897 3.70788 4.59021 3.76316 4.31745 3.78798L4.27804 3.79154C4.01285 3.81546 3.90293 3.82537 3.80795 3.93019C3.7191 4.02826 3.70952 4.16854 3.74668 4.4503C3.74933 4.47035 3.75225 4.49152 3.75529 4.51354C3.77043 4.62307 3.7885 4.75379 3.78948 4.87404C3.79069 5.02353 3.7677 5.20734 3.64925 5.36826C3.53061 5.52944 3.3922 5.62904 3.23921 5.68338C3.09521 5.73453 2.95357 5.7394 2.84653 5.74066L2.80686 5.74109C2.59972 5.74321 2.49465 5.74429 2.37906 5.83509C2.28855 5.90614 2.217 6.04421 2.15478 6.25209C2.1294 6.3369 2.10865 6.42173 2.0873 6.50899L2.07591 6.55545C2.05217 6.65191 2.02442 6.76155 1.98776 6.85318L1.9634 6.91406L1.65499 7.46819M5.32043 1.51079L4.97375 0.891122M1.65499 7.46819C2.24864 8.24063 3.11629 8.79732 4.14 8.97018C4.9164 9.10128 5.67747 8.99386 6.35137 8.70042M1.65499 7.46819C0.989118 6.60179 0.667954 5.46397 0.857908 4.29191C1.1913 2.2348 2.98206 0.795068 4.97375 0.891122M6.35137 8.70042C7.56268 8.17297 8.49237 7.04453 8.72323 5.62004C8.95606 4.18341 8.42098 2.79821 7.42444 1.90125M6.35137 8.70042L6.02659 8.20771C5.98923 8.15538 5.9475 8.09153 5.90809 8.01911C5.80265 7.82546 5.67764 7.50429 5.79309 7.17099C5.84843 7.01115 5.95748 6.88725 6.0596 6.7943C6.1636 6.69972 6.28434 6.61622 6.39015 6.54546C6.41514 6.52876 6.43914 6.51283 6.46216 6.49757C6.54321 6.44384 6.61261 6.39783 6.67301 6.35142C6.71032 6.32283 6.73744 6.29904 6.75639 6.27935C6.77243 6.26269 6.77891 6.25225 6.77891 6.25225C6.823 6.1608 6.79983 6.08436 6.76405 6.04508C6.7372 6.01556 6.66416 5.96612 6.50864 6.03336C6.44818 6.05949 6.39436 6.08272 6.35137 6.09935C6.31915 6.11183 6.25381 6.1371 6.18632 6.14065C6.14952 6.14257 6.06971 6.14097 5.99135 6.08586C5.90278 6.02358 5.87205 5.93394 5.86345 5.87446C5.85592 5.8222 5.86248 5.77786 5.866 5.75716C5.8701 5.73292 5.87593 5.71013 5.8804 5.69359C5.88412 5.6799 5.88827 5.66534 5.89275 5.64984C5.92671 5.53149 5.97669 5.35738 5.95202 5.08106C5.93217 4.85887 5.87926 4.68347 5.82523 4.50436C5.80032 4.42181 5.77518 4.33847 5.75293 4.24939C5.72228 4.12666 5.69232 3.9685 5.72755 3.81147C5.76826 3.62999 5.88354 3.49585 6.04855 3.40826C6.24879 3.30194 6.52349 3.02759 6.76859 2.74416C6.88582 2.6086 6.98812 2.48073 7.06115 2.38667C7.06692 2.3792 7.07254 2.37195 7.07795 2.36493L7.42444 1.90125M7.42444 1.90125C6.88313 1.41403 6.20566 1.07087 5.44115 0.941774C5.28453 0.915327 5.12854 0.898587 4.97375 0.891122" stroke="black" stroke-width="0.3"/>
</svg>
