<svg width="21" height="18" viewBox="0 0 21 18" fill="none" xmlns="http://www.w3.org/2000/svg">
<path fill-rule="evenodd" clip-rule="evenodd" d="M0.533752 11.2427C0.533752 12.9406 1.90137 14.317 3.58841 14.317H10.9697H14.5852L10.2586 3.24939L9.05676 0.175049H3.58842C1.90137 0.175049 0.533752 1.55148 0.533752 3.24939V11.2427ZM4.40672 3.83088C4.94216 3.7 5.6912 3.62683 6.52137 3.87195C7.33684 4.11274 7.77767 4.63894 7.98859 5.24065C8.17789 5.7807 8.17769 6.37483 8.17756 6.79572L8.17755 10.7348C8.17755 11.0405 7.9313 11.2889 7.62754 11.2889C7.32378 11.2889 7.07752 11.0412 7.07752 10.7354V10.342C6.90668 10.4359 6.72062 10.5296 6.5256 10.6124C5.89793 10.8789 5.08529 11.0781 4.24759 10.8192C2.37615 10.2406 2.14179 7.71193 3.74793 6.72155C4.52701 6.24116 5.59029 6.25266 6.34812 6.33508C6.61489 6.3641 6.86243 6.40426 7.07358 6.44476C7.06489 6.13645 7.03738 5.85478 6.95123 5.60899C6.8469 5.31136 6.65723 5.06585 6.2117 4.93429C5.61398 4.75781 5.06847 4.80841 4.66634 4.90671C4.46585 4.95573 4.30479 5.01573 4.19645 5.06211C4.14246 5.08521 4.10214 5.1047 4.07715 5.11733C4.06468 5.12364 4.0561 5.12821 4.05161 5.13065L4.04819 5.13252C3.78497 5.28237 3.45059 5.19019 3.30014 4.92573C3.14921 4.66043 3.24054 4.32221 3.50415 4.1703L3.50587 4.16931L3.50802 4.16808L3.51364 4.16492L3.53007 4.15588C3.54329 4.14872 3.56104 4.13932 3.58311 4.12816C3.62721 4.10585 3.68876 4.07635 3.76594 4.04331C3.91994 3.97738 4.13843 3.89647 4.40672 3.83088Z" fill="#1B291F"/>
<path d="M7.07752 7.57528V9.05174C6.8098 9.224 6.48234 9.42908 6.09795 9.59232C5.58258 9.81116 5.05653 9.91114 4.57061 9.7609C3.64504 9.47471 3.48805 8.18018 4.3226 7.66558C4.76385 7.39349 5.49671 7.35604 6.22993 7.43578C6.55682 7.47134 6.85407 7.52657 7.07752 7.57528Z" fill="#1B291F"/>
<path fill-rule="evenodd" clip-rule="evenodd" d="M15.801 9.44765C15.6879 9.99921 15.4607 10.4564 15.1885 10.8106C15.1485 10.4657 15.1261 10.0633 15.1342 9.59938C15.165 9.58945 15.1963 9.57975 15.2281 9.57031C15.4351 9.50887 15.626 9.46925 15.801 9.44765Z" fill="#868886"/>
<path fill-rule="evenodd" clip-rule="evenodd" d="M10.2586 3.24939L14.5852 14.317L12.1715 17.3913H17.6399C19.3269 17.3913 20.6945 16.0149 20.6945 14.317V6.32372C20.6945 4.62581 19.3269 3.24939 17.6399 3.24939H10.2586ZM15.1833 6.33253C15.393 6.37788 15.5265 6.58574 15.4814 6.79679C15.4432 6.97575 15.4086 7.14997 15.3775 7.31952C15.7874 7.27349 16.1907 7.20487 16.5663 7.11607C16.7751 7.0667 16.9841 7.19704 17.0332 7.40718C17.0822 7.61733 16.9527 7.8277 16.744 7.87707C16.2735 7.98829 15.7646 8.07008 15.2504 8.11839C15.22 8.34663 15.1961 8.56491 15.1781 8.77345C15.4229 8.7104 15.6567 8.67132 15.8786 8.65481C15.8861 8.44559 16.057 8.27829 16.2667 8.27829C16.4812 8.27829 16.655 8.45328 16.655 8.66914L16.6549 8.69639C16.8184 8.72891 16.9719 8.77676 17.1151 8.83905C17.6776 9.08378 18.0452 9.53835 18.1856 10.0713C18.467 11.1389 17.8307 12.3912 16.4061 12.9425C16.2059 13.02 15.9812 12.9195 15.9043 12.7179C15.8272 12.5165 15.9271 12.2903 16.1273 12.2129C17.2599 11.7746 17.5945 10.8772 17.4349 10.2717C17.3549 9.96819 17.149 9.70543 16.8069 9.55658C16.7396 9.52731 16.6658 9.50196 16.5854 9.48168C16.4106 10.4764 15.9272 11.2522 15.3712 11.7603C15.4025 11.8699 15.4345 11.9664 15.4656 12.0502C15.5405 12.2524 15.4385 12.4776 15.2375 12.553C15.0366 12.6285 14.8129 12.5258 14.7379 12.3235C14.7266 12.2931 14.7153 12.2616 14.704 12.2289C14.5352 12.3149 14.365 12.3781 14.1985 12.4155C14.1877 12.4179 14.1768 12.4203 14.1659 12.4225L13.8888 11.6729C13.929 11.6709 13.9755 11.6646 14.0292 11.6525C14.1681 11.6214 14.3299 11.5544 14.5002 11.4482C14.4225 11.0412 14.3665 10.5477 14.3572 9.96073C13.9997 10.1936 13.7761 10.4631 13.6537 10.7126C13.6262 10.7687 13.6038 10.8232 13.5859 10.8759L13.2113 9.96073C13.48 9.6133 13.8672 9.29931 14.3784 9.05875C14.3953 8.77786 14.4224 8.48034 14.4612 8.16568C14.1407 8.17381 13.8249 8.16795 13.5218 8.14708C13.3078 8.13236 13.1462 7.94583 13.1608 7.73047C13.1755 7.51511 13.3608 7.35247 13.5748 7.36719C13.896 7.38931 14.2344 7.39306 14.5777 7.37988C14.619 7.13947 14.667 6.89041 14.722 6.63253C14.7671 6.42149 14.9736 6.28717 15.1833 6.33253Z" fill="#868886"/>
<path d="M14.5852 14.317H10.9697L12.1715 17.3913L14.5852 14.317Z" fill="#4E534F"/>
</svg>
