<svg width="17" height="16" viewBox="0 0 17 16" fill="none" xmlns="http://www.w3.org/2000/svg">
<path fill-rule="evenodd" clip-rule="evenodd" d="M0.622192 3.68393C0.622192 2.00337 1.97628 0.640991 3.64664 0.640991L13.4744 0.640991C15.1447 0.640991 16.4988 2.00336 16.4988 3.68393V12.816C16.4988 14.4966 15.1447 15.859 13.4744 15.859H3.64664C1.97628 15.859 0.622192 14.4966 0.622192 12.816V3.68393ZM7.50577 5.25479C6.68516 5.09425 5.80236 5.33301 5.16672 5.97108C4.48808 6.65229 4.26286 7.6163 4.49105 8.48522C4.84724 8.17402 5.38782 8.18854 5.72679 8.5288C5.84531 8.64777 5.92415 8.79148 5.96333 8.94337C6.23657 8.90382 6.52434 8.98956 6.73456 9.20059C6.89487 9.3615 6.9826 9.56767 6.99775 9.77813C7.20725 9.79344 7.41246 9.8815 7.57265 10.0423C7.73293 10.2032 7.82066 10.4094 7.83583 10.6198C8.04559 10.6349 8.25111 10.723 8.41149 10.884C8.76557 11.2394 8.76557 11.8157 8.41149 12.1711L8.26421 12.319L8.6974 12.7313C8.81777 12.8458 9.00645 12.843 9.12338 12.7248C9.23219 12.6149 9.24187 12.4428 9.15242 12.3218L9.12875 12.2979C9.118 12.287 9.1082 12.2755 9.09934 12.2636L9.03558 12.1992C8.91343 12.0758 8.91343 11.8757 9.03558 11.7523C9.15773 11.6289 9.35577 11.6289 9.47795 11.7523L9.56569 11.841C9.58418 11.8596 9.60167 11.8789 9.61828 11.8986L9.66529 11.9462C9.78117 12.0633 9.96908 12.0633 10.085 11.9462C10.2009 11.8291 10.2009 11.6392 10.085 11.5222L9.99076 11.427C9.92771 11.3633 9.89719 11.2792 9.89926 11.1957C9.89894 11.1145 9.92947 11.0331 9.99083 10.9712C10.113 10.8477 10.311 10.8477 10.4332 10.9712L10.5046 11.0433C10.6331 11.1731 10.8414 11.1731 10.97 11.0433C11.0984 10.9134 11.0984 10.7029 10.97 10.5731L10.954 10.557C10.9347 10.5399 10.9157 10.522 10.8973 10.5034L10.4113 10.0125C10.2892 9.88907 10.2892 9.68899 10.4113 9.56559C10.5335 9.44218 10.7315 9.44218 10.8537 9.56559L11.3103 10.0269C11.3209 10.0352 11.3312 10.0442 11.3409 10.0541L11.3781 10.0917C11.577 10.2555 11.8703 10.2437 12.0556 10.0565C12.2534 9.85671 12.2534 9.53283 12.0556 9.33307L11.5928 8.8655C11.5867 8.86013 11.5807 8.85451 11.575 8.84863L9.69976 6.9297H9.21934L8.14669 7.75073C7.62767 8.148 6.88654 8.04704 6.49112 7.52521C6.09551 7.00311 6.19579 6.25748 6.71507 5.86001L7.50577 5.25479ZM10.0541 6.3931C9.99524 6.33281 9.9147 6.29886 9.83071 6.29886H9.1133C9.04477 6.29886 8.97814 6.32146 8.92359 6.36321L7.76687 7.24859C7.52311 7.43517 7.1748 7.38772 6.98909 7.14264C6.80358 6.89783 6.85056 6.54844 7.09406 6.36206L8.54027 5.2551C8.55113 5.24679 8.56136 5.23783 8.57094 5.2283H10.1066C10.3487 5.2283 10.5753 5.2909 10.7723 5.40066C10.7794 5.40465 10.7868 5.40836 10.7942 5.41178C11.1373 5.56895 11.4369 5.82426 11.6486 6.16069C12.0248 6.75831 12.0539 7.50347 11.7435 8.12182L10.0541 6.3931ZM5.29038 9.36469L4.8788 9.77784C4.76981 9.88725 4.59309 9.88725 4.48409 9.77784C4.37763 9.67098 4.37515 9.49927 4.47663 9.38938L4.48449 9.38159L4.89607 8.96844L4.90351 8.9609C4.9993 8.87184 5.14218 8.86264 5.2477 8.9333C5.26277 8.94339 5.27708 8.95511 5.29038 8.96847C5.39938 9.07789 5.39938 9.25528 5.29038 9.36469ZM5.80354 10.48L6.21512 10.0669C6.32412 9.95747 6.32412 9.78008 6.21512 9.67066C6.20181 9.65731 6.1875 9.64559 6.17243 9.6355C6.06692 9.56483 5.92403 9.57404 5.82824 9.66309L5.8208 9.67064L5.40923 10.0838L5.40137 10.0916C5.29988 10.2015 5.30237 10.3732 5.40882 10.48C5.51781 10.5895 5.69454 10.5895 5.80354 10.48ZM7.12914 10.8843L6.71756 11.2974C6.60857 11.4068 6.43185 11.4068 6.32285 11.2974C6.21639 11.1905 6.21391 11.0188 6.31539 10.9089L6.32325 10.9012L6.73483 10.488L6.74226 10.4804C6.83806 10.3914 6.98093 10.3822 7.08646 10.4529C7.10153 10.463 7.11584 10.4747 7.12914 10.488C7.23814 10.5974 7.23814 10.7748 7.12914 10.8843ZM7.45319 12.2042C7.35473 12.2396 7.24042 12.2177 7.16157 12.1386C7.08271 12.0594 7.0609 11.9447 7.09615 11.8458C7.10962 11.808 7.13143 11.7726 7.16157 11.7424L7.57314 11.3292C7.66852 11.2334 7.81574 11.2215 7.92408 11.2933C7.93956 11.3035 7.95424 11.3155 7.96787 11.3292C8.07687 11.4386 8.07687 11.616 7.96787 11.7254L7.55628 12.1386C7.52614 12.1688 7.49082 12.1907 7.45319 12.2042Z" fill="#1B291F"/>
</svg>
