<svg width="22" height="50" viewBox="0 0 22 50" fill="none" xmlns="http://www.w3.org/2000/svg">
<path d="M11.2123 36.86C10.5723 36.86 10.0123 36.6467 9.53226 36.22C9.07893 35.7667 8.85226 35.22 8.85226 34.58C8.85226 33.94 9.07893 33.4067 9.53226 32.98C10.0123 32.5267 10.5723 32.3 11.2123 32.3C11.8789 32.3 12.4523 32.5267 12.9323 32.98C13.4123 33.4067 13.6523 33.94 13.6523 34.58C13.6523 35.22 13.4123 35.7667 12.9323 36.22C12.4523 36.6467 11.8789 36.86 11.2123 36.86Z" fill="#1B291F"/>
<path d="M5.164 36.86C4.524 36.86 3.964 36.6467 3.484 36.22C3.03066 35.7667 2.804 35.22 2.804 34.58C2.804 33.94 3.03066 33.4067 3.484 32.98C3.964 32.5267 4.524 32.3 5.164 32.3C5.83066 32.3 6.404 32.5267 6.884 32.98C7.364 33.4067 7.604 33.94 7.604 34.58C7.604 35.22 7.364 35.7667 6.884 36.22C6.404 36.6467 5.83066 36.86 5.164 36.86Z" fill="#1B291F"/>
<path d="M17.2605 36.86C16.6205 36.86 16.0605 36.6467 15.5805 36.22C15.1272 35.7667 14.9005 35.22 14.9005 34.58C14.9005 33.94 15.1272 33.4067 15.5805 32.98C16.0605 32.5267 16.6205 32.3 17.2605 32.3C17.9272 32.3 18.5005 32.5267 18.9805 32.98C19.4605 33.4067 19.7005 33.94 19.7005 34.58C19.7005 35.22 19.4605 35.7667 18.9805 36.22C18.5005 36.6467 17.9272 36.86 17.2605 36.86Z" fill="#1B291F"/>
</svg>
