<svg width="16" height="16" viewBox="0 0 16 16" fill="none" xmlns="http://www.w3.org/2000/svg">
<path d="M5.59231 1.98218C5.87067 1.98218 6.09633 2.2093 6.09633 2.48945C6.09633 2.73848 5.91803 2.94559 5.68291 2.98854L5.59231 2.99672H2.56819C1.78223 2.99672 1.13633 3.60025 1.06306 4.37196L1.05614 4.51852V12.6348C1.05614 13.4258 1.6558 14.0759 2.42257 14.1496L2.56819 14.1566H10.6325C11.4185 14.1566 12.0644 13.553 12.1376 12.7813L12.1446 12.6348V11.6202C12.1446 11.3401 12.3703 11.113 12.6486 11.113C12.896 11.113 13.1018 11.2925 13.1445 11.5291L13.1526 11.6202V12.6348C13.1526 13.9795 12.1128 15.0798 10.7982 15.1657L10.6325 15.1711H2.56819C1.23206 15.1711 0.13878 14.1246 0.0534561 12.8015L0.0480957 12.6348V4.51852C0.0480957 3.17377 1.08793 2.07345 2.4025 1.98758L2.56819 1.98218H5.59231ZM10.3986 1.07787L10.4608 1.13165L14.9941 5.61708C15.2057 5.82641 15.2249 6.16265 15.0519 6.39507L14.9942 6.46147L10.4609 10.9483C10.1204 11.2853 9.56691 11.0689 9.50643 10.6097L9.50109 10.5262V8.40022L9.24132 8.42375C7.42654 8.61895 5.68723 9.46213 4.01232 10.9673C3.61976 11.3201 3.01241 10.9866 3.07697 10.4536C3.5797 6.30398 5.68343 4.0168 9.27468 3.7299L9.50109 3.71457V1.55387C9.50109 1.06713 10.0356 0.804962 10.3986 1.07787Z" fill="#1B291F"/>
</svg>
