<svg width="17" height="12" viewBox="0 0 17 12" fill="none" xmlns="http://www.w3.org/2000/svg">
<path d="M2.20119 0.745361H11.2401C11.3061 0.745361 11.3711 0.749389 11.4349 0.757214C11.4988 0.765038 11.8972 0.857993 12.1402 1.02518C12.3205 1.14915 12.5393 1.41909 12.5393 1.41909C12.7256 1.68179 12.8353 2.00338 12.8353 2.35074V3.4264L15.7737 0.965666C16.1181 0.677211 16.6409 0.920638 16.6454 1.3716L16.7347 10.2405C16.7392 10.6914 16.2214 10.9455 15.8713 10.6641L12.8353 8.22465V10.3777C12.8353 11.2643 12.1211 11.983 11.2401 11.983H2.20119C1.96483 11.983 1.74048 11.9313 1.53871 11.8385C1.53871 11.8385 1.22769 11.669 1.07049 11.51C0.880559 11.3179 0.762224 11.0947 0.700876 10.9241C0.639528 10.7536 0.606079 10.5695 0.606079 10.3777V2.35074C0.606079 1.46412 1.32023 0.745361 2.20119 0.745361Z" fill="#1B291F"/>
</svg>
