<svg width="17" height="18" viewBox="0 0 17 18" fill="none" xmlns="http://www.w3.org/2000/svg">
<path fill-rule="evenodd" clip-rule="evenodd" d="M16.7749 9.10111C16.7749 13.5836 13.1644 17.2174 8.71061 17.2174C4.25682 17.2174 0.646301 13.5836 0.646301 9.10111C0.646301 4.61863 4.25682 0.984863 8.71061 0.984863C13.1644 0.984863 16.7749 4.61863 16.7749 9.10111ZM8.85328 3.63531C5.86925 3.63531 3.45019 6.06993 3.45019 9.07319C3.45019 10.0154 3.68864 10.9027 4.10833 11.6761L3.46752 13.9334C3.42164 14.0951 3.46842 14.269 3.58906 14.3853C3.70971 14.5015 3.88439 14.541 4.04284 14.4878L6.14829 13.7815C6.94408 14.2455 7.86846 14.5111 8.85328 14.5111C11.8373 14.5111 14.2564 12.0764 14.2564 9.07319C14.2564 6.06993 11.8373 3.63531 8.85328 3.63531Z" fill="#1B291F"/>
<path fill-rule="evenodd" clip-rule="evenodd" d="M4.35071 9.07319C4.35071 6.57048 6.36658 4.54162 8.85328 4.54162C11.34 4.54162 13.3558 6.57048 13.3558 9.07319C13.3558 11.5759 11.34 13.6048 8.85328 13.6048C7.96656 13.6048 7.14098 13.3473 6.44472 12.9026C6.33042 12.8297 6.18954 12.8123 6.06112 12.8554L4.56789 13.3563L5.02621 11.7419C5.06028 11.6219 5.04366 11.4931 4.98028 11.3858C4.58045 10.7091 4.35071 9.91886 4.35071 9.07319ZM8.89832 7.98042L8.37309 8.4653C8.38329 8.50161 8.39597 8.54418 8.41135 8.59151C8.46336 8.75154 8.54466 8.96116 8.66217 9.16601C8.77968 9.37085 8.9194 9.54652 9.03111 9.67187C9.06414 9.70894 9.09443 9.74128 9.12057 9.76832L9.80042 9.55297C10.1813 9.43233 10.5967 9.55645 10.8505 9.86668L11.2621 10.3699C11.5743 10.7516 11.5376 11.3118 11.1783 11.649C10.5324 12.255 9.52857 12.416 8.82621 11.7724C8.36121 11.3463 7.81876 10.7388 7.34377 9.91704C6.86959 9.09665 6.6196 8.32597 6.48885 7.71197C6.29001 6.77832 6.93585 5.99242 7.77618 5.73377C8.25014 5.58788 8.75509 5.83825 8.92897 6.30538L9.15341 6.90833C9.29347 7.28461 9.19255 7.7088 8.89832 7.98042Z" fill="#1B291F"/>
</svg>
