<svg width="78" height="58" viewBox="0 0 78 58" fill="none" xmlns="http://www.w3.org/2000/svg">
<path d="M57.8263 36.633C58.0878 35.997 58.8336 35.6426 59.4919 35.8415L75.9206 40.8037C76.5789 41.0026 76.9006 41.6793 76.639 42.3153C76.3774 42.9513 75.6317 43.3057 74.9734 43.1068L58.5446 38.1446C57.8863 37.9457 57.5647 37.269 57.8263 36.633Z" fill="#090808"/>
<path d="M45.8455 10.9354C45.1843 10.5697 45.0168 9.78406 45.4714 9.18053L51.5514 1.10718C52.0059 0.503648 52.9104 0.310818 53.5715 0.67648C54.2327 1.04214 54.4002 1.82783 53.9457 2.43135L47.8656 10.5047C47.4111 11.1082 46.5067 11.3011 45.8455 10.9354Z" fill="#090808"/>
<path d="M50.6894 15.7499C50.1409 15.2664 50.1517 14.495 50.7135 14.027L62.9816 3.80659C63.5434 3.33857 64.4434 3.35114 64.9919 3.83465C65.5404 4.31816 65.5297 5.08953 64.9679 5.55754L52.6998 15.778C52.138 16.246 51.2379 16.2334 50.6894 15.7499Z" fill="#090808"/>
<path d="M53.8783 21.2567C53.5209 20.656 53.7504 19.9421 54.3909 19.6622L64.7641 15.129C65.4046 14.8491 66.2137 15.1092 66.5711 15.7099C66.9286 16.3106 66.6991 17.0246 66.0586 17.3045L55.6854 21.8376C55.0449 22.1175 54.2358 21.8575 53.8783 21.2567Z" fill="#090808"/>
<path d="M56.9494 26.1976C56.8203 25.5324 57.2594 24.9156 57.9302 24.82L75.1775 22.361C75.8484 22.2653 76.4969 22.727 76.626 23.3922C76.7551 24.0574 76.316 24.6742 75.6452 24.7698L58.3979 27.2289C57.727 27.3245 57.0785 26.8628 56.9494 26.1976Z" fill="#090808"/>
<path d="M56.9102 42.5386C57.2947 41.9502 58.1201 41.7198 58.7537 42.0239L68.8904 46.8885C69.524 47.1926 69.726 47.9161 69.3415 48.5045C68.9571 49.0928 68.1317 49.3233 67.498 49.0192L57.3614 44.1545C56.7277 43.8504 56.5257 43.1269 56.9102 42.5386Z" fill="#090808"/>
<path d="M58.2815 31.5872C58.4111 30.9221 59.0599 30.4607 59.7307 30.5567L71.3549 32.2199C72.0257 32.3159 72.4644 32.9329 72.3348 33.598C72.2052 34.2631 71.5564 34.7245 70.8856 34.6285L59.2614 32.9653C58.5906 32.8693 58.1519 32.2523 58.2815 31.5872Z" fill="#090808"/>
<path fill-rule="evenodd" clip-rule="evenodd" d="M45.1922 44.445L45.757 44.6041C45.5704 44.562 45.3821 44.5089 45.1922 44.445ZM44.1625 44.0018L43.4961 43.5828L42.0131 42.5137C42.2882 42.7491 42.5626 42.9673 42.8358 43.1676C43.1596 43.405 43.4817 43.6172 43.8011 43.8027C43.922 43.8729 44.0424 43.9393 44.1625 44.0018ZM41.4405 41.9998L41.0846 41.6399L39.4057 39.7957C39.7427 40.2094 40.0816 40.6011 40.4212 40.969C40.6891 41.2592 40.9574 41.5348 41.2256 41.7948C41.2973 41.8642 41.3689 41.9326 41.4405 41.9998ZM37.6332 37.3912L38.3387 38.4039C38.1019 38.0766 37.8666 37.7388 37.6332 37.3912ZM36.1845 35.064L36.8574 36.1882C36.6307 35.8223 36.4063 35.4474 36.1845 35.064ZM32.0642 25.9425L31.816 25.1846C31.8957 25.4356 31.9785 25.6883 32.0642 25.9425ZM31.2737 23.3232L31.5684 24.3763C31.4637 24.0213 31.3654 23.6701 31.2737 23.3232ZM30.8357 21.4551L31.0268 22.3307C30.9579 22.0351 30.8942 21.7431 30.8357 21.4551ZM30.4537 18.9766L30.6017 20.1428C30.541 19.7445 30.4915 19.3555 30.4537 18.9766ZM30.3673 17.6306L30.3925 18.2155C30.3806 18.0173 30.3722 17.8223 30.3673 17.6306ZM30.3925 16.3304L30.3629 17.1073C30.3653 16.841 30.3752 16.5819 30.3925 16.3304Z" fill="#090808"/>
<path d="M46.3523 22.0859C42.2726 12.9845 37.3836 10.1949 33.1966 11.5732C32.9545 11.6529 32.726 11.7564 32.5113 11.8825C31.2167 12.6426 30.5385 14.2156 30.3925 16.3304L30.3629 17.1073C30.3613 17.2788 30.3628 17.4533 30.3673 17.6306L30.3925 18.2155C30.4075 18.4642 30.4279 18.718 30.4537 18.9766L30.6017 20.1428C30.6668 20.57 30.745 21.0078 30.8357 21.4551L31.0268 22.3307C31.1028 22.6573 31.1852 22.9882 31.2737 23.3232L31.5684 24.3763C31.6473 24.6436 31.7299 24.9131 31.816 25.1846L32.0642 25.9425C32.8268 25.5752 33.7067 25.3657 34.6437 25.3657C37.5552 25.3657 39.6304 27.6326 39.6304 30.1276C39.6304 32.1808 38.0321 33.9142 35.8434 34.4636C35.9564 34.666 36.0701 34.8661 36.1845 35.064L36.8574 36.1882C37.1133 36.601 37.3721 37.0023 37.6332 37.3912L38.3387 38.4039C38.6914 38.8916 39.0475 39.3561 39.4057 39.7957L41.0846 41.6399L41.4405 41.9998C41.6315 42.1791 41.8225 42.3505 42.0131 42.5137L43.4961 43.5828L44.1625 44.0018C44.2667 44.0561 44.3706 44.1074 44.4742 44.1558C44.7156 44.2686 44.9551 44.3652 45.1922 44.445L45.757 44.6041C46.5304 44.7783 47.2735 44.762 47.9707 44.5325C48.3166 44.4186 48.6345 44.2562 48.9244 44.0489C52.1436 41.7464 50.0951 30.4355 46.3523 22.0859Z" fill="#090808"/>
<path fill-rule="evenodd" clip-rule="evenodd" d="M33.0003 40.7246L33.808 41.8841C33.5369 41.5093 33.2675 41.1226 33.0003 40.7246ZM31.3415 38.06L32.112 39.3471C31.8524 38.9282 31.5954 38.499 31.3415 38.06ZM26.6238 27.6159L26.3396 26.748C26.4308 27.0355 26.5256 27.3248 26.6238 27.6159ZM25.7187 24.6167L26.0561 25.8225C25.9362 25.4161 25.8236 25.014 25.7187 24.6167ZM25.2172 22.4777L25.4359 23.4803C25.3571 23.1419 25.2841 22.8076 25.2172 22.4777Z" fill="#090808"/>
<path d="M22.861 22.0976L20.2964 24.2954L17.8743 26.0048L15.7371 27.5921L13.7424 28.691L11.4628 29.7899L9.18309 30.6445L7.61585 31.255L6.19109 31.7434L4.62379 32.3539L3.19898 33.0865L2.05913 33.8191L1.34676 34.4296L0.91934 35.1622L0.776855 36.2611V38.4589L1.06184 39.802L1.48925 41.023L2.05913 42.244L2.77157 43.465L3.62644 44.4418L4.62379 45.2964L5.76363 45.9069L7.18842 46.5174L8.04329 46.6395L9.89552 46.2732L12.1752 45.9069L13.7425 45.4185H14.1699L14.4548 46.6395L14.8823 48.1047L15.3097 49.8141L15.8796 51.7677L16.4496 53.355L17.1619 54.6981L18.0168 56.0412L19.2991 57.2621L20.0115 57.3843L20.8664 57.018L22.4337 56.0412L23.8585 54.9423L24.5709 54.0876V53.355L23.5735 52.6224L22.7186 52.134L22.1487 51.7677L22.0062 51.1572L22.1487 50.0583V48.9594L22.0062 48.5931L21.5788 48.1047L21.0089 47.6163L20.8664 47.1279V45.2964L21.0089 44.4418L21.5788 43.9534L23.1461 43.8313H28.5603L30.555 43.9534L33.9745 44.4418L35.1143 44.6859L36.3313 44.9704L36.1925 44.8212L36.0686 44.6859C35.7212 44.3043 35.3747 43.9011 35.0297 43.4778C34.6196 42.9744 34.2119 42.4425 33.808 41.8841C33.5369 41.5093 33.2675 41.1226 33.0003 40.7246C32.7012 40.2793 32.4049 39.8198 32.112 39.3471C31.8524 38.9282 31.5954 38.499 31.3415 38.06C31.2105 37.8334 31.0803 37.6042 30.9509 37.3725C30.8801 37.2456 30.8094 37.1178 30.7391 36.9894C30.4527 36.4662 30.1708 35.9309 29.8941 35.3842C29.6775 34.9561 29.464 34.5211 29.2541 34.0796C29.0591 33.6695 28.8671 33.2539 28.6785 32.833C28.5834 32.6208 28.4898 32.409 28.3978 32.1975C28.1462 31.6197 27.9062 31.0446 27.6781 30.4737C27.4362 29.8682 27.2076 29.2673 26.9929 28.6725C26.9007 28.4173 26.8111 28.1632 26.7241 27.9104L26.6238 27.6159C26.5256 27.3248 26.4308 27.0355 26.3396 26.748C26.2409 26.4372 26.1464 26.1287 26.0561 25.8225C25.9362 25.4161 25.8236 25.014 25.7187 24.6167C25.6173 24.2332 25.523 23.8543 25.4359 23.4803C25.3571 23.1419 25.2841 22.8076 25.2172 22.4777C25.1132 21.9657 25.0238 21.4644 24.9492 20.9752C24.8975 20.6361 24.8529 20.3028 24.8157 19.9759L22.861 22.0976Z" fill="#090808"/>
<path d="M30.3925 16.3304C30.5385 14.2156 31.2167 12.6426 32.5113 11.8825C32.726 11.7564 32.9545 11.6529 33.1966 11.5732C37.3836 10.1949 42.2726 12.9845 46.3523 22.0859C50.0951 30.4355 52.1436 41.7464 48.9244 44.0489C48.6345 44.2562 48.3166 44.4186 47.9707 44.5325C47.2735 44.762 46.5304 44.7783 45.757 44.6041M30.3925 16.3304C30.3752 16.5819 30.3653 16.841 30.3629 17.1073M30.3925 16.3304L30.3629 17.1073M45.757 44.6041C45.5705 44.562 45.3821 44.5089 45.1922 44.445M45.757 44.6041L45.1922 44.445M32.0642 25.9425C32.8268 25.5752 33.7067 25.3657 34.6437 25.3657C37.5552 25.3657 39.6304 27.6326 39.6304 30.1276C39.6304 32.1808 38.0321 33.9142 35.8434 34.4636M32.0642 25.9425C31.9785 25.6883 31.8957 25.4356 31.816 25.1846M32.0642 25.9425C32.0931 26.0281 32.1223 26.1138 32.1519 26.1997M32.0642 25.9425L32.1519 26.1997M32.0642 25.9425L31.816 25.1846M35.8434 34.4636C35.7815 34.3527 35.7198 34.2412 35.6584 34.129M35.8434 34.4636C35.9564 34.666 36.0701 34.8661 36.1845 35.064M40.4212 40.969C40.0816 40.6011 39.7427 40.2094 39.4057 39.7957M40.4212 40.969C40.6891 41.2592 40.9574 41.5348 41.2256 41.7948M40.4212 40.969L41.0846 41.6399M41.4405 41.9998C41.3689 41.9326 41.2973 41.8642 41.2256 41.7948M41.4405 41.9998C41.6315 42.1791 41.8225 42.3505 42.0131 42.5137M41.4405 41.9998L41.0846 41.6399M42.8358 43.1676C42.5626 42.9673 42.2882 42.7491 42.0131 42.5137M42.8358 43.1676C43.1596 43.405 43.4817 43.6172 43.8011 43.8027M42.8358 43.1676L43.4961 43.5828M44.1625 44.0018C44.0424 43.9393 43.922 43.8729 43.8011 43.8027M44.1625 44.0018C44.2667 44.0561 44.3706 44.1074 44.4742 44.1558C44.7156 44.2686 44.9551 44.3652 45.1922 44.445M44.1625 44.0018L43.4961 43.5828M30.3629 17.1073C30.3613 17.2788 30.3628 17.4533 30.3673 17.6306M30.3673 17.6306C30.3722 17.8223 30.3806 18.0173 30.3925 18.2155M30.3673 17.6306L30.3925 18.2155M30.3925 18.2155C30.4075 18.4642 30.4279 18.718 30.4537 18.9766M30.4537 18.9766C30.4915 19.3555 30.541 19.7445 30.6017 20.1428M30.4537 18.9766L30.6017 20.1428M30.6017 20.1428C30.6668 20.57 30.745 21.0078 30.8357 21.4551M30.8357 21.4551C30.8942 21.7431 30.9579 22.0351 31.0268 22.3307M30.8357 21.4551L31.0268 22.3307M31.0268 22.3307C31.1028 22.6573 31.1852 22.9882 31.2737 23.3232M31.2737 23.3232C31.3654 23.6701 31.4637 24.0213 31.5684 24.3763M31.2737 23.3232L31.5684 24.3763M31.5684 24.3763C31.6473 24.6436 31.7299 24.9131 31.816 25.1846M31.816 25.1846L32.1519 26.1997M32.1519 26.1997C32.2279 26.4205 32.3061 26.6424 32.3866 26.8653M32.3866 26.8653C32.5741 27.3848 32.7737 27.9096 32.985 28.4384M32.3866 26.8653L32.985 28.4384M32.985 28.4384C33.1843 28.9371 33.3939 29.4393 33.6136 29.944M33.6136 29.944C33.6939 30.1287 33.7757 30.3137 33.8587 30.499C34.0235 30.8665 34.1911 31.2296 34.3614 31.5877M33.6136 29.944L34.3614 31.5877M34.3614 31.5877C34.5448 31.9733 34.7312 32.3532 34.9204 32.7271M34.9204 32.7271C35.162 33.2045 35.4082 33.6721 35.6584 34.129M34.9204 32.7271L35.6584 34.129M36.1845 35.064C36.4063 35.4474 36.6307 35.8223 36.8574 36.1882M36.1845 35.064L36.8574 36.1882M36.8574 36.1882C37.1133 36.601 37.3721 37.0023 37.6332 37.3912M37.6332 37.3912C37.8666 37.7388 38.1019 38.0766 38.3387 38.4039M37.6332 37.3912L38.3387 38.4039M38.3387 38.4039C38.6914 38.8916 39.0475 39.3561 39.4057 39.7957M39.4057 39.7957L41.0846 41.6399M41.2256 41.7948L41.0846 41.6399M42.0131 42.5137L43.4961 43.5828M43.8011 43.8027L43.4961 43.5828M26.6238 27.6159C26.5256 27.3248 26.4308 27.0355 26.3396 26.748M26.6238 27.6159C26.6569 27.7139 26.6903 27.812 26.7241 27.9104M26.6238 27.6159L26.7241 27.9104M26.6238 27.6159L26.3396 26.748M36.1925 44.8212C36.2388 44.8713 36.2851 44.921 36.3313 44.9704M36.1925 44.8212L36.3313 44.9704M36.1925 44.8212C36.1512 44.7764 36.1099 44.7313 36.0686 44.6859M36.1925 44.8212L36.0686 44.6859M25.2172 22.4777C25.1132 21.9657 25.0238 21.4644 24.9492 20.9752C24.8975 20.6361 24.8529 20.3028 24.8157 19.9759L22.861 22.0976L20.2964 24.2954L17.8743 26.0048L15.7371 27.5921L13.7424 28.691L11.4628 29.7899L9.18309 30.6445L7.61585 31.255L6.19109 31.7434L4.62379 32.3539L3.19898 33.0865L2.05913 33.8191L1.34676 34.4296L0.91934 35.1622L0.776855 36.2611V38.4589L1.06184 39.802L1.48925 41.023L2.05913 42.244L2.77157 43.465L3.62644 44.4418L4.62379 45.2964L5.76363 45.9069L7.18842 46.5174L8.04329 46.6395L9.89552 46.2732L12.1752 45.9069L13.7425 45.4185H14.1699L14.4548 46.6395L14.8823 48.1047L15.3097 49.8141L15.8796 51.7677L16.4496 53.355L17.1619 54.6981L18.0168 56.0412L19.2991 57.2621L20.0115 57.3843L20.8664 57.018L22.4337 56.0412L23.8585 54.9423L24.5709 54.0876V53.355L23.5735 52.6224L22.7186 52.134L22.1487 51.7677L22.0062 51.1572L22.1487 50.0583V48.9594L22.0062 48.5931L21.5788 48.1047L21.0089 47.6163L20.8664 47.1279V45.2964L21.0089 44.4418L21.5788 43.9534L23.1461 43.8313H28.5603L30.555 43.9534L33.9745 44.4418L35.1143 44.6859L36.3313 44.9704M25.2172 22.4777C25.2841 22.8076 25.3571 23.1419 25.4359 23.4803M25.2172 22.4777L25.4359 23.4803M25.4359 23.4803C25.523 23.8543 25.6173 24.2332 25.7187 24.6167M25.7187 24.6167C25.8236 25.014 25.9362 25.4161 26.0561 25.8225M25.7187 24.6167L26.0561 25.8225M26.0561 25.8225C26.1464 26.1287 26.2409 26.4372 26.3396 26.748M26.3396 26.748L26.7241 27.9104M26.7241 27.9104C26.8111 28.1632 26.9007 28.4173 26.9929 28.6725M26.9929 28.6725C27.2076 29.2673 27.4362 29.8682 27.6781 30.4737M26.9929 28.6725L27.6781 30.4737M27.6781 30.4737C27.9062 31.0446 28.1462 31.6197 28.3978 32.1975M28.3978 32.1975C28.4898 32.409 28.5834 32.6208 28.6785 32.833C28.8671 33.2539 29.0591 33.6695 29.2541 34.0796M28.3978 32.1975L29.2541 34.0796M29.2541 34.0796C29.464 34.5211 29.6775 34.9561 29.8941 35.3842M29.8941 35.3842C30.1708 35.9309 30.4527 36.4662 30.7391 36.9894M29.8941 35.3842L30.7391 36.9894M30.7391 36.9894C30.8094 37.1178 30.8801 37.2456 30.9509 37.3725C31.0803 37.6042 31.2105 37.8334 31.3415 38.06M31.3415 38.06C31.5954 38.499 31.8524 38.9282 32.112 39.3471M31.3415 38.06L32.112 39.3471M32.112 39.3471C32.4049 39.8198 32.7012 40.2793 33.0003 40.7246M33.0003 40.7246C33.2675 41.1226 33.5369 41.5093 33.808 41.8841M33.0003 40.7246L33.808 41.8841M33.808 41.8841C34.2119 42.4425 34.6196 42.9744 35.0297 43.4778C35.3747 43.9011 35.7212 44.3043 36.0686 44.6859" stroke="#0C0C0C" stroke-width="0.7"/>
</svg>
