<svg width="24" height="25" viewBox="0 0 24 25" fill="none" xmlns="http://www.w3.org/2000/svg">
<path d="M8.62531 1.0523C9.44493 0.315894 10.6878 0.315908 11.5075 1.0523L19.4138 8.15576C19.8689 8.56471 20.1289 9.14781 20.1289 9.75971V10.2171C19.9087 10.02 19.6683 9.84528 19.4112 9.69659C18.7754 9.3288 18.0371 9.11877 17.2539 9.11877C14.8721 9.11877 12.9414 11.0495 12.9414 13.4313H12.2255H12.2227H7.91016C7.5132 13.4313 7.19141 13.7531 7.19141 14.15V19.9C7.19141 21.0908 6.22602 22.0563 5.03516 22.0563H2.16016C0.969288 22.0563 0.00390625 21.0908 0.00390625 19.9V9.75971C0.00390625 9.14781 0.263892 8.56471 0.719062 8.15576L8.62531 1.0523Z" fill="#4285F4"/>
<path d="M12.9414 17.8665C13.1662 17.787 13.4082 17.7437 13.6602 17.7437H20.8477C22.0385 17.7437 23.0039 18.7091 23.0039 19.9C23.0039 21.5044 22.3441 22.7898 21.2615 23.6587C20.1959 24.5141 18.7677 24.9312 17.2539 24.9312C15.7401 24.9312 14.3119 24.5141 13.2463 23.6587C12.7054 23.2245 12.27 22.6863 11.9697 22.0562C11.7617 21.6198 11.6185 21.1392 11.55 20.6187C11.5196 20.387 11.5039 20.1472 11.5039 19.9C11.5039 18.9611 12.1039 18.1625 12.9414 17.8665Z" fill="#4285F4"/>
<path d="M20.1289 13.4312C20.1289 12.367 19.5507 11.4379 18.6914 10.9408C18.2685 10.6962 17.7776 10.5562 17.2539 10.5562C15.666 10.5562 14.3789 11.8434 14.3789 13.4312C14.3789 15.0191 15.666 16.3062 17.2539 16.3062C17.7776 16.3062 18.2685 16.1662 18.6914 15.9215C19.5507 15.4245 20.1289 14.4954 20.1289 13.4312Z" fill="#4285F4"/>
</svg>
