<svg width="27" height="23" viewBox="0 0 27 23" fill="none" xmlns="http://www.w3.org/2000/svg">
<path d="M19.7035 14.4942C19.7892 14.2511 20.0557 14.1235 20.2987 14.2092L25.5796 16.0705C25.8226 16.1562 25.9502 16.4226 25.8646 16.6657C25.7789 16.9087 25.5124 17.0363 25.2694 16.9506L19.9885 15.0893C19.7455 15.0037 19.6179 14.7372 19.7035 14.4942Z" fill="#090808"/>
<path d="M15.7793 4.67361C15.5627 4.53387 15.5005 4.24507 15.6402 4.02854L17.6644 0.892138C17.8041 0.675614 18.0929 0.613368 18.3095 0.753108C18.526 0.892848 18.5882 1.18166 18.4485 1.39818L16.4243 4.53458C16.2846 4.75111 15.9958 4.81335 15.7793 4.67361Z" fill="#090808"/>
<path d="M17.3659 6.51358C17.1863 6.32881 17.1904 6.0334 17.3752 5.85377L21.39 1.95077C21.5748 1.77114 21.8702 1.77532 22.0499 1.96009C22.2295 2.14487 22.2253 2.44028 22.0405 2.61991L18.0257 6.5229C17.8409 6.70253 17.5455 6.69836 17.3659 6.51358Z" fill="#090808"/>
<path d="M18.4105 8.61801C18.2934 8.38844 18.3846 8.10743 18.6142 7.99036L21.9396 6.29456C22.1692 6.17749 22.4502 6.26869 22.5673 6.49826C22.6843 6.72784 22.5931 7.00885 22.3636 7.12592L19.0381 8.82172C18.8085 8.93879 18.5275 8.84759 18.4105 8.61801Z" fill="#090808"/>
<path d="M19.4164 10.5062C19.3741 10.252 19.5459 10.0116 19.8001 9.96932L25.3235 9.05039C25.5777 9.0081 25.8181 9.17989 25.8604 9.4341C25.9027 9.6883 25.7309 9.92866 25.4767 9.97096L19.9533 10.8899C19.6991 10.9322 19.4587 10.7604 19.4164 10.5062Z" fill="#090808"/>
<path d="M19.403 16.7509C19.5289 16.5261 19.8133 16.4459 20.0381 16.5718L23.295 18.3957C23.5199 18.5216 23.6001 18.806 23.4742 19.0308C23.3482 19.2557 23.0639 19.3359 22.8391 19.2099L19.5821 17.386C19.3573 17.2601 19.2771 16.9758 19.403 16.7509Z" fill="#090808"/>
<path d="M19.852 12.5658C19.8944 12.3116 20.1349 12.1399 20.3891 12.1824L24.071 12.7971C24.3251 12.8396 24.4968 13.08 24.4544 13.3342C24.4119 13.5884 24.1715 13.76 23.9173 13.7176L20.2354 13.1028C19.9812 13.0604 19.8095 12.8199 19.852 12.5658Z" fill="#090808"/>
<path fill-rule="evenodd" clip-rule="evenodd" d="M15.5652 17.4795L15.7502 17.5402C15.6891 17.5242 15.6274 17.5039 15.5652 17.4795ZM15.228 17.3101L15.0098 17.15L14.5241 16.7414C14.6142 16.8313 14.7041 16.9148 14.7935 16.9913C14.8996 17.082 15.0051 17.1631 15.1097 17.234C15.1492 17.2608 15.1887 17.2862 15.228 17.3101ZM14.3366 16.545L14.22 16.4075L13.6702 15.7027C13.7806 15.8608 13.8916 16.0105 14.0028 16.1511C14.0905 16.262 14.1784 16.3673 14.2662 16.4667C14.2897 16.4932 14.3131 16.5193 14.3366 16.545ZM13.0897 14.7838L13.3208 15.1708C13.2432 15.0457 13.1662 14.9167 13.0897 14.7838ZM12.6153 13.8945L12.8357 14.3241C12.7614 14.1843 12.6879 14.041 12.6153 13.8945ZM11.2659 10.4086L11.1846 10.119C11.2107 10.2149 11.2378 10.3115 11.2659 10.4086ZM11.007 9.40763L11.1036 9.81008C11.0693 9.67443 11.0371 9.54022 11.007 9.40763ZM10.8636 8.69372L10.9262 9.02833C10.9036 8.91538 10.8827 8.80381 10.8636 8.69372ZM10.7385 7.74656L10.7869 8.19222C10.7671 8.04003 10.7509 7.89135 10.7385 7.74656ZM10.7102 7.23219L10.7185 7.45569C10.7146 7.37995 10.7118 7.30543 10.7102 7.23219ZM10.7185 6.7353L10.7087 7.0322C10.7095 6.93042 10.7128 6.8314 10.7185 6.7353Z" fill="#090808"/>
<path d="M15.9452 8.93481C14.6091 5.45663 13.008 4.39059 11.6368 4.91732C11.5575 4.94778 11.4827 4.98734 11.4123 5.03552C10.9884 5.326 10.7662 5.92712 10.7185 6.7353L10.7087 7.0322C10.7082 7.09774 10.7087 7.16441 10.7102 7.23219L10.7185 7.45569C10.7233 7.55076 10.73 7.64776 10.7385 7.74656L10.7869 8.19222C10.8083 8.35549 10.8339 8.52281 10.8636 8.69372L10.9262 9.02833C10.9511 9.15315 10.9781 9.27963 11.007 9.40763L11.1036 9.81008C11.1294 9.91225 11.1564 10.0152 11.1846 10.119L11.2659 10.4086C11.5156 10.2683 11.8038 10.1882 12.1107 10.1882C13.0642 10.1882 13.7438 11.0545 13.7438 12.008C13.7438 12.7926 13.2203 13.455 12.5036 13.665C12.5406 13.7423 12.5778 13.8188 12.6153 13.8945L12.8357 14.3241C12.9194 14.4818 13.0042 14.6352 13.0897 14.7838L13.3208 15.1708C13.4363 15.3572 13.5529 15.5347 13.6702 15.7027L14.22 16.4075L14.3366 16.545C14.3991 16.6135 14.4617 16.679 14.5241 16.7414L15.0098 17.15L15.228 17.3101C15.2621 17.3308 15.2962 17.3504 15.3301 17.3689C15.4092 17.412 15.4876 17.449 15.5652 17.4795L15.7502 17.5402C16.0035 17.6068 16.2469 17.6006 16.4752 17.5129C16.5885 17.4694 16.6926 17.4073 16.7875 17.3281C17.8418 16.4482 17.1709 12.1257 15.9452 8.93481Z" fill="#090808"/>
<path fill-rule="evenodd" clip-rule="evenodd" d="M11.5725 16.0577L11.837 16.5008C11.7482 16.3576 11.66 16.2098 11.5725 16.0577ZM11.0292 15.0394L11.2816 15.5313C11.1965 15.3712 11.1124 15.2072 11.0292 15.0394ZM9.48422 11.0481L9.39114 10.7165C9.42102 10.8263 9.45205 10.9369 9.48422 11.0481ZM9.18779 9.90197L9.2983 10.3628C9.25903 10.2075 9.22217 10.0538 9.18779 9.90197ZM9.02356 9.08454L9.09519 9.46768C9.06937 9.33835 9.04548 9.21059 9.02356 9.08454Z" fill="#090808"/>
<path d="M8.25193 8.93928L7.41204 9.77917L6.61881 10.4324L5.9189 11.039L5.26566 11.459L4.51909 11.8789L3.77251 12.2055L3.25925 12.4388L2.79265 12.6255L2.27937 12.8588L1.81276 13.1388L1.43947 13.4187L1.20617 13.652L1.06619 13.932L1.01953 14.3519V15.1918L1.11286 15.7051L1.25284 16.1717L1.43947 16.6383L1.67279 17.1049L1.95275 17.4782L2.27937 17.8048L2.65266 18.0381L3.11927 18.2715L3.39924 18.3181L4.00583 18.1781L4.7524 18.0381L5.26567 17.8515H5.40565L5.49897 18.3181L5.63896 18.878L5.77894 19.5313L5.96558 20.2779L6.15223 20.8845L6.38553 21.3977L6.66549 21.911L7.08544 22.3776L7.31875 22.4243L7.59871 22.2843L8.11198 21.911L8.57859 21.491L8.81189 21.1644V20.8845L8.48527 20.6045L8.2053 20.4179L8.01866 20.2779L7.972 20.0446L8.01866 19.6246V19.2047L7.972 19.0647L7.83202 18.878L7.64537 18.6914L7.59871 18.5048V17.8048L7.64537 17.4782L7.83202 17.2916L8.34529 17.2449H10.1184L10.7716 17.2916L11.8915 17.4782L12.2648 17.5715L12.6634 17.6802L12.6179 17.6232L12.5773 17.5715C12.4636 17.4257 12.3501 17.2716 12.2371 17.1098C12.1028 16.9175 11.9693 16.7142 11.837 16.5008C11.7482 16.3576 11.66 16.2098 11.5725 16.0577C11.4745 15.8875 11.3775 15.7119 11.2816 15.5313C11.1965 15.3712 11.1124 15.2072 11.0292 15.0394C10.9863 14.9528 10.9437 14.8652 10.9013 14.7767C10.8781 14.7281 10.855 14.6793 10.832 14.6302C10.7381 14.4303 10.6458 14.2257 10.5552 14.0168C10.4843 13.8532 10.4144 13.687 10.3456 13.5183C10.2818 13.3615 10.2189 13.2027 10.1571 13.0419C10.126 12.9608 10.0953 12.8798 10.0652 12.799C9.98281 12.5782 9.90421 12.3584 9.82949 12.1402C9.75026 11.9088 9.67541 11.6792 9.60508 11.4519C9.57491 11.3544 9.54558 11.2573 9.51708 11.1607L9.48422 11.0481C9.45205 10.9369 9.42102 10.8263 9.39114 10.7165C9.35884 10.5977 9.32789 10.4798 9.2983 10.3628C9.25903 10.2075 9.22217 10.0538 9.18779 9.90197C9.1546 9.75541 9.12372 9.61059 9.09519 9.46768C9.06937 9.33835 9.04548 9.21059 9.02356 9.08454C8.98952 8.88885 8.96022 8.69727 8.93579 8.51033C8.91886 8.38075 8.90427 8.2534 8.89207 8.12844L8.25193 8.93928Z" fill="#090808"/>
<path d="M10.7185 6.7353C10.7662 5.92712 10.9884 5.326 11.4123 5.03552C11.4827 4.98734 11.5575 4.94778 11.6368 4.91732C13.008 4.39059 14.6091 5.45663 15.9452 8.93481C17.1709 12.1257 17.8418 16.4482 16.7875 17.3281C16.6926 17.4073 16.5885 17.4694 16.4752 17.5129C16.2469 17.6006 16.0035 17.6068 15.7502 17.5402M10.7185 6.7353C10.7128 6.8314 10.7095 6.93042 10.7087 7.0322M10.7185 6.7353L10.7087 7.0322M15.7502 17.5402C15.6891 17.5242 15.6274 17.5039 15.5652 17.4795M15.7502 17.5402L15.5652 17.4795M11.2659 10.4086C11.5156 10.2683 11.8038 10.1882 12.1107 10.1882C13.0642 10.1882 13.7438 11.0545 13.7438 12.008C13.7438 12.7926 13.2203 13.455 12.5036 13.665M11.2659 10.4086C11.2378 10.3115 11.2107 10.2149 11.1846 10.119M11.2659 10.4086C11.2754 10.4413 11.2849 10.4741 11.2946 10.5069M11.2659 10.4086L11.2946 10.5069M11.2659 10.4086L11.1846 10.119M12.5036 13.665C12.4833 13.6226 12.4631 13.58 12.443 13.5371M12.5036 13.665C12.5406 13.7423 12.5778 13.8188 12.6153 13.8945M14.0028 16.1511C13.8916 16.0105 13.7806 15.8608 13.6702 15.7027M14.0028 16.1511C14.0905 16.262 14.1784 16.3673 14.2662 16.4667M14.0028 16.1511L14.22 16.4075M14.3366 16.545C14.3131 16.5193 14.2897 16.4932 14.2662 16.4667M14.3366 16.545C14.3991 16.6135 14.4617 16.679 14.5241 16.7414M14.3366 16.545L14.22 16.4075M14.7935 16.9913C14.7041 16.9148 14.6142 16.8313 14.5241 16.7414M14.7935 16.9913C14.8996 17.082 15.0051 17.1631 15.1097 17.234M14.7935 16.9913L15.0098 17.15M15.228 17.3101C15.1887 17.2862 15.1492 17.2608 15.1097 17.234M15.228 17.3101C15.2622 17.3308 15.2962 17.3504 15.3301 17.3689C15.4092 17.412 15.4876 17.449 15.5652 17.4795M15.228 17.3101L15.0098 17.15M10.7087 7.0322C10.7082 7.09774 10.7087 7.16441 10.7102 7.23219M10.7102 7.23219C10.7118 7.30543 10.7146 7.37995 10.7185 7.45569M10.7102 7.23219L10.7185 7.45569M10.7185 7.45569C10.7233 7.55076 10.73 7.64776 10.7385 7.74656M10.7385 7.74656C10.7509 7.89135 10.7671 8.04003 10.7869 8.19222M10.7385 7.74656L10.7869 8.19222M10.7869 8.19222C10.8083 8.35549 10.8339 8.52281 10.8636 8.69372M10.8636 8.69372C10.8827 8.80381 10.9036 8.91538 10.9262 9.02833M10.8636 8.69372L10.9262 9.02833M10.9262 9.02833C10.9511 9.15315 10.978 9.27963 11.007 9.40763M11.007 9.40763C11.0371 9.54022 11.0693 9.67443 11.1036 9.81008M11.007 9.40763L11.1036 9.81008M11.1036 9.81008C11.1294 9.91225 11.1564 10.0152 11.1846 10.119M11.1846 10.119L11.2946 10.5069M11.2946 10.5069C11.3195 10.5913 11.3451 10.6761 11.3715 10.7613M11.3715 10.7613C11.4329 10.9598 11.4983 11.1604 11.5675 11.3624M11.3715 10.7613L11.5675 11.3624M11.5675 11.3624C11.6327 11.553 11.7014 11.7449 11.7733 11.9378M11.7733 11.9378C11.7996 12.0084 11.8264 12.0791 11.8536 12.1499C11.9076 12.2904 11.9625 12.4291 12.0182 12.566M11.7733 11.9378L12.0182 12.566M12.0182 12.566C12.0783 12.7133 12.1393 12.8585 12.2013 13.0014M12.2013 13.0014C12.2804 13.1838 12.3611 13.3625 12.443 13.5371M12.2013 13.0014L12.443 13.5371M12.6153 13.8945C12.6879 14.041 12.7614 14.1843 12.8357 14.3241M12.6153 13.8945L12.8357 14.3241M12.8357 14.3241C12.9194 14.4818 13.0042 14.6352 13.0897 14.7838M13.0897 14.7838C13.1662 14.9167 13.2432 15.0457 13.3208 15.1708M13.0897 14.7838L13.3208 15.1708M13.3208 15.1708C13.4363 15.3572 13.5529 15.5347 13.6702 15.7027M13.6702 15.7027L14.22 16.4075M14.2662 16.4667L14.22 16.4075M14.5241 16.7414L15.0098 17.15M15.1097 17.234L15.0098 17.15M9.48422 11.0481C9.45205 10.9369 9.42102 10.8263 9.39114 10.7165M9.48422 11.0481C9.49504 11.0856 9.506 11.1231 9.51708 11.1607M9.48422 11.0481L9.51708 11.1607M9.48422 11.0481L9.39114 10.7165M12.6179 17.6232C12.6331 17.6424 12.6482 17.6614 12.6634 17.6802M12.6179 17.6232L12.6634 17.6802M12.6179 17.6232C12.6044 17.6061 12.5908 17.5889 12.5773 17.5715M12.6179 17.6232L12.5773 17.5715M9.02356 9.08454C8.98952 8.88885 8.96022 8.69727 8.93579 8.51033C8.91886 8.38075 8.90427 8.2534 8.89207 8.12844L8.25193 8.93928L7.41204 9.77917L6.61881 10.4324L5.9189 11.039L5.26566 11.459L4.51909 11.8789L3.77251 12.2055L3.25925 12.4388L2.79265 12.6255L2.27937 12.8588L1.81276 13.1388L1.43947 13.4187L1.20617 13.652L1.06619 13.932L1.01953 14.3519V15.1918L1.11286 15.7051L1.25284 16.1717L1.43947 16.6383L1.67279 17.1049L1.95275 17.4782L2.27937 17.8048L2.65266 18.0381L3.11927 18.2715L3.39924 18.3181L4.00583 18.1781L4.7524 18.0381L5.26567 17.8515H5.40565L5.49897 18.3181L5.63896 18.878L5.77894 19.5313L5.96558 20.2779L6.15223 20.8845L6.38553 21.3977L6.6655 21.911L7.08544 22.3776L7.31875 22.4243L7.59871 22.2843L8.11198 21.911L8.57859 21.491L8.81189 21.1644V20.8845L8.48527 20.6045L8.2053 20.4179L8.01866 20.2779L7.972 20.0446L8.01866 19.6246V19.2047L7.972 19.0647L7.83202 18.878L7.64537 18.6914L7.59871 18.5048V17.8048L7.64537 17.4782L7.83202 17.2916L8.34529 17.2449H10.1184L10.7716 17.2916L11.8915 17.4782L12.2648 17.5715L12.6634 17.6802M9.02356 9.08454C9.04548 9.21059 9.06937 9.33835 9.09519 9.46768M9.02356 9.08454L9.09519 9.46768M9.09519 9.46768C9.12372 9.61059 9.1546 9.75541 9.18779 9.90197M9.18779 9.90197C9.22218 10.0538 9.25903 10.2075 9.2983 10.3628M9.18779 9.90197L9.2983 10.3628M9.2983 10.3628C9.32789 10.4798 9.35884 10.5977 9.39114 10.7165M9.39114 10.7165L9.51708 11.1607M9.51708 11.1607C9.54558 11.2573 9.57491 11.3544 9.60508 11.4519M9.60508 11.4519C9.67541 11.6792 9.75026 11.9088 9.82949 12.1402M9.60508 11.4519L9.82949 12.1402M9.82949 12.1402C9.90421 12.3584 9.98281 12.5782 10.0652 12.799M10.0652 12.799C10.0953 12.8798 10.126 12.9608 10.1571 13.0419C10.2189 13.2027 10.2818 13.3615 10.3456 13.5183M10.0652 12.799L10.3456 13.5183M10.3456 13.5183C10.4144 13.687 10.4843 13.8532 10.5552 14.0168M10.5552 14.0168C10.6458 14.2257 10.7381 14.4303 10.832 14.6302M10.5552 14.0168L10.832 14.6302M10.832 14.6302C10.855 14.6793 10.8781 14.7281 10.9013 14.7767C10.9437 14.8652 10.9863 14.9528 11.0292 15.0394M11.0292 15.0394C11.1124 15.2072 11.1965 15.3712 11.2816 15.5313M11.0292 15.0394L11.2816 15.5313M11.2816 15.5313C11.3775 15.7119 11.4745 15.8875 11.5725 16.0577M11.5725 16.0577C11.66 16.2098 11.7482 16.3576 11.837 16.5008M11.5725 16.0577L11.837 16.5008M11.837 16.5008C11.9693 16.7142 12.1028 16.9175 12.2371 17.1098C12.3501 17.2716 12.4636 17.4257 12.5773 17.5715" stroke="#0C0C0C" stroke-width="0.7"/>
</svg>
