<svg width="36" height="37" viewBox="0 0 36 37" fill="none" xmlns="http://www.w3.org/2000/svg">
<path d="M35.0039 18C35.0039 27.665 27.1689 35.5 17.5039 35.5C7.83892 35.5 0.00390625 27.665 0.00390625 18C0.00390625 8.33502 7.83892 0.5 17.5039 0.5C27.1689 0.5 35.0039 8.33502 35.0039 18Z" fill="#1B291F"/>
<path d="M21.7889 7.14673L23.0413 8.88372L25.2923 8.23668L23.8153 9.95724L25.0676 11.6942L22.9024 11.0206L21.4254 12.7412L21.5643 10.6043L19.3991 9.93065L21.6501 9.28361L21.7889 7.14673Z" fill="white"/>
<path d="M29.1661 9.39458L29.4703 10.9933L31.2285 11.2712L29.6583 11.9814L29.9625 13.5802L28.6878 12.4204L27.1176 13.1306L27.9001 11.7036L26.6254 10.5437L28.3836 10.8216L29.1661 9.39458Z" fill="white"/>
<path d="M26.6803 6.08771L27.3589 6.74135L28.2826 6.28443L27.7783 7.14532L28.4569 7.79896L27.4667 7.67738L26.9623 8.53827L26.8546 7.60224L25.8643 7.48066L26.788 7.02374L26.6803 6.08771Z" fill="white"/>
<path fill-rule="evenodd" clip-rule="evenodd" d="M19.5087 24.6294L19.497 24.6417L19.4642 24.676C19.4752 24.6646 19.4861 24.6531 19.497 24.6417C19.5009 24.6376 19.5048 24.6335 19.5087 24.6294ZM19.3325 24.8123L19.2904 24.8555L19.3061 24.8394L19.3325 24.8123ZM17.0417 27.3275C17.0381 27.3345 17.0346 27.3415 17.031 27.3484C17.0236 27.3628 17.0163 27.3771 17.0092 27.3913L17.0417 27.3275ZM12.5787 36.1677L12.4245 36.1745L12.482 36.172L12.5787 36.1677Z" fill="white"/>
<path d="M22.6332 15.4107C22.6286 15.4269 22.624 15.4427 22.6196 15.4578C22.6161 15.4698 22.6126 15.4815 22.6092 15.4927C22.6069 15.5004 22.6046 15.5079 22.6024 15.5152L22.5973 15.5311C22.5916 15.549 22.5861 15.5655 22.5806 15.5806C22.5774 15.5892 22.5743 15.5974 22.5711 15.605C22.566 15.6176 22.5609 15.6286 22.5559 15.6381C22.5511 15.647 22.5464 15.6544 22.5416 15.6604C22.5338 15.6701 22.5259 15.6794 22.5181 15.6885C22.5135 15.6939 22.5088 15.6992 22.5042 15.7044C22.4942 15.7156 22.4843 15.7264 22.4744 15.737C22.4667 15.7452 22.459 15.7533 22.4514 15.7613L22.3741 15.8458L22.3471 15.8777C22.3356 15.8925 22.3246 15.9079 22.3142 15.9243C22.3064 15.9365 22.299 15.9493 22.2919 15.9627C22.2886 15.9689 22.2854 15.9754 22.2823 15.9819L22.2601 16.0361C22.2553 16.0496 22.251 16.0637 22.247 16.0785L22.2375 16.0933L22.2015 16.1528L22.1807 16.1859L22.1077 16.3026L22.0513 16.3928L21.9354 16.5788L21.9055 16.6269L21.8748 16.6764C21.849 16.718 21.8234 16.7593 21.7981 16.8002C21.7703 16.8451 21.7428 16.8896 21.7156 16.9336C21.6852 16.983 21.6551 17.0318 21.6255 17.08L21.5128 17.2638C21.4807 17.3163 21.4491 17.368 21.418 17.4191L21.3018 17.6104C21.2627 17.6751 21.2244 17.7386 21.1869 17.8009L21.0701 17.9958C21.0457 18.0368 21.0216 18.0772 20.9979 18.1171L20.8953 18.2906L20.8578 18.3543L20.8215 18.4014L20.7748 18.4621L20.715 18.5398L20.6231 18.6594L20.447 18.8631L20.3817 18.9348C20.3582 18.9607 20.3348 18.9864 20.3118 19.0118C19.3404 20.0827 18.8081 20.732 18.5505 21.1195L18.1938 21.5698C17.7495 22.0492 17.3743 22.4622 17.0589 22.8178L16.8921 23.0069C16.8144 23.0955 16.7409 23.1801 16.6712 23.261L16.3174 23.5473C16.1952 23.618 16.0718 23.6858 15.9631 23.7573C15.9432 23.7704 15.9238 23.7836 15.905 23.797L15.5434 23.9843C15.5106 23.9951 15.4765 24.0059 15.4412 24.0165C15.2559 24.072 15.0587 24.1132 14.8859 24.1681L14.8584 24.1651L14.7477 24.1532L14.6903 24.1471L14.6256 24.1401L14.5287 24.1214L14.394 24.0953L14.3153 24.0821C14.2963 24.0765 14.2772 24.071 14.2578 24.0655L14.2009 24.0499C14.1774 24.0436 14.1537 24.0374 14.1297 24.0314L14.0269 24.0066C13.9077 23.9786 13.7884 23.9524 13.6697 23.9281L13.5452 23.8624C13.5216 23.831 13.4998 23.7961 13.4812 23.7573C13.4628 23.7192 13.4475 23.6772 13.4365 23.6309C13.4178 23.5524 13.4271 23.4896 13.4519 23.4373C13.4878 23.3618 13.5561 23.3082 13.6195 23.261C13.6456 23.2631 13.674 23.264 13.7046 23.2635C13.7533 23.2627 13.8078 23.2585 13.8687 23.2506C13.9103 23.2452 13.9549 23.2381 14.0027 23.2292L14.1572 23.1964C14.1976 23.187 14.2399 23.1764 14.2841 23.1648C14.3235 23.1544 14.3646 23.1431 14.4072 23.131C14.4305 23.1243 14.4534 23.1176 14.4758 23.1109C14.5283 23.0953 14.5782 23.0796 14.6256 23.0638C14.6828 23.0449 14.7364 23.0259 14.7866 23.0069C14.8252 22.9923 14.8619 22.9777 14.8966 22.9631L15.0136 22.9107C15.067 22.8851 15.1146 22.8596 15.1571 22.8344C15.2013 22.8081 15.2399 22.7821 15.2736 22.7564C15.3247 22.7172 15.3643 22.6788 15.3943 22.6415C15.4175 22.6126 15.4349 22.5843 15.4475 22.5567C15.4674 22.5132 15.4751 22.4716 15.4742 22.4327C15.4735 22.4024 15.4676 22.3737 15.4582 22.3469C15.4443 22.3072 15.4228 22.2716 15.3993 22.2411L15.3306 22.0902L15.2962 21.9393L15.2736 21.7691V21.5698C15.3055 21.5191 15.3332 21.4699 15.3563 21.4225C15.3814 21.371 15.4011 21.3216 15.4151 21.2748C15.4316 21.2192 15.44 21.1672 15.4397 21.1195C15.4392 21.0588 15.4245 21.0051 15.3943 20.9598C15.3734 20.9285 15.3451 20.9013 15.309 20.8785C15.2825 20.8618 15.2519 20.8475 15.2169 20.8359C15.1195 20.8034 15.0244 20.7512 14.9301 20.6832C14.9189 20.6751 14.9078 20.6668 14.8966 20.6583V20.587C14.9073 20.5505 14.9186 20.5137 14.9301 20.4768C14.9372 20.4542 14.9444 20.4316 14.9515 20.4091L14.9876 20.295C15.0049 20.2396 15.0211 20.1853 15.0348 20.1333C15.0935 20.0401 15.1287 19.9624 15.1443 19.8967C15.1641 19.8138 15.1527 19.7502 15.1187 19.6995C15.0897 19.6563 15.0443 19.6225 14.9876 19.594C14.9568 19.5784 14.9226 19.5645 14.8859 19.5515L14.8346 19.4165C14.828 19.3787 14.8172 19.3395 14.8018 19.2989L14.7866 19.2617C14.9024 19.1568 14.9896 19.066 15.0526 18.9871C15.0787 18.9543 15.1006 18.9235 15.1187 18.8946L15.1571 18.8234C15.1661 18.8033 15.1729 18.7843 15.1776 18.7662C15.1852 18.7373 15.1875 18.7107 15.1852 18.6863C15.1805 18.6366 15.1568 18.5955 15.1187 18.5601C15.0907 18.5341 15.0551 18.5111 15.0136 18.4902C14.9755 18.4708 14.9324 18.4532 14.8859 18.4363L14.6527 18.3608C14.5944 18.3428 14.5347 18.3241 14.4758 18.3035C14.4102 18.2807 14.3454 18.2557 14.2841 18.2268C14.1736 18.1748 14.0745 18.1104 14.0027 18.0245C13.9681 17.9832 13.9399 17.9369 13.9197 17.8846L13.9077 17.8385L13.8894 17.7698L13.8808 17.7375C13.8668 17.6937 13.85 17.6513 13.8305 17.6104L13.7379 17.4654C13.7274 17.4254 13.7163 17.3858 13.7046 17.3465C13.6746 17.2454 13.6405 17.1464 13.6027 17.0494C13.5731 16.9737 13.5413 16.8994 13.5071 16.8263C13.4665 16.7392 13.4227 16.654 13.3759 16.5708C13.3338 16.496 13.2892 16.4228 13.2424 16.3512L13.1423 16.2056C13.1043 16.1531 13.0651 16.1015 13.0247 16.051L12.8609 15.8591C12.7954 15.7871 12.7272 15.7174 12.6565 15.6501L12.5259 15.5311C12.496 15.5051 12.4658 15.4794 12.4351 15.4542L12.3137 15.3579C12.2387 15.3005 12.1615 15.2456 12.0824 15.1931C12.0079 15.1436 11.9317 15.0964 11.8538 15.0513C11.8033 15.0221 11.7521 14.9938 11.7003 14.9665C11.6138 14.921 11.5255 14.8781 11.4356 14.838C11.3587 14.8038 11.2806 14.7715 11.2014 14.7414C11.0946 14.7007 10.9858 14.6638 10.8752 14.6309C10.771 14.5999 10.6653 14.5723 10.5581 14.5484C10.4594 14.5263 10.3595 14.5073 10.2586 14.4915C10.1561 14.4754 10.0525 14.4625 9.94801 14.453C9.86341 14.4453 9.77821 14.4398 9.69251 14.4365C9.58276 14.4323 9.47219 14.4318 9.36095 14.435C9.26119 14.438 9.16089 14.4439 9.0602 14.453C8.95554 14.4624 8.85046 14.4752 8.74509 14.4915C8.66445 14.5039 8.58364 14.5184 8.50272 14.5349C8.48144 14.5392 8.46024 14.5437 8.43912 14.5484C8.33187 14.572 8.22684 14.5996 8.12409 14.6309C8.0164 14.6637 7.91121 14.7006 7.80859 14.7414C7.64397 14.8068 7.48596 14.8822 7.33481 14.9665C7.17536 15.0555 7.02354 15.1545 6.87965 15.2624C6.72101 15.3814 6.572 15.5111 6.43301 15.6501L6.16692 15.9134C6.04673 16.0232 5.93135 16.1407 5.82145 16.2659C5.71425 16.388 5.61706 16.5148 5.52957 16.6456C5.48383 16.714 5.44074 16.7834 5.40025 16.8539L5.305 17.031C5.25009 17.1403 5.20108 17.2517 5.15781 17.3649C5.14147 17.4076 5.12595 17.4506 5.11125 17.4938L5.09423 17.5451C5.08558 17.5717 5.07724 17.5985 5.0692 17.6253L5.05194 17.6847C5.04325 17.7155 5.03496 17.7464 5.02706 17.7775L5.0042 17.8722C4.99647 17.9061 4.98921 17.9401 4.98239 17.9742L4.96697 18.0558L4.96273 18.0801L4.95428 18.1314C4.94817 18.17 4.94263 18.2087 4.93765 18.2476L4.93264 18.2883C4.92884 18.3205 4.92542 18.3527 4.92238 18.385L4.91478 18.4768C4.9068 18.5882 4.90326 18.7001 4.90404 18.8123C4.90511 18.9666 4.91433 19.1214 4.9314 19.2762C4.94309 19.3822 4.95847 19.4882 4.97743 19.594L4.99587 19.8337C5.01492 19.9593 5.03946 20.0846 5.06957 20.2091C5.11336 20.3901 5.16893 20.5696 5.2365 20.7463C5.29225 20.8921 5.35616 21.0361 5.42837 21.1776C5.46758 21.2544 5.50924 21.3305 5.55337 21.4058C5.59092 21.4699 5.63025 21.5334 5.67139 21.5962C5.71965 21.6699 5.76973 21.7417 5.82153 21.8115L6.02318 22.0639C6.05969 22.1063 6.09687 22.1479 6.13471 22.1886C6.19601 22.2547 6.25903 22.3185 6.32365 22.3801C6.37431 22.4284 6.42596 22.4753 6.47853 22.5209L6.72208 22.7172C6.77599 22.7576 6.8307 22.7966 6.88616 22.8344C6.95209 22.8792 7.01908 22.9221 7.08704 22.9631C7.17384 23.0155 7.26224 23.0648 7.35204 23.1109C7.45006 23.1613 7.54975 23.2079 7.65089 23.2506C7.75459 23.2945 7.85981 23.3343 7.96629 23.3701L8.18449 23.4373C8.24035 23.453 8.2965 23.4675 8.3529 23.481C8.37418 23.5027 8.39518 23.5248 8.41573 23.5473C8.44055 23.5745 8.46471 23.6021 8.48794 23.6302C8.50921 23.6559 8.52969 23.6819 8.54915 23.7082C8.58666 23.7589 8.62039 23.8105 8.64875 23.8624C8.69912 23.9546 8.6779 24.1029 8.63245 24.2661C8.6183 24.3169 8.60179 24.3692 8.58437 24.4217C8.55236 24.5181 8.51726 24.6152 8.48794 24.7053L8.44234 24.8623C8.43868 24.8776 8.43545 24.8924 8.43271 24.9067L8.42452 24.9613L8.41129 25.0113C8.40301 25.0227 8.39479 25.0341 8.38662 25.0456L8.3645 25.0778L8.32208 25.1396L8.13485 25.4429C8.06438 25.5682 7.99996 25.697 7.94185 25.8287C7.89613 25.9324 7.85432 26.0378 7.81657 26.1449C7.7702 26.2764 7.72993 26.4103 7.69602 26.5462C7.66146 26.6846 7.6335 26.8252 7.6124 26.9673C7.57862 27.1948 7.56243 27.4265 7.5649 27.6604C7.56612 27.7755 7.57185 27.891 7.58222 28.007C7.59253 28.1222 7.60743 28.2378 7.62705 28.3535C7.63685 28.4113 7.64781 28.469 7.65997 28.5268L7.67685 28.6037C7.68122 28.6227 7.68571 28.6418 7.69033 28.6609L7.70713 28.723L7.7159 28.8039L7.72352 28.8733L7.72767 28.9109C7.73262 28.9555 7.73769 29.0008 7.74289 29.0466L7.84761 29.913C7.85793 29.9931 7.86855 30.074 7.87947 30.1556L7.91066 30.3808L8.03256 31.2046L8.06353 31.4001C8.07402 31.4642 8.08469 31.5282 8.09553 31.5921L8.17065 32.0135L8.20644 32.208C8.21164 32.2352 8.21687 32.2623 8.22214 32.2893C8.22675 32.313 8.23139 32.3366 8.23605 32.3602C8.24611 32.4111 8.2563 32.4618 8.2666 32.5121L8.27475 32.5856L8.31329 32.8826L8.34954 33.0791L8.35622 33.1153C8.35865 33.1494 8.3612 33.1833 8.36387 33.217L8.41075 33.646L8.42066 33.7366L8.43056 33.8272L8.43802 33.8906L8.43056 34.0591L8.42775 34.0789L8.40782 34.2194L8.38788 34.3599L8.36387 34.5293L8.29919 34.7647L8.20627 35.3563C8.20942 35.4252 8.21678 35.4972 8.22904 35.57C8.24434 35.6607 8.26727 35.7525 8.29919 35.8408C8.31765 35.8918 8.33913 35.9416 8.36387 35.9893C8.3995 36.058 8.44192 36.1223 8.49191 36.1795C8.57475 36.2743 8.67838 36.3495 8.80637 36.3927C8.82333 36.3984 8.84072 36.4036 8.85855 36.4082C8.90869 36.4211 8.96228 36.4293 9.0195 36.4321C9.06677 36.4345 9.14617 36.4333 9.25288 36.4287C9.29774 36.4268 9.34743 36.4243 9.40159 36.4212C9.46494 36.4176 9.5344 36.4133 9.6094 36.4082L9.66338 36.4043L9.67965 36.4032L9.6811 36.4031L9.71736 36.4004L9.97678 36.3778L10.1571 36.3621L10.3393 36.3462L10.5575 36.3272L10.7728 36.3084L10.9002 36.2973L11.0855 36.2811L11.2115 36.2695C11.2666 36.2641 11.3222 36.2585 11.3783 36.2528L11.5249 36.2378L11.5515 36.2351L11.6234 36.2276C11.6656 36.2232 11.708 36.2187 11.7506 36.2142L11.8407 36.2046L11.9046 36.1978L11.9411 36.196L12.124 36.1874L12.1985 36.1839C12.2394 36.1822 12.2804 36.1805 12.3216 36.1788L12.4245 36.1745L12.5787 36.1677L12.6574 36.1641L12.7111 36.1617L12.7533 36.1597C12.7894 36.158 12.8254 36.1563 12.8616 36.1545L13.0894 36.143L13.1279 36.1411L13.1747 36.1386L13.1986 36.1374L13.3271 36.1306C13.376 36.1279 13.4248 36.1252 13.4736 36.1224L13.7174 36.1079L13.8107 36.1022L13.9257 36.0951L14.0747 36.0855L14.1572 36.08C14.1786 36.0785 14.2 36.077 14.2214 36.0756C14.2326 36.0748 14.2439 36.074 14.2551 36.0732L14.4968 36.0557L14.5674 36.0504L14.8503 36.0278L14.9114 36.0226L15.0993 36.0061C15.1386 36.0025 15.1775 35.9989 15.2161 35.9952L15.2901 35.988L15.6526 35.9494L15.8735 35.9235C15.9229 35.9172 15.9709 35.9109 16.0175 35.9044L16.1165 35.8886L16.3383 35.8531L16.377 35.847L16.5339 35.817C16.5574 35.8119 16.5799 35.8068 16.6016 35.8017L16.7173 35.7713C16.7405 35.7646 16.7621 35.7577 16.7821 35.7508C16.8044 35.7431 16.8247 35.7353 16.843 35.7275C16.8811 35.711 16.9102 35.6942 16.9296 35.677C16.9462 35.6623 16.9556 35.6473 16.9574 35.6321C16.9592 35.617 16.9564 35.5961 16.9492 35.57C16.9394 35.5344 16.9217 35.4891 16.8966 35.4349L16.8569 35.3534C16.8524 35.3445 16.8478 35.3355 16.843 35.3263L16.8335 35.2915L16.8188 35.2378L16.811 35.2092L16.7931 35.1433L16.7876 35.1233L16.7821 35.1033L16.7721 35.0512L16.7553 34.9644L16.7421 34.8967L16.7248 34.8073L16.7166 34.7647L16.7149 34.7241L16.7122 34.6603L16.7054 34.5061L16.7001 34.3856L16.6938 34.2449L16.6915 34.1938L16.69 34.1595L16.6852 34.0553L16.679 33.9226L16.673 33.7928L16.6681 33.6888L16.6636 33.6388L16.6559 33.5518L16.6506 33.4933L16.641 33.3853L16.6295 33.2563L16.6272 33.2307L16.625 33.2052L16.6237 33.1442L16.6222 33.0766L16.6206 33.0021L16.6186 32.9075L16.6162 32.7964L16.6147 32.722L16.6126 32.6271L16.61 32.5054L16.6067 32.4199L16.6046 32.3768L16.6002 32.2872L16.5951 32.1831L16.5876 32.0329L16.5849 31.9772L16.5828 31.934L16.5813 31.9051L16.5796 31.8705L16.578 31.838L16.576 31.7974L16.5741 31.7581L16.5716 31.7079L16.5685 31.6457L16.5653 31.5808L16.562 31.5144L16.5583 31.4399L16.5552 31.3777L16.5524 31.3196L16.544 31.1516L16.5428 31.1259L16.5379 31.0284L16.5355 30.9796L16.5313 30.893L16.5272 30.8118L16.5247 30.7604L16.5198 30.6602L16.5139 30.5415L16.5106 30.4734L16.5064 30.388L16.5032 30.323L16.5001 30.2595L16.4964 30.1823L16.4833 29.913L16.4794 29.8334L16.4731 29.7018L16.4687 29.6084L16.4649 29.5268L16.4673 29.4918L16.4725 29.4187L16.48 29.3129L16.4865 29.2199L16.4924 29.1372L16.498 29.0572L16.5058 28.9469L16.5136 28.8366L16.5173 28.7841C16.5188 28.7745 16.5203 28.7649 16.5217 28.7553C16.5247 28.7347 16.5277 28.7141 16.5304 28.6935C16.5358 28.6535 16.5406 28.6133 16.5449 28.5731C16.5483 28.5413 16.5513 28.5095 16.554 28.4776L16.5695 28.4288L16.5861 28.3761L16.6013 28.3284L16.6169 28.279L16.6339 28.2252L16.6514 28.1701L16.6772 28.0885L16.695 28.0325L16.7214 27.974C16.733 27.9528 16.7446 27.9308 16.7563 27.9082L16.7982 27.8255L16.8142 27.7929L16.8293 27.7617L16.8343 27.7515L16.8864 27.6436L16.9013 27.6126L16.9171 27.5797C16.9273 27.5585 16.9377 27.5371 16.9482 27.5154C16.9645 27.4819 16.9811 27.4478 16.9983 27.4132L17.0092 27.3913C17.0163 27.3771 17.0236 27.3628 17.031 27.3484L17.0417 27.3275L17.0426 27.3258C17.0536 27.3042 17.0645 27.2823 17.0759 27.2603L17.0905 27.2325C17.1029 27.209 17.1155 27.1854 17.1284 27.1615L17.1356 27.1484C17.1437 27.1335 17.1519 27.1187 17.1602 27.1037C17.1733 27.0802 17.1867 27.0565 17.2004 27.0327C17.2089 27.018 17.2175 27.0032 17.2262 26.9885L17.2384 26.9677C17.2468 26.9536 17.2553 26.9394 17.2639 26.9253L17.2762 26.9053C17.2829 26.8943 17.2897 26.8833 17.2966 26.8723C17.3048 26.8591 17.3131 26.846 17.3214 26.8329C17.3372 26.8081 17.3532 26.7835 17.3692 26.7591C17.3918 26.7246 17.4147 26.6906 17.4377 26.6569L17.4565 26.6295C17.4725 26.6063 17.4885 26.5833 17.5045 26.5605L17.6236 26.4414L17.6532 26.4148L17.6558 26.4126L17.692 26.381L17.7089 26.3662L17.7617 26.3197L17.8252 26.2632L17.849 26.242L17.8817 26.2126C17.9064 26.1904 17.9314 26.1678 17.9566 26.1449L17.9778 26.1257L18.0202 26.087L18.0711 26.0403L18.2045 25.9166L18.2482 25.8759L18.5358 25.6035L18.559 25.5811L18.6377 25.5051L18.7065 25.4384L18.7378 25.4078L18.7548 25.3912L18.7674 25.3789L18.863 25.2849C18.8835 25.2648 18.9039 25.2446 18.9243 25.2244L19.0213 25.1278L19.0605 25.0884L19.0876 25.0613L19.1205 25.0281L19.1499 24.9984L19.2086 24.9389L19.2335 24.9136L19.2683 24.8781L19.2904 24.8555L19.3325 24.8123L19.3692 24.7745C19.3915 24.7514 19.4138 24.7284 19.436 24.7053L19.4642 24.676L19.497 24.6417L19.5087 24.6294L19.5184 24.6191L19.5598 24.5757L19.6189 24.5136L19.6537 24.4768L19.702 24.4252L19.7552 24.3682L19.8059 24.3136L19.8387 24.278L19.8656 24.2487L19.945 24.1615L19.9549 24.1505L19.9753 24.128L20.0079 24.0917C20.029 24.0682 20.0499 24.0448 20.0705 24.0216L20.0912 23.9939L20.1119 23.9661C20.1235 23.958 20.1392 23.9461 20.1596 23.93L20.2069 23.8922L20.2206 23.8812C20.2282 23.8749 20.2363 23.8676 20.2449 23.8592L20.3277 23.7636C20.3331 23.7567 20.3386 23.7495 20.3442 23.7421L20.3951 23.6722C20.4014 23.6632 20.4079 23.654 20.4144 23.6446L20.4655 23.5689C20.472 23.5592 20.4785 23.5493 20.4851 23.5392C20.4933 23.5268 20.5015 23.514 20.5099 23.501L20.5287 23.4771C20.5405 23.4621 20.552 23.4472 20.5634 23.4324L20.6479 23.3198L20.655 23.31L20.6586 23.3053L20.6637 23.2983C20.6722 23.2865 20.6805 23.2749 20.6887 23.2634L20.7693 23.1443L20.7749 23.1358L20.7751 23.1355L20.7818 23.1253C20.7912 23.1105 20.8002 23.096 20.8087 23.0818L20.8691 22.9712L20.8813 22.9472C20.888 22.9327 20.8939 22.9188 20.8991 22.9055L20.9071 22.8838C20.9109 22.8726 20.9142 22.8618 20.9168 22.8515L20.9306 22.8197L20.9537 22.7663L20.9768 22.713L21.001 22.6699L21.011 22.6521L21.0314 22.6155L21.0775 22.5326L21.1027 22.4871L21.1257 22.4455L21.1928 22.3234L21.202 22.3064L21.2362 22.2437L21.2533 22.2123L21.2692 22.1832L21.2923 22.1404C21.3081 22.1113 21.3239 22.082 21.3398 22.0526L21.3774 21.9828L21.3991 21.9423L21.4598 21.829C21.4774 21.796 21.4951 21.7628 21.5128 21.7295L21.5875 21.5889L21.632 21.5045L21.6488 21.4727L21.7277 21.3227L21.7408 21.2978L21.7719 21.2385L21.807 21.1714C21.8285 21.1301 21.8501 21.0888 21.8716 21.0475L21.9029 20.9874L21.9194 20.9556L22.0205 20.7604L22.0423 20.7183L22.0594 20.6852L22.1449 20.5192L22.1797 20.4514L22.2215 20.3698L22.2747 20.266L22.3069 20.203L22.3545 20.1097L22.4023 20.0158L22.4342 19.9533L22.4588 19.9047L22.4605 19.9014L22.5342 19.7561L22.5459 19.733L22.5946 19.6368L22.6369 19.553L22.6666 19.4941L22.7047 19.4187L22.7427 19.3432L22.7557 19.3173L22.7889 19.2513L22.8101 19.209L22.8671 19.0954L22.9047 19.0203L22.9218 18.9861L22.9553 18.919L22.9889 18.8518L22.9951 18.8394L23.0202 18.789L23.037 18.7554L23.0947 18.6394L23.1061 18.6164L23.147 18.5342L23.1755 18.4768L23.1848 18.458L23.1942 18.4391L23.2219 18.4064L23.2428 18.3816L23.2812 18.3363L23.2631 18.3543C23.2702 18.347 23.2772 18.3398 23.2842 18.3327C23.3001 18.3167 23.3156 18.3014 23.3307 18.2869C23.3376 18.2804 23.3443 18.274 23.351 18.2679C23.3577 18.2616 23.3644 18.2555 23.3709 18.2496C23.39 18.2325 23.4085 18.2168 23.4263 18.2026C23.4319 18.1982 23.4373 18.194 23.4427 18.1899C23.4489 18.1851 23.4551 18.1806 23.4611 18.1763C23.4712 18.1691 23.4811 18.1624 23.4907 18.1563C23.5042 18.1478 23.5174 18.1391 23.5305 18.1303C23.5417 18.1228 23.5527 18.1152 23.5635 18.1075L23.6642 18.03L23.6787 18.0178C23.688 18.0098 23.6973 18.0017 23.7064 17.9936L23.7688 17.9342L23.7866 17.9167C23.7946 17.9085 23.8025 17.9001 23.8104 17.8918L23.871 17.8226C23.8816 17.8098 23.892 17.7968 23.9021 17.7837C23.9129 17.7698 23.9234 17.7558 23.9335 17.7416C23.9432 17.7283 23.9525 17.7148 23.9616 17.7012L24.0079 17.6277C24.0169 17.6125 24.0256 17.5971 24.0339 17.5817L24.0506 17.5489L24.0866 17.4737C24.09 17.466 24.0932 17.4583 24.0965 17.4506L24.1155 17.4022C24.1203 17.3893 24.1248 17.3764 24.1292 17.3634L24.1312 17.3571L24.1328 17.352L24.1364 17.3407L24.1436 17.3181C24.1466 17.3081 24.1494 17.2982 24.1521 17.2883L24.1715 17.266L24.1772 17.2595C24.1813 17.2569 24.1854 17.2541 24.1894 17.2514L24.2124 17.2342L24.2463 17.2088C24.2526 17.2036 24.2588 17.1984 24.2648 17.1931C24.2745 17.1846 24.2839 17.1759 24.293 17.1671L24.3152 17.1437L24.3373 17.1202C24.3443 17.1122 24.3509 17.1041 24.3574 17.096L24.3859 17.0564L24.3881 17.0533L24.3892 17.0517L24.3936 17.0453C24.399 17.0368 24.4042 17.0283 24.4092 17.0198L24.422 16.9964C24.4228 16.9948 24.4236 16.9933 24.4243 16.9917C24.425 16.9904 24.4257 16.9891 24.4263 16.9878L24.4625 16.9634L24.4986 16.939L24.5186 16.9318L24.5386 16.9246L24.5813 16.9092L24.6192 16.8956L24.6807 16.8735L24.6965 16.8677L24.727 16.8568L24.7738 16.8399L24.8625 16.808L24.9118 16.7903L24.9535 16.7753L24.9827 16.7647C24.9973 16.7595 25.0152 16.753 25.0355 16.7455L25.0878 16.7257C25.1039 16.7195 25.1206 16.7128 25.1378 16.7058C25.1499 16.7008 25.1621 16.6957 25.1745 16.6904C25.1852 16.6859 25.1959 16.6812 25.2067 16.6764L25.2329 16.6673L25.269 16.6548L25.317 16.6382L25.3651 16.6216L25.3759 16.6196L25.4212 16.6112L25.4736 16.5985C25.4856 16.5944 25.4972 16.5894 25.5083 16.5836C25.5139 16.5807 25.5193 16.5776 25.5246 16.5743L25.5756 16.5332C25.5822 16.5263 25.5884 16.5192 25.5942 16.5117C25.6004 16.5035 25.6062 16.495 25.6115 16.4861C25.6174 16.4762 25.6227 16.4658 25.6273 16.4552C25.6352 16.4368 25.6409 16.4175 25.6444 16.3975C25.6464 16.3858 25.6477 16.3739 25.6481 16.3618L25.6455 16.3158C25.6448 16.3114 25.6441 16.307 25.6432 16.3026C25.6427 16.3 25.6421 16.2974 25.6415 16.2948C25.639 16.2837 25.6358 16.273 25.6319 16.2626C25.6264 16.2476 25.6195 16.2333 25.6115 16.2199C25.6062 16.211 25.6004 16.2025 25.5942 16.1944L25.5756 16.173C25.5659 16.1629 25.5554 16.1536 25.5443 16.1453C25.5329 16.1368 25.5209 16.1292 25.5083 16.1226C25.4931 16.1147 25.4772 16.1083 25.4606 16.1035L25.4212 16.0953C25.4106 16.094 25.3998 16.0933 25.389 16.0933L25.3651 16.097L25.3481 16.0997L25.317 16.1045L25.2865 16.1093L25.2597 16.1135L25.2062 16.1226L25.184 16.1267L25.149 16.1332L25.0923 16.1437L25.0355 16.1542L25.0133 16.1583L24.9739 16.1656L24.9327 16.1732L24.8916 16.1809L24.8733 16.1842L24.8297 16.1923L24.7916 16.1994L24.7512 16.2068L24.7159 16.2134L24.6807 16.2199L24.6639 16.223L24.6192 16.2313L24.5746 16.2395L24.53 16.2478L24.5135 16.2508L24.4796 16.2571L24.4648 16.2598L24.4104 16.2571L24.3652 16.2509L24.3201 16.2447C24.3001 16.2413 24.2809 16.2394 24.264 16.2395L24.2398 16.217L24.2277 16.2057L24.206 16.1656L24.1923 16.1267L24.1787 16.0933V16.0794V16.0361L24.172 16.0127V15.9819V15.9494L24.1787 15.9358L24.2155 15.8899L24.264 15.8592L24.283 15.8458L24.3153 15.8229L24.3476 15.8L24.4035 15.7627L24.426 15.7477L24.4501 15.7316L24.53 15.6783L24.5665 15.6539L24.5903 15.6381L24.6542 15.5954L24.6725 15.5827L24.7464 15.5311C24.7606 15.5192 24.7736 15.5064 24.7854 15.4927L24.8103 15.4696L24.8609 15.4226L24.8916 15.3942L24.9271 15.3704L24.992 15.3269L25.0223 15.3066L25.0575 15.283L25.1102 15.2476L25.149 15.2216L25.2062 15.1833L25.2737 15.138L25.3074 15.1154L25.3411 15.0928L25.3806 15.0663L25.4201 15.0398L25.4552 15.0163L25.4903 14.9927L25.5109 14.9789L25.5315 14.9652L25.5494 14.9531C25.5562 14.9486 25.5628 14.9438 25.5691 14.9387L25.6058 14.9046L25.6179 14.8905C25.6216 14.8859 25.6252 14.8812 25.6286 14.8765L25.6484 14.844L25.6565 14.829C25.6598 14.8221 25.6628 14.8151 25.6655 14.808L25.6828 14.7431C25.6838 14.7367 25.6845 14.7303 25.6851 14.7239L25.6864 14.6978V14.6944L25.6819 14.6486L25.6785 14.627C25.6778 14.624 25.6771 14.6209 25.6763 14.6178C25.6733 14.6067 25.6698 14.5956 25.6655 14.5847L25.6402 14.534C25.6374 14.5294 25.6345 14.5249 25.6314 14.5205C25.6235 14.509 25.6149 14.4983 25.6058 14.4883L25.5742 14.4581C25.57 14.4546 25.5657 14.4512 25.5613 14.448L25.5421 14.4349C25.532 14.4285 25.5216 14.4228 25.5109 14.4177L25.4552 14.3973C25.453 14.3967 25.4507 14.3962 25.4485 14.3956L25.4201 14.3903C25.4113 14.3891 25.4025 14.3882 25.3937 14.3877L25.352 14.3883C25.3388 14.3894 25.3256 14.3913 25.3125 14.3941L25.2695 14.4066C25.2561 14.4116 25.243 14.4176 25.2301 14.4245L25.1605 14.4696L25.1278 14.4916L25.1159 14.4995L25.0902 14.5167L25.0645 14.534L25.0434 14.5481L25.0223 14.5623L24.9888 14.5847L24.9768 14.5928L24.9513 14.6099L24.9257 14.627L24.9015 14.6433L24.8772 14.6596L24.8487 14.6787L24.8202 14.6978L24.7925 14.7164L24.7648 14.7349L24.742 14.7502L24.7079 14.7731L24.6867 14.7873L24.6656 14.8015L24.645 14.8153L24.6244 14.829L24.5961 14.8481L24.5749 14.8623L24.5189 14.8792L24.505 14.8678C24.5018 14.861 24.4982 14.8544 24.4942 14.8481C24.4878 14.838 24.4803 14.8286 24.472 14.8201L24.4506 14.8015V14.7898L24.4924 14.7466L24.5129 14.7303L24.5333 14.7141L24.5537 14.6978L24.5778 14.6787L24.6018 14.6596L24.628 14.6387L24.6542 14.6178L24.6958 14.5847L24.7186 14.5666L24.7911 14.5089L24.823 14.4835L24.8549 14.4581L24.8781 14.4397L24.9257 14.4018L24.9513 14.3815L24.9702 14.3664L24.989 14.3514L25.0099 14.3348L25.0308 14.3182L25.0476 14.3048L25.0645 14.2914L25.1062 14.2582L25.13 14.2393L25.1537 14.2204L25.1914 14.1904L25.2076 14.1775L25.2238 14.1646L25.2438 14.1487L25.2639 14.1327L25.2806 14.1194L25.3234 14.0841L25.3326 14.0763C25.3395 14.0696 25.346 14.0625 25.352 14.0551L25.3679 14.0316L25.3864 14.0004C25.389 13.9947 25.3914 13.9889 25.3937 13.983L25.4097 13.8827L25.4092 13.8635C25.408 13.8524 25.4061 13.8413 25.4035 13.8304L25.3937 13.7984C25.3865 13.7795 25.377 13.7612 25.3651 13.744L25.3388 13.7157L25.3257 13.7015L25.2806 13.6657C25.277 13.6636 25.2733 13.6615 25.2695 13.6596L25.2438 13.6505L25.2076 13.6376L25.1613 13.6312C25.1542 13.6309 25.1471 13.6309 25.14 13.6312L25.1068 13.6369L25.0902 13.6398L25.0736 13.6426C25.0559 13.6481 25.0387 13.6556 25.0223 13.665L24.9441 13.7232L24.9217 13.7411L24.8992 13.7589L24.8882 13.7677L24.8665 13.785L24.8202 13.8219L24.8095 13.8304L24.7648 13.8659L24.7458 13.8811L24.6958 13.9208L24.6792 13.934L24.6438 13.9622L24.6083 13.9904L24.5746 14.0172L24.541 14.044L24.502 14.075L24.4631 14.106L24.4262 14.1353L24.3894 14.1646L24.3732 14.1775L24.3386 14.205L24.3297 14.2121L24.2843 14.2482L24.2718 14.2582L24.2527 14.2734L24.2336 14.2886L24.2072 14.3096L24.1964 14.3182L24.1819 14.3298L24.1485 14.3664H24.1259L24.0861 14.3413L24.0704 14.3262V14.2914L24.0861 14.2672L24.106 14.2438L24.1259 14.2204L24.1884 14.1471L24.2336 14.094L24.242 14.0841L24.2924 14.0246L24.3129 14.0004L24.3304 13.9795L24.3684 13.934C24.3773 13.9232 24.3862 13.9125 24.3948 13.902L24.4344 13.853L24.4739 13.8039C24.4961 13.7757 24.516 13.7496 24.5327 13.7265L24.5542 13.7011L24.5757 13.6758L24.6026 13.6467L24.6161 13.6322L24.6559 13.5919L24.6792 13.5682L24.727 13.5196C24.7299 13.5159 24.7326 13.5122 24.7353 13.5084L24.7628 13.4578C24.7677 13.4459 24.7716 13.4338 24.7746 13.4214L24.7814 13.3772C24.7819 13.3692 24.7821 13.3611 24.7819 13.353C24.7818 13.3494 24.7816 13.3458 24.7814 13.3423C24.7805 13.3299 24.7788 13.3177 24.7763 13.3055C24.7744 13.297 24.7722 13.2885 24.7695 13.2802L24.7543 13.2485L24.7391 13.2168C24.7297 13.2025 24.7188 13.189 24.7063 13.1765C24.6977 13.1679 24.6886 13.16 24.6792 13.1528C24.6602 13.1383 24.6396 13.1268 24.6181 13.1183C24.6148 13.117 24.6116 13.1158 24.6083 13.1146L24.5612 13.1029C24.5479 13.1009 24.5346 13.1 24.5212 13.1C24.5116 13.1 24.502 13.1006 24.4924 13.1017C24.4699 13.1043 24.4477 13.1098 24.4263 13.1183C24.4201 13.1207 24.414 13.1234 24.4079 13.1264L24.3732 13.1469C24.3645 13.153 24.356 13.1598 24.3479 13.1671L24.2966 13.2168L24.2527 13.2594L24.2313 13.2802L24.2072 13.3036L24.1673 13.3423L24.1485 13.3606L24.1162 13.3919L24.0871 13.4202L24.0579 13.4486L24.0484 13.4578L23.9963 13.5084L23.972 13.532L23.9526 13.5508L23.9053 13.5967L23.8838 13.6176L23.8594 13.6413L23.835 13.665L23.8234 13.6762L23.8119 13.6875L23.7953 13.7015L23.7659 13.7265L23.7533 13.7354L23.7203 13.7589L23.7129 13.7641C23.6995 13.7736 23.6916 13.779 23.6909 13.7792C23.6823 13.7815 23.6722 13.7865 23.6607 13.7939C23.6469 13.8028 23.631 13.8152 23.6137 13.8304L23.5755 13.8659L23.5675 13.8739C23.5625 13.8789 23.5574 13.884 23.5522 13.8893L23.476 13.9717L23.4293 14.0246L23.3916 14.0686L23.3786 14.0841L23.336 14.1353L23.2973 14.1827L23.2733 14.2121L23.2666 14.2204C23.2417 14.2511 23.2177 14.2812 23.195 14.3096L23.1782 14.3308L23.1578 14.3563C23.1454 14.372 23.1335 14.3869 23.1223 14.4008L23.1208 14.4028L23.1124 14.4133L23.1041 14.4237C23.0997 14.4292 23.0954 14.4346 23.0913 14.4397C23.0775 14.4568 23.0655 14.4716 23.0555 14.4835C23.0488 14.4916 23.043 14.4983 23.0383 14.5035C23.0294 14.5134 23.0206 14.5236 23.012 14.534C22.9901 14.5606 22.9693 14.5886 22.9497 14.6178L22.9224 14.6621L22.8713 14.7502C22.8665 14.7595 22.8617 14.7688 22.857 14.7781L22.8443 14.8046L22.8151 14.8678C22.8105 14.8784 22.8059 14.889 22.8015 14.8996L22.7826 14.9475L22.7241 15.1088L22.7238 15.1097L22.7102 15.1506C22.7038 15.1709 22.6975 15.191 22.6914 15.2109L22.674 15.2691L22.6572 15.3269L22.6397 15.3881L22.6332 15.4107Z" fill="white"/>
</svg>
