<svg width="36" height="15" viewBox="0 0 36 15" fill="none" xmlns="http://www.w3.org/2000/svg">
<path d="M21.1749 3.90136C20.2563 2.96402 19.1657 2.22047 17.9656 1.71319C16.7654 1.20591 15.479 0.944824 14.18 0.944824C12.8809 0.944824 11.5945 1.20591 10.3943 1.71319C9.19418 2.22047 8.10364 2.96402 7.18506 3.90136L14.18 11.039L21.1749 3.90136Z" fill="#030303" fill-opacity="0.7"/>
<path d="M14.1885 11.049C15.1071 11.9864 16.1976 12.7299 17.3978 13.2372C18.5979 13.7444 19.8843 14.0055 21.1834 14.0055C22.4824 14.0055 23.7689 13.7444 24.9691 13.2372C26.1692 12.7299 27.2598 11.9864 28.1783 11.049L21.1834 3.91138L14.1885 11.049Z" fill="#212121" fill-opacity="0.7"/>
<path d="M14.1714 11.0476C13.2529 11.9849 12.1623 12.7284 10.9622 13.2357C9.76195 13.743 8.47563 14.0041 7.17654 14.0041C5.87746 14.0041 4.59113 13.743 3.39093 13.2357C2.19076 12.7284 1.10023 11.9849 0.181641 11.0476L7.17654 3.90991L14.1714 11.0476Z" fill="#0C0B0B" fill-opacity="0.87"/>
<path d="M21.1919 3.90279C22.1104 2.96545 23.201 2.22193 24.4011 1.71465C25.6013 1.20738 26.8878 0.946289 28.1867 0.946289C29.486 0.946289 30.7722 1.20738 31.9723 1.71465C33.1724 2.22193 34.2631 2.96545 35.1816 3.90279L28.1867 11.0404L21.1919 3.90279Z" fill="#817C7C"/>
</svg>
