<svg width="71" height="64" viewBox="0 0 71 64" fill="none" xmlns="http://www.w3.org/2000/svg">
<path d="M26.6741 1.45913C29.1768 -0.46784 32.972 -0.467803 35.4749 1.45913L59.6166 20.047C61.0063 21.1171 61.8004 22.6429 61.8004 24.2441V25.441C61.1279 24.9252 60.394 24.468 59.6087 24.0789C57.6673 23.1165 55.4129 22.5669 53.0215 22.5669C45.7487 22.5669 39.8533 27.6193 39.8533 33.8516H37.6674H37.6586H24.4904C23.2783 33.8516 22.2957 34.6938 22.2957 35.7324V50.7786C22.2957 53.8947 19.3479 56.4209 15.7116 56.4209H6.93275C3.29643 56.4209 0.348633 53.8947 0.348633 50.7786V24.2441C0.348633 22.6429 1.1425 21.1171 2.53236 20.047L26.6741 1.45913Z" fill="#4285F4"/>
<path d="M39.8518 45.4576C40.5383 45.2496 41.2771 45.1364 42.0465 45.1364H63.9936C67.6297 45.1364 70.5777 47.6626 70.5777 50.7787C70.5777 54.977 68.5629 58.3405 65.2573 60.6144C62.0034 62.8525 57.6425 63.9441 53.02 63.9441C48.3976 63.9441 44.0367 62.8525 40.7828 60.6144C39.1311 59.478 37.8015 58.0697 36.8846 56.421C36.2494 55.279 35.8122 54.0215 35.6033 52.6595C35.5102 52.0531 35.4624 51.4257 35.4624 50.7787C35.4624 48.322 37.2945 46.2321 39.8518 45.4576Z" fill="#4285F4"/>
<path d="M61.7986 33.852C61.7986 31.0673 60.0332 28.6361 57.4092 27.3353C56.1178 26.6952 54.6188 26.3289 53.0198 26.3289C48.1712 26.3289 44.241 29.6971 44.241 33.852C44.241 38.007 48.1712 41.3751 53.0198 41.3751C54.6188 41.3751 56.1178 41.0087 57.4092 40.3685C60.0332 39.0677 61.7986 36.6366 61.7986 33.852Z" fill="#4285F4"/>
</svg>
