<svg width="108" height="95" viewBox="0 0 108 95" fill="none" xmlns="http://www.w3.org/2000/svg">
<path d="M107.851 45.9569C107.851 71.2476 83.9264 91.7498 54.4143 91.7498C24.9023 91.7498 0.978027 71.2476 0.978027 45.9569C0.978027 20.6662 24.9023 0.164062 54.4143 0.164062C83.9264 0.164062 107.851 20.6662 107.851 45.9569Z" fill="#1B291F"/>
<path d="M67.5007 17.5568L71.3248 22.102L78.1982 20.4089L73.6882 24.9112L77.5123 29.4564L70.9009 27.6937L66.3909 32.1959L66.8148 26.6043L60.2034 24.8416L67.0768 23.1485L67.5007 17.5568Z" fill="white"/>
<path d="M90.0263 23.4391L90.9552 27.6226L96.3239 28.3498L91.5293 30.2082L92.4582 34.3918L88.5661 31.3568L83.7715 33.2152L86.1606 29.4811L82.2685 26.4461L87.6372 27.1732L90.0263 23.4391Z" fill="white"/>
<path d="M82.4359 14.7857L84.508 16.4961L87.3286 15.3005L85.7887 17.5532L87.8608 19.2636L84.837 18.9455L83.297 21.1982L82.9681 18.7489L79.9443 18.4307L82.7648 17.2351L82.4359 14.7857Z" fill="white"/>
<path fill-rule="evenodd" clip-rule="evenodd" d="M60.535 63.3044L60.4993 63.3366L60.3991 63.4266C60.4327 63.3966 60.466 63.3666 60.4993 63.3366C60.5112 63.3258 60.5231 63.3151 60.535 63.3044ZM59.9971 63.783L59.8685 63.8961L59.9163 63.8541L59.9971 63.783ZM53.0021 70.3647C52.9912 70.383 52.9803 70.4013 52.9694 70.4195C52.9468 70.4571 52.9245 70.4945 52.9028 70.5318L53.0021 70.3647ZM39.3742 93.4972L38.9033 93.5149L39.0789 93.5084L39.3742 93.4972Z" fill="white"/>
<path d="M70.0758 39.1815C70.0615 39.2241 70.0477 39.2653 70.0341 39.305C70.0234 39.3364 70.0129 39.3669 70.0026 39.3963C69.9955 39.4164 69.9885 39.4361 69.9815 39.4552L69.9662 39.4968C69.9488 39.5435 69.9318 39.5868 69.915 39.6261C69.9054 39.6488 69.8958 39.6702 69.8862 39.6902C69.8706 39.7229 69.855 39.7519 69.8395 39.7767C69.825 39.7999 69.8105 39.8194 69.7959 39.835C69.7721 39.8603 69.7482 39.8848 69.7243 39.9086C69.7101 39.9227 69.696 39.9366 69.6818 39.9502C69.6514 39.9795 69.6211 40.0077 69.5909 40.0354C69.5673 40.057 69.5439 40.0782 69.5206 40.0991L69.2847 40.3201L69.202 40.4036C69.1669 40.4424 69.1333 40.4828 69.1016 40.5255C69.0778 40.5575 69.0551 40.5909 69.0336 40.626C69.0235 40.6424 69.0137 40.6592 69.0042 40.6764L68.9363 40.8181C68.9219 40.8534 68.9085 40.8903 68.8963 40.9291L68.8674 40.9677L68.7574 41.1235L68.6941 41.2101L68.471 41.5155L68.2989 41.7516L67.9451 42.2382L67.8538 42.3642L67.76 42.4936C67.6811 42.6026 67.603 42.7105 67.5257 42.8176C67.4408 42.9351 67.3569 43.0515 67.2739 43.1667C67.181 43.2958 67.0892 43.4235 66.9987 43.5498L66.6545 44.0308C66.5566 44.168 66.4601 44.3034 66.3651 44.4371L66.0104 44.9378C65.891 45.1069 65.774 45.273 65.6594 45.4363L65.3029 45.9462C65.2283 46.0533 65.1548 46.1591 65.0824 46.2636L64.7692 46.7175L64.6545 46.8844L64.5438 47.0076L64.4012 47.1664L64.2186 47.3698L63.9378 47.6825L63.4001 48.2157L63.2009 48.4032C63.1289 48.471 63.0577 48.5382 62.9872 48.6048C60.0211 51.407 58.3959 53.1061 57.6092 54.12L56.5201 55.2983C55.1634 56.5528 54.0175 57.6336 53.0547 58.5641L52.5452 59.059C52.3081 59.2906 52.0834 59.512 51.8707 59.7237L50.7903 60.473C50.4173 60.6579 50.0405 60.8355 49.7084 61.0226C49.6477 61.0568 49.5885 61.0913 49.5311 61.1263L48.427 61.6163C48.3268 61.6447 48.2228 61.6731 48.1148 61.7008C47.549 61.8459 46.9469 61.9538 46.4195 62.0973L46.3354 62.0896L45.9973 62.0585L45.8221 62.0423L45.6245 62.0242L45.3287 61.9751L44.9173 61.9069L44.677 61.8724C44.619 61.8577 44.5605 61.8432 44.5015 61.829L44.3278 61.7881C44.256 61.7716 44.1835 61.7555 44.1103 61.7397L43.7963 61.6749C43.4322 61.6017 43.0681 61.533 42.7055 61.4693L42.3255 61.2974C42.2533 61.2153 42.1869 61.1241 42.1299 61.0226C42.0739 60.9227 42.0272 60.8128 41.9935 60.6916C41.9364 60.4862 41.9647 60.322 42.0406 60.1852C42.1501 59.9876 42.3588 59.8474 42.5523 59.7237C42.6321 59.7293 42.7186 59.7316 42.8123 59.7303C42.9608 59.7283 43.1272 59.7173 43.3134 59.6966C43.4404 59.6825 43.5765 59.6639 43.7224 59.6405L44.1942 59.5548C44.3176 59.53 44.4467 59.5025 44.5816 59.472C44.7022 59.4449 44.8274 59.4154 44.9575 59.3835C45.0288 59.3661 45.0986 59.3486 45.167 59.3311C45.3273 59.2901 45.4797 59.249 45.6245 59.2079C45.7991 59.1583 45.9628 59.1086 46.116 59.059C46.2341 59.0208 46.346 58.9825 46.4521 58.9444L46.8094 58.8071C46.9722 58.7401 47.1177 58.6735 47.2475 58.6074C47.3824 58.5387 47.5004 58.4706 47.603 58.4033C47.7593 58.3009 47.8801 58.2004 47.9716 58.1028C48.0426 58.027 48.0958 57.9529 48.1342 57.8809C48.195 57.7669 48.2184 57.6582 48.2157 57.5564C48.2135 57.4771 48.1955 57.402 48.1669 57.3319C48.1245 57.2278 48.0588 57.1347 47.987 57.055L47.7773 56.6601L47.6721 56.2653L47.603 55.8197V55.2983C47.7006 55.1657 47.7851 55.0369 47.8556 54.9129C47.9323 54.7781 47.9925 54.649 48.0351 54.5265C48.0857 54.3809 48.1114 54.2448 48.1102 54.12C48.1088 53.9612 48.0639 53.8207 47.9716 53.7022C47.9078 53.6203 47.8214 53.5489 47.7111 53.4893C47.6304 53.4457 47.5368 53.4084 47.4299 53.3779C47.1326 53.2929 46.8422 53.1562 46.5543 52.9782C46.5202 52.9571 46.4861 52.9355 46.4521 52.9132V52.7267C46.4845 52.6312 46.5191 52.5348 46.5543 52.4384C46.5759 52.3792 46.5978 52.3201 46.6197 52.2611L46.7299 51.9625C46.7826 51.8175 46.8321 51.6755 46.8739 51.5393C47.0533 51.2956 47.1606 51.0921 47.2084 50.9203C47.2687 50.7032 47.2341 50.5369 47.1301 50.4042C47.0416 50.2912 46.903 50.2027 46.7299 50.1281C46.6357 50.0875 46.5314 50.051 46.4195 50.017L46.2626 49.6636C46.2426 49.5648 46.2096 49.4623 46.1626 49.3561L46.116 49.2587C46.4696 48.9841 46.736 48.7467 46.9282 48.54C47.008 48.4543 47.075 48.3738 47.1301 48.2981L47.2475 48.1117C47.2749 48.0592 47.2955 48.0094 47.31 47.9621C47.3331 47.8864 47.3403 47.817 47.3333 47.7529C47.319 47.623 47.2464 47.5154 47.1301 47.4227C47.0448 47.3546 46.9359 47.2946 46.8094 47.2397C46.6928 47.1892 46.5613 47.1429 46.4195 47.0988L45.7072 46.9012C45.5291 46.854 45.347 46.8051 45.167 46.7514C44.9666 46.6917 44.7688 46.6262 44.5816 46.5507C44.2442 46.4146 43.9417 46.2461 43.7224 46.0213C43.6169 45.9132 43.5307 45.7921 43.4692 45.6553L43.4323 45.5345L43.3765 45.3547L43.3504 45.2702C43.3075 45.1557 43.2561 45.0446 43.1965 44.9378L42.9139 44.5581C42.8819 44.4537 42.848 44.3499 42.8123 44.247C42.7206 43.9827 42.6166 43.7234 42.5009 43.4696C42.4107 43.2717 42.3134 43.0771 42.2093 42.8859C42.0852 42.6581 41.9514 42.4351 41.8084 42.2173C41.6799 42.0215 41.5439 41.8299 41.4008 41.6425L41.0951 41.2616C40.9793 41.1242 40.8596 40.9893 40.7361 40.857L40.2361 40.355C40.036 40.1666 39.8277 39.9842 39.6117 39.8081L39.213 39.4968C39.1218 39.4286 39.0294 39.3614 38.9358 39.2953L38.5652 39.0434C38.336 38.8934 38.1005 38.7496 37.8589 38.6122C37.6314 38.4828 37.3987 38.3591 37.1609 38.2412C37.0067 38.1648 36.8504 38.0908 36.6921 38.0194C36.428 37.9002 36.1584 37.788 35.8838 37.6831C35.6491 37.5935 35.4106 37.5091 35.1688 37.4302C34.8426 37.3238 34.5103 37.2273 34.1725 37.1411C33.8544 37.0599 33.5316 36.9878 33.2044 36.9252C32.903 36.8675 32.598 36.8178 32.2899 36.7763C31.9768 36.7342 31.6605 36.7005 31.3415 36.6756C31.0831 36.6554 30.823 36.641 30.5613 36.6324C30.2262 36.6214 29.8885 36.6201 29.5489 36.6286C29.2442 36.6362 28.938 36.6518 28.6305 36.6756C28.3109 36.7003 27.9901 36.7338 27.6683 36.7763C27.4221 36.8088 27.1753 36.8467 26.9283 36.8899C26.8633 36.9012 26.7985 36.913 26.7341 36.9252C26.4065 36.987 26.0858 37.0592 25.7721 37.1411C25.4433 37.2269 25.1221 37.3235 24.8087 37.4302C24.3061 37.6014 23.8236 37.7986 23.362 38.0194C22.8751 38.2522 22.4116 38.5113 21.9722 38.7936C21.4878 39.1049 21.0328 39.4443 20.6084 39.8081L19.7959 40.497C19.4289 40.7843 19.0765 41.0918 18.741 41.4193C18.4136 41.7388 18.1169 42.0706 17.8497 42.4129C17.7101 42.5919 17.5785 42.7737 17.4548 42.9582L17.164 43.4216C16.9963 43.7076 16.8467 43.9991 16.7145 44.2953C16.6647 44.4071 16.6173 44.5196 16.5724 44.6327L16.5204 44.7667C16.494 44.8365 16.4685 44.9065 16.444 44.9767L16.3913 45.132C16.3648 45.2127 16.3394 45.2936 16.3153 45.3748L16.2455 45.6227C16.2219 45.7114 16.1997 45.8004 16.1789 45.8896L16.1318 46.1032L16.1189 46.1668L16.0931 46.301C16.0744 46.402 16.0575 46.5034 16.0423 46.6049L16.027 46.7115C16.0154 46.7957 16.005 46.8801 15.9957 46.9647L15.9725 47.2048C15.9481 47.4962 15.9373 47.7891 15.9397 48.0828C15.9429 48.4864 15.9711 48.8916 16.0232 49.2965C16.0589 49.574 16.1059 49.8514 16.1637 50.1281L16.2201 50.7554C16.2782 51.0842 16.3532 51.4119 16.4451 51.7376C16.5788 52.2114 16.7485 52.681 16.9548 53.1435C17.1251 53.525 17.3202 53.9018 17.5407 54.272C17.6605 54.4731 17.7877 54.6723 17.9224 54.8693C18.037 55.0369 18.1572 55.203 18.2828 55.3674C18.4301 55.5602 18.5831 55.7481 18.7412 55.9309L19.357 56.5912C19.4684 56.7022 19.582 56.811 19.6975 56.9177C19.8847 57.0905 20.0771 57.2575 20.2744 57.4187C20.4291 57.5451 20.5868 57.6679 20.7474 57.7871L21.4911 58.3008C21.6557 58.4065 21.8227 58.5087 21.9921 58.6074C22.1934 58.7247 22.3979 58.837 22.6055 58.9444C22.8705 59.0815 23.1404 59.2104 23.4146 59.3311C23.7139 59.4628 24.0183 59.5847 24.3272 59.6966C24.6438 59.8114 24.9651 59.9157 25.2902 60.0094L25.9565 60.1852C26.1271 60.2261 26.2985 60.2642 26.4708 60.2994C26.5357 60.3562 26.5999 60.4142 26.6626 60.473C26.7384 60.544 26.8122 60.6164 26.8831 60.6899C26.9481 60.7571 27.0106 60.8252 27.07 60.894C27.1846 61.0266 27.2876 61.1616 27.3741 61.2974C27.528 61.5387 27.4631 61.9268 27.3244 62.3538C27.2812 62.4869 27.2308 62.6237 27.1776 62.7611C27.0798 63.0133 26.9726 63.2674 26.8831 63.5031L26.7439 63.9139C26.7327 63.9539 26.7228 63.9927 26.7145 64.0302L26.6895 64.1729L26.6491 64.3037C26.6238 64.3336 26.5987 64.3636 26.5737 64.3937L26.5062 64.4779L26.3767 64.6396L25.805 65.4332C25.5898 65.7612 25.3931 66.0981 25.2156 66.4428C25.076 66.714 24.9484 66.99 24.8331 67.2702C24.6915 67.6143 24.5685 67.9646 24.465 68.3201C24.3595 68.6825 24.2741 69.0502 24.2097 69.4221C24.1065 70.0176 24.0571 70.6238 24.0646 71.2359C24.0683 71.5369 24.0858 71.8394 24.1175 72.1427C24.149 72.4443 24.1945 72.7468 24.2544 73.0495C24.2843 73.2006 24.3178 73.3518 24.3549 73.5029L24.4065 73.7041C24.4198 73.754 24.4335 73.8039 24.4476 73.8537L24.4989 74.0165L24.5257 74.2281L24.549 74.4098L24.5616 74.508C24.5768 74.6248 24.5922 74.7432 24.6081 74.8632L24.9279 77.1303C24.9594 77.3398 24.9918 77.5516 25.0251 77.7651L25.1204 78.3545L25.4926 80.5101L25.5872 81.0217C25.6192 81.1893 25.6518 81.3568 25.6849 81.5239L25.9143 82.6268L26.0236 83.1357C26.0394 83.2068 26.0554 83.2778 26.0715 83.3485C26.0856 83.4105 26.0997 83.4723 26.114 83.534C26.1447 83.6672 26.1758 83.7997 26.2073 83.9315L26.2321 84.1238L26.3498 84.9008L26.4605 85.4151L26.4809 85.5098C26.4883 85.599 26.4961 85.6878 26.5043 85.7759L26.6474 86.8985L26.6777 87.1357L26.7079 87.3728L26.7307 87.5385L26.7079 87.9794L26.6993 88.0313L26.6385 88.399L26.5776 88.7667L26.5043 89.2098L26.3068 89.8259L26.023 91.3738C26.0326 91.5541 26.0551 91.7427 26.0926 91.933C26.1393 92.1705 26.2093 92.4108 26.3068 92.6416C26.3631 92.7752 26.4287 92.9055 26.5043 93.0304C26.6131 93.2102 26.7426 93.3784 26.8952 93.5281C27.1482 93.7761 27.4646 93.9729 27.8554 94.086C27.9072 94.101 27.9603 94.1145 28.0148 94.1265C28.1679 94.1601 28.3315 94.1816 28.5062 94.1892C28.6506 94.1954 28.893 94.1921 29.2189 94.1801C29.3558 94.1751 29.5076 94.1685 29.673 94.1605C29.8664 94.1511 30.0785 94.1397 30.3075 94.1265L30.4723 94.1163L30.522 94.1134L30.5264 94.1131L30.6372 94.1062L31.4293 94.047L31.9799 94.0059L32.5362 93.9643L33.2024 93.9145L33.8601 93.8654L34.2489 93.8363L34.8149 93.794L35.1996 93.7636C35.3678 93.7493 35.5377 93.7347 35.709 93.7198L36.1565 93.6806L36.2376 93.6734L36.4573 93.6539C36.5861 93.6423 36.7155 93.6307 36.8455 93.6189L37.1207 93.5938L37.316 93.5758L37.4273 93.5713L37.9858 93.5487L38.2133 93.5395C38.3382 93.5352 38.4635 93.5308 38.5892 93.5263L38.9033 93.5149L39.3742 93.4972L39.6146 93.4878L39.7784 93.4814L39.9074 93.4762C40.0175 93.4718 40.1277 93.4673 40.238 93.4627L40.9335 93.4327L41.0513 93.4274L41.1942 93.4211L41.2671 93.4179L41.6595 93.4001C41.8088 93.3931 41.9579 93.386 42.1068 93.3787L42.8514 93.3407L43.136 93.3259L43.4873 93.3072L43.9423 93.282L44.1942 93.2676C44.2597 93.2638 44.325 93.2599 44.3902 93.2561C44.4246 93.254 44.4589 93.252 44.4932 93.2499L45.2311 93.2042L45.4466 93.1902L46.3106 93.131L46.4971 93.1175L47.0708 93.0743C47.1909 93.0649 47.3098 93.0555 47.4275 93.0459L47.6536 93.027L48.7606 92.926L49.4351 92.8582C49.5857 92.8418 49.7323 92.8251 49.8748 92.8083L50.177 92.7669L50.8541 92.6741L50.9725 92.6579L51.4516 92.5794C51.5231 92.5661 51.5921 92.5528 51.6583 92.5394L52.0116 92.46C52.0823 92.4423 52.1483 92.4244 52.2095 92.4063C52.2775 92.3861 52.3395 92.3658 52.3952 92.3452C52.5116 92.3022 52.6006 92.2582 52.6598 92.2133C52.7104 92.1748 52.7393 92.1355 52.7448 92.0956C52.7502 92.0561 52.7415 92.0016 52.7195 91.933C52.6898 91.8401 52.6356 91.7215 52.5591 91.5797L52.4378 91.3663C52.424 91.3432 52.4098 91.3195 52.3952 91.2955L52.3663 91.2045L52.3215 91.0639L52.2977 90.989L52.2428 90.8167L52.2262 90.7643L52.2095 90.712L52.1787 90.5756L52.1274 90.3485L52.0874 90.1713L52.0345 89.9374L52.0093 89.8259L52.0041 89.7196L51.9959 89.5528L51.9753 89.1491L51.9589 88.834L51.9398 88.4656L51.9328 88.3321L51.928 88.2423L51.9134 87.9697L51.8947 87.6224L51.8761 87.2826L51.8612 87.0106L51.8476 86.8798L51.8239 86.652L51.808 86.4991L51.7786 86.2163L51.7434 85.8787L51.7365 85.8119L51.7295 85.7452L51.7256 85.5856L51.7212 85.4085L51.7163 85.2138L51.7101 84.966L51.7029 84.6754L51.6981 84.4807L51.6919 84.2324L51.684 83.9139L51.6738 83.6902L51.6673 83.5773L51.6539 83.343L51.6382 83.0706L51.6156 82.6775L51.6072 82.5319L51.6007 82.4188L51.5963 82.343L51.5911 82.2525L51.5862 82.1675L51.5801 82.0612L51.5741 81.9584L51.5665 81.8271L51.5572 81.6644L51.5473 81.4946L51.5373 81.3207L51.526 81.1257L51.5166 80.963L51.5079 80.811L51.4825 80.3713L51.4786 80.3042L51.4638 80.049L51.4565 79.9213L51.4434 79.6948L51.4312 79.4822L51.4234 79.3478L51.4083 79.0856L51.3905 78.7749L51.3803 78.5967L51.3675 78.3732L51.3578 78.2032L51.3484 78.0371L51.3368 77.835L51.2969 77.1303L51.2852 76.9219L51.266 76.5775L51.2524 76.3333L51.2407 76.1198L51.2482 76.0282L51.264 75.8369L51.2868 75.56L51.3069 75.3166L51.3247 75.1003L51.3419 74.8908L51.3657 74.6023L51.3895 74.3136L51.4008 74.1762C51.4054 74.1511 51.4098 74.126 51.4142 74.1009C51.4235 74.0471 51.4324 73.9932 51.4409 73.9392C51.4573 73.8344 51.472 73.7294 51.4851 73.6241C51.4954 73.541 51.5047 73.4577 51.5129 73.3743L51.5601 73.2465L51.611 73.1087L51.6571 72.9838L51.7049 72.8545L51.7569 72.7138L51.8102 72.5696L51.8891 72.3561L51.9433 72.2096L52.0239 72.0564C52.0593 72.0009 52.0949 71.9434 52.1307 71.8841L52.2584 71.6679L52.3075 71.5827L52.3536 71.5009L52.3686 71.4742L52.5279 71.1918L52.5735 71.1107L52.6217 71.0247C52.6528 70.9693 52.6844 70.9132 52.7166 70.8564C52.7662 70.7688 52.8171 70.6796 52.8696 70.5889L52.9028 70.5318C52.9245 70.4945 52.9468 70.4571 52.9694 70.4195L53.0021 70.3647L53.0047 70.3604C53.0383 70.3038 53.0717 70.2464 53.1066 70.1889L53.1511 70.1162C53.1889 70.0547 53.2275 69.9928 53.2669 69.9304L53.2888 69.896C53.3135 69.8572 53.3385 69.8182 53.3639 69.7791C53.404 69.7175 53.4449 69.6555 53.4867 69.5933C53.5125 69.5548 53.5387 69.5162 53.5653 69.4775L53.6028 69.4232C53.6284 69.3863 53.6544 69.3493 53.6807 69.3122L53.718 69.2599C53.7387 69.2311 53.7595 69.2023 53.7804 69.1736C53.8055 69.1392 53.8308 69.1048 53.8562 69.0706C53.9044 69.0057 53.9531 68.9413 54.0021 68.8773C54.0712 68.7872 54.1411 68.6981 54.2113 68.6099L54.2686 68.5382C54.3174 68.4776 54.3663 68.4174 54.4152 68.3577L54.779 68.0459L54.8692 67.9765L54.8771 67.9707L54.9878 67.888L55.0395 67.8492L55.2005 67.7276L55.3945 67.5798L55.4671 67.5241L55.5669 67.4474C55.6424 67.3892 55.7187 67.3301 55.7958 67.2702L55.8603 67.2199L55.9898 67.1188L56.1453 66.9966L56.5527 66.6728L56.6862 66.5662L57.5642 65.8534L57.6353 65.7949L57.8755 65.596L58.0855 65.4214L58.1812 65.3415L58.2329 65.298L58.2714 65.2656L58.5635 65.0198C58.6259 64.9671 58.6882 64.9143 58.7505 64.8613L59.0466 64.6086L59.1666 64.5057L59.2491 64.4346L59.3498 64.3478L59.4396 64.27L59.6186 64.1145L59.6947 64.0482L59.801 63.9552L59.8685 63.8961L59.9971 63.783L60.1089 63.6843C60.1773 63.6239 60.2454 63.5635 60.3132 63.5031L60.3991 63.4266L60.4993 63.3366L60.535 63.3044L60.5648 63.2776L60.6912 63.1641L60.8716 63.0015L60.9777 62.9051L61.1253 62.7701L61.2877 62.621L61.4424 62.4781L61.5427 62.3849L61.6247 62.3083L61.8672 62.0801L61.8976 62.0513L61.9597 61.9926L62.0595 61.8976C62.1239 61.836 62.1875 61.7749 62.2505 61.7141L62.3137 61.6415L62.3769 61.5688C62.4123 61.5476 62.4603 61.5165 62.5227 61.4744L62.667 61.3756L62.7087 61.3465C62.7321 61.3303 62.7569 61.3111 62.7831 61.2891L63.0359 61.0389C63.0524 61.0208 63.0691 61.0021 63.0862 60.9827L63.2417 60.7997C63.261 60.7762 63.2806 60.7521 63.3005 60.7275L63.4568 60.5296C63.4764 60.5041 63.4963 60.4782 63.5165 60.4518C63.5414 60.4192 63.5667 60.3858 63.5923 60.3517L63.6496 60.2892C63.6856 60.2499 63.7209 60.2109 63.7555 60.1724L64.0135 59.8775L64.0354 59.8521L64.0461 59.8397L64.0617 59.8214C64.0877 59.7906 64.1132 59.7602 64.1381 59.7301L64.3842 59.4184L64.4013 59.3962L64.4224 59.3686C64.4511 59.3298 64.4786 59.2919 64.5047 59.2548L64.6889 58.9655L64.7264 58.9026C64.7468 58.8647 64.7649 58.8284 64.7807 58.7935L64.805 58.7368C64.8168 58.7073 64.8268 58.6791 64.8348 58.6521L64.8769 58.569L64.9474 58.4293L65.018 58.2897L65.0919 58.177L65.1223 58.1304L65.1847 58.0346L65.3255 57.8178L65.4025 57.6986L65.4726 57.5897L65.6773 57.2702L65.7056 57.2259L65.8101 57.0618L65.8623 56.9796L65.9106 56.9033L65.9814 56.7915C66.0295 56.7154 66.0777 56.6387 66.1262 56.5617L66.2412 56.379L66.3075 56.2732L66.4927 55.9765C66.5465 55.8902 66.6005 55.8035 66.6546 55.7164L66.8826 55.3483L67.0187 55.1276L67.0699 55.0444L67.3109 54.6517L67.3508 54.5865L67.4457 54.4314L67.5529 54.2558C67.6187 54.1479 67.6844 54.0398 67.7501 53.9317L67.8457 53.7743L67.8961 53.6911L68.205 53.1803L68.2713 53.0702L68.3235 52.9836L68.5846 52.5492L68.691 52.3718L68.8187 52.1584L68.981 51.8868L69.0794 51.7218L69.2248 51.4776L69.3708 51.232L69.468 51.0683L69.5433 50.9411L69.5484 50.9326L69.7736 50.5523L69.8093 50.4919L69.9579 50.2402L70.0872 50.0209L70.1778 49.8669L70.2939 49.6694L70.41 49.4719L70.4497 49.4042L70.551 49.2315L70.6159 49.1207L70.7899 48.8234L70.9046 48.6271L70.9569 48.5376L71.0593 48.3619L71.1618 48.1861L71.1808 48.1535L71.2575 48.0217L71.3086 47.9338L71.4849 47.6303L71.5199 47.5702L71.6445 47.3551L71.7315 47.2048L71.7601 47.1555L71.7886 47.1061L71.8732 47.0205L71.9372 46.9557L72.0542 46.8372L71.999 46.8844C72.0207 46.8651 72.0423 46.8463 72.0636 46.8278C72.112 46.7858 72.1593 46.7458 72.2057 46.7078C72.2265 46.6908 72.2471 46.6742 72.2674 46.658C72.288 46.6417 72.3083 46.6258 72.3284 46.6104C72.3867 46.5656 72.4431 46.5245 72.4975 46.4874C72.5144 46.4758 72.5311 46.4647 72.5476 46.4539C72.5666 46.4416 72.5852 46.4298 72.6037 46.4185C72.6346 46.3995 72.6647 46.382 72.6941 46.3661C72.7352 46.3438 72.7757 46.3211 72.8157 46.298C72.8497 46.2784 72.8833 46.2585 72.9165 46.2383L73.224 46.0355L73.2682 46.0036C73.2967 45.9828 73.3248 45.9617 73.3526 45.9404L73.5432 45.785L73.5976 45.7392C73.6221 45.7176 73.6463 45.6958 73.6702 45.6739L73.8554 45.493C73.8879 45.4594 73.9195 45.4254 73.9504 45.3912C73.9833 45.3548 74.0152 45.3181 74.0463 45.281C74.0757 45.2461 74.1043 45.2109 74.1321 45.1753L74.2735 44.9828C74.3009 44.943 74.3273 44.9029 74.3527 44.8626L74.4037 44.7768L74.5137 44.5799C74.524 44.5598 74.534 44.5397 74.5438 44.5195L74.6018 44.393C74.6164 44.3592 74.6305 44.3252 74.6438 44.2912L74.6499 44.2748L74.6548 44.2616L74.6658 44.2319L74.6877 44.1727C74.6967 44.1467 74.7054 44.1207 74.7137 44.0947L74.773 44.0365L74.7903 44.0195C74.8028 44.0126 74.8152 44.0054 74.8276 43.9982L74.8977 43.9532L75.0013 43.8868C75.0205 43.8732 75.0394 43.8595 75.0579 43.8456C75.0875 43.8234 75.1162 43.8007 75.144 43.7776L75.2117 43.7163L75.2793 43.655C75.3005 43.634 75.3208 43.6129 75.3405 43.5915L75.4276 43.4879L75.4342 43.4798L75.4377 43.4756L75.4511 43.4589C75.4677 43.4368 75.4836 43.4146 75.4986 43.3922L75.5377 43.3309L75.545 43.3188L75.551 43.3085L75.6614 43.2446L75.7717 43.1808L75.8328 43.1619L75.894 43.1431L76.0242 43.1029L76.1399 43.0672L76.3277 43.0093L76.3761 42.9943L76.4691 42.9656L76.6121 42.9215L76.8828 42.838L77.0333 42.7916L77.1607 42.7523L77.2499 42.7248C77.2946 42.711 77.3493 42.6941 77.4111 42.6745L77.5709 42.6226C77.6199 42.6063 77.6711 42.5889 77.7236 42.5705C77.7604 42.5576 77.7979 42.5442 77.8357 42.5303C77.8682 42.5184 77.901 42.5062 77.9338 42.4936L78.0138 42.4699L78.1241 42.4372L78.2708 42.3937L78.4175 42.3501L78.4507 42.3449L78.5889 42.323L78.7489 42.2898C78.7857 42.2789 78.821 42.2658 78.8549 42.2508C78.8719 42.2432 78.8885 42.2351 78.9048 42.2265L79.0604 42.1189C79.0805 42.101 79.0994 42.0822 79.117 42.0625C79.1362 42.0412 79.1539 42.0189 79.17 41.9957C79.1881 41.9697 79.2043 41.9426 79.2182 41.9147C79.2422 41.8667 79.2599 41.8161 79.2705 41.7639C79.2767 41.7333 79.2805 41.7021 79.2817 41.6705L79.2738 41.55C79.2718 41.5385 79.2695 41.527 79.2668 41.5155C79.2652 41.5086 79.2635 41.5018 79.2617 41.495C79.2539 41.466 79.2441 41.4379 79.2324 41.4107C79.2154 41.3715 79.1945 41.3342 79.17 41.2991C79.1538 41.2758 79.1361 41.2536 79.117 41.2324L79.0604 41.1762C79.0308 41.1499 78.9988 41.1257 78.9648 41.1038C78.9301 41.0816 78.8933 41.0617 78.8549 41.0445C78.8086 41.0239 78.7598 41.007 78.7093 40.9945L78.5889 40.9731C78.5565 40.9696 78.5237 40.9677 78.4905 40.9677L78.4175 40.9775L78.3658 40.9844L78.2708 40.9972L78.1777 41.0096L78.0957 41.0206L77.9323 41.0445L77.8647 41.0553L77.7579 41.0722L77.5845 41.0997L77.4111 41.1272L77.3434 41.138L77.2231 41.157L77.0974 41.177L76.9717 41.1969L76.9159 41.2058L76.7828 41.2269L76.6665 41.2453L76.5429 41.2649L76.4353 41.282L76.3277 41.2991L76.2765 41.3072L76.1399 41.3289L76.0037 41.3505L75.8675 41.3721L75.8173 41.38L75.7137 41.3965L75.6686 41.4036L75.5024 41.3965L75.3645 41.3802L75.2266 41.3639C75.1656 41.355 75.1069 41.3501 75.0555 41.3505L74.9815 41.2914L74.9444 41.2619L74.8782 41.157L74.8364 41.0553L74.7951 40.9677V40.9314V40.8181L74.7744 40.757V40.6764V40.5914L74.7951 40.5557L74.9074 40.4355L75.0555 40.3553L75.1134 40.3201L75.212 40.2602L75.3106 40.2003L75.4814 40.1027L75.55 40.0634L75.6235 40.0214L75.8675 39.882L75.9792 39.8181L76.0517 39.7767L76.247 39.665L76.3028 39.6317L76.5285 39.4968C76.5716 39.4656 76.6113 39.4319 76.6475 39.3963L76.7235 39.3359L76.8781 39.2129L76.9717 39.1385L77.0802 39.0761L77.2782 38.9623L77.3707 38.9092L77.4782 38.8474L77.6392 38.7549L77.7579 38.6867L77.9323 38.5865L78.1384 38.4681L78.2414 38.4089L78.3444 38.3497L78.465 38.2804L78.5855 38.2111L78.6927 38.1495L78.7999 38.0879L78.8627 38.0518L78.9256 38.0157L78.9803 37.9843C79.0011 37.9723 79.0213 37.9597 79.0406 37.9466L79.1526 37.8573L79.1894 37.8205C79.2008 37.8085 79.2117 37.7962 79.2222 37.7836L79.2825 37.6987L79.3073 37.6596C79.3174 37.6415 79.3266 37.6231 79.335 37.6044L79.3877 37.4346C79.3906 37.418 79.393 37.4012 79.3948 37.3843L79.3985 37.3162V37.3074L79.3849 37.1873L79.3747 37.131C79.3725 37.1229 79.3702 37.1149 79.3677 37.1069C79.3588 37.0777 79.3479 37.0488 79.335 37.0203L79.2577 36.8875C79.2491 36.8756 79.2401 36.8638 79.2306 36.8521C79.2065 36.8222 79.1804 36.7941 79.1526 36.7679L79.0562 36.689C79.0432 36.6798 79.03 36.671 79.0166 36.6624L78.9581 36.6282C78.9273 36.6115 78.8954 36.5965 78.8627 36.5831L78.6927 36.5299C78.6859 36.5283 78.679 36.5269 78.6722 36.5255L78.5855 36.5115C78.5588 36.5083 78.5318 36.5061 78.5048 36.5048L78.3776 36.5063C78.3373 36.5091 78.297 36.5141 78.2571 36.5214L78.1257 36.5543C78.0848 36.5673 78.0447 36.5829 78.0055 36.6011L77.7929 36.719L77.6929 36.7765L77.6568 36.7972L77.5782 36.8423L77.4996 36.8875L77.4352 36.9245L77.3707 36.9616L77.2685 37.0203L77.232 37.0413L77.154 37.0861L77.076 37.131L77.0018 37.1735L76.9277 37.2161L76.8407 37.2661L76.7536 37.3162L76.669 37.3648L76.5845 37.4134L76.515 37.4533L76.4108 37.5131L76.3462 37.5503L76.2816 37.5874L76.2188 37.6235L76.156 37.6596L76.0693 37.7094L76.0047 37.7465L75.8336 37.7908L75.7913 37.761C75.7816 37.7432 75.7705 37.7259 75.7582 37.7094C75.7386 37.683 75.7159 37.6584 75.6905 37.6361L75.6253 37.5874V37.5569L75.7529 37.4438L75.8153 37.4013L75.8777 37.3587L75.9401 37.3162L76.0134 37.2661L76.0868 37.2161L76.1669 37.1615L76.247 37.1069L76.374 37.0203L76.4435 36.9729L76.6648 36.822L76.7623 36.7555L76.8598 36.689L76.9305 36.6408L77.076 36.5416L77.154 36.4884L77.2116 36.4491L77.2693 36.4098L77.333 36.3663L77.3967 36.3228L77.4482 36.2878L77.4996 36.2527L77.6271 36.1658L77.6996 36.1163L77.7722 36.0668L77.8872 35.9884L77.9367 35.9547L77.9861 35.9209L78.0473 35.8792L78.1084 35.8375L78.1597 35.8026L78.2903 35.7102L78.3182 35.69C78.3394 35.6722 78.3592 35.6537 78.3776 35.6344L78.4261 35.573L78.4825 35.4911C78.4906 35.4762 78.498 35.4611 78.5048 35.4458L78.5539 35.1834L78.5521 35.1331C78.5486 35.104 78.5428 35.075 78.5349 35.0463L78.5048 34.9625C78.4828 34.9132 78.4538 34.8654 78.4177 34.8202L78.3374 34.7462L78.2972 34.7092L78.1597 34.6154C78.1485 34.6098 78.1371 34.6045 78.1257 34.5995L78.0473 34.5756L77.9367 34.5419L77.7953 34.5251C77.7736 34.5243 77.7519 34.5243 77.7301 34.5251L77.6287 34.5401L77.5781 34.5476L77.5274 34.5551C77.4735 34.5694 77.421 34.5889 77.3707 34.6135L77.1322 34.7659L77.0637 34.8126L76.9951 34.8594L76.9613 34.8824L76.8952 34.9275L76.7536 35.024L76.7209 35.0463L76.5845 35.1394L76.5264 35.179L76.374 35.2829L76.3233 35.3175L76.215 35.3913L76.1067 35.4652L76.0039 35.5353L75.9011 35.6054L75.7821 35.6865L75.6632 35.7676L75.5508 35.8443L75.4384 35.9209L75.3889 35.9547L75.2833 36.0267L75.256 36.0453L75.1175 36.1397L75.0793 36.1658L75.0209 36.2056L74.9625 36.2455L74.8819 36.3004L74.849 36.3228L74.8046 36.3531L74.7027 36.4491H74.6337L74.5121 36.3834L74.4644 36.3438V36.2527L74.5121 36.1894L74.5729 36.1281L74.6337 36.0668L74.8245 35.875L74.9625 35.7362L74.9882 35.7102L75.1421 35.5546L75.2045 35.4911L75.2581 35.4364L75.3741 35.3175C75.4014 35.2892 75.4284 35.2613 75.4549 35.2337L75.5757 35.1054L75.6964 34.9771C75.7641 34.9033 75.8248 34.8351 75.8759 34.7744L75.9416 34.7081L76.0072 34.6418L76.0894 34.5657L76.1305 34.5277L76.2521 34.4223L76.3233 34.3603L76.4691 34.2331C76.4779 34.2235 76.4864 34.2137 76.4944 34.2038L76.5785 34.0714C76.5933 34.0403 76.6052 34.0085 76.6144 33.9762L76.6352 33.8606C76.6368 33.8394 76.6373 33.8183 76.6367 33.7971C76.6364 33.7877 76.6359 33.7784 76.6352 33.7691C76.6326 33.7368 76.6274 33.7047 76.6196 33.6729C76.614 33.6506 76.6072 33.6285 76.599 33.6067L76.5526 33.5237L76.5062 33.4407C76.4774 33.4035 76.444 33.3681 76.4058 33.3353C76.3796 33.3127 76.352 33.2921 76.3233 33.2733C76.2651 33.2354 76.2022 33.2053 76.1365 33.1829C76.1266 33.1796 76.1167 33.1764 76.1067 33.1734L75.9628 33.1428C75.9224 33.1376 75.8815 33.135 75.8407 33.1351C75.8114 33.1352 75.7821 33.1367 75.7529 33.1396C75.6841 33.1463 75.6162 33.1608 75.551 33.1829C75.532 33.1894 75.5133 33.1965 75.4948 33.2043L75.3889 33.2579C75.3622 33.2739 75.3364 33.2916 75.3116 33.3108L75.1548 33.4407L75.0209 33.5521L74.9554 33.6067L74.8819 33.6678L74.7602 33.7691L74.7027 33.8169L74.6042 33.8989L74.5151 33.9731L74.4259 34.0472L74.3969 34.0714L74.2378 34.2038L74.1637 34.2655L74.1044 34.3148L73.9601 34.4349L73.8944 34.4896L73.8199 34.5516L73.7455 34.6135L73.7101 34.6429L73.6747 34.6724L73.6241 34.7092L73.5343 34.7744L73.4961 34.7978L73.3952 34.8594L73.3727 34.873C73.3317 34.8977 73.3053 34.9125 73.3053 34.9125C73.2791 34.9185 73.2482 34.9316 73.2133 34.9508C73.1709 34.9742 73.1226 35.0065 73.0697 35.0463L72.9532 35.1394L72.9286 35.1602C72.9133 35.1732 72.8977 35.1867 72.8819 35.2005L72.6493 35.416L72.5066 35.5546L72.3916 35.6697L72.3518 35.7102L72.2216 35.8443L72.1036 35.9682L72.0301 36.0453L72.0098 36.0668C71.9339 36.1473 71.8604 36.226 71.7912 36.3004L71.7397 36.3558L71.6777 36.4226C71.6397 36.4636 71.6034 36.5025 71.5693 36.539L71.5646 36.5441L71.5389 36.5716L71.5137 36.5988C71.5002 36.6133 71.4872 36.6273 71.4746 36.6408C71.4324 36.6856 71.3956 36.7244 71.3652 36.7555C71.3447 36.7765 71.3271 36.794 71.3128 36.8076C71.2855 36.8336 71.2587 36.8603 71.2324 36.8875C71.1654 36.957 71.1021 37.0304 71.042 37.1069L70.9588 37.2227L70.8028 37.4533C70.788 37.4775 70.7735 37.5018 70.7592 37.5263L70.7204 37.5956L70.6311 37.761C70.617 37.7887 70.6032 37.8164 70.5896 37.8442L70.5318 37.9696L70.3534 38.3915L70.311 38.501C70.2912 38.5542 70.2721 38.6068 70.2536 38.6587L70.2003 38.8111L70.1491 38.9623L70.0955 39.1224L70.0758 39.1815Z" fill="white"/>
</svg>
