<svg width="16" height="17" viewBox="0 0 16 17" fill="none" xmlns="http://www.w3.org/2000/svg">
<path d="M1.63695 1.74969C-0.540441 4.08264 -0.540441 7.86503 1.63695 10.1979C3.55527 12.2533 6.52367 12.4978 8.69187 10.9315L13.5098 16.0935C13.8516 16.4598 14.4057 16.4598 14.7475 16.0935C15.0583 15.7606 15.0866 15.2398 14.8323 14.8727L14.7475 14.7674L9.97391 9.65156C11.6872 7.30752 11.5365 3.90813 9.52193 1.74969C7.34457 -0.58323 3.81433 -0.58323 1.63695 1.74969ZM8.28421 3.0758C9.77797 4.67629 9.77797 7.27126 8.28421 8.87175C6.79041 10.4722 4.36849 10.4722 2.8747 8.87175C1.38091 7.27126 1.38091 4.67629 2.8747 3.0758C4.36849 1.47536 6.79041 1.47536 8.28421 3.0758Z" fill="#898989"/>
</svg>
