<svg width="16" height="22" viewBox="0 0 16 22" fill="none" xmlns="http://www.w3.org/2000/svg">
<path d="M3.33496 5.21885C3.33496 2.88885 5.20044 1 7.50163 1C9.80281 1 11.6683 2.88885 11.6683 5.21885V11.1252C11.6683 13.4553 9.80281 15.3441 7.50163 15.3441C5.20044 15.3441 3.33496 13.4553 3.33496 11.1252V5.21885Z" stroke="black" stroke-width="0.77"/>
<path d="M0.83724 10.2812C1.29747 10.2812 1.67057 10.659 1.67057 11.125C1.67057 14.387 4.28224 17.0314 7.50391 17.0314C10.7256 17.0314 13.3372 14.387 13.3372 11.125C13.3372 10.659 13.7104 10.2812 14.1706 10.2812C14.6307 10.2812 15.0039 10.659 15.0039 11.125C15.0039 15.0339 12.0872 18.2529 8.33724 18.6725V20.4065C8.33724 20.8724 7.96414 21.2503 7.50391 21.2503C7.04367 21.2503 6.67057 20.8724 6.67057 20.4065V18.6725C2.92061 18.2529 0.00390625 15.0339 0.00390625 11.125C0.00390625 10.659 0.377006 10.2812 0.83724 10.2812Z" fill="black"/>
</svg>
