<svg width="13" height="13" viewBox="0 0 13 13" fill="none" xmlns="http://www.w3.org/2000/svg">
<path d="M9.92381 1.97065L10.0031 2.02454L10.0928 2.10204C10.1504 2.15384 10.2299 2.22889 10.3241 2.3267C10.5123 2.52207 10.7603 2.80995 11.0077 3.18682C11.5029 3.94113 12 5.05912 12 6.50221C12 7.94538 11.5028 9.06172 11.0073 9.81437C10.7598 10.1904 10.5117 10.4774 10.3235 10.6721L10.1941 10.8013L10.0229 10.9561L9.99268 10.981M9.0081 3.80339L9.09936 3.8673L9.22184 3.98253L9.27137 4.03443C9.37538 4.14663 9.50954 4.31098 9.64243 4.52951C9.90956 4.96896 10.1681 5.62276 10.1681 6.49717C10.1681 7.37155 9.90956 8.02605 9.64261 8.46614C9.50991 8.68498 9.37575 8.84975 9.27183 8.9622L9.17875 9.05775L9.11434 9.11733L9.07791 9.14823L9.01974 9.17463M7.13482 1.03605C7.28031 1.09744 7.38216 1.2284 7.40829 1.38058L7.4149 1.45821V11.5388C7.4149 11.7234 7.30414 11.89 7.13392 11.9614C6.98801 12.0225 6.82284 12.0035 6.69571 11.9154L6.63558 11.8657L3.95375 9.23098H2.37463C1.6601 9.23098 1.0729 8.68579 1.00629 7.98875L1 7.85637V5.11721C1 4.40269 1.54517 3.81549 2.24224 3.74888L2.37463 3.74259H3.95489L6.63697 1.12999C6.76895 1.00144 6.96507 0.964434 7.13482 1.03605Z" stroke="black" stroke-width="0.7" stroke-linecap="round" stroke-linejoin="round"/>
</svg>
