<svg width="27" height="17" viewBox="0 0 27 17" fill="none" xmlns="http://www.w3.org/2000/svg">
<path fill-rule="evenodd" clip-rule="evenodd" d="M23.4791 12.7021L23.4364 7.94299C23.4269 6.89164 22.5287 6.04669 21.4302 6.05574L20.9757 6.05948L12.8508 6.12639C11.822 6.13487 10.9951 6.93995 11.004 7.92459L11.0564 13.7563C11.0572 13.8458 11.0645 13.9339 11.0777 14.02C11.2203 14.9454 12.0576 15.6518 13.0625 15.6435L20.397 15.5831L26.0039 16.9648L23.4791 12.7021Z" fill="#1B291F"/>
<path fill-rule="evenodd" clip-rule="evenodd" d="M3.59848 2.81642L3.53858 9.77794L0.00390625 16.0134L7.85359 13.9923L10.5039 14.0151V7.05566L11.004 6.05574L12.0039 5.55566H20.98L21.0038 2.78951C21.0162 1.34918 19.8586 0.171519 18.4183 0.159125L6.40705 0.0557693C4.86916 0.0425359 3.61172 1.27852 3.59848 2.81642ZM20.9757 6.05948L12.8508 6.12639C11.822 6.13487 10.9951 6.93995 11.004 7.92459L11.0564 13.7563C11.0572 13.8458 11.0645 13.9339 11.0777 14.02L18.1218 14.0806C19.6597 14.0939 20.9172 12.8579 20.9304 11.32L20.9757 6.05948Z" fill="#1B291F"/>
</svg>
