<svg width="26" height="24" viewBox="0 0 26 24" fill="none" xmlns="http://www.w3.org/2000/svg">
<path d="M17.2526 23.5202V21.4554H20.5859V23.5202H17.2526Z" fill="#080808"/>
<path fill-rule="evenodd" clip-rule="evenodd" d="M0.585938 1.84001C0.585938 1.26984 1.14559 0.807617 1.83594 0.807617H12.6693C13.3596 0.807617 13.9193 1.26984 13.9193 1.84001V2.87239H13.5026C11.4316 2.87239 9.7526 4.25904 9.7526 5.96956V23.5202H0.585938V1.84001ZM6.419 5.82793C6.419 6.58816 5.6728 7.20445 4.75233 7.20445C3.83186 7.20445 3.08566 6.58816 3.08566 5.82793C3.08566 5.06771 3.83186 4.45142 4.75233 4.45142C5.6728 4.45142 6.419 5.06771 6.419 5.82793ZM6.419 9.95744C6.419 10.7177 5.6728 11.334 4.75233 11.334C3.83186 11.334 3.08566 10.7177 3.08566 9.95744C3.08566 9.19722 3.83186 8.58093 4.75233 8.58093C5.6728 8.58093 6.419 9.19722 6.419 9.95744ZM6.419 14.087C6.419 14.8473 5.6728 15.4636 4.75233 15.4636C3.83186 15.4636 3.08566 14.8473 3.08566 14.087C3.08566 13.3268 3.83186 12.7105 4.75233 12.7105C5.6728 12.7105 6.419 13.3268 6.419 14.087ZM6.77013 17.6902H2.82276V21.6376H6.77013V17.6902Z" fill="#080808"/>
<path fill-rule="evenodd" clip-rule="evenodd" d="M21.8359 19.3906C22.5263 19.3906 23.0859 19.8528 23.0859 20.423V23.5202H25.5859V5.96956C25.5859 5.39939 25.0263 4.93717 24.3359 4.93717H13.5026C12.8123 4.93717 12.2526 5.39939 12.2526 5.96956V23.5202H14.7526V20.423C14.7526 19.8528 15.3123 19.3906 16.0026 19.3906H21.8359ZM16.924 10.3305L15.5598 8.4384L15.4085 10.7661L12.9565 11.4709L15.3151 12.2047L15.1639 14.5324L16.7727 12.6582L19.1313 13.392L17.7671 11.4999L19.376 9.62568L16.924 10.3305ZM21.6551 6.6376L22.3944 7.34961L23.4006 6.85189L22.8512 7.78966L23.5904 8.50168L22.5117 8.36924L21.9624 9.307L21.845 8.28738L20.7663 8.15494L21.7725 7.65722L21.6551 6.6376ZM23.2903 13.3759L22.9589 11.6344L22.1066 13.1889L20.1914 12.8862L21.5798 14.1496L20.7275 15.704L22.438 14.9304L23.8264 16.1938L23.4951 14.4523L25.2055 13.6786L23.2903 13.3759Z" fill="#080808"/>
</svg>
