<svg width="17" height="12" viewBox="0 0 17 12" fill="none" xmlns="http://www.w3.org/2000/svg">
<path d="M1.5863 0.0556641H10.5532C10.6186 0.0556641 10.6831 0.0596342 10.7464 0.0673465C10.8098 0.0750588 11.205 0.166682 11.4461 0.331475C11.6249 0.453667 11.842 0.719742 11.842 0.719742C12.0268 0.97868 12.1356 1.29567 12.1356 1.63805V2.69831L15.0505 0.272814C15.3922 -0.0115106 15.9108 0.22843 15.9153 0.672931L16.0039 9.41478C16.0084 9.85929 15.4947 10.1097 15.1473 9.83233L12.1356 7.42782V9.55C12.1356 10.4239 11.4271 11.1324 10.5532 11.1324H1.5863C1.35182 11.1324 1.12926 11.0814 0.929095 10.9899C0.929095 10.9899 0.620556 10.8229 0.464614 10.6661C0.276197 10.4768 0.158806 10.2568 0.0979469 10.0886C0.037088 9.92052 0.00390625 9.73913 0.00390625 9.55V1.63805C0.00390625 0.764124 0.712366 0.0556641 1.5863 0.0556641Z" fill="#1B291F"/>
</svg>
