<svg width="4" height="3" viewBox="0 0 4 3" fill="none" xmlns="http://www.w3.org/2000/svg">
<path fill-rule="evenodd" clip-rule="evenodd" d="M1.6087 0H2.3913C2.56014 0 2.69901 0.132067 2.71571 0.301306L2.71739 0.335621L2.71727 0.671141L3.04348 0.671242C3.29561 0.671242 3.5 0.88161 3.5 1.14111V2.34935C3.5 2.60885 3.29561 2.81922 3.04348 2.81922H0.956522C0.704392 2.81922 0.5 2.60885 0.5 2.34935V1.14111C0.5 0.88161 0.704392 0.671242 0.956522 0.671242L1.28249 0.671141L1.28261 0.335621C1.28261 0.161847 1.41092 0.0189201 1.57536 0.00173299L1.6087 0ZM1.67391 0.402745H2.32609L2.32597 0.671141H1.67379L1.67391 0.402745Z" fill="#4285F4"/>
</svg>
