<svg width="17" height="17" viewBox="0 0 17 17" fill="none" xmlns="http://www.w3.org/2000/svg">
<path fill-rule="evenodd" clip-rule="evenodd" d="M16.0039 8.5C16.0039 12.9183 12.4222 16.5 8.00391 16.5C3.58563 16.5 0.00390625 12.9183 0.00390625 8.5C0.00390625 4.08172 3.58563 0.5 8.00391 0.5C12.4222 0.5 16.0039 4.08172 16.0039 8.5ZM8.14544 3.11248C5.1852 3.11248 2.78544 5.51223 2.78544 8.47248C2.78544 9.40116 3.02198 10.2758 3.43833 11.0381L2.80263 13.2631C2.75711 13.4224 2.80352 13.5939 2.9232 13.7085C3.04289 13.823 3.21617 13.862 3.37336 13.8095L5.46202 13.1133C6.25147 13.5707 7.16847 13.8325 8.14544 13.8325C11.1057 13.8325 13.5054 11.4327 13.5054 8.47248C13.5054 5.51223 11.1057 3.11248 8.14544 3.11248Z" fill="#1B291F"/>
<path fill-rule="evenodd" clip-rule="evenodd" d="M3.67877 8.47248C3.67877 6.00561 5.67857 4.00581 8.14544 4.00581C10.6123 4.00581 12.6121 6.00561 12.6121 8.47248C12.6121 10.9393 10.6123 12.9391 8.14544 12.9391C7.26579 12.9391 6.44679 12.6854 5.75608 12.2471C5.64269 12.1752 5.50294 12.158 5.37554 12.2005L3.89423 12.6943L4.34889 11.103C4.38268 10.9847 4.3662 10.8577 4.30332 10.752C3.90668 10.085 3.67877 9.30603 3.67877 8.47248ZM8.19012 7.39536L7.66908 7.8733C7.6792 7.90909 7.69178 7.95104 7.70703 7.9977C7.75862 8.15543 7.83928 8.36205 7.95585 8.56396C8.07242 8.76587 8.21104 8.93903 8.32185 9.06258C8.35462 9.09912 8.38466 9.131 8.4106 9.15766L9.08503 8.94538C9.46284 8.82647 9.87499 8.94882 10.1267 9.2546L10.535 9.75057C10.8447 10.1268 10.8083 10.6791 10.4519 11.0114C9.81121 11.6087 8.81534 11.7674 8.11858 11.133C7.65729 10.7131 7.11917 10.1142 6.64797 9.30424C6.17757 8.49561 5.92957 7.73596 5.79986 7.13076C5.60261 6.21048 6.2433 5.43583 7.07693 5.18088C7.54711 5.03709 8.04803 5.28388 8.22052 5.74431L8.44317 6.33863C8.58212 6.70952 8.482 7.12763 8.19012 7.39536Z" fill="#1B291F"/>
</svg>
