<svg width="21" height="23" viewBox="0 0 21 23" fill="none" xmlns="http://www.w3.org/2000/svg">
<path d="M8.62531 1.0523C9.44493 0.315894 10.6878 0.315908 11.5075 1.0523L19.4138 8.15576C19.8689 8.56471 20.1289 9.14781 20.1289 9.75971V10.2171C19.9087 10.02 19.6683 9.84528 19.4112 9.69659C18.7754 9.3288 18.0371 9.11877 17.2539 9.11877C14.8721 9.11877 12.9414 11.0495 12.9414 13.4313H12.2255H12.2227H7.91016C7.51321 13.4313 7.19141 13.7531 7.19141 14.15V19.9C7.19141 21.0908 6.22602 22.0563 5.03516 22.0563H2.16016C0.969288 22.0563 0.00390625 21.0908 0.00390625 19.9V9.75971C0.00390625 9.14781 0.263892 8.56471 0.719062 8.15576L8.62531 1.0523Z" fill="#4285F4"/>
</svg>
