<svg width="31" height="22" viewBox="0 0 31 22" fill="none" xmlns="http://www.w3.org/2000/svg">
<path d="M6.6022 2.59946L11.401 5.8986L16.1997 3.49922L9.60142 1.09984H9.00157L6.6022 2.29953V2.59946Z" fill="#1B291F"/>
<path d="M0.303828 7.99805L1.50352 7.39821L6.90212 9.19774L24.4961 0.84804L24.7144 0.770702L25.6384 0.539696L25.7972 0.5H25.9472H26.0971H27.8967L28.3581 0.580748L29.29 1.04671L29.4514 1.15492L29.8155 1.51904L29.9961 1.99961V2.14957C29.9961 2.20814 30.0136 2.24365 29.9961 2.29953C29.9868 2.32936 29.9603 2.37111 29.9603 2.37111L29.6962 2.89938L28.4965 4.09907L27.5968 4.69891L26.9969 4.99883L21.8982 7.39821L17.6993 19.695L17.3994 19.9949L16.4996 20.5948L14.7001 21.4946V20.8947L15.5999 10.6974V10.5474L6.75216 13.0967H4.80266L0.00390625 8.29798L0.303828 7.99805Z" fill="#1B291F"/>
</svg>
