<svg width="28" height="31" viewBox="0 0 28 31" fill="none" xmlns="http://www.w3.org/2000/svg">
<path d="M24.8886 3.89144L25.2006 5.5312L27.0039 5.8162L25.3935 6.54462L25.6774 8.03722L25.7055 8.18438L25.5437 8.03722L24.3981 6.99481L22.7877 7.72323L23.5902 6.25962L22.2829 5.07005L24.0861 5.35505L24.8886 3.89144Z" fill="#090808"/>
<path d="M22.338 0.5L23.0341 1.1704L23.9814 0.70177L23.4642 1.58473L24.1602 2.25513L23.1445 2.13043L22.6273 3.01339L22.5168 2.05336L21.5011 1.92866L22.4485 1.46003L22.338 0.5Z" fill="#090808"/>
<path fill-rule="evenodd" clip-rule="evenodd" d="M14.9831 19.5175L14.9711 19.5301L14.9374 19.5654C14.9487 19.5537 14.9599 19.5419 14.9711 19.5301C14.9751 19.5259 14.9791 19.5217 14.9831 19.5175ZM14.8024 19.7051L14.7592 19.7494L14.7752 19.733L14.8024 19.7051ZM12.4529 22.2848C12.4492 22.292 12.4455 22.2992 12.4419 22.3063C12.4343 22.3211 12.4268 22.3357 12.4195 22.3503L12.4529 22.2848Z" fill="#090808"/>
<path d="M18.1807 10.0867L18.1737 10.1109L18.1631 10.1467L18.156 10.1698L18.1509 10.1861C18.1451 10.2044 18.1394 10.2214 18.1337 10.2368C18.1305 10.2457 18.1272 10.254 18.124 10.2619C18.1188 10.2747 18.1136 10.2861 18.1083 10.2958C18.1035 10.3049 18.0986 10.3125 18.0937 10.3186C18.0857 10.3286 18.0777 10.3382 18.0697 10.3475L18.0554 10.3638C18.0452 10.3753 18.035 10.3863 18.0248 10.3972L18.0012 10.4222L17.9915 10.4323L17.922 10.5088L17.8942 10.5415C17.8824 10.5567 17.8711 10.5725 17.8605 10.5893C17.8525 10.6018 17.8449 10.6149 17.8376 10.6287C17.8342 10.6351 17.831 10.6417 17.8278 10.6484L17.805 10.704C17.8001 10.7178 17.7956 10.7323 17.7915 10.7475L17.7818 10.7626L17.7555 10.8068L17.7449 10.8237L17.7236 10.8576L17.6487 10.9773L17.5909 11.0698L17.5451 11.1432L17.472 11.2606L17.4413 11.31L17.4099 11.3607L17.3311 11.4877L17.2466 11.6245L17.1541 11.7746L17.0385 11.9632L16.9413 12.1224L16.8222 12.3187L16.7043 12.5141L16.5845 12.7139L16.5105 12.8384L16.4438 12.9509L16.4053 13.0163L16.3668 13.0817L16.3296 13.13L16.2817 13.1922L16.2203 13.2719L16.126 13.3945L15.9454 13.6035L15.8785 13.677L15.8067 13.756C14.8105 14.8543 14.2646 15.5203 14.0003 15.9177L13.6345 16.3795C13.1788 16.8712 12.7939 17.2949 12.4705 17.6595C12.4114 17.7262 12.3544 17.7908 12.2994 17.8535C12.2198 17.9443 12.1443 18.0311 12.0728 18.1141L11.7099 18.4078C11.5847 18.4802 11.4581 18.5498 11.3466 18.6232C11.3262 18.6366 11.3063 18.6501 11.287 18.6638L10.9161 18.8559C10.8825 18.867 10.8475 18.8781 10.8113 18.889C10.6212 18.9459 10.419 18.9882 10.2418 19.0444L9.9748 19.0157L9.73726 18.9698L9.65657 18.9563L9.59759 18.9392L9.53924 18.9232C9.51515 18.9168 9.4908 18.9104 9.4662 18.9043L9.40869 18.8902L9.36073 18.8788C9.23845 18.8501 9.11615 18.8232 8.99434 18.7983L8.86669 18.7309C8.84247 18.6987 8.82014 18.663 8.80103 18.6232C8.78222 18.584 8.7665 18.5409 8.75518 18.4934C8.736 18.413 8.74552 18.3486 8.771 18.295C8.8078 18.2175 8.8779 18.1626 8.94288 18.1141C8.96968 18.1163 8.99875 18.1172 9.03022 18.1167C9.08009 18.1159 9.136 18.1116 9.19855 18.1035C9.24119 18.0979 9.2869 18.0906 9.33589 18.0815L9.49439 18.0479C9.53582 18.0382 9.57919 18.0274 9.62452 18.0154C9.66501 18.0048 9.70707 17.9932 9.75078 17.9807L9.82114 17.9602C9.87498 17.9441 9.92615 17.928 9.9748 17.9119C10.0335 17.8925 10.0884 17.873 10.1399 17.8535C10.1796 17.8385 10.2171 17.8236 10.2528 17.8086L10.3728 17.7548C10.4275 17.7286 10.4764 17.7024 10.52 17.6765C10.5653 17.6496 10.6049 17.6229 10.6394 17.5965C10.6919 17.5564 10.7325 17.517 10.7632 17.4787C10.787 17.449 10.8049 17.42 10.8178 17.3918C10.8382 17.3471 10.8461 17.3045 10.8451 17.2646C10.8444 17.2335 10.8384 17.2041 10.8288 17.1766C10.8145 17.1358 10.7925 17.0993 10.7683 17.0681L10.6979 16.9133L10.6626 16.7585L10.6394 16.5839V16.3795C10.6721 16.3275 10.7005 16.2771 10.7242 16.2285C10.75 16.1756 10.7702 16.125 10.7845 16.077C10.8015 16.02 10.8101 15.9666 10.8097 15.9177C10.8092 15.8555 10.7942 15.8004 10.7632 15.7539C10.7418 15.7218 10.7127 15.6939 10.6757 15.6705C10.6486 15.6534 10.6171 15.6388 10.5812 15.6268C10.4814 15.5935 10.3838 15.5399 10.2871 15.4702C10.2756 15.4619 10.2642 15.4534 10.2528 15.4447V15.3716C10.2637 15.3341 10.2753 15.2964 10.2871 15.2586L10.3091 15.1891L10.3132 15.1762L10.3336 15.1119L10.3461 15.0721C10.3638 15.0152 10.3804 14.9595 10.3945 14.9062C10.4547 14.8107 10.4908 14.7309 10.5068 14.6636C10.5271 14.5785 10.5155 14.5133 10.4805 14.4613C10.4508 14.417 10.4042 14.3823 10.3461 14.353C10.3145 14.3371 10.2794 14.3228 10.2418 14.3095L10.1891 14.171C10.1824 14.1323 10.1714 14.0921 10.1556 14.0505C10.1508 14.0379 10.1456 14.0252 10.1399 14.0123C10.2587 13.9047 10.3481 13.8116 10.4127 13.7306C10.4395 13.697 10.462 13.6654 10.4805 13.6358L10.52 13.5627C10.5292 13.5421 10.5361 13.5226 10.5409 13.5041C10.5487 13.4744 10.5511 13.4472 10.5488 13.4221C10.544 13.3712 10.5196 13.329 10.4805 13.2927C10.4519 13.266 10.4153 13.2425 10.3728 13.2209C10.3336 13.2011 10.2895 13.183 10.2418 13.1657L10.0295 13.0966L10.0026 13.0883C9.94276 13.0698 9.88161 13.0506 9.82114 13.0296C9.75384 13.0061 9.68738 12.9805 9.62452 12.9509C9.51119 12.8975 9.40956 12.8315 9.33589 12.7434C9.30048 12.701 9.27153 12.6535 9.25084 12.5999L9.23847 12.5526L9.21094 12.449C9.19656 12.4041 9.17929 12.3606 9.15927 12.3187L9.06434 12.1699C9.05361 12.1289 9.04222 12.0883 9.03022 12.0479C8.99942 11.9443 8.9645 11.8427 8.92565 11.7432C8.89535 11.6657 8.86267 11.5894 8.82768 11.5144C8.78601 11.4252 8.74105 11.3378 8.69301 11.2524C8.64984 11.1757 8.60418 11.1005 8.55611 11.0271L8.45342 10.8778C8.41455 10.824 8.37434 10.7711 8.33286 10.7192L8.16491 10.5225C8.0977 10.4486 8.02773 10.3771 7.95518 10.3081L7.82127 10.1861C7.79064 10.1593 7.7596 10.133 7.72817 10.1071L7.60366 10.0084C7.52669 9.94957 7.44757 9.8932 7.36644 9.83935C7.29003 9.78863 7.21185 9.74015 7.132 9.69396C7.08019 9.664 7.02767 9.635 6.9745 9.607C6.8858 9.56028 6.79525 9.51632 6.70301 9.47521C6.62417 9.44006 6.54409 9.407 6.46287 9.37607C6.35331 9.33436 6.24168 9.29653 6.12822 9.26274C6.02139 9.23093 5.91293 9.20268 5.80304 9.17813C5.70181 9.15552 5.59936 9.13603 5.49586 9.11977C5.39071 9.10325 5.28447 9.09007 5.1773 9.08031C5.09053 9.0724 5.00315 9.06674 4.91524 9.06338C4.80268 9.05908 4.68928 9.05855 4.5752 9.06189C4.47287 9.06488 4.36999 9.071 4.26671 9.08031C4.15938 9.08998 4.05161 9.10311 3.94354 9.11977C3.86083 9.13253 3.77794 9.14735 3.69495 9.16429C3.67312 9.16875 3.65138 9.17336 3.62972 9.17813C3.51971 9.20237 3.41199 9.23064 3.30661 9.26274C3.19616 9.29639 3.08828 9.33425 2.98304 9.37607C2.81419 9.44316 2.65212 9.52047 2.49709 9.607C2.33355 9.69828 2.17785 9.79982 2.03027 9.91047C1.86756 10.0325 1.71473 10.1655 1.57218 10.3081L1.29928 10.5781C1.176 10.6907 1.05766 10.8113 0.944947 10.9396C0.835002 11.0649 0.73533 11.1949 0.645594 11.3291C0.598681 11.3992 0.554472 11.4705 0.512946 11.5428L0.415253 11.7244C0.358935 11.8365 0.308674 11.9508 0.264295 12.0669C0.24754 12.1107 0.231624 12.1548 0.216539 12.1991L0.199084 12.2516C0.190216 12.279 0.181663 12.3064 0.173418 12.3339C0.167351 12.3542 0.161447 12.3745 0.155715 12.3948C0.146803 12.4264 0.138291 12.4582 0.130184 12.49C0.121958 12.5223 0.114149 12.5547 0.106745 12.5872C0.0988232 12.6219 0.0913737 12.6568 0.0843859 12.6917C0.0788194 12.7196 0.0735507 12.7475 0.0685725 12.7755L0.0642086 12.8004L0.0555484 12.853C0.0492864 12.8926 0.0436058 12.9323 0.0384977 12.9721L0.0333466 13.0139C0.0294495 13.0469 0.0259577 13.08 0.0228418 13.1131L0.0188828 13.1577L0.0150363 13.2073C0.00684842 13.3215 0.00321544 13.4363 0.00401411 13.5514C0.00511183 13.7096 0.0145856 13.8684 0.0320869 14.0271C0.0440826 14.1359 0.0598398 14.2446 0.0792798 14.353L0.0981974 14.5989C0.117739 14.7278 0.142923 14.8562 0.1738 14.9839C0.218719 15.1696 0.275702 15.3537 0.345004 15.5349C0.402179 15.6845 0.467721 15.8321 0.541783 15.9773C0.582 16.0561 0.624744 16.1342 0.67 16.2114C0.708513 16.2771 0.748851 16.3422 0.791042 16.4066C0.840539 16.4822 0.891908 16.5558 0.945037 16.6275L1.15185 16.8863C1.18929 16.9298 1.22742 16.9724 1.26623 17.0142C1.32911 17.082 1.39375 17.1474 1.46002 17.2106C1.51198 17.2602 1.56495 17.3083 1.61887 17.355L1.86867 17.5564C1.92396 17.5978 1.98006 17.6378 2.03695 17.6765C2.10457 17.7225 2.17327 17.7665 2.24298 17.8086C2.332 17.8623 2.42267 17.9129 2.51477 17.9602C2.6153 18.0118 2.71755 18.0596 2.82128 18.1035C2.92764 18.1484 3.03556 18.1893 3.14477 18.226L3.36856 18.295C3.42585 18.311 3.48345 18.3259 3.5413 18.3397C3.56312 18.362 3.58464 18.3847 3.60572 18.4078C3.63118 18.4356 3.65597 18.464 3.67979 18.4928C3.70161 18.5191 3.72261 18.5458 3.74257 18.5728C3.78104 18.6247 3.81564 18.6776 3.84472 18.7309C3.89639 18.8255 3.87462 18.9776 3.82801 19.145C3.81349 19.1971 3.79657 19.2507 3.7787 19.3046C3.74587 19.4035 3.70986 19.503 3.67979 19.5954L3.63303 19.7564C3.62927 19.7721 3.62596 19.7873 3.62315 19.802L3.61474 19.858L3.60118 19.9092L3.57587 19.9445L3.50969 20.0409L3.31766 20.3519C3.24538 20.4805 3.1793 20.6125 3.11971 20.7476C3.07282 20.8539 3.02993 20.9621 2.9912 21.0719C2.94364 21.2068 2.90235 21.3441 2.86757 21.4835C2.83213 21.6255 2.80344 21.7696 2.7818 21.9154C2.74716 22.1488 2.73057 22.3864 2.7331 22.6263C2.73435 22.7443 2.74021 22.8628 2.75085 22.9817C2.76143 23.1 2.77671 23.2185 2.79683 23.3372C2.80687 23.3964 2.81812 23.4556 2.83059 23.5149C2.83612 23.5412 2.8419 23.5675 2.84791 23.5937L2.86175 23.6524L2.87898 23.7162L2.88797 23.7991L2.89578 23.8703L2.90003 23.9088L2.91564 24.048L3.02305 24.9366L3.03272 25.0112L3.05571 25.1855L3.08772 25.4165L3.21275 26.2614L3.24451 26.4619C3.25527 26.5276 3.26621 26.5932 3.27733 26.6587L3.35437 27.091L3.39108 27.2905L3.40719 27.3739L3.42145 27.4466C3.43177 27.4988 3.44221 27.5507 3.45278 27.6024L3.46115 27.6778L3.50067 27.9823L3.50337 27.997L3.60064 28.0567C6.15939 29.6158 9.13894 30.5527 12.3291 30.6571C12.3217 30.6393 12.3134 30.6203 12.3041 30.6001L12.2958 30.5825C12.286 30.5617 12.2751 30.5397 12.2633 30.5165L12.249 30.4887L12.2243 30.398L12.1978 30.301L12.1922 30.2805L12.1866 30.26L12.1763 30.2066L12.1279 29.9564L12.1194 29.9127L12.1176 29.871L12.1149 29.8057L12.1114 29.725L12.108 29.6474L12.1025 29.5239L12.096 29.3796L12.0937 29.3272L12.0921 29.292L12.0872 29.1852L12.0809 29.0491L12.0747 28.9159L12.0696 28.8093L12.0278 28.3394L12.0254 28.3133L12.0241 28.2507L12.0101 27.5955L12.0067 27.5078L12.0045 27.4635L12 27.3717L11.9948 27.2649L11.9872 27.1109L11.9843 27.0538L11.9821 27.0095L11.9807 26.9798L11.9789 26.9443L11.9773 26.911L11.9752 26.8693L11.9732 26.829L11.9707 26.7776L11.9675 26.7138L11.9642 26.6472L11.9608 26.5791L11.9571 26.5026L11.9539 26.4389L11.951 26.3793L11.9424 26.2069L11.9411 26.1806L11.9362 26.0806L11.9337 26.0306L11.9293 25.9418L11.9252 25.8585L11.9226 25.8058L11.9175 25.703L11.9116 25.5813L11.9081 25.5114L11.9038 25.4238L11.9006 25.3572L11.8974 25.2921L11.8935 25.2129L11.8801 24.9366L11.8762 24.8549L11.8697 24.72L11.8652 24.6243L11.8612 24.5406L11.9112 23.8326L11.915 23.7788L11.9195 23.7493C11.9226 23.7282 11.9256 23.707 11.9285 23.6859C11.934 23.6448 11.9389 23.6036 11.9433 23.5624C11.9468 23.5298 11.9499 23.4972 11.9526 23.4644L12.0972 23.008L12.1243 22.9479C12.1362 22.9261 12.1481 22.9036 12.1602 22.8804L12.1802 22.8412L12.1989 22.804L12.2031 22.7956L12.2195 22.7622L12.235 22.7302L12.2401 22.7197L12.2936 22.609L12.3089 22.5772L12.3251 22.5435L12.357 22.4776C12.3736 22.4432 12.3907 22.4083 12.4083 22.3727L12.4195 22.3503L12.4419 22.3063L12.4529 22.2848L12.4537 22.2831L12.4649 22.2612L12.488 22.2159L12.5029 22.1874L12.5252 22.1454L12.5418 22.1146L12.5491 22.1011L12.5744 22.0553C12.5783 22.0484 12.5822 22.0415 12.5862 22.0346L12.5949 22.0195L12.6035 22.0041C12.6075 21.9969 12.6115 21.9896 12.6156 21.9825L12.642 21.9371L12.6546 21.9158L12.6808 21.8723L12.6933 21.8518L12.7143 21.818L12.7397 21.7776C12.7559 21.7522 12.7723 21.7269 12.7888 21.7018C12.812 21.6665 12.8354 21.6316 12.859 21.597L12.8783 21.569L12.9275 21.4982L13.0487 21.376L13.0585 21.3675L13.072 21.3557L13.08 21.3488L13.0826 21.3465L13.1198 21.3141L13.1372 21.2989L13.1804 21.2608L13.1913 21.2512L13.2564 21.1933L13.2808 21.1715L13.3144 21.1414L13.3912 21.0719L13.4129 21.0522L13.4564 21.0126L13.5086 20.9647L13.5819 20.8971L13.6455 20.8378L13.6903 20.796L13.9852 20.5166L14.0091 20.4937L14.0898 20.4157L14.1151 20.3913L14.1603 20.3473L14.1924 20.316L14.2098 20.2989L14.2228 20.2862L14.2928 20.2176L14.3209 20.1899L14.3837 20.1278L14.4126 20.0991L14.4831 20.0287L14.5234 19.9884L14.5512 19.9605L14.585 19.9265L14.6151 19.896L14.6753 19.8351L14.7008 19.8091L14.7365 19.7726L14.7592 19.7494L14.7752 19.733L14.8024 19.7051L14.84 19.6664L14.9085 19.5954L14.9374 19.5654L14.9711 19.5301L14.9831 19.5175L14.9931 19.507L15.0329 19.4653L15.0355 19.4625L15.0779 19.418L15.0961 19.3988L15.1318 19.361L15.1673 19.3232L15.1814 19.3081L15.2359 19.2497L15.2514 19.233L15.2879 19.1936L15.3215 19.1571L15.3491 19.1271L15.3995 19.0719L15.4305 19.0377L15.4408 19.0264L15.4616 19.0034L15.4951 18.9661L15.5593 18.8942L15.6017 18.8373C15.6136 18.829 15.6297 18.8168 15.6507 18.8003L15.6677 18.7868L15.6992 18.7615L15.7132 18.7501L15.7171 18.7469C15.7238 18.7413 15.7308 18.7348 15.7382 18.7276L15.8231 18.6296L15.84 18.6075L15.8922 18.5358L15.912 18.5075C15.9288 18.4831 15.9464 18.4572 15.9644 18.4299L15.9845 18.3995L16.01 18.3602L16.0292 18.3357L16.0648 18.2899L16.0737 18.2784L16.148 18.1791L16.1515 18.1744L16.1588 18.1644L16.1624 18.1595L16.1677 18.1524L16.1933 18.1166L16.276 17.9944L16.2817 17.9857L16.2888 17.9749C16.2985 17.9597 16.3077 17.9448 16.3164 17.9303L16.3783 17.8169L16.3909 17.7922C16.3977 17.7774 16.4038 17.7631 16.4091 17.7495L16.4136 17.7376L16.4173 17.7273C16.4213 17.7157 16.4246 17.7046 16.4273 17.6941L16.4414 17.6615L16.4652 17.6067L16.4889 17.552L16.5137 17.5078L16.5239 17.4896L16.5448 17.452L16.5785 17.3916L16.5921 17.3671L16.618 17.3203L16.6415 17.2777L16.7103 17.1524L16.7198 17.135L16.7549 17.0707L16.7724 17.0385L16.7887 17.0086L16.8124 16.9648L16.8611 16.8747L16.8847 16.8309L16.8997 16.8031L16.922 16.7616L16.9732 16.666L16.9842 16.6454L17.0386 16.5434L17.0606 16.502L17.1003 16.4272L17.1152 16.3991L17.1609 16.3126L17.1781 16.28L17.2142 16.2114L17.259 16.1261L17.2724 16.1005L17.3043 16.0397L17.3403 15.9709L17.4065 15.8439L17.4386 15.7822L17.4556 15.7496L17.5114 15.6419L17.5593 15.5494L17.5816 15.5062L17.5991 15.4723L17.6868 15.302L17.7226 15.2325L17.7655 15.1488L17.82 15.0424L17.853 14.9777L17.9019 14.882L17.9509 14.7857L17.9835 14.7216L18.0089 14.6717L18.0105 14.6684L18.0862 14.5193L18.0982 14.4956L18.1481 14.397L18.1915 14.311L18.222 14.2507L18.261 14.1733L18.3 14.0959L18.3133 14.0693L18.3473 14.0016L18.3691 13.9582L18.4276 13.8417L18.4661 13.7647L18.4836 13.7296L18.5181 13.6608L18.5525 13.5919L18.5589 13.5791L18.5846 13.5274L18.6018 13.493L18.661 13.374L18.6727 13.3505L18.7146 13.2662L18.7439 13.2073L18.7534 13.1879L18.763 13.1686L18.7914 13.135L18.8129 13.1096L18.8523 13.0632L18.8337 13.0817L18.8554 13.0595C18.8716 13.043 18.8875 13.0273 18.9031 13.0125L18.9239 12.9929L18.9443 12.9743C18.9639 12.9567 18.9829 12.9406 19.0011 12.9261L19.018 12.913L19.0368 12.8991C19.0472 12.8916 19.0573 12.8848 19.0672 12.8785L19.085 12.867L19.108 12.8518C19.1194 12.8442 19.1307 12.8364 19.1418 12.8284L19.2451 12.749L19.26 12.7364L19.2883 12.7117L19.3524 12.6508L19.3707 12.6328L19.395 12.6072L19.4572 12.5363C19.4681 12.5231 19.4788 12.5098 19.4892 12.4964C19.5002 12.4821 19.5109 12.4678 19.5214 12.4532C19.5312 12.4395 19.5408 12.4257 19.5502 12.4118L19.5977 12.3363C19.6069 12.3207 19.6157 12.305 19.6243 12.2892L19.6414 12.2556L19.6784 12.1784L19.6885 12.1547C19.6953 12.1383 19.7018 12.1217 19.7079 12.1052C19.7129 12.0919 19.7176 12.0786 19.7221 12.0653L19.7241 12.0588L19.7257 12.0537C19.7295 12.042 19.7333 12.0305 19.7368 12.0188L19.7455 11.9882L19.7654 11.9654L19.7713 11.9588L19.7838 11.9504C19.7921 11.9447 19.8004 11.9389 19.8087 11.9328C19.8201 11.9243 19.8313 11.9156 19.8421 11.9067L19.8611 11.8906C19.8711 11.8819 19.8807 11.873 19.8901 11.864L19.9355 11.8159C19.9426 11.8077 19.9494 11.7994 19.956 11.791L19.9834 11.7533L19.9853 11.7504L19.9875 11.7472L19.9887 11.7456L19.9932 11.7391C19.9988 11.7304 20.0041 11.7217 20.0092 11.7129L20.0196 11.694L20.0223 11.6889L20.0247 11.6841L20.0268 11.6801L20.0638 11.6551L20.1009 11.63L20.1214 11.6226L20.2877 11.5628L20.3352 11.5457L20.4741 11.4957L20.5674 11.4621L20.5974 11.4513L20.6515 11.4316C20.6681 11.4254 20.6861 11.4186 20.7052 11.4112C20.7217 11.4049 20.7389 11.398 20.7565 11.3908L20.7942 11.3751L20.8271 11.3607L20.854 11.3514L20.9403 11.3215L20.9896 11.3045L21.0007 11.3024L21.0472 11.2938L21.1009 11.2808C21.1132 11.2765 21.1251 11.2714 21.1365 11.2655C21.1422 11.2625 21.1478 11.2594 21.1533 11.256L21.2055 11.2138C21.2123 11.2068 21.2186 11.1994 21.2245 11.1917C21.231 11.1834 21.2369 11.1746 21.2424 11.1655C21.2484 11.1553 21.2539 11.1447 21.2585 11.1338C21.2666 11.115 21.2725 11.0951 21.2761 11.0747C21.2782 11.0627 21.2794 11.0505 21.2799 11.0381L21.2772 10.9909L21.2749 10.9773L21.2731 10.9693C21.2705 10.9579 21.2672 10.9469 21.2633 10.9363C21.2576 10.9209 21.2506 10.9062 21.2424 10.8925C21.2369 10.8834 21.231 10.8747 21.2245 10.8663L21.2055 10.8443C21.1956 10.834 21.1848 10.8245 21.1734 10.816C21.1618 10.8072 21.1494 10.7995 21.1365 10.7927C21.1209 10.7846 21.1046 10.778 21.0876 10.7731L21.0472 10.7647C21.0363 10.7633 21.0253 10.7626 21.0141 10.7626L20.8815 10.7834L20.8266 10.7927L20.7098 10.8144L20.6288 10.8293L20.5462 10.8446L20.4852 10.8559L20.3238 10.8858L20.2704 10.8957L20.1788 10.9126L20.1162 10.9242L20.0663 10.9335L20.0105 10.9307L19.9178 10.9179C19.8973 10.9144 19.8776 10.9125 19.8603 10.9126L19.823 10.8779L19.8008 10.8368L19.7867 10.7969L19.7729 10.7626V10.704L19.7659 10.68V10.6151L19.7729 10.6011L19.8106 10.554L19.8603 10.5226L19.9129 10.4853L19.946 10.4618L20.0034 10.4236L20.1331 10.337L20.1949 10.2958L20.2605 10.252L20.3551 10.1861C20.3696 10.1738 20.3829 10.1607 20.3951 10.1467L20.4725 10.0748L20.504 10.0456L20.5404 10.0212L20.6069 9.97659L20.6741 9.93155L20.9304 9.75968L21.0055 9.70932L21.082 9.65802L21.1391 9.61973L21.1786 9.59326C21.1856 9.58856 21.1924 9.58363 21.1989 9.57849L21.2365 9.54347C21.2408 9.53877 21.2449 9.53397 21.2489 9.52906C21.2527 9.52433 21.2563 9.51951 21.2599 9.51461L21.2801 9.48133L21.2885 9.46598C21.2918 9.45888 21.2949 9.45167 21.2978 9.44436L21.3155 9.37782C21.3165 9.37127 21.3172 9.3647 21.3178 9.3581C21.3186 9.34923 21.3191 9.34031 21.3191 9.33138V9.32792L21.3145 9.28087L21.3111 9.25878L21.3088 9.24935C21.3057 9.23792 21.3021 9.22659 21.2978 9.21541L21.2718 9.16337L21.2627 9.1495C21.2546 9.13778 21.2458 9.12677 21.2365 9.1165L21.2041 9.08557C21.1998 9.08196 21.1953 9.07848 21.1908 9.07514C21.1844 9.0704 21.1779 9.06593 21.1712 9.06172C21.1608 9.05519 21.1501 9.04929 21.1391 9.04405L21.082 9.02318L21.0751 9.02147L21.064 9.01905C21.0581 9.01786 21.052 9.01684 21.046 9.016C21.037 9.01474 21.028 9.01386 21.0189 9.01337L20.9762 9.01394C20.9627 9.01504 20.9491 9.01701 20.9357 9.01988L20.8916 9.03275C20.8779 9.03786 20.8644 9.04397 20.8512 9.05112L20.7798 9.09731L20.7077 9.14566L20.6596 9.17788L20.6037 9.21541L20.5652 9.24121L20.5141 9.27547L20.46 9.31177L20.4023 9.35043L20.3505 9.38512L20.2939 9.42314L20.2511 9.45184L20.1791 9.50006L20.1217 9.5174L20.1075 9.50574C20.1042 9.49874 20.1005 9.49198 20.0964 9.4855C20.0898 9.47515 20.0821 9.46552 20.0736 9.45677L20.0517 9.43769V9.42575L20.0946 9.38141L20.1365 9.34806L20.1821 9.31177L20.2336 9.27076L20.3032 9.21541L20.4336 9.11162L20.4901 9.06665L20.5846 8.99152L20.6253 8.95908L20.664 8.9283L20.7485 8.86109L20.8281 8.79774L20.8652 8.76817L20.903 8.73812L20.9468 8.70191L20.9562 8.69399C20.9633 8.68704 20.97 8.67976 20.9762 8.6722L20.9925 8.64813L21.0114 8.61606C21.0141 8.61021 21.0166 8.60428 21.0189 8.59828L21.0354 8.49543L21.0348 8.47571C21.0336 8.4643 21.0317 8.45295 21.029 8.44171L21.0189 8.40887C21.0115 8.38952 21.0018 8.37078 20.9897 8.35308L20.9492 8.30958L20.903 8.2728L20.8916 8.26658L20.8281 8.24399L20.7806 8.23741C20.7733 8.23711 20.766 8.23711 20.7587 8.23741L20.6906 8.24917C20.6725 8.25479 20.6549 8.26241 20.638 8.27205L20.5579 8.33179L20.5348 8.35011L20.4307 8.43297L20.3739 8.47818L20.3032 8.53445L20.2498 8.57694L20.1789 8.63336L20.1044 8.69263L20.0267 8.75447L19.9723 8.79774L19.9277 8.83326L19.8683 8.88048L19.8487 8.89609L19.802 8.93325L19.776 8.95391L19.7418 8.99152H19.7187L19.6778 8.96577L19.6618 8.95025V8.91455L19.6778 8.88974L19.7187 8.8417L19.7827 8.76652L19.8291 8.7121L19.8377 8.70191L19.8894 8.64093L19.9104 8.61606L19.9284 8.59461L19.9463 8.57317L19.9673 8.54799L19.9945 8.51515L20.0756 8.41458C20.0984 8.38566 20.1187 8.35892 20.1359 8.33513L20.158 8.30915L20.18 8.28316L20.2076 8.25333L20.2214 8.23842L20.2623 8.19713L20.3352 8.12296L20.3437 8.11148L20.3719 8.05959C20.3749 8.05223 20.3775 8.04477 20.3798 8.03722C20.3813 8.03227 20.3827 8.02728 20.3839 8.02226L20.3909 7.97696C20.3915 7.96867 20.3916 7.96036 20.3914 7.95206L20.3909 7.94109C20.3901 7.92844 20.3883 7.91585 20.3857 7.9034C20.3838 7.89466 20.3815 7.88599 20.3788 7.87743L20.3476 7.81238C20.3379 7.79779 20.3267 7.78393 20.3139 7.77105C20.3051 7.76221 20.2958 7.75412 20.2862 7.74678C20.2666 7.73191 20.2455 7.7201 20.2234 7.71135L20.2134 7.70761L20.1651 7.69561C20.1515 7.69356 20.1378 7.69256 20.1241 7.69261C20.1142 7.69265 20.1044 7.69323 20.0946 7.69435C20.0715 7.697 20.0487 7.70266 20.0268 7.71135C20.0204 7.71388 20.0141 7.71666 20.0079 7.7197L19.9723 7.74072C19.9633 7.74702 19.9547 7.75393 19.9463 7.76146L19.9395 7.7679L19.8937 7.81238L19.8487 7.85606L19.802 7.90141L19.6788 8.02105L19.6622 8.03722L19.6391 8.05959L19.5857 8.11148L19.5409 8.15499L19.4924 8.20207L19.4453 8.24778L19.4084 8.2836L19.3965 8.29514L19.3795 8.30958L19.3494 8.33513L19.3366 8.34428L19.3243 8.35308L19.3027 8.36843L19.2951 8.37376C19.2814 8.38344 19.2725 8.38924 19.2725 8.38924C19.2636 8.39162 19.2533 8.39675 19.2416 8.40426C19.2273 8.41342 19.2111 8.42612 19.1933 8.44171L19.1542 8.47818L19.1459 8.48632L19.1302 8.50215L19.0521 8.58662C19.0365 8.60417 19.0204 8.62231 19.0042 8.64093L18.9778 8.67162L18.9656 8.68605L18.9522 8.70191L18.9276 8.7313L18.9085 8.75447L18.9003 8.76434L18.8688 8.80302L18.8442 8.83326L18.8373 8.8417C18.8118 8.87325 18.7872 8.90408 18.7639 8.93325L18.7466 8.95494L18.7258 8.98114L18.6894 9.02677L18.6878 9.02876L18.6792 9.03955L18.6707 9.0502L18.6575 9.06665C18.6434 9.08424 18.631 9.09943 18.6208 9.11162C18.6139 9.11985 18.608 9.12672 18.6032 9.13205C18.594 9.14224 18.585 9.15269 18.5762 9.16337C18.5537 9.19061 18.5324 9.21938 18.5123 9.24935L18.4843 9.29473L18.4319 9.38512L18.4173 9.41375L18.4042 9.4409L18.3743 9.50574L18.3603 9.53834L18.3409 9.58748L18.2809 9.75286L18.2762 9.76708L18.2667 9.79578L18.2529 9.8398L18.2474 9.85758L18.2347 9.89968L18.2295 9.91731L18.2123 9.97659L18.2078 9.99205L18.1943 10.0393L18.1877 10.0625L18.1807 10.0867Z" fill="#090808"/>
<path fill-rule="evenodd" clip-rule="evenodd" d="M22.338 0.5L23.0341 1.1704L23.9814 0.70177L23.4642 1.58473L24.1602 2.25513L23.1445 2.13043L22.6273 3.01339L22.5168 2.05336L21.5011 1.92866L22.4485 1.46003L22.338 0.5Z" fill="#090808"/>
<path d="M17.3214 1.58684L18.6058 3.36836L20.9145 2.70473L19.3997 4.46939L20.6841 6.25091L18.4634 5.56002L16.9486 7.32469L17.091 5.13302L14.8703 4.44213L17.179 3.7785L17.3214 1.58684Z" fill="#090808"/>
<path fill-rule="evenodd" clip-rule="evenodd" d="M18.6058 3.36836L17.3214 1.58684L17.179 3.7785L14.8703 4.44213L17.091 5.13302L16.9486 7.32469L18.4634 5.56002L20.6841 6.25091L19.3997 4.46939L20.9145 2.70473L18.6058 3.36836ZM24.8886 3.89144L25.2006 5.5312L27.0039 5.8162L25.3935 6.54462L25.6774 8.03722L25.7055 8.18438L25.5437 8.03722L24.3981 6.99481L22.7877 7.72323L23.5902 6.25962L22.2829 5.07005L24.0861 5.35505L24.8886 3.89144ZM23.0341 1.1704L22.338 0.5L22.4485 1.46003L21.5011 1.92866L22.5168 2.05336L22.6273 3.01339L23.1445 2.13043L24.1602 2.25513L23.4642 1.58473L23.9814 0.70177L23.0341 1.1704ZM18.3912 9.46806C18.3996 9.4498 18.4083 9.43168 18.4173 9.41375L18.4319 9.38512C18.4398 9.36995 18.448 9.35494 18.4564 9.34011C18.474 9.30892 18.4926 9.27856 18.5123 9.24935C18.5324 9.21938 18.5537 9.19061 18.5762 9.16337C18.585 9.15269 18.594 9.14224 18.6032 9.13205C18.608 9.12672 18.6139 9.11985 18.6208 9.11162C18.631 9.09943 18.6434 9.08424 18.6575 9.06665L18.6707 9.0502L18.6792 9.03955L18.6878 9.02876L18.6894 9.02677L18.7258 8.98114L18.7466 8.95494L18.7639 8.93325C18.7872 8.90408 18.8118 8.87325 18.8373 8.8417L18.8442 8.83326L18.8688 8.80302L18.9003 8.76434L18.9085 8.75447L18.9276 8.7313L18.9522 8.70191L18.9656 8.68605L18.9778 8.67162L19.0042 8.64093C19.0204 8.62231 19.0365 8.60417 19.0521 8.58662L19.067 8.56956C19.0889 8.54541 19.1101 8.52274 19.1302 8.50215L19.1459 8.48632L19.1542 8.47818C19.1679 8.46477 19.181 8.45254 19.1933 8.44171C19.2111 8.42612 19.2273 8.41342 19.2416 8.40426C19.2533 8.39675 19.2636 8.39162 19.2725 8.38924C19.2725 8.38924 19.2814 8.38344 19.2951 8.37376L19.3027 8.36843L19.3243 8.35308L19.3366 8.34428L19.3494 8.33513L19.3795 8.30958L19.4084 8.2836L19.4453 8.24778L19.4924 8.20207L19.5409 8.15499L19.5857 8.11148L19.6391 8.05959L19.6622 8.03722L19.6788 8.02105L19.802 7.90141L19.8487 7.85606L19.8937 7.81238L19.9395 7.7679L19.9463 7.76146C19.9547 7.75393 19.9633 7.74702 19.9723 7.74072C19.9837 7.73272 19.9956 7.72571 20.0079 7.7197C20.0141 7.71666 20.0204 7.71388 20.0268 7.71135C20.0487 7.70266 20.0715 7.697 20.0946 7.69435C20.1044 7.69323 20.1142 7.69265 20.1241 7.69261C20.1378 7.69256 20.1515 7.69356 20.1651 7.69561C20.1815 7.69809 20.1976 7.70209 20.2134 7.70761L20.2234 7.71135C20.2455 7.7201 20.2666 7.73191 20.2862 7.74678C20.2958 7.75412 20.3051 7.76221 20.3139 7.77105C20.3267 7.78393 20.3379 7.79779 20.3476 7.81238C20.3611 7.83284 20.3715 7.85475 20.3788 7.87743C20.3815 7.88599 20.3838 7.89466 20.3857 7.9034C20.3883 7.91585 20.3901 7.92844 20.3909 7.94109L20.3914 7.95206C20.3916 7.96036 20.3915 7.96867 20.3909 7.97696C20.3903 7.98693 20.389 7.99687 20.3872 8.00673C20.3863 8.01193 20.3852 8.01711 20.3839 8.02226C20.3827 8.02728 20.3813 8.03227 20.3798 8.03722C20.3775 8.04477 20.3749 8.05223 20.3719 8.05959C20.3686 8.06759 20.365 8.07546 20.3609 8.08317C20.3558 8.09288 20.3501 8.10234 20.3437 8.11148L20.3352 8.12296L20.2623 8.19713L20.2214 8.23842L20.2076 8.25333L20.158 8.30915L20.1359 8.33513C20.1187 8.35892 20.0984 8.38566 20.0756 8.41458C20.051 8.44588 20.0236 8.47973 19.9945 8.51515L19.9673 8.54799L19.9463 8.57317L19.9284 8.59461L19.9104 8.61606L19.8894 8.64093L19.8377 8.70191L19.8291 8.7121L19.7827 8.76652L19.7187 8.8417L19.6778 8.88974L19.6618 8.91455V8.95025L19.6778 8.96577L19.7187 8.99152H19.7418L19.776 8.95391L19.802 8.93325L19.8487 8.89609L19.8683 8.88048L19.9277 8.83326L19.9723 8.79774L20.0267 8.75447L20.1044 8.69263L20.1789 8.63336L20.2498 8.57694L20.3032 8.53445L20.3739 8.47818L20.4307 8.43297L20.5348 8.35011L20.5579 8.33179L20.5809 8.31347L20.6039 8.29514C20.6148 8.28646 20.6262 8.27876 20.638 8.27205C20.6549 8.26241 20.6725 8.25479 20.6906 8.24917L20.7587 8.23741C20.766 8.23711 20.7733 8.23711 20.7806 8.23741C20.7957 8.23803 20.8107 8.23992 20.8255 8.24308L20.8281 8.24399L20.8916 8.26658L20.903 8.2728C20.9143 8.27934 20.9253 8.28677 20.9357 8.29508L20.9492 8.30958L20.9897 8.35308C21.0018 8.37078 21.0115 8.38952 21.0189 8.40887C21.022 8.41711 21.0247 8.42545 21.027 8.43388L21.029 8.44171C21.0317 8.45295 21.0336 8.4643 21.0348 8.47571C21.0362 8.48883 21.0366 8.50202 21.036 8.51515C21.0351 8.53474 21.0321 8.55421 21.027 8.57317C21.0247 8.58166 21.022 8.59004 21.0189 8.59828C21.0166 8.60428 21.0141 8.61021 21.0114 8.61606C21.0088 8.62161 21.0061 8.6271 21.0031 8.63249C20.9977 8.64225 20.9917 8.65172 20.985 8.66084L20.9762 8.6722C20.97 8.67976 20.9633 8.68704 20.9562 8.69399C20.9498 8.7003 20.9429 8.70635 20.9357 8.7121L20.9202 8.72442L20.903 8.73812L20.8652 8.76817L20.8281 8.79774L20.7485 8.86109L20.664 8.9283L20.6253 8.95908L20.5846 8.99152L20.4901 9.06665L20.4336 9.11162L20.3032 9.21541L20.2336 9.27076L20.1821 9.31177L20.1365 9.34806L20.0946 9.38141L20.0517 9.42575V9.43769C20.0595 9.44345 20.0669 9.44984 20.0736 9.45677C20.0821 9.46552 20.0898 9.47515 20.0964 9.4855C20.1005 9.49198 20.1042 9.49874 20.1075 9.50574L20.1217 9.5174L20.1791 9.50006L20.2511 9.45184L20.2939 9.42314L20.3505 9.38512L20.4023 9.35043L20.46 9.31177L20.5141 9.27547L20.5652 9.24121L20.6037 9.21541L20.6596 9.17788L20.7077 9.14566L20.7798 9.09731L20.8255 9.06665C20.8339 9.06102 20.8425 9.05584 20.8512 9.05112C20.8644 9.04397 20.8779 9.03786 20.8916 9.03275C20.9061 9.02734 20.9208 9.02306 20.9357 9.01988C20.9491 9.01701 20.9627 9.01504 20.9762 9.01394C20.9904 9.01279 21.0047 9.0126 21.0189 9.01337C21.028 9.01386 21.037 9.01474 21.046 9.016C21.052 9.01684 21.0581 9.01786 21.064 9.01905L21.0751 9.02147L21.082 9.02318L21.098 9.02778C21.1079 9.03094 21.1178 9.03458 21.1274 9.03871L21.1391 9.04405C21.1501 9.04929 21.1608 9.05519 21.1712 9.06172C21.1779 9.06593 21.1844 9.0704 21.1908 9.07514C21.1953 9.07848 21.1998 9.08196 21.2041 9.08557C21.2087 9.08934 21.2132 9.09325 21.2175 9.09731C21.2241 9.10339 21.2304 9.10979 21.2365 9.1165C21.2458 9.12677 21.2546 9.13778 21.2627 9.1495L21.2718 9.16337C21.2822 9.18016 21.2908 9.19758 21.2978 9.21541C21.3021 9.22659 21.3057 9.23792 21.3088 9.24935L21.3111 9.25878C21.3145 9.2734 21.3167 9.28816 21.318 9.30295C21.3187 9.31127 21.3191 9.3196 21.3191 9.32792V9.33138C21.3191 9.34031 21.3186 9.34923 21.3178 9.3581C21.3172 9.3647 21.3165 9.37127 21.3155 9.37782C21.3144 9.38461 21.3132 9.39137 21.3117 9.39809C21.3094 9.40823 21.3067 9.41827 21.3035 9.42817C21.3017 9.43361 21.2998 9.43901 21.2978 9.44436C21.2949 9.45167 21.2918 9.45888 21.2885 9.46598C21.2835 9.47648 21.2779 9.48673 21.2718 9.49668C21.268 9.50277 21.264 9.50875 21.2599 9.51461C21.2563 9.51951 21.2527 9.52433 21.2489 9.52906C21.2449 9.53397 21.2408 9.53877 21.2365 9.54347C21.2305 9.55007 21.2242 9.55644 21.2175 9.56258C21.2116 9.56808 21.2053 9.57339 21.1989 9.57849C21.1924 9.58363 21.1856 9.58856 21.1786 9.59326L21.1391 9.61973L21.082 9.65802L21.0055 9.70932L20.9304 9.75968L20.6741 9.93155L20.6069 9.97659L20.5404 10.0212L20.4725 10.0748L20.3951 10.1467C20.3829 10.1607 20.3696 10.1738 20.3551 10.1861C20.3445 10.195 20.3333 10.2035 20.3214 10.2114L20.2605 10.252L20.1949 10.2958L20.1331 10.337L20.0034 10.4236L19.9129 10.4853L19.8603 10.5226L19.8106 10.554L19.7729 10.6011L19.7659 10.6151V10.68L19.7729 10.704V10.7626L19.7867 10.7969L19.8008 10.8368L19.823 10.8779L19.8603 10.9126C19.8776 10.9125 19.8973 10.9144 19.9178 10.9179L20.0105 10.9307L20.0663 10.9335L20.1162 10.9242L20.1788 10.9126L20.2704 10.8957L20.3238 10.8858L20.4852 10.8559L20.5462 10.8446L20.6288 10.8293L20.7098 10.8144L20.8266 10.7927L20.854 10.7877L20.8815 10.7834L21.0141 10.7626C21.0253 10.7626 21.0363 10.7633 21.0472 10.7647C21.0609 10.7665 21.0744 10.7693 21.0876 10.7731C21.1046 10.778 21.1209 10.7846 21.1365 10.7927C21.1494 10.7995 21.1618 10.8072 21.1734 10.816C21.1848 10.8245 21.1956 10.834 21.2055 10.8443C21.2122 10.8513 21.2186 10.8586 21.2245 10.8663C21.231 10.8747 21.2369 10.8834 21.2424 10.8925C21.2506 10.9062 21.2576 10.9209 21.2633 10.9363C21.2672 10.9469 21.2705 10.9579 21.2731 10.9693L21.2749 10.9773L21.2772 10.9909C21.2787 11.0008 21.2795 11.0108 21.2799 11.0207C21.28 11.0265 21.28 11.0323 21.2799 11.0381C21.2794 11.0505 21.2782 11.0627 21.2761 11.0747C21.2725 11.0951 21.2666 11.115 21.2585 11.1338C21.2539 11.1447 21.2484 11.1553 21.2424 11.1655C21.2369 11.1746 21.231 11.1834 21.2245 11.1917C21.2186 11.1994 21.2123 11.2068 21.2055 11.2138C21.1991 11.2205 21.1923 11.2269 21.1851 11.233C21.1768 11.2399 21.1681 11.2464 21.159 11.2524L21.1533 11.256C21.1478 11.2594 21.1422 11.2625 21.1365 11.2655C21.1251 11.2714 21.1132 11.2765 21.1009 11.2808C21.0884 11.2851 21.0754 11.2886 21.062 11.2911L21.0472 11.2938L21.0007 11.3024L20.9403 11.3215L20.854 11.3514L20.7942 11.3751L20.7565 11.3908C20.7389 11.398 20.7217 11.4049 20.7052 11.4112C20.6861 11.4186 20.6681 11.4254 20.6515 11.4316L20.5974 11.4513L20.5674 11.4621L20.4741 11.4957L20.3352 11.5457L20.2877 11.5628L20.1214 11.6226L20.0638 11.6551L20.0268 11.6801L20.0247 11.6841L20.0223 11.6889L20.0196 11.694L20.0092 11.7129C20.0041 11.7217 19.9988 11.7304 19.9932 11.7391L19.9887 11.7456L19.9875 11.7472L19.9853 11.7504L19.9834 11.7533C19.9782 11.761 19.973 11.7687 19.9674 11.7763L19.956 11.791C19.9494 11.7994 19.9426 11.8077 19.9355 11.8159C19.9213 11.8323 19.9062 11.8484 19.8901 11.864C19.8807 11.873 19.8711 11.8819 19.8611 11.8906L19.8421 11.9067C19.8313 11.9156 19.8201 11.9243 19.8087 11.9328L19.7654 11.9654L19.7455 11.9882L19.7368 12.0188C19.7333 12.0305 19.7295 12.042 19.7257 12.0537L19.7241 12.0588L19.7221 12.0653C19.7176 12.0786 19.7129 12.0919 19.7079 12.1052C19.7018 12.1217 19.6953 12.1383 19.6885 12.1547L19.6784 12.1784C19.672 12.193 19.6654 12.2075 19.6585 12.222C19.6477 12.2446 19.6363 12.267 19.6243 12.2892C19.6157 12.305 19.6069 12.3207 19.5977 12.3363C19.5827 12.3618 19.5668 12.387 19.5502 12.4118C19.5408 12.4257 19.5312 12.4395 19.5214 12.4532C19.5109 12.4678 19.5002 12.4821 19.4892 12.4964C19.4788 12.5098 19.4681 12.5231 19.4572 12.5363C19.4439 12.5524 19.4302 12.5683 19.4162 12.584L19.395 12.6072L19.3707 12.6328C19.3536 12.6503 19.3361 12.6675 19.3181 12.6844C19.3083 12.6936 19.2984 12.7027 19.2883 12.7117L19.26 12.7364L19.2451 12.749L19.2147 12.7737C19.1996 12.7857 19.1842 12.7975 19.1686 12.8091L19.1418 12.8284C19.1307 12.8364 19.1194 12.8442 19.108 12.8518L19.085 12.867L19.018 12.913L19.0011 12.9261L18.9841 12.9405L18.9239 12.9929L18.9031 13.0125L18.8858 13.0298L18.8129 13.1096L18.7914 13.135L18.7534 13.1879L18.7439 13.2073L18.7146 13.2662L18.6727 13.3505L18.661 13.374L18.6018 13.493L18.5846 13.5274L18.5589 13.5791L18.5525 13.5919L18.5181 13.6608L18.4836 13.7296L18.4661 13.7647L18.4276 13.8417L18.3691 13.9582L18.3473 14.0016L18.3133 14.0693L18.3 14.0959L18.261 14.1733L18.222 14.2507L18.1915 14.311L18.1481 14.397L18.0982 14.4956L18.0862 14.5193L18.0105 14.6684L18.0089 14.6717L17.9835 14.7216L17.9509 14.7857L17.9019 14.882L17.853 14.9777L17.82 15.0424L17.7655 15.1488L17.7226 15.2325L17.6694 15.3399L17.5816 15.5062L17.5593 15.5494L17.5114 15.6419L17.4556 15.7496L17.4386 15.7822L17.4065 15.8439L17.3403 15.9709L17.3043 16.0397L17.2724 16.1005L17.259 16.1261L17.2142 16.2114L17.1781 16.28L17.1609 16.3126L17.1152 16.3991L17.1003 16.4272L17.0606 16.502L17.0386 16.5434L16.9842 16.6454L16.9732 16.666L16.922 16.7616L16.8997 16.8031L16.8847 16.8309L16.8611 16.8747L16.8124 16.9648L16.7887 17.0086L16.7724 17.0385L16.7549 17.0707L16.7198 17.135L16.7103 17.1524L16.6415 17.2777L16.618 17.3203L16.5921 17.3671L16.5785 17.3916L16.5448 17.452L16.5239 17.4896L16.5137 17.5078L16.4652 17.6067L16.4414 17.6615L16.4173 17.7273L16.4136 17.7376L16.4091 17.7495C16.4038 17.7631 16.3977 17.7774 16.3909 17.7922C16.3793 17.8174 16.3656 17.8442 16.3499 17.8726C16.3396 17.8912 16.3284 17.9104 16.3164 17.9303C16.3077 17.9448 16.2985 17.9597 16.2888 17.9749L16.2817 17.9857L16.276 17.9944L16.236 18.0551C16.2224 18.0751 16.2081 18.0956 16.1933 18.1166L16.1677 18.1524L16.1624 18.1595L16.1588 18.1644L16.1515 18.1744L16.148 18.1791L16.1134 18.226L16.0737 18.2784L16.0648 18.2899L16.0292 18.3357L15.9845 18.3995L15.9644 18.4299C15.9464 18.4572 15.9288 18.4831 15.912 18.5075L15.8922 18.5358L15.8657 18.5728L15.84 18.6075L15.8231 18.6296C15.8043 18.6538 15.7867 18.6751 15.7703 18.6936C15.759 18.7064 15.7483 18.7177 15.7382 18.7276C15.7308 18.7348 15.7238 18.7413 15.7171 18.7469L15.7132 18.7501L15.6992 18.7615L15.6677 18.7868L15.6507 18.8003C15.6297 18.8168 15.6136 18.829 15.6017 18.8373L15.5593 18.8942L15.4951 18.9661L15.4616 19.0034L15.4408 19.0264L15.4305 19.0377L15.3995 19.0719L15.3491 19.1271L15.3215 19.1571L15.2879 19.1936L15.2514 19.233L15.2359 19.2497L15.1814 19.3081L15.1673 19.3232L15.1318 19.361L15.0961 19.3988L15.0779 19.418L15.0355 19.4625L15.0329 19.4653L14.9931 19.507L14.9831 19.5175L14.9711 19.5301L14.9374 19.5654L14.9085 19.5954L14.84 19.6664L14.8024 19.7051L14.7752 19.733L14.7592 19.7494L14.7365 19.7726L14.7008 19.8091L14.6753 19.8351L14.6151 19.896L14.585 19.9265L14.5512 19.9605L14.5234 19.9884L14.4831 20.0287L14.4126 20.0991L14.3837 20.1278L14.3209 20.1899L14.2928 20.2176L14.2228 20.2862L14.2098 20.2989L14.1924 20.316L14.1603 20.3473L14.1151 20.3913L14.0898 20.4157L14.0091 20.4937L13.9852 20.5166L13.8971 20.6009L13.8229 20.6714L13.7351 20.7542L13.6903 20.796L13.6455 20.8378L13.5819 20.8971L13.5086 20.9647L13.4564 21.0126L13.4129 21.0522L13.3912 21.0719L13.3144 21.1414L13.2808 21.1715L13.2564 21.1933L13.1913 21.2512L13.1804 21.2608L13.1372 21.2989L13.1198 21.3141L13.0826 21.3465L13.08 21.3488L13.072 21.3557L13.0585 21.3675L13.0487 21.376L12.9275 21.4982L12.8783 21.569L12.859 21.597C12.8354 21.6316 12.812 21.6665 12.7888 21.7018C12.7723 21.7269 12.7559 21.7522 12.7397 21.7776L12.7143 21.818L12.6933 21.8518L12.6808 21.8723L12.6546 21.9158L12.642 21.9371L12.6156 21.9825L12.6035 22.0041L12.5949 22.0195L12.5862 22.0346L12.5744 22.0553L12.5491 22.1011L12.5418 22.1146L12.5252 22.1454L12.5029 22.1874L12.488 22.2159L12.4649 22.2612L12.4537 22.2831L12.4529 22.2848L12.4419 22.3063L12.4195 22.3503L12.4083 22.3727C12.3907 22.4083 12.3736 22.4432 12.357 22.4776L12.3251 22.5435L12.3089 22.5772L12.2936 22.609L12.2401 22.7197L12.235 22.7302L12.2195 22.7622L12.2031 22.7956L12.1989 22.804L12.1802 22.8412L12.1602 22.8804C12.1481 22.9036 12.1362 22.9261 12.1243 22.9479L12.0972 23.008L11.9526 23.4644C11.9499 23.4972 11.9468 23.5298 11.9433 23.5624C11.9389 23.6036 11.934 23.6448 11.9285 23.6859C11.9256 23.707 11.9226 23.7282 11.9195 23.7493L11.9112 23.8326L11.8612 24.5406L11.8652 24.6243L11.8697 24.72L11.8762 24.8549L11.8801 24.9366L11.8935 25.2129L11.8974 25.2921L11.9006 25.3572L11.9038 25.4238L11.9081 25.5114L11.9116 25.5813L11.9175 25.703L11.9226 25.8058L11.9252 25.8585L11.9293 25.9418L11.9337 26.0306L11.9362 26.0806L11.9411 26.1806L11.9424 26.2069L11.951 26.3793L11.9539 26.4389L11.9571 26.5026L11.9608 26.5791L11.9642 26.6472L11.9675 26.7138L11.9707 26.7776L11.9732 26.829L11.9752 26.8693L11.9773 26.911L11.9789 26.9443L11.9807 26.9798L11.9821 27.0095L11.9843 27.0538L11.9872 27.1109L11.9948 27.2649L12 27.3717L12.0045 27.4635L12.0067 27.5078L12.0094 27.563L12.0101 27.5955L12.0241 28.2507L12.0278 28.3394L12.0696 28.8093L12.0747 28.9159L12.0809 29.0491L12.0872 29.1852L12.0921 29.292L12.0937 29.3272L12.096 29.3796L12.1025 29.5239L12.108 29.6474L12.1114 29.725L12.1149 29.8057L12.1176 29.871L12.1279 29.9564L12.1763 30.2066L12.1922 30.2805L12.1978 30.301L12.2243 30.398L12.249 30.4887L12.2633 30.5165C12.2751 30.5397 12.286 30.5617 12.2958 30.5825L12.3041 30.6001C12.3134 30.6203 12.3217 30.6393 12.3291 30.6571C9.13894 30.5527 6.15939 29.6158 3.60064 28.0567L3.50337 27.997L3.50067 27.9823L3.48621 27.9039L3.46949 27.7532L3.42145 27.4466L3.40719 27.3739L3.39108 27.2905C3.36585 27.1587 3.34138 27.0255 3.31766 26.8915C3.30396 26.8141 3.29052 26.7365 3.27733 26.6587C3.26621 26.5932 3.25527 26.5276 3.24451 26.4619C3.2226 26.3282 3.20143 26.1943 3.18098 26.0608C3.15978 25.9224 3.13935 25.7844 3.11971 25.6475C3.09737 25.4918 3.07604 25.3374 3.05571 25.1855L3.03272 25.0112L3.02305 24.9366C3.01141 24.8463 3.00013 24.757 2.98922 24.669C2.96957 24.5104 2.95112 24.356 2.93384 24.2069L2.91564 24.048L2.90003 23.9088L2.89578 23.8703L2.88797 23.7991L2.87898 23.7162L2.86175 23.6524L2.84791 23.5937C2.8419 23.5675 2.83612 23.5412 2.83059 23.5149C2.81812 23.4556 2.80687 23.3964 2.79683 23.3372C2.77671 23.2185 2.76143 23.1 2.75085 22.9817C2.74021 22.8628 2.73435 22.7443 2.7331 22.6263C2.73057 22.3864 2.74716 22.1488 2.7818 21.9154C2.80344 21.7696 2.83213 21.6255 2.86757 21.4835C2.90235 21.3441 2.94364 21.2068 2.9912 21.0719C3.02993 20.9621 3.07282 20.8539 3.11971 20.7476C3.1793 20.6125 3.24538 20.4805 3.31766 20.3519L3.50969 20.0409L3.51424 20.0335C3.53442 20.0036 3.55497 19.9739 3.57587 19.9445L3.60118 19.9092L3.61474 19.858C3.61653 19.8403 3.6194 19.8216 3.62315 19.802C3.62596 19.7873 3.62927 19.7721 3.63303 19.7564C3.64493 19.7067 3.66123 19.6525 3.67979 19.5954C3.70986 19.503 3.74587 19.4035 3.7787 19.3046C3.79657 19.2507 3.81349 19.1971 3.82801 19.145C3.87462 18.9776 3.89639 18.8255 3.84472 18.7309C3.81564 18.6776 3.78104 18.6247 3.74257 18.5728L3.67979 18.4928C3.65597 18.464 3.63118 18.4356 3.60572 18.4078L3.5413 18.3397C3.48345 18.3259 3.42585 18.311 3.36856 18.295C3.29342 18.2739 3.2188 18.2509 3.14477 18.226C3.03556 18.1893 2.92764 18.1484 2.82128 18.1035C2.71755 18.0596 2.6153 18.0118 2.51477 17.9602C2.42267 17.9129 2.332 17.8623 2.24298 17.8086C2.17327 17.7665 2.10457 17.7225 2.03695 17.6765C1.98006 17.6378 1.92396 17.5978 1.86867 17.5564L1.61887 17.355C1.56495 17.3083 1.51198 17.2602 1.46002 17.2106C1.39375 17.1474 1.32911 17.082 1.26623 17.0142C1.22742 16.9724 1.18929 16.9298 1.15185 16.8863L0.945037 16.6275C0.891908 16.5558 0.840539 16.4822 0.791042 16.4066C0.748851 16.3422 0.708513 16.2771 0.67 16.2114C0.624744 16.1342 0.582 16.0561 0.541783 15.9773C0.467721 15.8321 0.402179 15.6845 0.345004 15.5349C0.275702 15.3537 0.218719 15.1696 0.1738 14.9839C0.142923 14.8562 0.117739 14.7278 0.0981974 14.5989L0.0792798 14.353C0.0598398 14.2446 0.0440826 14.1359 0.0320869 14.0271C0.0145856 13.8684 0.00511183 13.7096 0.00401411 13.5514C0.00321544 13.4363 0.00684842 13.3215 0.0150363 13.2073L0.0188828 13.1577L0.0228418 13.1131C0.0259577 13.08 0.0294495 13.0469 0.0333466 13.0139L0.0384977 12.9721L0.0461233 12.9101L0.0555484 12.853L0.0642086 12.8004L0.0685725 12.7755C0.0735507 12.7475 0.0788194 12.7196 0.0843859 12.6917C0.0913737 12.6568 0.0988232 12.6219 0.106745 12.5872C0.114149 12.5547 0.121958 12.5223 0.130184 12.49C0.138291 12.4582 0.146803 12.4264 0.155715 12.3948C0.161447 12.3745 0.167351 12.3542 0.173418 12.3339C0.181663 12.3064 0.190216 12.279 0.199084 12.2516L0.216539 12.1991C0.231624 12.1548 0.24754 12.1107 0.264295 12.0669C0.308674 11.9508 0.358935 11.8365 0.415253 11.7244C0.446005 11.6632 0.478559 11.6026 0.512946 11.5428C0.554472 11.4705 0.598681 11.3992 0.645594 11.3291C0.73533 11.1949 0.835002 11.0649 0.944947 10.9396C1.05766 10.8113 1.176 10.6907 1.29928 10.5781L1.57218 10.3081C1.71473 10.1655 1.86756 10.0325 2.03027 9.91047C2.17785 9.79982 2.33355 9.69828 2.49709 9.607C2.65212 9.52047 2.81419 9.44316 2.98304 9.37607C3.08828 9.33425 3.19616 9.29639 3.30661 9.26274C3.41199 9.23064 3.51971 9.20237 3.62972 9.17813C3.65138 9.17336 3.67312 9.16875 3.69495 9.16429C3.77794 9.14735 3.86083 9.13253 3.94354 9.11977C4.05161 9.10311 4.15938 9.08998 4.26671 9.08031C4.36999 9.071 4.47287 9.06488 4.5752 9.06189C4.68928 9.05855 4.80268 9.05908 4.91524 9.06338C5.00315 9.06674 5.09053 9.0724 5.1773 9.08031C5.28447 9.09007 5.39071 9.10325 5.49586 9.11977C5.59936 9.13603 5.70181 9.15552 5.80304 9.17813C5.91293 9.20268 6.02139 9.23093 6.12822 9.26274C6.24168 9.29653 6.35331 9.33436 6.46287 9.37607C6.54409 9.407 6.62417 9.44006 6.70301 9.47521C6.79525 9.51632 6.8858 9.56028 6.9745 9.607C7.02767 9.635 7.08019 9.664 7.132 9.69396C7.21185 9.74015 7.29003 9.78863 7.36644 9.83935C7.44757 9.8932 7.52669 9.94957 7.60366 10.0084C7.64581 10.0406 7.68733 10.0735 7.72817 10.1071C7.7596 10.133 7.79064 10.1593 7.82127 10.1861C7.86682 10.2258 7.91147 10.2665 7.95518 10.3081C8.02773 10.3771 8.0977 10.4486 8.16491 10.5225C8.22299 10.5863 8.279 10.6519 8.33286 10.7192C8.37434 10.7711 8.41455 10.824 8.45342 10.8778C8.48876 10.9268 8.52301 10.9765 8.55611 11.0271C8.60418 11.1005 8.64984 11.1757 8.69301 11.2524C8.74105 11.3378 8.78601 11.4252 8.82768 11.5144C8.86267 11.5894 8.89535 11.6657 8.92565 11.7432C8.9645 11.8427 8.99942 11.9443 9.03022 12.0479C9.04222 12.0883 9.05361 12.1289 9.06434 12.1699L9.15927 12.3187C9.17929 12.3606 9.19656 12.4041 9.21094 12.449C9.22177 12.4828 9.23097 12.5174 9.23847 12.5526L9.25084 12.5999C9.27153 12.6535 9.30048 12.701 9.33589 12.7434C9.40956 12.8315 9.51119 12.8975 9.62452 12.9509C9.68738 12.9805 9.75384 13.0061 9.82114 13.0296L10.0026 13.0883L10.0295 13.0966C10.1042 13.1197 10.1763 13.1419 10.2418 13.1657C10.2895 13.183 10.3336 13.2011 10.3728 13.2209C10.4153 13.2425 10.4519 13.266 10.4805 13.2927C10.5196 13.329 10.544 13.3712 10.5488 13.4221C10.5511 13.4472 10.5487 13.4744 10.5409 13.5041C10.5361 13.5226 10.5292 13.5421 10.52 13.5627C10.5097 13.5857 10.4966 13.61 10.4805 13.6358C10.462 13.6654 10.4395 13.697 10.4127 13.7306C10.3481 13.8116 10.2587 13.9047 10.1399 14.0123C10.1456 14.0252 10.1508 14.0379 10.1556 14.0505C10.1714 14.0921 10.1824 14.1323 10.1891 14.171L10.2418 14.3095C10.2794 14.3228 10.3145 14.3371 10.3461 14.353C10.4042 14.3823 10.4508 14.417 10.4805 14.4613C10.5155 14.5133 10.5271 14.5785 10.5068 14.6636C10.4908 14.7309 10.4547 14.8107 10.3945 14.9062C10.3804 14.9595 10.3638 15.0152 10.3461 15.0721L10.3336 15.1119L10.3132 15.1762L10.3091 15.1891L10.2871 15.2586C10.2753 15.2964 10.2637 15.3341 10.2528 15.3716V15.4447C10.2642 15.4534 10.2756 15.4619 10.2871 15.4702C10.3838 15.5399 10.4814 15.5935 10.5812 15.6268C10.6171 15.6388 10.6486 15.6534 10.6757 15.6705C10.7127 15.6939 10.7418 15.7218 10.7632 15.7539C10.7942 15.8004 10.8092 15.8555 10.8097 15.9177C10.8101 15.9666 10.8015 16.02 10.7845 16.077C10.7702 16.125 10.75 16.1756 10.7242 16.2285C10.7005 16.2771 10.6721 16.3275 10.6394 16.3795V16.5839L10.6626 16.7585L10.6979 16.9133L10.7683 17.0681C10.7925 17.0993 10.8145 17.1358 10.8288 17.1766C10.8384 17.2041 10.8444 17.2335 10.8451 17.2646C10.8461 17.3045 10.8382 17.3471 10.8178 17.3918C10.8049 17.42 10.787 17.449 10.7632 17.4787C10.7325 17.517 10.6919 17.5564 10.6394 17.5965C10.6049 17.6229 10.5653 17.6496 10.52 17.6765C10.4764 17.7024 10.4275 17.7286 10.3728 17.7548L10.2528 17.8086C10.2171 17.8236 10.1796 17.8385 10.1399 17.8535C10.0884 17.873 10.0335 17.8925 9.9748 17.9119C9.92615 17.928 9.87498 17.9441 9.82114 17.9602L9.75078 17.9807C9.70707 17.9932 9.66501 18.0048 9.62452 18.0154C9.57919 18.0274 9.53582 18.0382 9.49439 18.0479C9.4381 18.061 9.38533 18.0722 9.33589 18.0815C9.2869 18.0906 9.24119 18.0979 9.19855 18.1035C9.136 18.1116 9.08009 18.1159 9.03022 18.1167C8.99875 18.1172 8.96968 18.1163 8.94288 18.1141C8.8779 18.1626 8.8078 18.2175 8.771 18.295C8.74552 18.3486 8.736 18.413 8.75518 18.4934C8.7665 18.5409 8.78222 18.584 8.80103 18.6232C8.82014 18.663 8.84247 18.6987 8.86669 18.7309L8.99434 18.7983C9.11615 18.8232 9.23845 18.8501 9.36073 18.8788L9.40869 18.8902L9.4662 18.9043C9.4908 18.9104 9.51515 18.9168 9.53924 18.9232L9.59759 18.9392L9.65657 18.9563L9.73726 18.9698L9.9748 19.0157L10.2418 19.0444C10.419 18.9882 10.6212 18.9459 10.8113 18.889C10.8475 18.8781 10.8825 18.867 10.9161 18.8559L11.287 18.6638C11.3063 18.6501 11.3262 18.6366 11.3466 18.6232C11.4581 18.5498 11.5847 18.4802 11.7099 18.4078L12.0728 18.1141C12.1443 18.0311 12.2198 17.9443 12.2994 17.8535C12.3544 17.7908 12.4114 17.7262 12.4705 17.6595C12.7939 17.2949 13.1788 16.8712 13.6345 16.3795L14.0003 15.9177C14.2646 15.5203 14.8105 14.8543 15.8067 13.756L15.8785 13.677L15.9454 13.6035L16.126 13.3945L16.2203 13.2719L16.2817 13.1922L16.3296 13.13L16.3668 13.0817L16.4053 13.0163L16.4438 12.9509L16.5105 12.8384L16.5845 12.7139L16.7043 12.5141L16.8222 12.3187L16.9413 12.1224L17.0385 11.9632L17.1541 11.7746L17.2466 11.6245L17.3311 11.4877L17.4099 11.3607L17.4413 11.31L17.472 11.2606L17.5451 11.1432L17.5909 11.0698L17.6487 10.9773L17.7236 10.8576L17.7449 10.8237L17.7555 10.8068L17.7818 10.7626L17.7915 10.7475C17.7956 10.7323 17.8001 10.7178 17.805 10.704C17.8119 10.6842 17.8195 10.6658 17.8278 10.6484C17.831 10.6417 17.8342 10.6351 17.8376 10.6287C17.8449 10.6149 17.8525 10.6018 17.8605 10.5893C17.8711 10.5725 17.8824 10.5567 17.8942 10.5415L17.9094 10.5226C17.9351 10.4914 17.9628 10.4623 17.9915 10.4323L18.0012 10.4222L18.0248 10.3972C18.035 10.3863 18.0452 10.3753 18.0554 10.3638L18.1083 10.2958C18.1136 10.2861 18.1188 10.2747 18.124 10.2619L18.1509 10.1861L18.156 10.1698L18.1631 10.1467L18.1737 10.1109L18.1807 10.0867L18.1877 10.0625L18.1943 10.0393L18.2078 9.99205L18.2123 9.97659L18.2295 9.91731L18.2347 9.89968L18.2474 9.85758L18.2529 9.8398L18.2667 9.79578L18.2762 9.76708L18.2809 9.75286L18.2952 9.70994C18.3036 9.68561 18.3123 9.66112 18.3215 9.63662C18.3337 9.60381 18.3466 9.57096 18.3603 9.53834L18.3743 9.50574L18.3912 9.46806Z" fill="#090808"/>
</svg>
