<svg width="18" height="19" viewBox="0 0 18 19" fill="none" xmlns="http://www.w3.org/2000/svg">
<path fill-rule="evenodd" clip-rule="evenodd" d="M15.5652 13.4795L15.7502 13.5402C15.6891 13.5242 15.6274 13.5039 15.5652 13.4795ZM15.228 13.3101L15.0098 13.15L14.5241 12.7414C14.6142 12.8313 14.7041 12.9148 14.7935 12.9913C14.8996 13.082 15.0051 13.1631 15.1097 13.234C15.1492 13.2608 15.1887 13.2862 15.228 13.3101ZM14.3366 12.545L14.22 12.4075L13.6702 11.7027C13.7806 11.8608 13.8916 12.0105 14.0028 12.1511C14.0905 12.262 14.1784 12.3673 14.2662 12.4667C14.2897 12.4932 14.3131 12.5193 14.3366 12.545ZM13.0897 10.7838L13.3208 11.1708C13.2432 11.0457 13.1662 10.9167 13.0897 10.7838ZM12.6153 9.89446L12.8357 10.3241C12.7614 10.1843 12.6879 10.041 12.6153 9.89446ZM11.2659 6.40864L11.1846 6.11898C11.2107 6.21492 11.2378 6.31149 11.2659 6.40864ZM11.007 5.40763L11.1036 5.81008C11.0693 5.67443 11.0371 5.54022 11.007 5.40763ZM10.8636 4.69372L10.9262 5.02833C10.9036 4.91538 10.8827 4.80381 10.8636 4.69372ZM10.7385 3.74656L10.7869 4.19222C10.7671 4.04003 10.7509 3.89135 10.7385 3.74656ZM10.7102 3.23219L10.7185 3.45569C10.7146 3.37995 10.7118 3.30543 10.7102 3.23219ZM10.7185 2.7353L10.7087 3.0322C10.7095 2.93042 10.7128 2.8314 10.7185 2.7353Z" fill="#090808"/>
<path d="M15.9452 4.93481C14.6091 1.45663 13.008 0.390587 11.6368 0.917317C11.5575 0.94778 11.4827 0.98734 11.4123 1.03552C10.9884 1.326 10.7662 1.92712 10.7185 2.7353L10.7087 3.0322C10.7082 3.09774 10.7087 3.16441 10.7102 3.23219L10.7185 3.45569C10.7233 3.55076 10.73 3.64776 10.7385 3.74656L10.7869 4.19222C10.8083 4.35549 10.8339 4.52281 10.8636 4.69372L10.9262 5.02833C10.9511 5.15315 10.9781 5.27963 11.007 5.40763L11.1036 5.81008C11.1294 5.91225 11.1564 6.01525 11.1846 6.11898L11.2659 6.40864C11.5156 6.26827 11.8038 6.18821 12.1107 6.18821C13.0642 6.18821 13.7438 7.05449 13.7438 8.00798C13.7438 8.79264 13.2203 9.45504 12.5036 9.66502C12.5406 9.74234 12.5778 9.81883 12.6153 9.89446L12.8357 10.3241C12.9194 10.4818 13.0042 10.6352 13.0897 10.7838L13.3208 11.1708C13.4363 11.3572 13.5529 11.5347 13.6702 11.7027L14.22 12.4075L14.3366 12.545C14.3991 12.6135 14.4617 12.679 14.5241 12.7414L15.0098 13.15L15.228 13.3101C15.2621 13.3308 15.2962 13.3504 15.3301 13.3689C15.4092 13.412 15.4876 13.449 15.5652 13.4795L15.7502 13.5402C16.0035 13.6068 16.2469 13.6006 16.4752 13.5129C16.5885 13.4694 16.6926 13.4073 16.7875 13.3281C17.8418 12.4482 17.1709 8.12565 15.9452 4.93481Z" fill="#090808"/>
<path fill-rule="evenodd" clip-rule="evenodd" d="M11.5725 12.0577L11.837 12.5008C11.7482 12.3576 11.66 12.2098 11.5725 12.0577ZM11.0292 11.0394L11.2816 11.5313C11.1965 11.3712 11.1124 11.2072 11.0292 11.0394ZM9.48422 7.04813L9.39114 6.71646C9.42102 6.82631 9.45205 6.93689 9.48422 7.04813ZM9.18779 5.90197L9.2983 6.36278C9.25903 6.20746 9.22217 6.05379 9.18779 5.90197ZM9.02356 5.08454L9.09519 5.46768C9.06937 5.33835 9.04548 5.21059 9.02356 5.08454Z" fill="#090808"/>
<path d="M8.25193 4.93928L7.41204 5.77917L6.61881 6.43243L5.9189 7.03902L5.26566 7.45896L4.51909 7.87891L3.77251 8.20554L3.25925 8.43884L2.79265 8.62548L2.27937 8.85879L1.81276 9.13875L1.43947 9.41872L1.20617 9.65202L1.06619 9.93199L1.01953 10.3519V11.1918L1.11286 11.7051L1.25284 12.1717L1.43947 12.6383L1.67279 13.1049L1.95275 13.4782L2.27937 13.8048L2.65266 14.0381L3.11927 14.2715L3.39924 14.3181L4.00583 14.1781L4.7524 14.0381L5.26567 13.8515H5.40565L5.49897 14.3181L5.63896 14.878L5.77894 15.5313L5.96558 16.2779L6.15223 16.8845L6.38553 17.3977L6.66549 17.911L7.08544 18.3776L7.31875 18.4243L7.59871 18.2843L8.11198 17.911L8.57859 17.491L8.81189 17.1644V16.8845L8.48527 16.6045L8.2053 16.4179L8.01866 16.2779L7.972 16.0446L8.01866 15.6246V15.2047L7.972 15.0647L7.83202 14.878L7.64537 14.6914L7.59871 14.5048V13.8048L7.64537 13.4782L7.83202 13.2916L8.34529 13.2449H10.1184L10.7716 13.2916L11.8915 13.4782L12.2648 13.5715L12.6634 13.6802L12.6179 13.6232L12.5773 13.5715C12.4636 13.4257 12.3501 13.2716 12.2371 13.1098C12.1028 12.9175 11.9693 12.7142 11.837 12.5008C11.7482 12.3576 11.66 12.2098 11.5725 12.0577C11.4745 11.8875 11.3775 11.7119 11.2816 11.5313C11.1965 11.3712 11.1124 11.2072 11.0292 11.0394C10.9863 10.9528 10.9437 10.8652 10.9013 10.7767C10.8781 10.7281 10.855 10.6793 10.832 10.6302C10.7381 10.4303 10.6458 10.2257 10.5552 10.0168C10.4843 9.85322 10.4144 9.68698 10.3456 9.51826C10.2818 9.36155 10.2189 9.2027 10.1571 9.04187C10.126 8.96079 10.0953 8.87983 10.0652 8.79901C9.98281 8.57819 9.90421 8.35843 9.82949 8.14023C9.75026 7.90884 9.67541 7.67921 9.60508 7.45189C9.57491 7.35437 9.54558 7.25728 9.51708 7.16066L9.48422 7.04813C9.45205 6.93689 9.42102 6.82631 9.39114 6.71646C9.35884 6.59769 9.32789 6.47976 9.2983 6.36278C9.25903 6.20746 9.22217 6.05379 9.18779 5.90197C9.1546 5.75541 9.12372 5.61059 9.09519 5.46768C9.06937 5.33835 9.04548 5.21059 9.02356 5.08454C8.98952 4.88885 8.96022 4.69727 8.93579 4.51033C8.91886 4.38075 8.90427 4.2534 8.89207 4.12844L8.25193 4.93928Z" fill="#090808"/>
<path d="M10.7185 2.7353C10.7662 1.92712 10.9884 1.326 11.4123 1.03552C11.4827 0.98734 11.5575 0.94778 11.6368 0.917317C13.008 0.390587 14.6091 1.45663 15.9452 4.93481C17.1709 8.12565 17.8418 12.4482 16.7875 13.3281C16.6926 13.4073 16.5885 13.4694 16.4752 13.5129C16.2469 13.6006 16.0035 13.6068 15.7502 13.5402M10.7185 2.7353C10.7128 2.8314 10.7095 2.93042 10.7087 3.0322M10.7185 2.7353L10.7087 3.0322M15.7502 13.5402C15.6891 13.5242 15.6274 13.5039 15.5652 13.4795M15.7502 13.5402L15.5652 13.4795M11.2659 6.40864C11.5156 6.26827 11.8038 6.18821 12.1107 6.18821C13.0642 6.18821 13.7438 7.05449 13.7438 8.00798C13.7438 8.79264 13.2203 9.45504 12.5036 9.66502M11.2659 6.40864C11.2378 6.31149 11.2107 6.21492 11.1846 6.11898M11.2659 6.40864C11.2754 6.44134 11.2849 6.4741 11.2946 6.50693M11.2659 6.40864L11.2946 6.50693M11.2659 6.40864L11.1846 6.11898M12.5036 9.66502C12.4833 9.62264 12.4631 9.58001 12.443 9.53713M12.5036 9.66502C12.5406 9.74234 12.5778 9.81883 12.6153 9.89446M14.0028 12.1511C13.8916 12.0105 13.7806 11.8608 13.6702 11.7027M14.0028 12.1511C14.0905 12.262 14.1784 12.3673 14.2662 12.4667M14.0028 12.1511L14.22 12.4075M14.3366 12.545C14.3131 12.5193 14.2897 12.4932 14.2662 12.4667M14.3366 12.545C14.3991 12.6135 14.4617 12.679 14.5241 12.7414M14.3366 12.545L14.22 12.4075M14.7935 12.9913C14.7041 12.9148 14.6142 12.8313 14.5241 12.7414M14.7935 12.9913C14.8996 13.082 15.0051 13.1631 15.1097 13.234M14.7935 12.9913L15.0098 13.15M15.228 13.3101C15.1887 13.2862 15.1492 13.2608 15.1097 13.234M15.228 13.3101C15.2622 13.3308 15.2962 13.3504 15.3301 13.3689C15.4092 13.412 15.4876 13.449 15.5652 13.4795M15.228 13.3101L15.0098 13.15M10.7087 3.0322C10.7082 3.09774 10.7087 3.16441 10.7102 3.23219M10.7102 3.23219C10.7118 3.30543 10.7146 3.37995 10.7185 3.45569M10.7102 3.23219L10.7185 3.45569M10.7185 3.45569C10.7233 3.55076 10.73 3.64776 10.7385 3.74656M10.7385 3.74656C10.7509 3.89135 10.7671 4.04003 10.7869 4.19222M10.7385 3.74656L10.7869 4.19222M10.7869 4.19222C10.8083 4.35549 10.8339 4.52281 10.8636 4.69372M10.8636 4.69372C10.8827 4.80381 10.9036 4.91538 10.9262 5.02833M10.8636 4.69372L10.9262 5.02833M10.9262 5.02833C10.9511 5.15315 10.978 5.27963 11.007 5.40763M11.007 5.40763C11.0371 5.54022 11.0693 5.67443 11.1036 5.81008M11.007 5.40763L11.1036 5.81008M11.1036 5.81008C11.1294 5.91225 11.1564 6.01525 11.1846 6.11898M11.1846 6.11898L11.2946 6.50693M11.2946 6.50693C11.3195 6.59131 11.3451 6.67611 11.3715 6.76127M11.3715 6.76127C11.4329 6.9598 11.4983 7.16036 11.5675 7.36245M11.3715 6.76127L11.5675 7.36245M11.5675 7.36245C11.6327 7.55301 11.7014 7.74494 11.7733 7.9378M11.7733 7.9378C11.7996 8.00838 11.8264 8.07909 11.8536 8.1499C11.9076 8.29037 11.9625 8.4291 12.0182 8.56597M11.7733 7.9378L12.0182 8.56597M12.0182 8.56597C12.0783 8.71332 12.1393 8.85851 12.2013 9.00139M12.2013 9.00139C12.2804 9.18385 12.3611 9.36254 12.443 9.53713M12.2013 9.00139L12.443 9.53713M12.6153 9.89446C12.6879 10.041 12.7614 10.1843 12.8357 10.3241M12.6153 9.89446L12.8357 10.3241M12.8357 10.3241C12.9194 10.4818 13.0042 10.6352 13.0897 10.7838M13.0897 10.7838C13.1662 10.9167 13.2432 11.0457 13.3208 11.1708M13.0897 10.7838L13.3208 11.1708M13.3208 11.1708C13.4363 11.3572 13.5529 11.5347 13.6702 11.7027M13.6702 11.7027L14.22 12.4075M14.2662 12.4667L14.22 12.4075M14.5241 12.7414L15.0098 13.15M15.1097 13.234L15.0098 13.15M9.48422 7.04813C9.45205 6.93689 9.42102 6.82631 9.39114 6.71646M9.48422 7.04813C9.49504 7.08556 9.506 7.12308 9.51708 7.16066M9.48422 7.04813L9.51708 7.16066M9.48422 7.04813L9.39114 6.71646M12.6179 13.6232C12.6331 13.6424 12.6482 13.6614 12.6634 13.6802M12.6179 13.6232L12.6634 13.6802M12.6179 13.6232C12.6044 13.6061 12.5908 13.5889 12.5773 13.5715M12.6179 13.6232L12.5773 13.5715M9.02356 5.08454C8.98952 4.88885 8.96022 4.69727 8.93579 4.51033C8.91886 4.38075 8.90427 4.2534 8.89207 4.12844L8.25193 4.93928L7.41204 5.77917L6.61881 6.43243L5.9189 7.03902L5.26566 7.45896L4.51909 7.87891L3.77251 8.20554L3.25925 8.43884L2.79265 8.62548L2.27937 8.85879L1.81276 9.13875L1.43947 9.41872L1.20617 9.65202L1.06619 9.93199L1.01953 10.3519V11.1918L1.11286 11.7051L1.25284 12.1717L1.43947 12.6383L1.67279 13.1049L1.95275 13.4782L2.27937 13.8048L2.65266 14.0381L3.11927 14.2715L3.39924 14.3181L4.00583 14.1781L4.7524 14.0381L5.26567 13.8515H5.40565L5.49897 14.3181L5.63896 14.878L5.77894 15.5313L5.96558 16.2779L6.15223 16.8845L6.38553 17.3977L6.6655 17.911L7.08544 18.3776L7.31875 18.4243L7.59871 18.2843L8.11198 17.911L8.57859 17.491L8.81189 17.1644V16.8845L8.48527 16.6045L8.2053 16.4179L8.01866 16.2779L7.972 16.0446L8.01866 15.6246V15.2047L7.972 15.0647L7.83202 14.878L7.64537 14.6914L7.59871 14.5048V13.8048L7.64537 13.4782L7.83202 13.2916L8.34529 13.2449H10.1184L10.7716 13.2916L11.8915 13.4782L12.2648 13.5715L12.6634 13.6802M9.02356 5.08454C9.04548 5.21059 9.06937 5.33835 9.09519 5.46768M9.02356 5.08454L9.09519 5.46768M9.09519 5.46768C9.12372 5.61059 9.1546 5.75541 9.18779 5.90197M9.18779 5.90197C9.22218 6.05379 9.25903 6.20746 9.2983 6.36278M9.18779 5.90197L9.2983 6.36278M9.2983 6.36278C9.32789 6.47977 9.35884 6.59769 9.39114 6.71646M9.39114 6.71646L9.51708 7.16066M9.51708 7.16066C9.54558 7.25728 9.57491 7.35437 9.60508 7.45189M9.60508 7.45189C9.67541 7.67921 9.75026 7.90885 9.82949 8.14023M9.60508 7.45189L9.82949 8.14023M9.82949 8.14023C9.90421 8.35843 9.98281 8.57819 10.0652 8.79901M10.0652 8.79901C10.0953 8.87983 10.126 8.96079 10.1571 9.04187C10.2189 9.2027 10.2818 9.36155 10.3456 9.51826M10.0652 8.79901L10.3456 9.51826M10.3456 9.51826C10.4144 9.68698 10.4843 9.85322 10.5552 10.0168M10.5552 10.0168C10.6458 10.2257 10.7381 10.4303 10.832 10.6302M10.5552 10.0168L10.832 10.6302M10.832 10.6302C10.855 10.6793 10.8781 10.7281 10.9013 10.7767C10.9437 10.8652 10.9863 10.9528 11.0292 11.0394M11.0292 11.0394C11.1124 11.2072 11.1965 11.3712 11.2816 11.5313M11.0292 11.0394L11.2816 11.5313M11.2816 11.5313C11.3775 11.7119 11.4745 11.8875 11.5725 12.0577M11.5725 12.0577C11.66 12.2098 11.7482 12.3576 11.837 12.5008M11.5725 12.0577L11.837 12.5008M11.837 12.5008C11.9693 12.7142 12.1028 12.9175 12.2371 13.1098C12.3501 13.2716 12.4636 13.4257 12.5773 13.5715" stroke="#0C0C0C" stroke-width="0.7"/>
</svg>
