<svg width="14" height="10" viewBox="0 0 14 10" fill="none" xmlns="http://www.w3.org/2000/svg">
<path d="M0.893555 0.363693H13.4213V3.56057H0.893555V0.363693Z" fill="#FF9933"/>
<path d="M0.893555 3.56057H13.4213V6.75745H0.893555V3.56057Z" fill="white"/>
<path d="M0.893555 6.75745H13.4213V9.95432H0.893555V6.75745Z" fill="#128807"/>
<path d="M7.15744 6.43776C7.84933 6.43776 8.41022 5.86524 8.41022 5.15901C8.41022 4.45277 7.84933 3.88026 7.15744 3.88026C6.46555 3.88026 5.90467 4.45277 5.90467 5.15901C5.90467 5.86524 6.46555 6.43776 7.15744 6.43776Z" fill="#000088"/>
<path d="M7.15744 6.27791C7.76285 6.27791 8.25362 5.77696 8.25362 5.15901C8.25362 4.54105 7.76285 4.0401 7.15744 4.0401C6.55204 4.0401 6.06126 4.54105 6.06126 5.15901C6.06126 5.77696 6.55204 6.27791 7.15744 6.27791Z" fill="white"/>
<path d="M7.15744 5.38279C7.27852 5.38279 7.37668 5.2826 7.37668 5.15901C7.37668 5.03542 7.27852 4.93523 7.15744 4.93523C7.03636 4.93523 6.93821 5.03542 6.93821 5.15901C6.93821 5.2826 7.03636 5.38279 7.15744 5.38279Z" fill="#000088"/>
<path d="M8.23687 5.36252C8.26774 5.36667 8.29605 5.34449 8.30012 5.31298C8.30418 5.28147 8.28245 5.25257 8.25158 5.24842C8.22072 5.24427 8.1924 5.26645 8.18833 5.29796C8.18427 5.32947 8.206 5.35838 8.23687 5.36252Z" fill="#000088"/>
<path d="M7.15744 6.27791L7.19503 5.60657L7.15744 5.28688L7.11986 5.60657L7.15744 6.27791Z" fill="#000088"/>
<path d="M8.14848 5.64076C8.17725 5.65292 8.21023 5.63898 8.22214 5.60961C8.23406 5.58025 8.2204 5.54659 8.19163 5.53443C8.16287 5.52227 8.12989 5.53621 8.11797 5.56557C8.10606 5.59493 8.11972 5.62859 8.14848 5.64076Z" fill="#000088"/>
<path d="M6.87373 6.23979L7.08026 5.60125L7.12502 5.28252L7.00766 5.58139L6.87373 6.23979Z" fill="#000088"/>
<path d="M7.99256 5.88616C8.01726 5.9055 8.05265 5.90075 8.0716 5.87554C8.09056 5.85032 8.0859 5.8142 8.0612 5.79485C8.0365 5.77551 8.00111 5.78026 7.98215 5.80548C7.9632 5.83069 7.96786 5.86681 7.99256 5.88616Z" fill="#000088"/>
<path d="M6.60935 6.12801L6.97076 5.56579L7.09481 5.26975L6.90566 5.52743L6.60935 6.12801Z" fill="#000088"/>
<path d="M7.77973 6.08201C7.79868 6.10722 7.83407 6.11197 7.85877 6.09263C7.88347 6.07328 7.88813 6.03716 7.86918 6.01195C7.85022 5.98673 7.81483 5.98198 7.79013 6.00132C7.76543 6.02067 7.76077 6.05679 7.77973 6.08201Z" fill="#000088"/>
<path d="M6.38233 5.95019L6.87397 5.50261L7.06886 5.24943L6.82082 5.44836L6.38233 5.95019Z" fill="#000088"/>
<path d="M7.52448 6.21495C7.5364 6.24432 7.56938 6.25826 7.59814 6.2461C7.62691 6.23393 7.64057 6.20027 7.62865 6.17091C7.61674 6.14155 7.58376 6.12761 7.555 6.13977C7.52623 6.15193 7.51257 6.18559 7.52448 6.21495Z" fill="#000088"/>
<path d="M6.20812 5.71846L6.79651 5.41601L7.04895 5.22294L6.75892 5.34957L6.20812 5.71846Z" fill="#000088"/>
<path d="M7.24423 6.27594C7.24829 6.30745 7.27661 6.32963 7.30748 6.32548C7.33835 6.32133 7.36008 6.29243 7.35602 6.26092C7.35195 6.22941 7.32363 6.20723 7.29276 6.21138C7.2619 6.21553 7.24017 6.24443 7.24423 6.27594Z" fill="#000088"/>
<path d="M6.09861 5.4486L6.74364 5.3119L7.03643 5.1921L6.72418 5.23779L6.09861 5.4486Z" fill="#000088"/>
<path d="M6.95806 6.26081C6.954 6.29232 6.97573 6.32122 7.0066 6.32537C7.03747 6.32952 7.06578 6.30734 7.06985 6.27583C7.07391 6.24432 7.05218 6.21542 7.02131 6.21127C6.99044 6.20712 6.96213 6.2293 6.95806 6.26081Z" fill="#000088"/>
<path d="M6.06126 5.15901L6.71897 5.19737L7.03217 5.15901L6.71897 5.12064L6.06126 5.15901Z" fill="#000088"/>
<path d="M6.68548 6.17059C6.67357 6.19995 6.68723 6.23362 6.71599 6.24578C6.74476 6.25794 6.77773 6.244 6.78965 6.21463C6.80156 6.18527 6.7879 6.15161 6.75914 6.13945C6.73037 6.12729 6.6974 6.14123 6.68548 6.17059Z" fill="#000088"/>
<path d="M6.09861 4.86941L6.72418 5.08022L7.03643 5.12591L6.74364 5.00611L6.09861 4.86941Z" fill="#000088"/>
<path d="M6.44506 6.01144C6.42611 6.03665 6.43077 6.07278 6.45547 6.09212C6.48017 6.11147 6.51556 6.10671 6.53451 6.0815C6.55347 6.05629 6.54881 6.02016 6.52411 6.00082C6.4994 5.98147 6.46402 5.98623 6.44506 6.01144Z" fill="#000088"/>
<path d="M6.20812 4.59955L6.75892 4.96845L7.04895 5.09507L6.79651 4.902L6.20812 4.59955Z" fill="#000088"/>
<path d="M6.25319 5.79419C6.22849 5.81354 6.22383 5.84966 6.24279 5.87488C6.26174 5.90009 6.29713 5.90484 6.32183 5.8855C6.34653 5.86615 6.35119 5.83003 6.33224 5.80481C6.31328 5.7796 6.27789 5.77485 6.25319 5.79419Z" fill="#000088"/>
<path d="M6.38233 4.36782L6.82082 4.86966L7.06886 5.06859L6.87397 4.81541L6.38233 4.36782Z" fill="#000088"/>
<path d="M6.12294 5.53366C6.09418 5.54582 6.08052 5.57948 6.09243 5.60884C6.10435 5.63821 6.13733 5.65215 6.16609 5.63999C6.19486 5.62782 6.20852 5.59416 6.1966 5.5648C6.18469 5.53544 6.15171 5.5215 6.12294 5.53366Z" fill="#000088"/>
<path d="M6.60935 4.19001L6.90566 4.79059L7.09481 5.04826L6.97076 4.75223L6.60935 4.19001Z" fill="#000088"/>
<path d="M6.0632 5.24759C6.03233 5.25174 6.0106 5.28065 6.01466 5.31216C6.01873 5.34367 6.04704 5.36585 6.07791 5.3617C6.10878 5.35755 6.13051 5.32864 6.12645 5.29713C6.12238 5.26563 6.09407 5.24345 6.0632 5.24759Z" fill="#000088"/>
<path d="M6.87373 4.07823L7.00766 4.73662L7.12502 5.03549L7.08026 4.71677L6.87373 4.07823Z" fill="#000088"/>
<path d="M6.07802 4.95549C6.04715 4.95134 6.01883 4.97352 6.01477 5.00503C6.0107 5.03654 6.03243 5.06545 6.0633 5.06959C6.09417 5.07374 6.12249 5.05156 6.12655 5.02005C6.13062 4.98855 6.10889 4.95964 6.07802 4.95549Z" fill="#000088"/>
<path d="M7.15744 4.0401L7.11986 4.71144L7.15744 5.03113L7.19503 4.71144L7.15744 4.0401Z" fill="#000088"/>
<path d="M6.1664 4.67726C6.13764 4.6651 6.10466 4.67904 6.09275 4.7084C6.08083 4.73776 6.09449 4.77142 6.12326 4.78359C6.15202 4.79575 6.185 4.7818 6.19691 4.75244C6.20883 4.72308 6.19517 4.68942 6.1664 4.67726Z" fill="#000088"/>
<path d="M7.44116 4.07823L7.23463 4.71677L7.18987 5.03549L7.30723 4.73662L7.44116 4.07823Z" fill="#000088"/>
<path d="M6.32233 4.43186C6.29763 4.41251 6.26224 4.41727 6.24328 4.44248C6.22433 4.46769 6.22899 4.50381 6.25369 4.52316C6.27839 4.54251 6.31378 4.53775 6.33273 4.51254C6.35169 4.48733 6.34703 4.4512 6.32233 4.43186Z" fill="#000088"/>
<path d="M7.70553 4.19001L7.34413 4.75223L7.22008 5.04826L7.40923 4.79059L7.70553 4.19001Z" fill="#000088"/>
<path d="M6.53516 4.23601C6.51621 4.21079 6.48082 4.20604 6.45612 4.22539C6.43142 4.24473 6.42676 4.28086 6.44571 4.30607C6.46466 4.33128 6.50005 4.33604 6.52475 4.31669C6.54946 4.29734 6.55412 4.26122 6.53516 4.23601Z" fill="#000088"/>
<path d="M7.93256 4.36782L7.44092 4.81541L7.24603 5.06859L7.49407 4.86966L7.93256 4.36782Z" fill="#000088"/>
<path d="M6.7904 4.10306C6.77849 4.0737 6.74551 4.05976 6.71674 4.07192C6.68798 4.08408 6.67432 4.11774 6.68623 4.1471C6.69815 4.17646 6.73113 4.19041 6.75989 4.17824C6.78866 4.16608 6.80232 4.13242 6.7904 4.10306Z" fill="#000088"/>
<path d="M8.10676 4.59955L7.51838 4.902L7.26594 5.09507L7.55596 4.96845L8.10676 4.59955Z" fill="#000088"/>
<path d="M7.07066 4.04207C7.06659 4.01057 7.03827 3.98839 7.00741 3.99253C6.97654 3.99668 6.95481 4.02559 6.95887 4.0571C6.96294 4.0886 6.99125 4.11079 7.02212 4.10664C7.05299 4.10249 7.07472 4.07358 7.07066 4.04207Z" fill="#000088"/>
<path d="M8.21627 4.86941L7.57125 5.00611L7.27845 5.12591L7.5907 5.08023L8.21627 4.86941Z" fill="#000088"/>
<path d="M7.35683 4.05721C7.36089 4.0257 7.33916 3.99679 7.30829 3.99264C7.27742 3.98849 7.2491 4.01067 7.24504 4.04218C7.24098 4.07369 7.26271 4.1026 7.29357 4.10675C7.32444 4.11089 7.35276 4.08871 7.35683 4.05721Z" fill="#000088"/>
<path d="M8.25362 5.15901L7.59592 5.12065L7.28272 5.15901L7.59592 5.19737L8.25362 5.15901Z" fill="#000088"/>
<path d="M7.62941 4.14742C7.64132 4.11806 7.62766 4.0844 7.5989 4.07224C7.57013 4.06008 7.53716 4.07402 7.52524 4.10338C7.51333 4.13274 7.52699 4.1664 7.55575 4.17856C7.58452 4.19073 7.61749 4.17678 7.62941 4.14742Z" fill="#000088"/>
<path d="M8.21627 5.4486L7.5907 5.23779L7.27845 5.1921L7.57125 5.3119L8.21627 5.4486Z" fill="#000088"/>
<path d="M7.86982 4.30658C7.88878 4.28136 7.88412 4.24524 7.85942 4.22589C7.83472 4.20655 7.79933 4.2113 7.78038 4.23652C7.76142 4.26173 7.76608 4.29785 7.79078 4.3172C7.81548 4.33655 7.85087 4.33179 7.86982 4.30658Z" fill="#000088"/>
<path d="M8.10676 5.71846L7.55596 5.34957L7.26594 5.22294L7.51838 5.41601L8.10676 5.71846Z" fill="#000088"/>
<path d="M8.0617 4.52382C8.0864 4.50448 8.09106 4.46835 8.0721 4.44314C8.05315 4.41793 8.01776 4.41317 7.99306 4.43252C7.96836 4.45186 7.9637 4.48799 7.98265 4.5132C8.00161 4.53841 8.03699 4.54317 8.0617 4.52382Z" fill="#000088"/>
<path d="M7.93256 5.95019L7.49407 5.44836L7.24603 5.24943L7.44092 5.50261L7.93256 5.95019Z" fill="#000088"/>
<path d="M8.19194 4.78436C8.22071 4.77219 8.23437 4.73853 8.22245 4.70917C8.21054 4.67981 8.17756 4.66587 8.1488 4.67803C8.12003 4.69019 8.10637 4.72385 8.11829 4.75321C8.1302 4.78257 8.16318 4.79652 8.19194 4.78436Z" fill="#000088"/>
<path d="M7.70553 6.12801L7.40923 5.52743L7.22008 5.26975L7.34413 5.56579L7.70553 6.12801Z" fill="#000088"/>
<path d="M8.25169 5.07042C8.28256 5.06627 8.30429 5.03737 8.30023 5.00586C8.29616 4.97435 8.26784 4.95217 8.23697 4.95632C8.20611 4.96047 8.18438 4.98937 8.18844 5.02088C8.1925 5.05239 8.22082 5.07457 8.25169 5.07042Z" fill="#000088"/>
<path d="M7.44116 6.23979L7.30723 5.58139L7.18987 5.28252L7.23463 5.60125L7.44116 6.23979Z" fill="#000088"/>
</svg>
