<svg width="13" height="11" viewBox="0 0 13 11" fill="none" xmlns="http://www.w3.org/2000/svg">
<path d="M5.02439 9.4878V4.12195M5.02439 9.4878C5.02439 9.78415 4.78415 10.0244 4.48781 10.0244H1.53659C1.24024 10.0244 1 9.78415 1 9.4878V4.12195C1 3.8256 1.24024 3.58537 1.53659 3.58537H4.48781C4.78415 3.58537 5.02439 3.8256 5.02439 4.12195M5.02439 9.4878V9.21951M5.02439 4.12195V4.39024M5.02439 4.39024L5.56098 4.12195L5.96341 3.71951L6.23171 3.31707L6.76829 2.2439L6.90244 1.57317V0.634146L7.03659 0.5H7.43902L7.84146 0.634146L8.10976 0.902439L8.37805 1.30488L8.5122 1.84146V2.37805L8.37805 3.31707L8.27744 3.71951M5.02439 4.39024V9.21951M7.17073 5.19512H11.4634M7.17073 5.19512C6.87438 5.19512 6.63415 4.95488 6.63415 4.65854V4.2561C6.63415 3.95975 6.87438 3.71951 7.17073 3.71951H8.27744M7.17073 5.19512C6.87438 5.19512 6.63415 5.43536 6.63415 5.73171V6.13415C6.63415 6.43049 6.87438 6.67073 7.17073 6.67073M11.4634 5.19512C11.7598 5.19512 12 4.95488 12 4.65854V4.2561C12 3.95975 11.7598 3.71951 11.4634 3.71951H8.27744M11.4634 5.19512C11.7598 5.19512 12 5.43536 12 5.73171V6.13415C12 6.43049 11.7598 6.67073 11.4634 6.67073M7.17073 6.67073H11.4634M7.17073 6.67073C6.87438 6.67073 6.63415 6.91097 6.63415 7.20732V7.60976C6.63415 7.9061 6.87438 8.14634 7.17073 8.14634M11.4634 6.67073C11.7598 6.67073 12 6.91097 12 7.20732V7.60976C12 7.9061 11.7598 8.14634 11.4634 8.14634M7.17073 8.14634H11.4634M7.17073 8.14634H10.7927M7.17073 8.14634H6.5M11.4634 8.14634H10.7927M6.5 9.62195H10.7927C11.089 9.62195 11.3293 9.38171 11.3293 9.08537V8.68293C11.3293 8.38658 11.089 8.14634 10.7927 8.14634M6.5 9.62195C6.20365 9.62195 5.96341 9.38171 5.96341 9.08537V8.68293C5.96341 8.38658 6.20365 8.14634 6.5 8.14634M6.5 9.62195H6.36585H5.82927L5.42683 9.4878L5.02439 9.21951M10.7927 8.14634H6.5" stroke="black" stroke-width="0.23"/>
</svg>
