<svg width="9" height="11" viewBox="0 0 9 11" fill="none" xmlns="http://www.w3.org/2000/svg">
<path d="M4.43055 0.733627C6.63202 0.733627 8.41667 2.55527 8.41667 4.80238C8.41667 6.4865 7.159 8.25164 4.6963 10.137C4.53882 10.2575 4.32229 10.2575 4.16481 10.137C1.70211 8.25164 0.444443 6.4865 0.444443 4.80238C0.444443 2.55527 2.22909 0.733627 4.43055 0.733627ZM4.43055 3.44613C3.69673 3.44613 3.10185 4.05334 3.10185 4.80238C3.10185 5.55141 3.69673 6.15863 4.43055 6.15863C5.16438 6.15863 5.75926 5.55141 5.75926 4.80238C5.75926 4.05334 5.16438 3.44613 4.43055 3.44613Z" stroke="black" stroke-width="0.5"/>
</svg>
