<svg width="13" height="12" viewBox="0 0 13 12" fill="none" xmlns="http://www.w3.org/2000/svg">
<path d="M10 10.2428L10.0955 10.3585L10 10.2428ZM4.65885 4.41776C4.71367 4.47987 4.80846 4.48578 4.87057 4.43096C4.93269 4.37615 4.9386 4.28136 4.88378 4.21924L4.65885 4.41776ZM8.13299 7.90074C8.07817 7.83863 7.98338 7.83272 7.92127 7.88754C7.85915 7.94236 7.85324 8.03715 7.90806 8.09926L8.13299 7.90074ZM5 8.73462C4.91716 8.73462 4.85 8.80177 4.85 8.88461C4.85 8.96746 4.91716 9.03461 5 9.03461V8.73462ZM6.53846 9.03461C6.6213 9.03461 6.68846 8.96746 6.68846 8.88461C6.68846 8.80177 6.6213 8.73462 6.53846 8.73462V9.03461ZM5.91923 3.5C5.91923 3.41716 5.85207 3.35 5.76923 3.35C5.68639 3.35 5.61923 3.41716 5.61923 3.5H5.91923ZM10 3.88462L10.12 3.97462C10.1541 3.92916 10.1596 3.86835 10.1342 3.81753C10.1088 3.76672 10.0568 3.73462 10 3.73462V3.88462ZM8.84615 5.42308L8.72615 5.33308L8.65865 5.42308L8.72615 5.51308L8.84615 5.42308ZM10 6.96154V7.11154C10.0568 7.11154 10.1088 7.07944 10.1342 7.02862C10.1596 6.9778 10.1541 6.91699 10.12 6.87154L10 6.96154ZM6.5 5.35C6.41716 5.35 6.35 5.41716 6.35 5.5C6.35 5.58284 6.41716 5.65 6.5 5.65V5.35ZM8 5.65C8.08284 5.65 8.15 5.58284 8.15 5.5C8.15 5.41716 8.08284 5.35 8 5.35V5.65ZM6.5 11.35C3.54528 11.35 1.15 8.95472 1.15 6H0.85C0.85 9.12041 3.37959 11.65 6.5 11.65V11.35ZM6.5 0.65C9.45472 0.65 11.85 3.04528 11.85 6H12.15C12.15 2.87959 9.62041 0.35 6.5 0.35V0.65ZM1.15 6C1.15 4.46694 1.79463 3.08469 2.82803 2.10907L2.62209 1.89093C1.53115 2.92085 0.85 4.381 0.85 6H1.15ZM2.82803 2.10907C3.78631 1.20439 5.07825 0.65 6.5 0.65V0.35C4.99867 0.35 3.63383 0.935768 2.62209 1.89093L2.82803 2.10907ZM11.85 6C11.85 7.6613 11.093 9.14566 9.90448 10.1272L10.0955 10.3585C11.35 9.32243 12.15 7.75457 12.15 6H11.85ZM9.90448 10.1272C8.97943 10.8911 7.7935 11.35 6.5 11.35V11.65C7.86576 11.65 9.11869 11.1652 10.0955 10.3585L9.90448 10.1272ZM2.6126 2.09926L4.65885 4.41776L4.88378 4.21924L2.83753 1.90074L2.6126 2.09926ZM7.90806 8.09926L9.88754 10.3421L10.1125 10.1436L8.13299 7.90074L7.90806 8.09926ZM5 9.03461H5.76923V8.73462H5V9.03461ZM5.76923 9.03461H6.53846V8.73462H5.76923V9.03461ZM5.91923 3.88462V3.5H5.61923V3.88462H5.91923ZM5.76923 4.03462H10V3.73462H5.76923V4.03462ZM9.88 3.79462L8.72615 5.33308L8.96615 5.51308L10.12 3.97462L9.88 3.79462ZM8.72615 5.51308L9.88 7.05154L10.12 6.87154L8.96615 5.33308L8.72615 5.51308ZM5.91923 8.88461V6.96154H5.61923V8.88461H5.91923ZM5.91923 6.96154V3.88462H5.61923V6.96154H5.91923ZM6.5 5.65H8V5.35H6.5V5.65ZM10 6.81154H5.76923V7.11154H10V6.81154Z" fill="black"/>
</svg>
