<svg width="13" height="10" viewBox="0 0 13 10" fill="none" xmlns="http://www.w3.org/2000/svg">
<path fill-rule="evenodd" clip-rule="evenodd" d="M6.39388 9.47561L6.41037 9.47533C6.40273 9.46582 6.39526 9.45616 6.38797 9.44636L6.37962 9.43497L6.37128 9.44636C6.36399 9.45616 6.35652 9.46582 6.34888 9.47533L6.36537 9.47561L6.37962 9.47552L6.39388 9.47561ZM6.37962 2.29016L6.36537 2.2901C5.40074 2.2901 4.61876 3.09451 4.61876 4.0868C4.61876 5.07909 5.40074 5.8835 6.36537 5.8835L6.37962 5.88344L6.39388 5.8835C7.3585 5.8835 8.14048 5.07909 8.14048 4.0868C8.14048 3.09451 7.3585 2.2901 6.39388 2.2901L6.37962 2.29016ZM6.37962 2.29016C7.33768 2.29804 8.11197 3.0994 8.11197 4.0868C8.11197 5.0742 7.33768 5.87556 6.37962 5.88344C5.42157 5.87556 4.64728 5.0742 4.64728 4.0868C4.64728 3.0994 5.42157 2.29804 6.37962 2.29016Z" fill="#1B291F"/>
<path d="M1.49608 5.09091V5.29091H1.49609L1.49608 5.09091ZM3.73597 5.09082L3.73597 4.89082H3.73597V5.09082ZM0.83342 6.95912L0.669008 7.073L0.669009 7.073L0.83342 6.95912ZM3.66887 5.09082V4.89082H3.66886L3.66887 5.09082ZM3.21679 8.20867L3.25504 8.01236L3.24455 8.01032L3.2339 8.0094L3.21679 8.20867ZM3.36652 4.66597L3.39893 4.46861L3.32258 4.86108L3.36652 4.66597ZM3.5812 4.70122L3.56043 4.90013L3.5812 4.70122ZM3.6985 4.70974L3.69027 4.90974H3.6985V4.70974ZM8.79473 4.70081L8.8078 4.50124L8.79473 4.70081ZM8.84009 4.70323L8.83186 4.90306L8.84009 4.70323ZM8.59119 4.67618L8.62615 4.47926C8.56773 4.46888 8.50771 4.48499 8.46233 4.52322C8.41695 4.56145 8.39089 4.61786 8.39119 4.6772L8.59119 4.67618ZM4.35762 6.80048C4.46808 6.80048 4.55762 6.71094 4.55762 6.60048C4.55762 6.49002 4.46808 6.40048 4.35762 6.40048V6.80048ZM6.19372 7.15047L5.99416 7.13515L5.99387 7.14283L6.19372 7.15047ZM6.19071 7.22935L5.99071 7.2217V7.22935H6.19071ZM6.41037 9.47533L6.41379 9.6753L6.82186 9.66832L6.56631 9.3501L6.41037 9.47533ZM6.36537 9.47561V9.67562L6.36662 9.67561L6.36537 9.47561ZM5.69837 6.6014L5.80131 6.42993L5.50439 6.25169L5.4984 6.59795L5.69837 6.6014ZM6.23212 6.92181L6.32907 7.09674L6.63222 6.92872L6.33505 6.75033L6.23212 6.92181ZM5.68761 7.22359L5.48764 7.22013L5.48166 7.56641L5.78457 7.39852L5.68761 7.22359ZM6.38787 6.62951L6.54919 6.74772L6.22738 6.51017L6.38787 6.62951ZM8.40163 6.40048C8.29117 6.40048 8.20163 6.49002 8.20163 6.60048C8.20163 6.71094 8.29117 6.80048 8.40163 6.80048V6.40048ZM6.56553 7.15047L6.76553 7.14283L6.76494 7.13516L6.56553 7.15047ZM6.56854 7.22935H6.76869L6.7684 7.22171L6.56854 7.22935ZM6.34888 9.47533L6.19294 9.3501L5.93739 9.66832L6.34546 9.6753L6.34888 9.47533ZM6.39388 9.47561L6.39263 9.67561H6.39388V9.47561ZM7.06087 6.6014L7.26085 6.59795L7.25486 6.25169L6.95794 6.42993L7.06087 6.6014ZM6.52713 6.92181L6.42419 6.75033L6.12703 6.92872L6.43018 7.09674L6.52713 6.92181ZM7.07163 7.22359L6.97468 7.39852L7.27759 7.56641L7.27161 7.22013L7.07163 7.22359ZM6.37138 6.62951L6.53187 6.51017L6.21005 6.74772L6.37138 6.62951ZM11.1706 5.09091L11.1706 5.29091H11.1706V5.09091ZM8.93069 5.09082V4.89082H8.93069L8.93069 5.09082ZM11.8332 6.95912L11.9977 7.073L11.9977 7.073L11.8332 6.95912ZM8.99779 5.09082L8.9978 4.89082H8.99779V5.09082ZM9.44987 8.20867L9.43276 8.0094L9.4182 8.01065L9.40398 8.014L9.44987 8.20867ZM9.30014 4.66597L9.34408 4.86108L9.26773 4.46861L9.30014 4.66597ZM9.08546 4.70122L9.10623 4.90013L9.08546 4.70122ZM8.96816 4.70974V4.90991L8.97639 4.90957L8.96816 4.70974ZM3.87193 4.70081L3.85886 4.50124L3.87193 4.70081ZM3.82657 4.70323L3.8348 4.90306L3.82657 4.70323ZM4.07547 4.67618L4.27547 4.6772C4.27577 4.61786 4.24971 4.56145 4.20433 4.52322C4.15895 4.48499 4.09893 4.46888 4.04051 4.47926L4.07547 4.67618ZM8.96816 0.791944L8.97639 0.592113L8.96816 0.791944ZM3.86526 0.787426L3.87762 0.587808L3.87005 0.587339L3.86246 0.587445L3.86526 0.787426ZM3.54358 0.791932L3.54078 0.591952L3.53288 0.592062L3.525 0.592797L3.54358 0.791932ZM9.0405 0.796324L9.02455 0.995687L9.04382 0.997229L9.06303 0.995051L9.0405 0.796324ZM8.55492 0.819301L8.5633 1.01912L8.55492 0.819301ZM8.72686 0.807612L8.71258 0.608123V0.608123L8.72686 0.807612ZM3.98675 0.798942L3.96134 0.997422L3.96761 0.998024L3.98675 0.798942ZM4.07335 5.09083L4.07334 5.29083L4.27233 5.29084L4.27335 5.09186L4.07335 5.09083ZM8.59331 5.09083L8.39331 5.09186L8.39433 5.29084L8.59332 5.29083L8.59331 5.09083ZM3.70442 0.789679L3.70722 0.989659L3.70442 0.789679ZM5.28758 1.87559C5.34129 1.97211 5.46307 2.00682 5.5596 1.95311C5.65612 1.8994 5.69082 1.77762 5.63712 1.6811L5.28758 1.87559ZM7.02954 1.6811C6.97584 1.77762 7.01054 1.8994 7.10706 1.95311C7.20359 2.00682 7.32537 1.97211 7.37908 1.87559L7.02954 1.6811ZM1.49609 5.29091L3.73597 5.29082L3.73596 4.89082L1.49607 4.89091L1.49609 5.29091ZM0.997832 6.84524C0.894703 6.69635 0.838886 6.51743 0.838886 6.33341H0.438885C0.438885 6.59801 0.519071 6.85653 0.669008 7.073L0.997832 6.84524ZM0.838886 6.33341V5.97269H0.438885V6.33341H0.838886ZM0.838886 5.97269C0.838886 5.59078 1.13842 5.29091 1.49608 5.29091V4.89091C0.906913 4.89091 0.438885 5.38061 0.438885 5.97269H0.838886ZM1.49609 5.29091L3.66888 5.29082L3.66886 4.89082L1.49607 4.89091L1.49609 5.29091ZM3.66887 5.29082H3.73597V4.89082H3.66887V5.29082ZM3.2339 8.0094C2.21276 7.92176 1.47169 7.52935 0.997831 6.84524L0.669009 7.073C1.22474 7.8753 2.08671 8.31241 3.19969 8.40794L3.2339 8.0094ZM3.70673 4.50991C3.67151 4.50846 3.63658 4.50591 3.60198 4.5023L3.56043 4.90013C3.60336 4.90462 3.64666 4.90778 3.69028 4.90957L3.70673 4.50991ZM3.6985 4.90974H3.88469V4.50974H3.6985V4.90974ZM8.80946 4.54042C8.81413 4.54042 8.82115 4.5406 8.82974 4.54157C8.83792 4.54249 8.85102 4.5445 8.86661 4.54948C8.8816 4.55426 8.90598 4.56402 8.93094 4.58429C8.94387 4.59479 8.95723 4.60836 8.9691 4.62555C8.9811 4.64292 8.99051 4.66246 8.99658 4.68356C9.00889 4.72634 9.0045 4.76426 8.99743 4.79035C8.99063 4.81546 8.98031 4.83389 8.97355 4.84449C8.96644 4.85566 8.95957 4.86393 8.95498 4.86907C8.9502 4.87444 8.94598 4.87854 8.94304 4.88128C8.93736 4.88655 8.93285 4.89002 8.93117 4.8913C8.92918 4.89282 8.92791 4.89368 8.9279 4.89369C8.92781 4.89375 8.92816 4.89351 8.92925 4.89279C8.93039 4.89204 8.9316 4.89126 8.93357 4.88998C8.93667 4.88797 8.94296 4.8839 8.94922 4.87954C8.95252 4.87723 8.95687 4.87412 8.96165 4.87042C8.96614 4.86694 8.9731 4.86133 8.98078 4.85399C8.98473 4.85021 8.98978 4.8451 8.99524 4.83876C9.00053 4.83262 9.00776 4.82354 9.01501 4.81173C9.02201 4.80034 9.03172 4.78208 9.03821 4.75792C9.0449 4.73302 9.04908 4.69812 9.03958 4.6585C9.03487 4.63884 9.02723 4.62004 9.01695 4.60271C9.00673 4.58549 8.99478 4.57118 8.98254 4.55953C8.95866 4.5368 8.93408 4.52449 8.91725 4.51784C8.90012 4.51106 8.88513 4.50782 8.87492 4.50613C8.86433 4.50437 8.85517 4.50368 8.84832 4.5034L8.83186 4.90306C8.82662 4.90284 8.81886 4.90229 8.80946 4.90073C8.80045 4.89924 8.78646 4.89626 8.77015 4.88981C8.75414 4.88348 8.73018 4.87156 8.70676 4.84926C8.69475 4.83783 8.68299 4.82375 8.67292 4.80678C8.66279 4.78969 8.65525 4.77115 8.65061 4.75177C8.64124 4.71269 8.64539 4.67838 8.65191 4.65413C8.65823 4.63061 8.66762 4.61304 8.67417 4.60238C8.68097 4.5913 8.68762 4.58299 8.69221 4.57767C8.69697 4.57214 8.7012 4.56789 8.70423 4.56499C8.71006 4.55941 8.71475 4.5557 8.71665 4.55423C8.71884 4.55253 8.7203 4.55152 8.72049 4.55139C8.72052 4.55136 8.71975 4.55189 8.71579 4.55446C8.71307 4.55623 8.70696 4.56016 8.70114 4.56417C8.69803 4.56631 8.69387 4.56924 8.6893 4.57271C8.68505 4.57594 8.67828 4.58126 8.67078 4.58823C8.66692 4.59182 8.66189 4.59674 8.65641 4.60288C8.65114 4.6088 8.64369 4.6178 8.63614 4.62966C8.62895 4.64095 8.61832 4.66003 8.61135 4.68574C8.60412 4.71242 8.59972 4.75089 8.61217 4.79416C8.61832 4.81551 8.62783 4.83528 8.63998 4.85288C8.65201 4.87029 8.66557 4.88406 8.67873 4.89475C8.70416 4.91541 8.72918 4.9255 8.745 4.93054C8.76143 4.93578 8.77554 4.93799 8.78493 4.93905C8.79474 4.94016 8.80317 4.94042 8.80946 4.94042V4.54042ZM8.84832 4.5034C8.83476 4.50284 8.82126 4.50212 8.8078 4.50124L8.78167 4.90039C8.79835 4.90148 8.81509 4.90237 8.83186 4.90306L8.84832 4.5034ZM8.84058 4.94042C8.86091 4.94042 8.87932 4.93751 8.88649 4.93636C8.89678 4.93472 8.90744 4.93266 8.91706 4.93069C8.93634 4.92674 8.95859 4.92166 8.97822 4.91716C8.99903 4.91239 9.01708 4.90822 9.03176 4.90509C9.03906 4.90354 9.0439 4.90259 9.04671 4.90209C9.05223 4.90112 9.04574 4.9026 9.03451 4.90306L9.01806 4.5034C9.00039 4.50413 8.98409 4.50697 8.97725 4.50817C8.96772 4.50985 8.95766 4.5119 8.94837 4.51388C8.92988 4.51782 8.90798 4.52289 8.88882 4.52728C8.86849 4.53194 8.85076 4.53596 8.8368 4.53882C8.82981 4.54025 8.82553 4.54103 8.82343 4.54136C8.81819 4.5422 8.82674 4.54042 8.84058 4.54042V4.94042ZM8.84009 4.90323H9.02628V4.50323H8.84009V4.90323ZM8.8078 4.50124C8.74626 4.49721 8.68566 4.48982 8.62615 4.47926L8.55622 4.8731C8.63016 4.88622 8.70539 4.89539 8.78167 4.90039L8.8078 4.50124ZM11.0546 2.74433C11.0546 1.62247 10.219 0.693293 9.14166 0.592797L9.1045 0.991067C9.96891 1.0717 10.6546 1.82161 10.6546 2.74433H11.0546ZM5.99387 7.14283L5.99085 7.22171L6.39056 7.23699L6.39358 7.15811L5.99387 7.14283ZM5.99071 7.22935V8.84638H6.39071V7.22935H5.99071ZM6.36537 9.27561C5.21498 9.27561 4.40554 8.90731 3.91473 8.19872L3.58591 8.42649C4.17252 9.27337 5.12572 9.67561 6.36537 9.67561V9.27561ZM3.91473 8.19873C3.82218 8.0651 3.77204 7.90445 3.77204 7.73917H3.37204C3.37204 7.98503 3.44654 8.22528 3.58591 8.42649L3.91473 8.19873ZM3.77204 7.73917V7.40859H3.37204V7.73917H3.77204ZM3.77204 7.40859C3.77204 7.06737 4.03951 6.80048 4.35762 6.80048V6.40048C3.808 6.40048 3.37204 6.85719 3.37204 7.40859H3.77204ZM6.36537 5.6835C5.5165 5.6835 4.81876 4.974 4.81876 4.0868H4.41876C4.41876 5.18418 5.28499 6.0835 6.36537 6.0835V5.6835ZM4.81876 4.0868C4.81876 3.1996 5.5165 2.4901 6.36537 2.4901V2.0901C5.28499 2.0901 4.41876 2.98942 4.41876 4.0868H4.81876ZM5.59544 6.77288L6.12918 7.09329L6.33505 6.75033L5.80131 6.42993L5.59544 6.77288ZM6.13517 6.74688L5.59066 7.04866L5.78457 7.39852L6.32907 7.09674L6.13517 6.74688ZM5.88758 7.22705L5.89834 6.60486L5.4984 6.59795L5.48764 7.22013L5.88758 7.22705ZM6.2275 9.56572C6.23627 9.57751 6.24525 9.58913 6.25443 9.60056L6.56631 9.3501C6.56022 9.34251 6.55426 9.33481 6.54844 9.32699L6.2275 9.56572ZM6.22745 9.32706C6.22157 9.33497 6.21556 9.34275 6.20943 9.35038L6.52131 9.60084C6.5306 9.58928 6.53966 9.57755 6.54849 9.56566L6.22745 9.32706ZM6.36567 7.15811L6.36869 7.23699L6.7684 7.22171L6.76538 7.14283L6.36567 7.15811ZM6.36854 7.22935V8.84638H6.76854V7.22935H6.36854ZM6.39388 9.67561C7.63353 9.67561 8.58673 9.27337 9.17334 8.42649L8.84451 8.19872C8.3537 8.90731 7.54427 9.27561 6.39388 9.27561V9.67561ZM9.17334 8.42649C9.3127 8.22528 9.38721 7.98503 9.38721 7.73917H8.98721C8.98721 7.90445 8.93707 8.0651 8.84451 8.19873L9.17334 8.42649ZM9.38721 7.73917V7.40859H8.98721V7.73917H9.38721ZM9.38721 7.40859C9.38721 6.85719 8.95124 6.40048 8.40163 6.40048V6.80048C8.71974 6.80048 8.98721 7.06737 8.98721 7.40859H9.38721ZM6.39388 6.0835C7.47425 6.0835 8.34048 5.18418 8.34048 4.0868H7.94048C7.94048 4.974 7.24275 5.6835 6.39388 5.6835V6.0835ZM8.34048 4.0868C8.34048 2.98942 7.47425 2.0901 6.39388 2.0901V2.4901C7.24275 2.4901 7.94048 3.1996 7.94048 4.0868H8.34048ZM6.95794 6.42993L6.42419 6.75033L6.63007 7.09329L7.16381 6.77288L6.95794 6.42993ZM6.43018 7.09674L6.97468 7.39852L7.16859 7.04866L6.62408 6.74688L6.43018 7.09674ZM7.27161 7.22013L7.26085 6.59795L6.8609 6.60486L6.87167 7.22705L7.27161 7.22013ZM6.21081 9.32699C6.20499 9.33481 6.19903 9.34251 6.19294 9.3501L6.50482 9.60056C6.514 9.58913 6.52298 9.57751 6.53175 9.56572L6.21081 9.32699ZM6.21076 9.56566C6.21959 9.57755 6.22865 9.58928 6.23794 9.60084L6.54982 9.35038C6.54369 9.34275 6.53768 9.33497 6.5318 9.32706L6.21076 9.56566ZM11.1706 4.89091L8.9307 4.89082L8.93069 5.29082L11.1706 5.29091L11.1706 4.89091ZM11.9977 7.073C12.1476 6.85653 12.2278 6.59801 12.2278 6.33341H11.8278C11.8278 6.51743 11.772 6.69635 11.6688 6.84524L11.9977 7.073ZM12.2278 6.33341V5.97269H11.8278V6.33341H12.2278ZM12.2278 5.97269C12.2278 5.38061 11.7597 4.89091 11.1706 4.89091V5.29091C11.5282 5.29091 11.8278 5.59078 11.8278 5.97269H12.2278ZM11.1706 4.89091L8.9978 4.89082L8.99778 5.29082L11.1706 5.29091L11.1706 4.89091ZM8.99779 4.89082H8.93069V5.29082H8.99779V4.89082ZM9.46697 8.40794C10.5799 8.31241 11.4419 7.8753 11.9977 7.073L11.6688 6.84524C11.195 7.52935 10.4539 7.92176 9.43276 8.0094L9.46697 8.40794ZM8.97639 4.90957C9.02 4.90778 9.0633 4.90462 9.10623 4.90013L9.06468 4.5023C9.03008 4.50591 8.99515 4.50846 8.95993 4.50991L8.97639 4.90957ZM8.96816 4.50974H8.78197V4.90974H8.96816V4.50974ZM3.8572 4.94042C3.86349 4.94042 3.87192 4.94016 3.88173 4.93905C3.89112 4.93799 3.90523 4.93578 3.92166 4.93054C3.93748 4.9255 3.9625 4.91541 3.98793 4.89475C4.0011 4.88406 4.01465 4.87029 4.02668 4.85288C4.03883 4.83528 4.04834 4.81551 4.05449 4.79416C4.06694 4.75089 4.06254 4.71242 4.05531 4.68574C4.04834 4.66003 4.03771 4.64095 4.03052 4.62966C4.02297 4.6178 4.01552 4.6088 4.01025 4.60288C4.00477 4.59674 3.99974 4.59182 3.99588 4.58823C3.98838 4.58126 3.98161 4.57594 3.97736 4.57271C3.97279 4.56924 3.96863 4.56631 3.96552 4.56417C3.9597 4.56016 3.95359 4.55623 3.95087 4.55446C3.94691 4.55189 3.94614 4.55136 3.94617 4.55139C3.94636 4.55152 3.94782 4.55253 3.95001 4.55423C3.95191 4.5557 3.9566 4.55941 3.96243 4.56499C3.96546 4.56789 3.96969 4.57214 3.97445 4.57767C3.97904 4.58299 3.98569 4.5913 3.99249 4.60238C3.99904 4.61304 4.00843 4.63061 4.01475 4.65413C4.02127 4.67838 4.02543 4.71269 4.01605 4.75177C4.01141 4.77115 4.00387 4.78969 3.99374 4.80678C3.98367 4.82375 3.97191 4.83783 3.9599 4.84926C3.93648 4.87156 3.91252 4.88348 3.89651 4.88981C3.8802 4.89626 3.86621 4.89924 3.8572 4.90073C3.8478 4.90229 3.84005 4.90284 3.8348 4.90306L3.81834 4.5034C3.81149 4.50368 3.80233 4.50437 3.79174 4.50613C3.78153 4.50782 3.76654 4.51106 3.74941 4.51784C3.73258 4.52449 3.708 4.5368 3.68412 4.55953C3.67188 4.57118 3.65993 4.58549 3.64971 4.60271C3.63943 4.62004 3.63179 4.63884 3.62708 4.6585C3.61758 4.69812 3.62176 4.73302 3.62845 4.75792C3.63494 4.78208 3.64465 4.80034 3.65165 4.81173C3.6589 4.82354 3.66613 4.83262 3.67142 4.83876C3.67688 4.8451 3.68193 4.85021 3.68588 4.85399C3.69356 4.86133 3.70052 4.86694 3.70501 4.87042C3.70979 4.87412 3.71414 4.87723 3.71744 4.87954C3.7237 4.8839 3.72999 4.88797 3.73309 4.88998C3.73506 4.89126 3.73627 4.89204 3.73741 4.89279C3.7385 4.89351 3.73885 4.89375 3.73876 4.89369C3.73875 4.89368 3.73749 4.89282 3.73549 4.8913C3.73381 4.89002 3.7293 4.88655 3.72362 4.88128C3.72068 4.87854 3.71646 4.87444 3.71168 4.86907C3.70709 4.86393 3.70021 4.85566 3.69311 4.84449C3.68635 4.83389 3.67603 4.81546 3.66923 4.79035C3.66216 4.76426 3.65777 4.72634 3.67008 4.68356C3.67615 4.66246 3.68556 4.64292 3.69756 4.62555C3.70943 4.60836 3.72279 4.59479 3.73572 4.58429C3.76068 4.56402 3.78506 4.55426 3.80005 4.54948C3.81564 4.5445 3.82874 4.54249 3.83692 4.54157C3.84551 4.5406 3.85253 4.54042 3.8572 4.54042V4.94042ZM3.8348 4.90306C3.85157 4.90237 3.86831 4.90148 3.88499 4.90039L3.85886 4.50124C3.8454 4.50212 3.8319 4.50284 3.81834 4.5034L3.8348 4.90306ZM3.82608 4.54042C3.83992 4.54042 3.84847 4.5422 3.84324 4.54136C3.84113 4.54103 3.83685 4.54025 3.82986 4.53882C3.8159 4.53596 3.79817 4.53194 3.77784 4.52728C3.75868 4.52289 3.73678 4.51782 3.71829 4.51388C3.709 4.5119 3.69894 4.50985 3.68941 4.50817C3.68257 4.50697 3.66627 4.50413 3.6486 4.5034L3.63215 4.90306C3.62092 4.9026 3.61443 4.90112 3.61995 4.90209C3.62276 4.90259 3.6276 4.90354 3.6349 4.90509C3.64958 4.90822 3.66763 4.91239 3.68844 4.91716C3.70807 4.92166 3.73032 4.92674 3.7496 4.93069C3.75922 4.93266 3.76988 4.93472 3.78017 4.93636C3.78734 4.93751 3.80575 4.94042 3.82608 4.94042V4.54042ZM3.82657 4.50323H3.64038V4.90323H3.82657V4.50323ZM3.88499 4.90039C3.96128 4.89539 4.0365 4.88622 4.11044 4.8731L4.04051 4.47926C3.981 4.48982 3.9204 4.49721 3.85886 4.50124L3.88499 4.90039ZM8.75563 0.993555C8.75648 0.993503 8.75475 0.993624 8.75201 0.993708C8.75172 0.993717 8.74585 0.993936 8.73835 0.99363C8.73822 0.993624 8.7217 0.99329 8.70185 0.988728C8.69551 0.987161 8.68004 0.982393 8.67102 0.97896C8.65704 0.972609 8.62212 0.950308 8.6028 0.932747C8.57596 0.898025 8.54698 0.804877 8.55138 0.750652C8.5644 0.711505 8.60059 0.657219 8.61816 0.64058C8.62947 0.631762 8.64925 0.619162 8.6573 0.61491C8.6629 0.612218 8.67273 0.608003 8.6769 0.606399C8.68543 0.603225 8.69234 0.601332 8.69549 0.6005C8.70219 0.598729 8.70748 0.597718 8.7092 0.597393C8.7134 0.596599 8.7166 0.596143 8.71719 0.596058C8.71907 0.595787 8.72015 0.595667 8.71945 0.595751C8.71689 0.596055 8.71012 0.596779 8.69862 0.597957C8.67609 0.600262 8.64471 0.603371 8.61079 0.606815C8.57805 0.610138 8.54385 0.613683 8.52003 0.616449C8.50977 0.61764 8.49605 0.619286 8.48547 0.621092C8.48303 0.621509 8.47618 0.622689 8.46806 0.624719C8.46496 0.625495 8.45452 0.628114 8.44188 0.63315C8.4362 0.635411 8.42196 0.641297 8.40562 0.652067C8.39727 0.657575 8.38357 0.667471 8.36935 0.682722C8.35563 0.697451 8.33404 0.725081 8.32275 0.766246C8.31014 0.812254 8.31438 0.86128 8.33475 0.904469C8.35298 0.943117 8.37904 0.966633 8.39514 0.978788C8.42483 1.00121 8.45329 1.00937 8.46022 1.01137C8.47949 1.01695 8.49541 1.01826 8.49821 1.01852C8.5083 1.01944 8.51672 1.01943 8.51913 1.01943V0.619433C8.51989 0.619433 8.52145 0.619439 8.52355 0.619502C8.52533 0.619556 8.5294 0.619702 8.53469 0.620186C8.53691 0.62039 8.55241 0.621639 8.57141 0.627137C8.57822 0.629106 8.60658 0.637216 8.63621 0.659596C8.65227 0.671728 8.67832 0.695221 8.69653 0.733845C8.71689 0.777011 8.72113 0.826011 8.70852 0.871994C8.69725 0.913133 8.67567 0.940737 8.66197 0.95544C8.64778 0.970663 8.63412 0.980532 8.62581 0.986011C8.60956 0.996725 8.59543 1.00255 8.58991 1.00475C8.57759 1.00966 8.56761 1.01214 8.56509 1.01277C8.55815 1.01451 8.55301 1.01535 8.55279 1.01539C8.55109 1.01568 8.55423 1.01517 8.56616 1.01378C8.58672 1.01139 8.6182 1.00812 8.65118 1.00477C8.68298 1.00154 8.71735 0.998129 8.73935 0.995878C8.7501 0.994777 8.76029 0.993713 8.76671 0.992949C8.76826 0.992765 8.77108 0.992423 8.77417 0.991978C8.77537 0.991806 8.77904 0.991275 8.78357 0.990419C8.78545 0.990063 8.79087 0.989024 8.79767 0.987228C8.80086 0.986384 8.80781 0.984479 8.81637 0.981294C8.82055 0.979685 8.83039 0.975464 8.83601 0.972768C8.84407 0.96851 8.86385 0.955905 8.87517 0.947083C8.89274 0.930439 8.92894 0.876149 8.94195 0.836998C8.94636 0.782768 8.91738 0.689616 8.89054 0.654891C8.87121 0.637326 8.83629 0.615022 8.82229 0.608667C8.81327 0.605231 8.79779 0.60046 8.79144 0.59889C8.77153 0.594316 8.75492 0.593973 8.75467 0.593963C8.74692 0.593646 8.74065 0.593868 8.7398 0.593894C8.73594 0.594012 8.73247 0.594223 8.73092 0.594319L8.75563 0.993555ZM2.01209 2.74433C2.01209 1.82161 2.69775 1.0717 3.56216 0.991067L3.525 0.592797C2.44771 0.693293 1.61209 1.62247 1.61209 2.74433H2.01209ZM6.39514 9.27562L6.38088 9.27553L6.37837 9.67552L6.39263 9.67561L6.39514 9.27562ZM6.37837 9.27553L6.36411 9.27562L6.36662 9.67561L6.38088 9.67552L6.37837 9.27553ZM6.54178 9.55204C6.68451 9.35434 6.76854 9.1099 6.76854 8.84638H6.36854C6.36854 9.02391 6.31214 9.18677 6.21747 9.3179L6.54178 9.55204ZM6.76494 7.13516C6.74747 6.90759 6.66729 6.69754 6.54178 6.52369L6.21747 6.75783C6.30077 6.87322 6.35439 7.01312 6.36611 7.16578L6.76494 7.13516ZM6.21747 6.52369C6.09196 6.69754 6.01178 6.90759 5.99431 7.13516L6.39313 7.16578C6.40485 7.01312 6.45848 6.87322 6.54178 6.75783L6.21747 6.52369ZM5.99071 8.84638C5.99071 9.1099 6.07474 9.35434 6.21747 9.55204L6.54178 9.3179C6.44711 9.18677 6.39071 9.02391 6.39071 8.84638H5.99071ZM6.38045 2.09016L6.36619 2.0901L6.36454 2.4901L6.3788 2.49016L6.38045 2.09016ZM6.36619 6.0835L6.38045 6.08344L6.3788 5.68344L6.36455 5.6835L6.36619 6.0835ZM6.3788 6.08344L6.39306 6.0835L6.3947 5.6835L6.38045 5.68344L6.3788 6.08344ZM6.39306 2.0901L6.3788 2.09016L6.38045 2.49016L6.39471 2.4901L6.39306 2.0901ZM6.37798 2.09017C5.30497 2.09899 4.44728 2.9948 4.44728 4.0868H4.84728C4.84728 3.204 5.53816 2.49709 6.38127 2.49015L6.37798 2.09017ZM4.44728 4.0868C4.44728 5.1788 5.30497 6.07461 6.37798 6.08343L6.38127 5.68345C5.53816 5.67652 4.84728 4.9696 4.84728 4.0868H4.44728ZM6.38127 6.08343C7.45428 6.07461 8.31197 5.1788 8.31197 4.0868H7.91197C7.91197 4.9696 7.22108 5.67651 6.37798 5.68345L6.38127 6.08343ZM8.31197 4.0868C8.31197 2.9948 7.45428 2.09899 6.38127 2.09017L6.37798 2.49015C7.22108 2.49709 7.91197 3.20401 7.91197 4.0868H8.31197ZM6.37798 6.08343C6.38328 6.08348 6.38858 6.0835 6.39388 6.0835V5.6835C6.38967 5.6835 6.38547 5.68348 6.38127 5.68345L6.37798 6.08343ZM6.36537 2.4901C6.36957 2.4901 6.37378 2.49012 6.37798 2.49015L6.38127 2.09017C6.37598 2.09012 6.37068 2.0901 6.36537 2.0901V2.4901ZM6.21089 6.74885C6.21309 6.75182 6.21529 6.75481 6.21747 6.75783L6.54178 6.52369C6.53852 6.51917 6.53521 6.51466 6.53187 6.51017L6.21089 6.74885ZM6.37798 5.68345C6.37378 5.68348 6.36958 5.6835 6.36537 5.6835V6.0835C6.37067 6.0835 6.37597 6.08348 6.38127 6.08343L6.37798 5.68345ZM6.22738 6.51017C6.22405 6.51465 6.22074 6.51915 6.21747 6.52369L6.54178 6.75783C6.54395 6.75483 6.54614 6.75184 6.54836 6.74885L6.22738 6.51017ZM6.21747 9.3179C6.21528 9.32094 6.21306 9.32397 6.21081 9.32699L6.53175 9.56573C6.53512 9.5612 6.53846 9.55664 6.54178 9.55204L6.21747 9.3179ZM6.34763 9.67533L6.37837 9.67552L6.38088 9.27553L6.35013 9.27534L6.34763 9.67533ZM6.39388 2.0901C6.38857 2.0901 6.38327 2.09012 6.37798 2.09017L6.38127 2.49015C6.38547 2.49012 6.38968 2.4901 6.39388 2.4901V2.0901ZM6.21747 9.55204C6.22078 9.55662 6.22412 9.56118 6.2275 9.56573L6.54844 9.32699C6.54621 9.32398 6.54399 9.32095 6.54178 9.3179L6.21747 9.55204ZM6.40912 9.27534L6.37837 9.27553L6.38088 9.67552L6.41162 9.67533L6.40912 9.27534ZM6.21005 6.74772L6.21829 6.75897L6.54096 6.52256L6.53271 6.51131L6.21005 6.74772ZM6.21831 9.31674L6.20996 9.32813L6.53259 9.56458L6.54094 9.5532L6.21831 9.31674ZM6.34546 9.6753L6.36195 9.67558L6.36879 9.27564L6.3523 9.27536L6.34546 9.6753ZM6.3973 9.67558L6.41379 9.6753L6.40695 9.27536L6.39046 9.27564L6.3973 9.67558ZM6.54929 9.32814L6.54095 9.31675L6.2183 9.55319L6.22665 9.56458L6.54929 9.32814ZM6.54095 6.75897L6.54919 6.74772L6.22654 6.5113L6.2183 6.52255L6.54095 6.75897ZM9.11728 4.89799C10.2063 4.80941 11.0546 3.87462 11.0546 2.74433H10.6546C10.6546 3.67406 9.95853 4.42824 9.08485 4.49931L9.11728 4.89799ZM9.12588 0.591952L9.09988 0.591587L9.09428 0.991548L9.12028 0.991912L9.12588 0.591952ZM9.0896 0.591708C9.06598 0.592591 9.04076 0.595014 9.01797 0.597598L9.06303 0.995051C9.0822 0.992879 9.09584 0.991754 9.10456 0.991428L9.0896 0.591708ZM9.26773 4.46861L9.06866 4.5013L9.13347 4.89601L9.33254 4.86332L9.26773 4.46861ZM8.81149 0.587548L8.8042 0.587445L8.79859 0.987406L8.80589 0.987508L8.81149 0.587548ZM8.78904 0.587808C8.74382 0.590606 8.69896 0.594872 8.65452 0.60056L8.7053 0.997323C8.7411 0.992741 8.77726 0.989302 8.81375 0.987044L8.78904 0.587808ZM9.11786 4.89857L9.13347 4.89601L9.06866 4.5013L9.05305 4.50386L9.11786 4.89857ZM9.08485 4.49931C9.06271 4.50111 9.04044 4.50248 9.01806 4.5034L9.03451 4.90306C9.06223 4.90192 9.08983 4.90023 9.11728 4.89799L9.08485 4.49931ZM8.5633 1.01912C8.58822 1.01808 8.66526 1.01254 8.74115 1.0071L8.71258 0.608123C8.63141 0.613935 8.5637 0.618757 8.54654 0.619476L8.5633 1.01912ZM8.74115 1.0071C8.76732 1.00523 8.79408 1.00331 8.81982 1.00149L8.79161 0.602487C8.76565 0.604323 8.73872 0.606251 8.71258 0.608123L8.74115 1.0071ZM8.81983 1.00149C8.89345 0.996284 8.95153 0.992403 8.96788 0.991909L8.95578 0.592092C8.92909 0.592899 8.86003 0.597649 8.79161 0.602487L8.81983 1.00149ZM8.96006 0.592008L8.81093 0.59333L8.81447 0.993314L8.9636 0.991992L8.96006 0.592008ZM8.9904 0.885092C8.99816 0.870073 9.0407 0.784447 8.98664 0.69013C8.93663 0.602865 8.84949 0.591243 8.83576 0.589368L8.78162 0.985688C8.77285 0.98449 8.68847 0.974299 8.6396 0.889029C8.58669 0.796707 8.62876 0.71364 8.635 0.701552L8.9904 0.885092ZM8.69905 0.998024C8.71782 0.996219 8.73668 0.994728 8.75563 0.993555L8.73092 0.594319C8.70744 0.595773 8.68405 0.597621 8.66077 0.59986L8.69905 0.998024ZM8.5938 1.01548C8.63055 1.0082 8.66773 1.00213 8.7053 0.997323L8.65452 0.60056C8.60788 0.60653 8.5617 0.614066 8.51603 0.623117L8.5938 1.01548ZM8.81375 0.987044C8.81127 0.987197 8.80739 0.987365 8.80246 0.987289C8.79766 0.987215 8.79046 0.986894 8.78162 0.985688L8.83576 0.589368C8.81577 0.586638 8.79887 0.587199 8.78904 0.587808L8.81375 0.987044ZM8.635 0.70154C8.64035 0.691186 8.64555 0.683494 8.64871 0.679066C8.65203 0.674419 8.65482 0.67099 8.65635 0.669156C8.65892 0.666089 8.66102 0.663887 8.65888 0.666201L8.95256 0.937777C8.9533 0.936974 8.95824 0.93169 8.96325 0.925695C8.96721 0.920966 8.97952 0.906158 8.9904 0.885104L8.635 0.70154ZM9.05645 0.596962C9.02989 0.594836 9.0032 0.593217 8.97639 0.592113L8.95993 0.991775C8.98159 0.992666 9.00313 0.993973 9.02455 0.995687L9.05645 0.596962ZM9.14166 0.592797C9.1223 0.590991 9.10384 0.591175 9.0896 0.591708L9.10456 0.991428L9.1045 0.991067L9.14166 0.592797ZM8.96639 0.591952L8.96006 0.592008L8.9636 0.991992L8.96993 0.991936L8.96639 0.591952ZM8.81093 0.59333L8.7415 0.593945L8.74505 0.99393L8.81447 0.993314L8.81093 0.59333ZM9.10623 4.90013C9.11299 4.89943 9.11869 4.89855 9.12269 4.89787C9.1265 4.89723 9.12988 4.89658 9.13101 4.89636C9.13282 4.89601 9.13218 4.89614 9.13132 4.89629C9.13021 4.89648 9.12739 4.89695 9.12353 4.89739L9.0786 4.49992C9.07213 4.50065 9.06671 4.50152 9.06299 4.50217C9.05954 4.50276 9.05631 4.50339 9.05552 4.50354C9.05406 4.50383 9.05484 4.50367 9.05605 4.50346C9.05745 4.50323 9.06054 4.50273 9.06468 4.5023L9.10623 4.90013ZM9.12353 4.89739C9.19645 4.88914 9.27032 4.87769 9.34408 4.86108L9.25619 4.47085C9.19967 4.48358 9.14058 4.49291 9.0786 4.49992L9.12353 4.89739ZM8.97639 0.592113C8.96725 0.591737 8.95877 0.592001 8.95578 0.592092L8.96788 0.991909C8.96844 0.991892 8.96821 0.991904 8.96743 0.991911C8.96706 0.991914 8.96413 0.991948 8.95993 0.991775L8.97639 0.592113ZM8.54654 0.619476C8.54612 0.619494 8.54615 0.61949 8.54653 0.619479C8.54674 0.619473 8.54815 0.619433 8.55025 0.619433V1.01943C8.5557 1.01943 8.56076 1.01923 8.5633 1.01912L8.54654 0.619476ZM8.80589 0.987508L9.09428 0.991548L9.09988 0.591587L8.81149 0.587548L8.80589 0.987508ZM3.58181 4.49931C2.70813 4.42824 2.01209 3.67406 2.01209 2.74433H1.61209C1.61209 3.87462 2.46038 4.80941 3.54938 4.89799L3.58181 4.49931ZM3.85291 0.987044C3.8894 0.989302 3.92556 0.992741 3.96136 0.997323L4.01214 0.60056C3.9677 0.594872 3.92284 0.590606 3.87762 0.587808L3.85291 0.987044ZM3.61361 4.50386L3.598 4.5013L3.53319 4.89601L3.5488 4.89857L3.61361 4.50386ZM3.54938 4.89799C3.57683 4.90023 3.60443 4.90192 3.63215 4.90306L3.6486 4.5034C3.62622 4.50248 3.60395 4.50111 3.58181 4.49931L3.54938 4.89799ZM3.33412 4.86332L3.53319 4.89601L3.598 4.5013L3.39893 4.46861L3.33412 4.86332ZM3.60198 4.5023C3.60612 4.50273 3.60921 4.50323 3.61061 4.50346C3.61182 4.50367 3.6126 4.50382 3.61114 4.50354C3.61035 4.50339 3.60712 4.50276 3.60367 4.50217C3.59995 4.50152 3.59452 4.50065 3.58806 4.49992L3.54313 4.89739C3.53927 4.89695 3.53645 4.89648 3.53534 4.89629C3.53448 4.89614 3.53384 4.89601 3.53565 4.89636C3.53679 4.89658 3.54016 4.89723 3.54397 4.89787C3.54797 4.89855 3.55367 4.89943 3.56043 4.90013L3.60198 4.5023ZM3.58806 4.49992C3.52608 4.49291 3.46699 4.48358 3.41047 4.47085L3.32258 4.86108C3.39634 4.87769 3.47021 4.88914 3.54313 4.89739L3.58806 4.49992ZM8.79149 0.602495L8.71264 0.608119L8.74109 1.00711L8.81994 1.00148L8.79149 0.602495ZM9.05481 8.50727L9.49575 8.40334L9.40398 8.014L8.96304 8.11794L9.05481 8.50727ZM3.17855 8.40498L3.71208 8.50891L3.78856 8.1163L3.25504 8.01236L3.17855 8.40498ZM3.73596 5.29082L4.07334 5.29083L4.07336 4.89083L3.73597 4.89082L3.73596 5.29082ZM4.27335 5.09186L4.27547 4.6772L3.87548 4.67515L3.87336 5.08981L4.27335 5.09186ZM8.93069 4.89082L8.5933 4.89083L8.59332 5.29083L8.9307 5.29082L8.93069 4.89082ZM8.7933 5.08981L8.79118 4.67515L8.39119 4.6772L8.39331 5.09186L8.7933 5.08981ZM3.86246 0.587445L3.70162 0.589698L3.70722 0.989659L3.86807 0.987406L3.86246 0.587445ZM3.70162 0.589698L3.54078 0.591952L3.54638 0.991912L3.70722 0.989659L3.70162 0.589698ZM3.96761 0.998024C4.53084 1.05218 5.01728 1.38982 5.28758 1.87559L5.63712 1.6811C5.30668 1.08726 4.70768 0.667334 4.00589 0.59986L3.96761 0.998024ZM8.66077 0.59986C7.95898 0.667334 7.35998 1.08726 7.02954 1.6811L7.37908 1.87559C7.64938 1.38982 8.13582 1.05218 8.69905 0.998024L8.66077 0.59986Z" fill="black"/>
</svg>
