<svg width="22" height="18" viewBox="0 0 22 18" fill="none" xmlns="http://www.w3.org/2000/svg">
<path d="M14.9394 14.4394H11.3527L12.545 17.4697L14.9394 14.4394Z" fill="#1B291F"/>
<path d="M10.6473 3.5303L9.45504 0.5H4.0303C2.35671 0.5 1 1.85671 1 3.5303V11.4091C1 13.0827 2.35671 14.4394 4.0303 14.4394H11.3527M10.6473 3.5303L14.9394 14.4394M10.6473 3.5303H17.9697C19.6433 3.5303 21 4.88702 21 6.56061V14.4394C21 16.113 19.6433 17.4697 17.9697 17.4697H12.545M14.9394 14.4394H11.3527M14.9394 14.4394L12.545 17.4697M11.3527 14.4394L12.545 17.4697" stroke="black" stroke-width="0.5"/>
<path fill-rule="evenodd" clip-rule="evenodd" d="M8.08369 5.12874C7.41727 4.93323 6.81598 4.99159 6.38616 5.09598C6.17079 5.14829 5.9954 5.21283 5.87178 5.26542C5.80982 5.29177 5.76042 5.3153 5.72502 5.33309C5.7073 5.342 5.69305 5.34949 5.68244 5.35521L5.66925 5.36241L5.66474 5.36494L5.66301 5.36592L5.66163 5.3667C5.45002 5.48786 5.3767 5.75763 5.49787 5.96924C5.61864 6.18017 5.88705 6.2537 6.09836 6.13418L6.1011 6.13268C6.10471 6.13074 6.11159 6.12709 6.12161 6.12206C6.14166 6.11199 6.17403 6.09644 6.21737 6.07802C6.30434 6.04103 6.43363 5.99316 6.59457 5.95407C6.91738 5.87567 7.35528 5.8353 7.83509 5.97607C8.19274 6.081 8.345 6.27682 8.42875 6.51421C8.49791 6.71025 8.51999 6.93491 8.52696 7.18082C8.35746 7.14852 8.15875 7.11649 7.94461 7.09335C7.33627 7.02761 6.48272 7.01843 5.85732 7.4016C4.56801 8.19153 4.75614 10.2084 6.25842 10.6699C6.93088 10.8764 7.58322 10.7175 8.08708 10.5049C8.24363 10.4389 8.39299 10.3642 8.53013 10.2893V10.603C8.53013 10.8469 8.72781 11.0446 8.97165 11.0446C9.21549 11.0446 9.41317 10.8464 9.41317 10.6026L9.41318 7.46075C9.41328 7.12505 9.41344 6.65117 9.26148 6.22042C9.09217 5.74049 8.7383 5.32079 8.08369 5.12874ZM8.53013 9.26017V8.08254C8.35075 8.04368 8.11214 7.99964 7.84974 7.97127C7.26115 7.90767 6.67285 7.93754 6.31864 8.15456C5.64871 8.56501 5.77473 9.59753 6.51773 9.8258C6.90779 9.94563 7.33008 9.86589 7.74379 9.69134C8.05235 9.56114 8.31522 9.39756 8.53013 9.26017Z" fill="#1B291F"/>
<path fill-rule="evenodd" clip-rule="evenodd" d="M15.2763 7.4616C15.3125 7.29327 15.2053 7.12748 15.037 7.09131C14.8687 7.05513 14.7029 7.16226 14.6667 7.3306C14.6225 7.53628 14.584 7.73493 14.5509 7.92668C14.2753 7.9372 14.0036 7.9342 13.7457 7.91656C13.574 7.90482 13.4252 8.03454 13.4135 8.20632C13.4017 8.37809 13.5314 8.52686 13.7032 8.53861C13.9465 8.55525 14.2001 8.55993 14.4573 8.55344C14.4262 8.80441 14.4045 9.04172 14.3909 9.26576C13.9805 9.45763 13.6697 9.70807 13.454 9.98519L13.7547 10.7152C13.7691 10.6731 13.787 10.6296 13.8091 10.5849C13.9074 10.3859 14.0869 10.1709 14.3738 9.98519C14.3813 10.4534 14.4262 10.847 14.4886 11.1716C14.352 11.2563 14.2221 11.3097 14.1105 11.3346C14.0674 11.3442 14.0301 11.3492 13.9978 11.3508L14.2203 11.9487C14.2291 11.9469 14.2378 11.9451 14.2464 11.9431C14.3801 11.9133 14.5167 11.8629 14.6522 11.7943C14.6613 11.8204 14.6704 11.8455 14.6794 11.8697C14.7396 12.0311 14.9192 12.113 15.0805 12.0528C15.2418 11.9926 15.3237 11.8131 15.2636 11.6518C15.2386 11.5849 15.2129 11.508 15.1878 11.4206C15.6342 11.0152 16.0222 10.3965 16.1625 9.60309C16.2271 9.61927 16.2863 9.63948 16.3403 9.66283C16.6149 9.78155 16.7802 9.99114 16.8445 10.2333C16.9725 10.7161 16.704 11.4319 15.7948 11.7815C15.6341 11.8433 15.5539 12.0237 15.6157 12.1844C15.6775 12.3451 15.8578 12.4253 16.0186 12.3635C17.1621 11.9237 17.673 10.9249 17.4471 10.0734C17.3343 9.64829 17.0393 9.28572 16.5877 9.09052C16.4728 9.04084 16.3495 9.00268 16.2183 8.97674L16.2184 8.95501C16.2184 8.78283 16.0789 8.64326 15.9066 8.64326C15.7383 8.64326 15.6011 8.7767 15.5951 8.94358C15.417 8.95675 15.2293 8.98792 15.0328 9.03821C15.0473 8.87187 15.0664 8.69777 15.0909 8.51572C15.5036 8.47719 15.9121 8.41195 16.2898 8.32324C16.4574 8.28387 16.5613 8.11607 16.522 7.94846C16.4826 7.78085 16.3148 7.67689 16.1472 7.71627C15.8457 7.7871 15.522 7.84183 15.1929 7.87854C15.2179 7.74331 15.2456 7.60435 15.2763 7.4616ZM15.5329 9.57595C15.442 10.0159 15.2596 10.3806 15.0412 10.663C15.0091 10.388 14.991 10.067 14.9976 9.69697C15.0223 9.68904 15.0474 9.68131 15.073 9.67378C15.2391 9.62478 15.3923 9.59318 15.5329 9.57595Z" fill="#1B291F"/>
</svg>
