<svg width="13" height="11" viewBox="0 0 13 11" fill="none" xmlns="http://www.w3.org/2000/svg">
<path d="M7.97561 1.1704V6.53625M7.97561 1.1704C7.97561 0.874051 8.21585 0.633813 8.51219 0.633813H11.4634C11.7598 0.633813 12 0.874051 12 1.1704V6.53625C12 6.8326 11.7598 7.07284 11.4634 7.07284H8.51219C8.21585 7.07284 7.97561 6.8326 7.97561 6.53625M7.97561 1.1704V1.43869M7.97561 6.53625V6.26796M7.97561 6.26796L7.43902 6.53625L7.03659 6.93869L6.76829 7.34113L6.23171 8.4143L6.09756 9.08503V10.0241L5.96341 10.1582H5.56098L5.15854 10.0241L4.89024 9.75576L4.62195 9.35333L4.4878 8.81674V8.28015L4.62195 7.34113L4.72256 6.93869M7.97561 6.26796V1.43869M5.82927 5.46308H1.53658M5.82927 5.46308C6.12562 5.46308 6.36585 5.70332 6.36585 5.99967V6.40211C6.36585 6.69845 6.12562 6.93869 5.82927 6.93869H4.72256M5.82927 5.46308C6.12562 5.46308 6.36585 5.22284 6.36585 4.9265V4.52406C6.36585 4.22771 6.12562 3.98747 5.82927 3.98747M1.53658 5.46308C1.24024 5.46308 1 5.70332 1 5.99967V6.40211C1 6.69845 1.24024 6.93869 1.53658 6.93869H4.72256M1.53658 5.46308C1.24024 5.46308 1 5.22284 1 4.9265V4.52406C1 4.22771 1.24024 3.98747 1.53658 3.98747M5.82927 3.98747H1.53658M5.82927 3.98747C6.12562 3.98747 6.36585 3.74723 6.36585 3.45089V3.04845C6.36585 2.7521 6.12562 2.51186 5.82927 2.51186M1.53658 3.98747C1.24024 3.98747 1 3.74723 1 3.45089V3.04845C1 2.7521 1.24024 2.51186 1.53658 2.51186M5.82927 2.51186H1.53658M5.82927 2.51186H2.20732M5.82927 2.51186H6.5M1.53658 2.51186H2.20732M6.5 1.03625H2.20732C1.91097 1.03625 1.67073 1.27649 1.67073 1.57284V1.97528C1.67073 2.27162 1.91097 2.51186 2.20732 2.51186M6.5 1.03625C6.79635 1.03625 7.03659 1.27649 7.03659 1.57284V1.97528C7.03659 2.27162 6.79635 2.51186 6.5 2.51186M6.5 1.03625H6.63415H7.17073L7.57317 1.1704L7.97561 1.43869M2.20732 2.51186H6.5" stroke="black" stroke-width="0.3"/>
</svg>
