<svg width="12" height="12" viewBox="0 0 12 12" fill="none" xmlns="http://www.w3.org/2000/svg">
<path d="M10.976 9.48749V11.4305C10.976 11.7208 10.6513 11.8865 10.4238 11.7123L9.45748 10.9725C9.33475 10.8786 9.16606 10.8786 9.04334 10.9725L8.07701 11.7123C7.84951 11.8865 7.52482 11.7208 7.52482 11.4305V9.48749C8.01834 9.82476 8.61187 10.0214 9.25041 10.0214C9.88894 10.0214 10.4825 9.82476 10.976 9.48749ZM9.94064 0.862305C10.6684 0.862305 11.2646 1.43713 11.3173 2.16623L11.3211 2.2714V4.48778C11.1555 4.33651 10.974 4.2031 10.7793 4.09052L10.6309 4.01005V2.2714C10.6309 1.91008 10.3644 1.61229 10.0211 1.57159L9.94064 1.56685H1.65782C1.30384 1.56685 1.0121 1.83884 0.972223 2.18923L0.967579 2.2714V7.90776C0.967579 8.26909 1.23404 8.56687 1.57732 8.60757L1.65782 8.61231H6.66741L6.74848 8.73011L6.83458 8.84389V9.31685H1.65782C0.930057 9.31685 0.333829 8.74205 0.28113 8.01292L0.277344 7.90776V2.2714C0.277344 1.52855 0.840491 0.919961 1.55479 0.86617L1.65782 0.862305H9.94064ZM9.25041 4.38503C10.5846 4.38503 11.6662 5.48906 11.6662 6.85094C11.6662 8.21283 10.5846 9.31685 9.25041 9.31685C7.91618 9.31685 6.83458 8.21283 6.83458 6.85094C6.83458 5.48906 7.91618 4.38503 9.25041 4.38503ZM5.45411 6.49867C5.64471 6.49867 5.79923 6.65642 5.79923 6.85094C5.79923 7.02385 5.67714 7.16771 5.51615 7.19754L5.45411 7.20321H2.69317C2.50257 7.20321 2.34805 7.04547 2.34805 6.85094C2.34805 6.67803 2.47014 6.53418 2.63113 6.50434L2.69317 6.49867H5.45411ZM8.90529 2.97594C9.09586 2.97594 9.25041 3.13366 9.25041 3.32821C9.25041 3.52277 9.09586 3.68049 8.90529 3.68049H2.69317C2.50257 3.68049 2.34805 3.52277 2.34805 3.32821C2.34805 3.13366 2.50257 2.97594 2.69317 2.97594H8.90529Z" fill="#007830"/>
</svg>
