<svg width="73" height="9" viewBox="0 0 73 9" fill="none" xmlns="http://www.w3.org/2000/svg">
<path d="M0.135906 8L1.51591 0.908H3.12391L4.47991 8H3.20791L2.91991 6.56H1.62391L1.35991 8H0.135906ZM1.64791 5.972H2.90791L2.28391 2.024L1.64791 5.972ZM6.32537 8V2.06H7.27337L7.38137 2.732C7.45337 2.492 7.59737 2.3 7.81337 2.156C8.03737 2.012 8.27737 1.94 8.53337 1.94C8.92538 1.94 9.21738 2.012 9.40937 2.156C9.60938 2.292 9.74137 2.48 9.80537 2.72C9.86937 2.952 9.90138 3.22 9.90138 3.524V8H8.77337V3.608C8.77337 3.496 8.76937 3.392 8.76137 3.296C8.75337 3.192 8.72937 3.1 8.68937 3.02C8.64937 2.94 8.58537 2.876 8.49737 2.828C8.40937 2.78 8.28137 2.756 8.11337 2.756C7.97737 2.756 7.86137 2.78 7.76537 2.828C7.67737 2.876 7.60937 2.936 7.56137 3.008C7.51337 3.072 7.47737 3.136 7.45337 3.2V8H6.32537ZM12.0488 8V2.06H12.9968L13.1048 2.732C13.1768 2.492 13.3208 2.3 13.5368 2.156C13.7608 2.012 14.0008 1.94 14.2568 1.94C14.6488 1.94 14.9408 2.012 15.1328 2.156C15.3328 2.292 15.4648 2.48 15.5288 2.72C15.5928 2.952 15.6248 3.22 15.6248 3.524V8H14.4968V3.608C14.4968 3.496 14.4928 3.392 14.4848 3.296C14.4768 3.192 14.4528 3.1 14.4128 3.02C14.3728 2.94 14.3088 2.876 14.2208 2.828C14.1328 2.78 14.0048 2.756 13.8368 2.756C13.7008 2.756 13.5848 2.78 13.4888 2.828C13.4008 2.876 13.3328 2.936 13.2848 3.008C13.2368 3.072 13.2008 3.136 13.1768 3.2V8H12.0488ZM19.4523 8.096C19.0603 8.096 18.7283 8.048 18.4563 7.952C18.1923 7.848 17.9923 7.66 17.8563 7.388C17.7283 7.116 17.6643 6.724 17.6643 6.212V3.596C17.6643 2.996 17.8083 2.572 18.0963 2.324C18.3843 2.076 18.8363 1.952 19.4523 1.952C20.0603 1.952 20.5083 2.076 20.7963 2.324C21.0843 2.564 21.2283 2.988 21.2283 3.596V6.212C21.2283 6.724 21.1603 7.116 21.0243 7.388C20.8963 7.66 20.7003 7.848 20.4363 7.952C20.1723 8.048 19.8443 8.096 19.4523 8.096ZM19.4523 7.412C19.6843 7.412 19.8483 7.352 19.9443 7.232C20.0483 7.104 20.1003 6.88 20.1003 6.56V3.5C20.1003 3.188 20.0523 2.968 19.9563 2.84C19.8603 2.712 19.6923 2.648 19.4523 2.648C19.2203 2.648 19.0523 2.712 18.9483 2.84C18.8443 2.96 18.7923 3.18 18.7923 3.5V6.56C18.7923 6.88 18.8443 7.104 18.9483 7.232C19.0523 7.352 19.2203 7.412 19.4523 7.412ZM24.6633 8.084C24.2633 8.084 23.9633 8.016 23.7633 7.88C23.5713 7.744 23.4433 7.56 23.3793 7.328C23.3233 7.088 23.2953 6.816 23.2953 6.512V2.06H24.4233V6.428C24.4233 6.572 24.4313 6.708 24.4473 6.836C24.4713 6.964 24.5273 7.072 24.6153 7.16C24.7113 7.24 24.8633 7.28 25.0713 7.28C25.2233 7.28 25.3433 7.256 25.4313 7.208C25.5193 7.16 25.5873 7.104 25.6353 7.04C25.6833 6.968 25.7153 6.9 25.7313 6.836V2.06H26.8593V8H25.8993L25.8153 7.316C25.7433 7.524 25.6073 7.704 25.4073 7.856C25.2153 8.008 24.9673 8.084 24.6633 8.084ZM29.1019 8V2.06H30.0499L30.1579 2.732C30.2299 2.492 30.3739 2.3 30.5899 2.156C30.8139 2.012 31.0539 1.94 31.3099 1.94C31.7019 1.94 31.9939 2.012 32.1859 2.156C32.3859 2.292 32.5179 2.48 32.5819 2.72C32.6459 2.952 32.6779 3.22 32.6779 3.524V8H31.5499V3.608C31.5499 3.496 31.5459 3.392 31.5379 3.296C31.5299 3.192 31.5059 3.1 31.4659 3.02C31.4259 2.94 31.3619 2.876 31.2739 2.828C31.1859 2.78 31.0579 2.756 30.8899 2.756C30.7539 2.756 30.6379 2.78 30.5419 2.828C30.4539 2.876 30.3859 2.936 30.3379 3.008C30.2899 3.072 30.2539 3.136 30.2299 3.2V8H29.1019ZM36.5294 8.096C36.1214 8.096 35.7814 8.052 35.5094 7.964C35.2454 7.876 35.0454 7.7 34.9094 7.436C34.7814 7.172 34.7174 6.78 34.7174 6.26V3.524C34.7174 2.924 34.8614 2.512 35.1494 2.288C35.4374 2.064 35.8854 1.952 36.4934 1.952C37.1014 1.952 37.5494 2.06 37.8374 2.276C38.1254 2.492 38.2694 2.884 38.2694 3.452V4.28H37.1414V3.404C37.1414 3.124 37.0974 2.924 37.0094 2.804C36.9214 2.684 36.7494 2.624 36.4934 2.624C36.2454 2.624 36.0734 2.684 35.9774 2.804C35.8894 2.924 35.8454 3.124 35.8454 3.404V6.608C35.8454 6.904 35.8894 7.112 35.9774 7.232C36.0734 7.352 36.2534 7.412 36.5174 7.412C36.7574 7.412 36.9214 7.356 37.0094 7.244C37.0974 7.124 37.1414 6.912 37.1414 6.608V5.672H38.2694V6.26C38.2694 6.772 38.2014 7.164 38.0654 7.436C37.9374 7.7 37.7414 7.876 37.4774 7.964C37.2214 8.052 36.9054 8.096 36.5294 8.096ZM42.0302 8.096C41.6222 8.096 41.2822 8.052 41.0102 7.964C40.7462 7.868 40.5462 7.688 40.4102 7.424C40.2822 7.16 40.2182 6.764 40.2182 6.236V3.452C40.2182 2.876 40.3622 2.484 40.6502 2.276C40.9382 2.06 41.3862 1.952 41.9942 1.952C42.6022 1.952 43.0502 2.06 43.3382 2.276C43.6262 2.484 43.7702 2.876 43.7702 3.452V5.036H41.3462V6.68C41.3462 6.976 41.3902 7.184 41.4782 7.304C41.5742 7.424 41.7542 7.484 42.0182 7.484C42.2582 7.484 42.4222 7.428 42.5102 7.316C42.5982 7.196 42.6422 6.984 42.6422 6.68V5.804H43.7702V6.224C43.7702 6.744 43.7022 7.14 43.5662 7.412C43.4382 7.684 43.2462 7.868 42.9902 7.964C42.7342 8.052 42.4142 8.096 42.0302 8.096ZM41.3462 4.508H42.6422V3.404C42.6422 3.132 42.5982 2.936 42.5102 2.816C42.4222 2.696 42.2502 2.636 41.9942 2.636C41.7462 2.636 41.5742 2.696 41.4782 2.816C41.3902 2.936 41.3462 3.132 41.3462 3.404V4.508ZM45.8269 8V2.06H46.7869L46.8829 2.744C46.9709 2.512 47.1149 2.324 47.3149 2.18C47.5229 2.028 47.7669 1.952 48.0469 1.952C48.5029 1.952 48.8269 2.048 49.0189 2.24C49.2109 2.432 49.3149 2.712 49.3309 3.08H49.1869C49.2429 2.76 49.3829 2.492 49.6069 2.276C49.8389 2.06 50.1229 1.952 50.4589 1.952C50.9709 1.952 51.3149 2.076 51.4909 2.324C51.6749 2.564 51.7669 2.928 51.7669 3.416V8H50.6389V3.536C50.6389 3.248 50.5909 3.048 50.4949 2.936C50.4069 2.824 50.2589 2.768 50.0509 2.768C49.8669 2.768 49.7109 2.82 49.5829 2.924C49.4549 3.02 49.3789 3.148 49.3549 3.308V8H48.2269V3.476C48.2269 3.22 48.1829 3.04 48.0949 2.936C48.0149 2.824 47.8629 2.768 47.6389 2.768C47.4549 2.768 47.3069 2.812 47.1949 2.9C47.0909 2.98 47.0109 3.08 46.9549 3.2V8H45.8269ZM55.6098 8.096C55.2018 8.096 54.8618 8.052 54.5898 7.964C54.3258 7.868 54.1258 7.688 53.9898 7.424C53.8618 7.16 53.7978 6.764 53.7978 6.236V3.452C53.7978 2.876 53.9418 2.484 54.2298 2.276C54.5178 2.06 54.9658 1.952 55.5738 1.952C56.1818 1.952 56.6298 2.06 56.9178 2.276C57.2058 2.484 57.3498 2.876 57.3498 3.452V5.036H54.9258V6.68C54.9258 6.976 54.9698 7.184 55.0578 7.304C55.1538 7.424 55.3338 7.484 55.5978 7.484C55.8378 7.484 56.0018 7.428 56.0898 7.316C56.1778 7.196 56.2218 6.984 56.2218 6.68V5.804H57.3498V6.224C57.3498 6.744 57.2818 7.14 57.1458 7.412C57.0178 7.684 56.8258 7.868 56.5698 7.964C56.3138 8.052 55.9938 8.096 55.6098 8.096ZM54.9258 4.508H56.2218V3.404C56.2218 3.132 56.1778 2.936 56.0898 2.816C56.0018 2.696 55.8298 2.636 55.5738 2.636C55.3258 2.636 55.1538 2.696 55.0578 2.816C54.9698 2.936 54.9258 3.132 54.9258 3.404V4.508ZM59.4066 8V2.06H60.3546L60.4626 2.732C60.5346 2.492 60.6786 2.3 60.8946 2.156C61.1186 2.012 61.3586 1.94 61.6146 1.94C62.0066 1.94 62.2986 2.012 62.4906 2.156C62.6906 2.292 62.8226 2.48 62.8866 2.72C62.9506 2.952 62.9826 3.22 62.9826 3.524V8H61.8546V3.608C61.8546 3.496 61.8506 3.392 61.8426 3.296C61.8346 3.192 61.8106 3.1 61.7706 3.02C61.7306 2.94 61.6666 2.876 61.5786 2.828C61.4906 2.78 61.3626 2.756 61.1946 2.756C61.0586 2.756 60.9426 2.78 60.8466 2.828C60.7586 2.876 60.6906 2.936 60.6426 3.008C60.5946 3.072 60.5586 3.136 60.5346 3.2V8H59.4066ZM66.7021 8.036C66.5261 8.036 66.3541 8.016 66.1861 7.976C66.0181 7.936 65.8701 7.872 65.7421 7.784C65.6141 7.688 65.5101 7.56 65.4301 7.4C65.3581 7.232 65.3221 7.02 65.3221 6.764V2.744H64.7701V2.168L65.4181 2.06L65.5861 0.956H66.4501V2.06H67.6381V2.744H66.4501V6.572C66.4501 6.756 66.4861 6.92 66.5581 7.064C66.6301 7.2 66.7861 7.268 67.0261 7.268C67.1301 7.268 67.2461 7.264 67.3741 7.256C67.5101 7.24 67.5981 7.232 67.6381 7.232V7.916C67.5981 7.924 67.4861 7.948 67.3021 7.988C67.1181 8.02 66.9181 8.036 66.7021 8.036ZM71.1144 8.084C70.6424 8.084 70.2744 8.028 70.0104 7.916C69.7464 7.796 69.5624 7.608 69.4584 7.352C69.3544 7.096 69.3024 6.772 69.3024 6.38V5.888H70.4424V6.632C70.4424 6.936 70.4864 7.152 70.5744 7.28C70.6704 7.4 70.8464 7.46 71.1024 7.46C71.3264 7.46 71.4864 7.4 71.5824 7.28C71.6864 7.16 71.7384 6.972 71.7384 6.716V6.308C71.7384 6.124 71.7024 5.972 71.6304 5.852C71.5664 5.724 71.4584 5.616 71.3064 5.528C71.1544 5.44 70.9544 5.344 70.7064 5.24C70.4744 5.144 70.2584 5.04 70.0584 4.928C69.8664 4.816 69.7104 4.668 69.5904 4.484C69.4784 4.3 69.4224 4.064 69.4224 3.776V3.416C69.4224 2.944 69.5544 2.584 69.8184 2.336C70.0824 2.088 70.5464 1.964 71.2104 1.964C71.6424 1.964 71.9824 2.02 72.2304 2.132C72.4864 2.244 72.6664 2.424 72.7704 2.672C72.8824 2.912 72.9384 3.224 72.9384 3.608V4.064H71.8464V3.44C71.8464 3.12 71.7944 2.9 71.6904 2.78C71.5944 2.652 71.4344 2.588 71.2104 2.588C70.9624 2.588 70.7944 2.652 70.7064 2.78C70.6184 2.908 70.5744 3.064 70.5744 3.248V3.644C70.5744 3.86 70.6264 4.032 70.7304 4.16C70.8424 4.28 70.9864 4.38 71.1624 4.46C71.3384 4.532 71.5384 4.616 71.7624 4.712C71.9784 4.792 72.1744 4.888 72.3504 5C72.5344 5.104 72.6784 5.248 72.7824 5.432C72.8864 5.608 72.9384 5.848 72.9384 6.152V6.476C72.9384 6.828 72.8824 7.124 72.7704 7.364C72.6584 7.596 72.4704 7.776 72.2064 7.904C71.9424 8.024 71.5784 8.084 71.1144 8.084Z" fill="#090808"/>
</svg>
