<svg width="67" height="10" viewBox="0 0 67 10" fill="none" xmlns="http://www.w3.org/2000/svg">
<path d="M0.603906 8V0.908H2.99191C3.42391 0.908 3.75991 1.008 3.99991 1.208C4.23991 1.408 4.35991 1.704 4.35991 2.096V2.924C4.35991 3.14 4.32791 3.336 4.26391 3.512C4.20791 3.68 4.11991 3.82 3.99991 3.932C3.89591 4.036 3.77191 4.108 3.62791 4.148C3.49191 4.188 3.36391 4.212 3.24391 4.22C3.38791 4.22 3.52791 4.236 3.66391 4.268C3.79991 4.3 3.92391 4.364 4.03591 4.46C4.16391 4.572 4.26391 4.716 4.33591 4.892C4.41591 5.068 4.45591 5.284 4.45591 5.54V6.524C4.45591 6.924 4.38791 7.232 4.25191 7.448C4.12391 7.656 3.93991 7.8 3.69991 7.88C3.46791 7.96 3.18791 8 2.85991 8H0.603906ZM1.75591 7.388H2.60791C2.75191 7.388 2.87191 7.364 2.96791 7.316C3.07191 7.268 3.15191 7.176 3.20791 7.04C3.26391 6.904 3.29191 6.708 3.29191 6.452V5.552C3.29191 5.216 3.21991 4.996 3.07591 4.892C2.93991 4.78 2.75991 4.724 2.53591 4.724H1.75591V7.388ZM1.75591 3.98H2.51191C2.75191 3.98 2.93591 3.908 3.06391 3.764C3.19191 3.62 3.25591 3.384 3.25591 3.056V2.3C3.25591 2.036 3.19591 1.844 3.07591 1.724C2.96391 1.604 2.81991 1.544 2.64391 1.544H1.75591V3.98ZM7.93834 8.084C7.53834 8.084 7.23834 8.016 7.03834 7.88C6.84634 7.744 6.71834 7.56 6.65434 7.328C6.59834 7.088 6.57034 6.816 6.57034 6.512V2.06H7.69834V6.428C7.69834 6.572 7.70634 6.708 7.72234 6.836C7.74634 6.964 7.80234 7.072 7.89034 7.16C7.98634 7.24 8.13834 7.28 8.34634 7.28C8.49834 7.28 8.61834 7.256 8.70634 7.208C8.79434 7.16 8.86234 7.104 8.91034 7.04C8.95834 6.968 8.99034 6.9 9.00634 6.836V2.06H10.1343V8H9.17434L9.09034 7.316C9.01834 7.524 8.88234 7.704 8.68234 7.856C8.49034 8.008 8.24234 8.084 7.93834 8.084ZM14.0089 8.084C13.5369 8.084 13.1689 8.028 12.9049 7.916C12.6409 7.796 12.4569 7.608 12.3529 7.352C12.2489 7.096 12.1969 6.772 12.1969 6.38V5.888H13.3369V6.632C13.3369 6.936 13.3809 7.152 13.4689 7.28C13.5649 7.4 13.7409 7.46 13.9969 7.46C14.2209 7.46 14.3809 7.4 14.4769 7.28C14.5809 7.16 14.6329 6.972 14.6329 6.716V6.308C14.6329 6.124 14.5969 5.972 14.5249 5.852C14.4609 5.724 14.3529 5.616 14.2009 5.528C14.0489 5.44 13.8489 5.344 13.6009 5.24C13.3689 5.144 13.1529 5.04 12.9529 4.928C12.7609 4.816 12.6049 4.668 12.4849 4.484C12.3729 4.3 12.3169 4.064 12.3169 3.776V3.416C12.3169 2.944 12.4489 2.584 12.7129 2.336C12.9769 2.088 13.4409 1.964 14.1049 1.964C14.5369 1.964 14.8769 2.02 15.1249 2.132C15.3809 2.244 15.5609 2.424 15.6649 2.672C15.7769 2.912 15.8329 3.224 15.8329 3.608V4.064H14.7409V3.44C14.7409 3.12 14.6889 2.9 14.5849 2.78C14.4889 2.652 14.3289 2.588 14.1049 2.588C13.8569 2.588 13.6889 2.652 13.6009 2.78C13.5129 2.908 13.4689 3.064 13.4689 3.248V3.644C13.4689 3.86 13.5209 4.032 13.6249 4.16C13.7369 4.28 13.8809 4.38 14.0569 4.46C14.2329 4.532 14.4329 4.616 14.6569 4.712C14.8729 4.792 15.0689 4.888 15.2449 5C15.4289 5.104 15.5729 5.248 15.6769 5.432C15.7809 5.608 15.8329 5.848 15.8329 6.152V6.476C15.8329 6.828 15.7769 7.124 15.6649 7.364C15.5529 7.596 15.3649 7.776 15.1009 7.904C14.8369 8.024 14.4729 8.084 14.0089 8.084ZM17.9012 8V2.06H19.0292V8H17.9012ZM18.4652 1.364C18.3052 1.364 18.1692 1.312 18.0572 1.208C17.9532 1.104 17.9012 0.975999 17.9012 0.823999C17.9012 0.671999 17.9532 0.543999 18.0572 0.439999C18.1692 0.336 18.3052 0.284 18.4652 0.284C18.6172 0.284 18.7492 0.336 18.8612 0.439999C18.9812 0.543999 19.0412 0.671999 19.0412 0.823999C19.0412 0.975999 18.9812 1.104 18.8612 1.208C18.7492 1.312 18.6172 1.364 18.4652 1.364ZM21.2574 8V2.06H22.2054L22.3134 2.732C22.3854 2.492 22.5294 2.3 22.7454 2.156C22.9694 2.012 23.2094 1.94 23.4654 1.94C23.8574 1.94 24.1494 2.012 24.3414 2.156C24.5414 2.292 24.6734 2.48 24.7374 2.72C24.8014 2.952 24.8334 3.22 24.8334 3.524V8H23.7054V3.608C23.7054 3.496 23.7014 3.392 23.6934 3.296C23.6854 3.192 23.6614 3.1 23.6214 3.02C23.5814 2.94 23.5174 2.876 23.4294 2.828C23.3414 2.78 23.2134 2.756 23.0454 2.756C22.9094 2.756 22.7934 2.78 22.6974 2.828C22.6094 2.876 22.5414 2.936 22.4934 3.008C22.4454 3.072 22.4094 3.136 22.3854 3.2V8H21.2574ZM28.6848 8.096C28.2768 8.096 27.9368 8.052 27.6648 7.964C27.4008 7.868 27.2008 7.688 27.0648 7.424C26.9368 7.16 26.8728 6.764 26.8728 6.236V3.452C26.8728 2.876 27.0168 2.484 27.3048 2.276C27.5928 2.06 28.0408 1.952 28.6488 1.952C29.2568 1.952 29.7048 2.06 29.9928 2.276C30.2808 2.484 30.4248 2.876 30.4248 3.452V5.036H28.0008V6.68C28.0008 6.976 28.0448 7.184 28.1328 7.304C28.2288 7.424 28.4088 7.484 28.6728 7.484C28.9128 7.484 29.0768 7.428 29.1648 7.316C29.2528 7.196 29.2968 6.984 29.2968 6.68V5.804H30.4248V6.224C30.4248 6.744 30.3568 7.14 30.2208 7.412C30.0928 7.684 29.9008 7.868 29.6448 7.964C29.3888 8.052 29.0688 8.096 28.6848 8.096ZM28.0008 4.508H29.2968V3.404C29.2968 3.132 29.2528 2.936 29.1648 2.816C29.0768 2.696 28.9048 2.636 28.6488 2.636C28.4008 2.636 28.2288 2.696 28.1328 2.816C28.0448 2.936 28.0008 3.132 28.0008 3.404V4.508ZM34.1136 8.084C33.6416 8.084 33.2736 8.028 33.0096 7.916C32.7456 7.796 32.5616 7.608 32.4576 7.352C32.3536 7.096 32.3016 6.772 32.3016 6.38V5.888H33.4416V6.632C33.4416 6.936 33.4856 7.152 33.5736 7.28C33.6696 7.4 33.8456 7.46 34.1016 7.46C34.3256 7.46 34.4856 7.4 34.5816 7.28C34.6856 7.16 34.7376 6.972 34.7376 6.716V6.308C34.7376 6.124 34.7016 5.972 34.6296 5.852C34.5656 5.724 34.4576 5.616 34.3056 5.528C34.1536 5.44 33.9536 5.344 33.7056 5.24C33.4736 5.144 33.2576 5.04 33.0576 4.928C32.8656 4.816 32.7096 4.668 32.5896 4.484C32.4776 4.3 32.4216 4.064 32.4216 3.776V3.416C32.4216 2.944 32.5536 2.584 32.8176 2.336C33.0816 2.088 33.5456 1.964 34.2096 1.964C34.6416 1.964 34.9816 2.02 35.2296 2.132C35.4856 2.244 35.6656 2.424 35.7696 2.672C35.8816 2.912 35.9376 3.224 35.9376 3.608V4.064H34.8456V3.44C34.8456 3.12 34.7936 2.9 34.6896 2.78C34.5936 2.652 34.4336 2.588 34.2096 2.588C33.9616 2.588 33.7936 2.652 33.7056 2.78C33.6176 2.908 33.5736 3.064 33.5736 3.248V3.644C33.5736 3.86 33.6256 4.032 33.7296 4.16C33.8416 4.28 33.9856 4.38 34.1616 4.46C34.3376 4.532 34.5376 4.616 34.7616 4.712C34.9776 4.792 35.1736 4.888 35.3496 5C35.5336 5.104 35.6776 5.248 35.7816 5.432C35.8856 5.608 35.9376 5.848 35.9376 6.152V6.476C35.9376 6.828 35.8816 7.124 35.7696 7.364C35.6576 7.596 35.4696 7.776 35.2056 7.904C34.9416 8.024 34.5776 8.084 34.1136 8.084ZM39.6378 8.084C39.1658 8.084 38.7978 8.028 38.5338 7.916C38.2698 7.796 38.0858 7.608 37.9818 7.352C37.8778 7.096 37.8258 6.772 37.8258 6.38V5.888H38.9658V6.632C38.9658 6.936 39.0098 7.152 39.0978 7.28C39.1938 7.4 39.3698 7.46 39.6258 7.46C39.8498 7.46 40.0098 7.4 40.1058 7.28C40.2098 7.16 40.2618 6.972 40.2618 6.716V6.308C40.2618 6.124 40.2258 5.972 40.1538 5.852C40.0898 5.724 39.9818 5.616 39.8298 5.528C39.6778 5.44 39.4778 5.344 39.2298 5.24C38.9978 5.144 38.7818 5.04 38.5818 4.928C38.3898 4.816 38.2338 4.668 38.1138 4.484C38.0018 4.3 37.9458 4.064 37.9458 3.776V3.416C37.9458 2.944 38.0778 2.584 38.3418 2.336C38.6058 2.088 39.0698 1.964 39.7338 1.964C40.1658 1.964 40.5058 2.02 40.7538 2.132C41.0098 2.244 41.1898 2.424 41.2938 2.672C41.4058 2.912 41.4618 3.224 41.4618 3.608V4.064H40.3698V3.44C40.3698 3.12 40.3178 2.9 40.2138 2.78C40.1178 2.652 39.9578 2.588 39.7338 2.588C39.4858 2.588 39.3178 2.652 39.2298 2.78C39.1418 2.908 39.0978 3.064 39.0978 3.248V3.644C39.0978 3.86 39.1498 4.032 39.2538 4.16C39.3658 4.28 39.5098 4.38 39.6858 4.46C39.8618 4.532 40.0618 4.616 40.2858 4.712C40.5018 4.792 40.6978 4.888 40.8738 5C41.0578 5.104 41.2018 5.248 41.3058 5.432C41.4098 5.608 41.4618 5.848 41.4618 6.152V6.476C41.4618 6.828 41.4058 7.124 41.2938 7.364C41.1818 7.596 40.9938 7.776 40.7298 7.904C40.4658 8.024 40.1018 8.084 39.6378 8.084ZM48.5443 8.084C48.1523 8.084 47.8123 8.024 47.5243 7.904C47.2363 7.784 47.0163 7.572 46.8643 7.268C46.7203 6.964 46.6483 6.536 46.6483 5.984V5.576C46.8403 5.576 47.0363 5.576 47.2363 5.576C47.4363 5.576 47.6323 5.576 47.8243 5.576V6.08C47.8243 6.416 47.8563 6.676 47.9203 6.86C47.9843 7.044 48.0723 7.172 48.1843 7.244C48.2963 7.308 48.4243 7.34 48.5683 7.34C48.8003 7.34 48.9843 7.264 49.1203 7.112C49.2643 6.952 49.3363 6.656 49.3363 6.224C49.3363 5.904 49.2883 5.664 49.1923 5.504C49.0963 5.344 48.9443 5.216 48.7363 5.12C48.5363 5.016 48.2763 4.9 47.9563 4.772C47.6923 4.652 47.4643 4.512 47.2723 4.352C47.0803 4.192 46.9363 3.988 46.8403 3.74C46.7443 3.492 46.6963 3.184 46.6963 2.816C46.6963 2.368 46.7523 2.004 46.8643 1.724C46.9843 1.436 47.1843 1.228 47.4643 1.1C47.7443 0.964 48.1203 0.896 48.5923 0.896C49.2003 0.896 49.6643 1.036 49.9843 1.316C50.3043 1.588 50.4643 1.988 50.4643 2.516V3.344C50.2803 3.344 50.0923 3.344 49.9003 3.344C49.7163 3.344 49.5283 3.344 49.3363 3.344V2.852C49.3363 2.484 49.2763 2.22 49.1563 2.06C49.0443 1.892 48.8603 1.808 48.6043 1.808C48.3403 1.808 48.1483 1.888 48.0283 2.048C47.9163 2.2 47.8603 2.444 47.8603 2.78C47.8603 3.068 47.9163 3.292 48.0283 3.452C48.1403 3.604 48.2843 3.724 48.4603 3.812C48.6443 3.9 48.8323 3.98 49.0243 4.052C49.3843 4.188 49.6763 4.328 49.9003 4.472C50.1243 4.616 50.2883 4.808 50.3923 5.048C50.4963 5.288 50.5483 5.628 50.5483 6.068C50.5483 6.572 50.4643 6.972 50.2963 7.268C50.1363 7.556 49.9043 7.764 49.6003 7.892C49.3043 8.02 48.9523 8.084 48.5443 8.084ZM52.6098 9.392V2.06H53.7018L53.7258 2.552C53.7978 2.4 53.9098 2.264 54.0618 2.144C54.2138 2.024 54.4618 1.964 54.8058 1.964C55.1178 1.964 55.3738 2.02 55.5738 2.132C55.7818 2.236 55.9338 2.396 56.0298 2.612C56.1258 2.82 56.1738 3.088 56.1738 3.416V6.32C56.1738 6.72 56.1298 7.052 56.0418 7.316C55.9538 7.572 55.8098 7.764 55.6098 7.892C55.4098 8.012 55.1418 8.072 54.8058 8.072C54.5098 8.072 54.2778 8.024 54.1098 7.928C53.9418 7.832 53.8178 7.716 53.7378 7.58V9.392H52.6098ZM54.3978 7.424C54.5578 7.424 54.6818 7.404 54.7698 7.364C54.8578 7.316 54.9218 7.252 54.9618 7.172C55.0018 7.092 55.0258 7 55.0338 6.896C55.0418 6.792 55.0458 6.68 55.0458 6.56V3.548C55.0458 3.428 55.0418 3.316 55.0338 3.212C55.0258 3.108 55.0018 3.016 54.9618 2.936C54.9218 2.848 54.8578 2.784 54.7698 2.744C54.6818 2.696 54.5578 2.672 54.3978 2.672C54.2378 2.672 54.1138 2.7 54.0258 2.756C53.9378 2.812 53.8738 2.884 53.8338 2.972C53.7938 3.052 53.7658 3.144 53.7498 3.248C53.7418 3.352 53.7378 3.448 53.7378 3.536V6.608C53.7378 6.768 53.7538 6.912 53.7858 7.04C53.8178 7.16 53.8778 7.256 53.9658 7.328C54.0618 7.392 54.2058 7.424 54.3978 7.424ZM59.978 8.096C59.586 8.096 59.254 8.048 58.982 7.952C58.718 7.848 58.518 7.66 58.382 7.388C58.254 7.116 58.19 6.724 58.19 6.212V3.596C58.19 2.996 58.334 2.572 58.622 2.324C58.91 2.076 59.362 1.952 59.978 1.952C60.586 1.952 61.034 2.076 61.322 2.324C61.61 2.564 61.754 2.988 61.754 3.596V6.212C61.754 6.724 61.686 7.116 61.55 7.388C61.422 7.66 61.226 7.848 60.962 7.952C60.698 8.048 60.37 8.096 59.978 8.096ZM59.978 7.412C60.21 7.412 60.374 7.352 60.47 7.232C60.574 7.104 60.626 6.88 60.626 6.56V3.5C60.626 3.188 60.578 2.968 60.482 2.84C60.386 2.712 60.218 2.648 59.978 2.648C59.746 2.648 59.578 2.712 59.474 2.84C59.37 2.96 59.318 3.18 59.318 3.5V6.56C59.318 6.88 59.37 7.104 59.474 7.232C59.578 7.352 59.746 7.412 59.978 7.412ZM65.4411 8.036C65.2651 8.036 65.0931 8.016 64.9251 7.976C64.7571 7.936 64.6091 7.872 64.4811 7.784C64.3531 7.688 64.2491 7.56 64.1691 7.4C64.0971 7.232 64.0611 7.02 64.0611 6.764V2.744H63.5091V2.168L64.1571 2.06L64.3251 0.956H65.1891V2.06H66.3771V2.744H65.1891V6.572C65.1891 6.756 65.2251 6.92 65.2971 7.064C65.3691 7.2 65.5251 7.268 65.7651 7.268C65.8691 7.268 65.9851 7.264 66.1131 7.256C66.2491 7.24 66.3371 7.232 66.3771 7.232V7.916C66.3371 7.924 66.2251 7.948 66.0411 7.988C65.8571 8.02 65.6571 8.036 65.4411 8.036Z" fill="#080808"/>
</svg>
