<svg width="31" height="20" viewBox="0 0 31 20" fill="none" xmlns="http://www.w3.org/2000/svg">
<path d="M0.00390625 0.833333C0.00390625 0.373096 0.377002 0 0.83724 0H2.50391C2.96414 0 3.33724 0.373096 3.33724 0.833333V2.5C3.33724 2.96024 2.96414 3.33333 2.50391 3.33333H0.83724C0.377002 3.33333 0.00390625 2.96024 0.00390625 2.5V0.833333Z" fill="#1B291F"/>
<path d="M6.67057 0.833333C6.67057 0.373096 7.04367 0 7.50391 0H29.1706C29.6308 0 30.0039 0.373096 30.0039 0.833333V2.5C30.0039 2.96024 29.6308 3.33333 29.1706 3.33333H7.50391C7.04367 3.33333 6.67057 2.96024 6.67057 2.5V0.833333Z" fill="#1B291F"/>
<path d="M0.00390625 9.16667C0.00390625 8.70643 0.377002 8.33333 0.83724 8.33333H2.50391C2.96414 8.33333 3.33724 8.70643 3.33724 9.16667V10.8333C3.33724 11.2936 2.96414 11.6667 2.50391 11.6667H0.83724C0.377002 11.6667 0.00390625 11.2936 0.00390625 10.8333V9.16667Z" fill="#1B291F"/>
<path d="M6.67057 9.16667C6.67057 8.70643 7.04367 8.33333 7.50391 8.33333H29.1706C29.6308 8.33333 30.0039 8.70643 30.0039 9.16667V10.8333C30.0039 11.2936 29.6308 11.6667 29.1706 11.6667H7.50391C7.04367 11.6667 6.67057 11.2936 6.67057 10.8333V9.16667Z" fill="#1B291F"/>
<path d="M0.00390625 17.5C0.00390625 17.0398 0.377002 16.6667 0.83724 16.6667H2.50391C2.96414 16.6667 3.33724 17.0398 3.33724 17.5V19.1667C3.33724 19.6269 2.96414 20 2.50391 20H0.83724C0.377002 20 0.00390625 19.6269 0.00390625 19.1667V17.5Z" fill="#1B291F"/>
<path d="M6.67057 17.5C6.67057 17.0398 7.04367 16.6667 7.50391 16.6667H29.1706C29.6308 16.6667 30.0039 17.0398 30.0039 17.5V19.1667C30.0039 19.6269 29.6308 20 29.1706 20H7.50391C7.04367 20 6.67057 19.6269 6.67057 19.1667V17.5Z" fill="#1B291F"/>
</svg>
