<svg width="21" height="8" viewBox="0 0 21 8" fill="none" xmlns="http://www.w3.org/2000/svg">
<path d="M0.603906 8V0.908H1.74391V8H0.603906ZM7.42188 8V0.908H9.80988C10.2419 0.908 10.5779 1.008 10.8179 1.208C11.0579 1.408 11.1779 1.704 11.1779 2.096V2.924C11.1779 3.14 11.1459 3.336 11.0819 3.512C11.0259 3.68 10.9379 3.82 10.8179 3.932C10.7139 4.036 10.5899 4.108 10.4459 4.148C10.3099 4.188 10.1819 4.212 10.0619 4.22C10.2059 4.22 10.3459 4.236 10.4819 4.268C10.6179 4.3 10.7419 4.364 10.8539 4.46C10.9819 4.572 11.0819 4.716 11.1539 4.892C11.2339 5.068 11.2739 5.284 11.2739 5.54V6.524C11.2739 6.924 11.2059 7.232 11.0699 7.448C10.9419 7.656 10.7579 7.8 10.5179 7.88C10.2859 7.96 10.0059 8 9.67788 8H7.42188ZM8.57388 7.388H9.42588C9.56988 7.388 9.68988 7.364 9.78588 7.316C9.88988 7.268 9.96988 7.176 10.0259 7.04C10.0819 6.904 10.1099 6.708 10.1099 6.452V5.552C10.1099 5.216 10.0379 4.996 9.89388 4.892C9.75788 4.78 9.57788 4.724 9.35388 4.724H8.57388V7.388ZM8.57388 3.98H9.32988C9.56988 3.98 9.75388 3.908 9.88188 3.764C10.0099 3.62 10.0739 3.384 10.0739 3.056V2.3C10.0739 2.036 10.0139 1.844 9.89388 1.724C9.78188 1.604 9.63788 1.544 9.46188 1.544H8.57388V3.98ZM16.7945 8V0.908H17.7905L19.5545 5.684V0.908H20.5745V8H19.5665L17.8145 3.476V8H16.7945Z" fill="#090808"/>
</svg>
