<svg width="51" height="10" viewBox="0 0 51 10" fill="none" xmlns="http://www.w3.org/2000/svg">
<path d="M0.603906 8V0.908H1.59991L3.36391 5.684V0.908H4.38391V8H3.37591L1.62391 3.476V8H0.603906ZM8.40437 8.096C7.99637 8.096 7.65637 8.052 7.38437 7.964C7.12037 7.868 6.92037 7.688 6.78437 7.424C6.65637 7.16 6.59237 6.764 6.59237 6.236V3.452C6.59237 2.876 6.73637 2.484 7.02437 2.276C7.31237 2.06 7.76037 1.952 8.36837 1.952C8.97637 1.952 9.42437 2.06 9.71237 2.276C10.0004 2.484 10.1444 2.876 10.1444 3.452V5.036H7.72037V6.68C7.72037 6.976 7.76437 7.184 7.85237 7.304C7.94837 7.424 8.12837 7.484 8.39237 7.484C8.63238 7.484 8.79637 7.428 8.88437 7.316C8.97237 7.196 9.01638 6.984 9.01638 6.68V5.804H10.1444V6.224C10.1444 6.744 10.0764 7.14 9.94038 7.412C9.81238 7.684 9.62038 7.868 9.36437 7.964C9.10837 8.052 8.78837 8.096 8.40437 8.096ZM7.72037 4.508H9.01638V3.404C9.01638 3.132 8.97237 2.936 8.88437 2.816C8.79637 2.696 8.62437 2.636 8.36837 2.636C8.12037 2.636 7.94837 2.696 7.85237 2.816C7.76437 2.936 7.72037 3.132 7.72037 3.404V4.508ZM13.2692 8.096C13.0692 8.096 12.8772 8.068 12.6932 8.012C12.5172 7.956 12.3652 7.84 12.2372 7.664C12.1172 7.48 12.0572 7.2 12.0572 6.824V6.116C12.0572 5.724 12.1692 5.412 12.3932 5.18C12.6252 4.94 12.9692 4.728 13.4252 4.544C13.6892 4.432 13.8972 4.332 14.0492 4.244C14.2092 4.156 14.3252 4.052 14.3972 3.932C14.4692 3.812 14.5052 3.648 14.5052 3.44V3.14C14.5052 2.988 14.4732 2.872 14.4092 2.792C14.3532 2.712 14.2772 2.656 14.1812 2.624C14.0932 2.584 13.9892 2.564 13.8692 2.564C13.6052 2.564 13.4292 2.644 13.3412 2.804C13.2612 2.964 13.2212 3.22 13.2212 3.572V4.076H12.2012V3.464C12.2012 3.168 12.2412 2.908 12.3212 2.684C12.4012 2.452 12.5612 2.272 12.8012 2.144C13.0412 2.008 13.3972 1.94 13.8692 1.94C14.3572 1.94 14.7252 1.988 14.9732 2.084C15.2292 2.18 15.4052 2.328 15.5012 2.528C15.5972 2.72 15.6452 2.968 15.6452 3.272V8H14.5172V7.316C14.4372 7.564 14.2772 7.756 14.0372 7.892C13.8052 8.028 13.5492 8.096 13.2692 8.096ZM13.7372 7.34C14.0092 7.34 14.2012 7.244 14.3132 7.052C14.4332 6.852 14.4932 6.576 14.4932 6.224V4.556C14.4372 4.652 14.3372 4.74 14.1932 4.82C14.0492 4.9 13.9092 4.984 13.7732 5.072C13.5732 5.192 13.4212 5.32 13.3172 5.456C13.2132 5.584 13.1612 5.764 13.1612 5.996V6.56C13.1612 6.776 13.1852 6.944 13.2332 7.064C13.2892 7.176 13.3612 7.252 13.4492 7.292C13.5452 7.324 13.6412 7.34 13.7372 7.34ZM17.7957 8V2.06H18.7557L18.8517 2.744C18.9317 2.544 19.0557 2.396 19.2237 2.3C19.3917 2.196 19.5637 2.124 19.7397 2.084C19.9877 1.996 20.2397 1.98 20.4957 2.036V2.912C20.4717 2.904 20.4117 2.896 20.3157 2.888C20.2197 2.872 20.1117 2.868 19.9917 2.876C19.8717 2.884 19.7677 2.912 19.6797 2.96C19.4477 3.016 19.2637 3.132 19.1277 3.308C18.9917 3.476 18.9237 3.688 18.9237 3.944V8H17.7957ZM24.2815 8.084C23.9135 8.084 23.6375 8.016 23.4535 7.88C23.2775 7.744 23.1575 7.604 23.0935 7.46L23.0575 8H22.2535V0.439999H23.3815V2.528C23.4615 2.36 23.5895 2.224 23.7655 2.12C23.9415 2.008 24.1735 1.952 24.4615 1.952C24.7335 1.952 24.9695 1.996 25.1695 2.084C25.3775 2.164 25.5375 2.308 25.6495 2.516C25.7615 2.724 25.8175 3.024 25.8175 3.416V6.32C25.8175 6.688 25.7855 6.988 25.7215 7.22C25.6575 7.452 25.5575 7.632 25.4215 7.76C25.2935 7.88 25.1335 7.964 24.9415 8.012C24.7495 8.06 24.5295 8.084 24.2815 8.084ZM24.0415 7.304C24.2175 7.304 24.3495 7.28 24.4375 7.232C24.5335 7.176 24.5975 7.088 24.6295 6.968C24.6695 6.84 24.6895 6.668 24.6895 6.452V3.488C24.6895 3.176 24.6415 2.964 24.5455 2.852C24.4495 2.74 24.2815 2.684 24.0415 2.684C23.8015 2.684 23.6295 2.748 23.5255 2.876C23.4295 3.004 23.3815 3.2 23.3815 3.464V6.404C23.3815 6.724 23.4335 6.956 23.5375 7.1C23.6415 7.236 23.8095 7.304 24.0415 7.304ZM28.4818 9.404C28.2738 9.404 28.0818 9.388 27.9058 9.356C27.7298 9.324 27.5898 9.296 27.4858 9.272V8.66C27.5338 8.668 27.5978 8.68 27.6778 8.696C27.7658 8.72 27.8658 8.732 27.9778 8.732C28.0898 8.732 28.2138 8.712 28.3498 8.672C28.4858 8.64 28.5858 8.536 28.6498 8.36C28.6818 8.288 28.7138 8.204 28.7458 8.108C28.7858 8.02 28.7938 7.916 28.7698 7.796L27.4858 2.06H28.6498L29.5258 6.896L30.3778 2.06H31.4458L30.2338 7.592C30.1058 8.224 29.9018 8.684 29.6218 8.972C29.3418 9.26 28.9618 9.404 28.4818 9.404ZM36.999 9.404C36.791 9.404 36.599 9.388 36.423 9.356C36.247 9.324 36.107 9.296 36.003 9.272V8.66C36.051 8.668 36.115 8.68 36.195 8.696C36.283 8.72 36.383 8.732 36.495 8.732C36.607 8.732 36.731 8.712 36.867 8.672C37.003 8.64 37.103 8.536 37.167 8.36C37.199 8.288 37.231 8.204 37.263 8.108C37.303 8.02 37.311 7.916 37.287 7.796L36.003 2.06H37.167L38.043 6.896L38.895 2.06H39.963L38.751 7.592C38.623 8.224 38.419 8.684 38.139 8.972C37.859 9.26 37.479 9.404 36.999 9.404ZM43.3819 8.096C42.9899 8.096 42.6579 8.048 42.3859 7.952C42.1219 7.848 41.9219 7.66 41.7859 7.388C41.6579 7.116 41.5939 6.724 41.5939 6.212V3.596C41.5939 2.996 41.7379 2.572 42.0259 2.324C42.3139 2.076 42.7659 1.952 43.3819 1.952C43.9899 1.952 44.4379 2.076 44.7259 2.324C45.0139 2.564 45.1579 2.988 45.1579 3.596V6.212C45.1579 6.724 45.0899 7.116 44.9539 7.388C44.8259 7.66 44.6299 7.848 44.3659 7.952C44.1019 8.048 43.7739 8.096 43.3819 8.096ZM43.3819 7.412C43.6139 7.412 43.7779 7.352 43.8739 7.232C43.9779 7.104 44.0299 6.88 44.0299 6.56V3.5C44.0299 3.188 43.9819 2.968 43.8859 2.84C43.7899 2.712 43.6219 2.648 43.3819 2.648C43.1499 2.648 42.9819 2.712 42.8779 2.84C42.7739 2.96 42.7219 3.18 42.7219 3.5V6.56C42.7219 6.88 42.7739 7.104 42.8779 7.232C42.9819 7.352 43.1499 7.412 43.3819 7.412ZM48.593 8.084C48.193 8.084 47.893 8.016 47.693 7.88C47.501 7.744 47.373 7.56 47.309 7.328C47.253 7.088 47.225 6.816 47.225 6.512V2.06H48.353V6.428C48.353 6.572 48.361 6.708 48.377 6.836C48.401 6.964 48.457 7.072 48.545 7.16C48.641 7.24 48.793 7.28 49.001 7.28C49.153 7.28 49.273 7.256 49.361 7.208C49.449 7.16 49.517 7.104 49.565 7.04C49.613 6.968 49.645 6.9 49.661 6.836V2.06H50.789V8H49.829L49.745 7.316C49.673 7.524 49.537 7.704 49.337 7.856C49.145 8.008 48.897 8.084 48.593 8.084Z" fill="#090808"/>
</svg>
