<svg width="24" height="9" viewBox="0 0 24 9" fill="none" xmlns="http://www.w3.org/2000/svg">
<path d="M0.603906 8V0.908H1.74391V3.884H3.26791V0.908H4.40791V8H3.26791V4.748H1.74391V8H0.603906ZM8.40381 8.096C8.01181 8.096 7.67981 8.048 7.40781 7.952C7.14381 7.848 6.94381 7.66 6.80781 7.388C6.67981 7.116 6.61581 6.724 6.61581 6.212V3.596C6.61581 2.996 6.75981 2.572 7.04781 2.324C7.33581 2.076 7.78781 1.952 8.40381 1.952C9.01181 1.952 9.45981 2.076 9.74781 2.324C10.0358 2.564 10.1798 2.988 10.1798 3.596V6.212C10.1798 6.724 10.1118 7.116 9.97581 7.388C9.84781 7.66 9.65181 7.848 9.38781 7.952C9.12381 8.048 8.79581 8.096 8.40381 8.096ZM8.40381 7.412C8.63581 7.412 8.79981 7.352 8.89581 7.232C8.99981 7.104 9.05181 6.88 9.05181 6.56V3.5C9.05181 3.188 9.00381 2.968 8.90781 2.84C8.81181 2.712 8.64381 2.648 8.40381 2.648C8.17181 2.648 8.00381 2.712 7.89981 2.84C7.79581 2.96 7.74381 3.18 7.74381 3.5V6.56C7.74381 6.88 7.79581 7.104 7.89981 7.232C8.00381 7.352 8.17181 7.412 8.40381 7.412ZM12.2949 8V2.06H13.2549L13.3509 2.744C13.4389 2.512 13.5829 2.324 13.7829 2.18C13.9909 2.028 14.2349 1.952 14.5149 1.952C14.9709 1.952 15.2949 2.048 15.4869 2.24C15.6789 2.432 15.7829 2.712 15.7989 3.08H15.6549C15.7109 2.76 15.8509 2.492 16.0749 2.276C16.3069 2.06 16.5909 1.952 16.9269 1.952C17.4389 1.952 17.7829 2.076 17.9589 2.324C18.1429 2.564 18.2349 2.928 18.2349 3.416V8H17.1069V3.536C17.1069 3.248 17.0589 3.048 16.9629 2.936C16.8749 2.824 16.7269 2.768 16.5189 2.768C16.3349 2.768 16.1789 2.82 16.0509 2.924C15.9229 3.02 15.8469 3.148 15.8229 3.308V8H14.6949V3.476C14.6949 3.22 14.6509 3.04 14.5629 2.936C14.4829 2.824 14.3309 2.768 14.1069 2.768C13.9229 2.768 13.7749 2.812 13.6629 2.9C13.5589 2.98 13.4789 3.08 13.4229 3.2V8H12.2949ZM22.0778 8.096C21.6698 8.096 21.3298 8.052 21.0578 7.964C20.7938 7.868 20.5938 7.688 20.4578 7.424C20.3298 7.16 20.2658 6.764 20.2658 6.236V3.452C20.2658 2.876 20.4098 2.484 20.6978 2.276C20.9858 2.06 21.4338 1.952 22.0418 1.952C22.6498 1.952 23.0978 2.06 23.3858 2.276C23.6738 2.484 23.8178 2.876 23.8178 3.452V5.036H21.3938V6.68C21.3938 6.976 21.4378 7.184 21.5258 7.304C21.6218 7.424 21.8018 7.484 22.0658 7.484C22.3058 7.484 22.4698 7.428 22.5578 7.316C22.6458 7.196 22.6898 6.984 22.6898 6.68V5.804H23.8178V6.224C23.8178 6.744 23.7498 7.14 23.6138 7.412C23.4858 7.684 23.2938 7.868 23.0378 7.964C22.7818 8.052 22.4618 8.096 22.0778 8.096ZM21.3938 4.508H22.6898V3.404C22.6898 3.132 22.6458 2.936 22.5578 2.816C22.4698 2.696 22.2978 2.636 22.0418 2.636C21.7938 2.636 21.6218 2.696 21.5258 2.816C21.4378 2.936 21.3938 3.132 21.3938 3.404V4.508Z" fill="#4285F4"/>
</svg>
