<svg width="10" height="12" viewBox="0 0 10 12" fill="none" xmlns="http://www.w3.org/2000/svg">
<path fill-rule="evenodd" clip-rule="evenodd" d="M6.64487 2.64586C6.64487 1.20387 5.51638 0.0349121 4.12433 0.0349121C2.73227 0.0349121 1.60378 1.20387 1.60378 2.64586C1.60378 4.08785 2.73227 5.25681 4.12433 5.25681C5.51638 5.25681 6.64487 4.08785 6.64487 2.64586Z" fill="white"/>
<path d="M1.30568 6.29873H4.43647C4.43647 6.29873 3.77733 7.31758 3.70013 8.15116C3.60782 9.14789 4.47585 10.4768 4.47585 10.4768H4.20308C2.47854 10.4768 1.20669 9.91698 0.429278 8.78678C0.261933 8.54349 0.171997 8.2522 0.171997 7.95347V7.47307C0.171997 6.8245 0.679562 6.29873 1.30568 6.29873Z" fill="white"/>
<path d="M4.9259 6.78774C4.10282 7.67531 4.10282 9.11431 4.9259 10.0019C5.65105 10.7838 6.77315 10.8768 7.59277 10.281L8.78398 11.6108C8.9132 11.7501 9.12265 11.7501 9.25187 11.6108C9.36932 11.4841 9.38002 11.2859 9.28392 11.1463C9.18782 11.0066 9.25187 11.1062 9.25187 11.1062L8.07739 9.794C8.72503 8.90221 8.66808 7.60891 7.90654 6.78774C7.08347 5.90018 5.74898 5.90018 4.9259 6.78774ZM7.43866 7.29226C8.00333 7.90116 8.00333 8.88841 7.43866 9.49732C6.87398 10.1062 5.95846 10.1062 5.39379 9.49732C4.82911 8.88841 4.82911 7.90116 5.39379 7.29226C5.95846 6.68337 6.87398 6.68337 7.43866 7.29226Z" fill="white"/>
</svg>
