<svg width="12" height="11" viewBox="0 0 12 11" fill="none" xmlns="http://www.w3.org/2000/svg">
<path fill-rule="evenodd" clip-rule="evenodd" d="M4.92879 6.31314L1.96644 6.31326C1.34033 6.31326 0.832764 6.83903 0.832764 7.4876V7.968C0.832764 8.26673 0.922699 8.55802 1.09004 8.8013C1.86746 9.9315 3.13931 10.4914 4.86385 10.4914L4.92879 10.491C4.73077 10.2427 4.61179 9.92421 4.61179 9.57698V7.22713L4.61614 7.11251C4.63921 6.81 4.75277 6.53386 4.92879 6.31314ZM7.38439 2.66039C7.38439 1.2184 6.2559 0.0494385 4.86385 0.0494385C3.47179 0.0494385 2.3433 1.2184 2.3433 2.66039C2.3433 4.10237 3.47179 5.27133 4.86385 5.27133C6.2559 5.27133 7.38439 4.10237 7.38439 2.66039Z" fill="white"/>
<path fill-rule="evenodd" clip-rule="evenodd" d="M7.65069 5.00782H9.16302C9.48928 5.00782 9.75763 5.26468 9.7899 5.59382L9.79315 5.66056L9.79292 6.3131L10.4233 6.3133C10.9105 6.3133 11.3055 6.72243 11.3055 7.22713V9.57698C11.3055 10.0817 10.9105 10.4908 10.4233 10.4908H6.39042C5.9032 10.4908 5.50823 10.0817 5.50823 9.57698V7.22713C5.50823 6.72243 5.9032 6.3133 6.39042 6.3133L7.02032 6.3131L7.02056 5.66056C7.02056 5.32259 7.26851 5.04462 7.58626 5.01119L7.65069 5.00782ZM7.77672 5.79111H9.03699L9.03676 6.3131H7.77649L7.77672 5.79111Z" fill="white"/>
</svg>
