<svg width="12" height="12" viewBox="0 0 12 12" fill="none" xmlns="http://www.w3.org/2000/svg">
<path fill-rule="evenodd" clip-rule="evenodd" d="M5.02205 6.29862L2.0597 6.29873C1.43359 6.29873 0.926025 6.8245 0.926025 7.47307V7.95347C0.926025 8.2522 1.01596 8.54349 1.18331 8.78678C1.96072 9.91698 3.23257 10.4768 4.95711 10.4768L5.02205 10.4764C4.82403 10.2281 4.70505 9.90969 4.70505 9.56245V7.2126L4.70941 7.09798C4.73247 6.79547 4.84603 6.51933 5.02205 6.29862ZM7.47765 2.64586C7.47765 1.20387 6.34917 0.0349121 4.95711 0.0349121C3.56505 0.0349121 2.43657 1.20387 2.43657 2.64586C2.43657 4.08785 3.56505 5.25681 4.95711 5.25681C6.34917 5.25681 7.47765 4.08785 7.47765 2.64586Z" fill="white"/>
<path d="M10.2718 5.91312L11.2278 6.87534L10.6395 7.43047L9.68341 6.50525L10.2718 5.91312Z" fill="white"/>
<path d="M7.06939 9.0212L6.94681 10.0821H8.00094L9.9352 8.06669L8.99035 7.13335L7.06939 9.0212Z" fill="white"/>
<path d="M7.98231 6.62944L6.94249 6.65413C6.39961 6.66702 5.96623 7.11081 5.96623 7.65385V10.2417C5.96623 10.794 6.41395 11.2417 6.96623 11.2417H9.28079C9.83308 11.2417 10.2808 10.794 10.2808 10.2417V8.81504M7.06939 9.0212L6.94681 10.0821H8.00094L9.9352 8.06669L8.99035 7.13335L7.06939 9.0212ZM10.2718 5.91312L11.2278 6.87534L10.6395 7.43047L9.68341 6.50525L10.2718 5.91312Z" stroke="white" stroke-width="0.5" stroke-linecap="round"/>
</svg>
