<svg width="18" height="18" viewBox="0 0 18 18" fill="none" xmlns="http://www.w3.org/2000/svg">
<path d="M9 0.5C4.30558 0.5 0.5 4.30558 0.5 9C0.5 13.1129 3.42122 16.5436 7.30204 17.3304V10.974H5.4742V8.90684H7.30204V7.42716C7.30204 6.77436 7.44711 6.19409 7.73724 5.68636C8.02737 5.17863 8.42631 4.77969 8.93404 4.48956C9.44177 4.19943 10.0293 4.05436 10.6966 4.05436C11.1608 4.05436 11.596 4.1414 12.0022 4.31548C12.4084 4.48956 12.7348 4.72167 12.9814 5.0118L12.2198 6.73084C12.0312 6.55676 11.8209 6.41895 11.5888 6.3174C11.3712 6.20135 11.1608 6.14332 10.9577 6.14332C10.6531 6.14332 10.392 6.19409 10.1744 6.29564C9.97127 6.38268 9.81895 6.52775 9.7174 6.73084C9.61585 6.91943 9.56508 7.15153 9.56508 7.42716V8.90684H12.2633V10.974H9.56508V17.4815C13.996 17.1907 17.5 13.5045 17.5 9C17.5 4.30558 13.6944 0.5 9 0.5Z" fill="#4285F4"/>
</svg>
