<svg width="15" height="15" viewBox="0 0 15 15" fill="none" xmlns="http://www.w3.org/2000/svg">
<path d="M11.7 1.2854C10.5017 0.473958 9.05619 0 7.5 0C4.66247 0 2.19298 1.57578 0.918882 3.9L2.85104 5.4C3.65144 3.63088 5.43197 2.4 7.5 2.4C8.36852 2.4 9.18633 2.6171 9.90213 3L11.7 1.2854Z" fill="#EA4335"/>
<path d="M0.918882 3.9C0.333097 4.9686 0 6.1954 0 7.5C0 8.68414 0.274422 9.80418 0.763138 10.8L2.72673 9.3C2.51555 8.74027 2.4 8.13363 2.4 7.5C2.4 6.75137 2.5613 6.04042 2.85104 5.4L0.918882 3.9Z" fill="#FBBC05"/>
<path d="M0.763138 10.8C1.98396 13.2876 4.542 15 7.5 15C9.05619 15 10.5017 14.526 11.7 13.7146L9.90213 12C9.18633 12.3829 8.36852 12.6 7.5 12.6C5.31698 12.6 3.4543 11.2284 2.72673 9.3L0.763138 10.8Z" fill="#34A853"/>
<path d="M11.7 13.7146C13.6913 12.3662 15 10.0859 15 7.5C15 7.19542 14.9818 6.89508 14.9466 6.6H6.9V9H12.3758C11.9777 10.2956 11.0775 11.3713 9.90213 12L11.7 13.7146Z" fill="#4285F4"/>
</svg>
