<svg width="11" height="11" viewBox="0 0 11 11" fill="none" xmlns="http://www.w3.org/2000/svg">
<path d="M8.9375 2.57479C8.9375 2.93027 8.62971 3.21846 8.25 3.21846C7.87029 3.21846 7.5625 2.93027 7.5625 2.57479C7.5625 2.2193 7.87029 1.93111 8.25 1.93111C8.62971 1.93111 8.9375 2.2193 8.9375 2.57479Z" fill="#212121"/>
<path d="M7.21875 0C5.1039 0 3.4375 1.56017 3.4375 3.5402C3.4375 3.79553 3.46501 4.05254 3.52106 4.29623C3.56103 4.47 3.51572 4.621 3.42387 4.70699L0.302046 7.62983C0.108653 7.81089 0 8.05645 0 8.31251V9.33324C0 9.86646 0.461704 10.2987 1.03125 10.2987H2.40625C2.9758 10.2987 3.4375 9.86646 3.4375 9.33324V9.01141H4.125C4.50469 9.01141 4.8125 8.72323 4.8125 8.36773V7.72406H5.5C5.87971 7.72406 6.1875 7.43589 6.1875 7.08039V6.96447C6.52678 7.05052 6.87974 7.08039 7.21875 7.08039C9.33357 7.08039 11 5.52019 11 3.5402C11 1.56017 9.33357 0 7.21875 0ZM4.125 3.5402C4.125 1.91566 5.4836 0.643672 7.21875 0.643672C8.95393 0.643672 10.3125 1.91566 10.3125 3.5402C10.3125 5.16476 8.95393 6.43672 7.21875 6.43672C6.76555 6.43672 6.34384 6.37538 5.99748 6.21324C5.89091 6.16335 5.76434 6.16869 5.66301 6.22733C5.56167 6.28597 5.5 6.38954 5.5 6.50109V7.08039H4.8125C4.43281 7.08039 4.125 7.36856 4.125 7.72406V8.36773H3.4375C3.05781 8.36773 2.75 8.65591 2.75 9.01141V9.33324C2.75 9.51096 2.5961 9.65508 2.40625 9.65508H1.03125C0.841404 9.65508 0.6875 9.51096 0.6875 9.33324V8.31251C0.6875 8.22716 0.723718 8.14528 0.788184 8.08497L3.91001 5.16212C4.2071 4.88398 4.26898 4.49038 4.19315 4.16072C4.14806 3.96469 4.125 3.75328 4.125 3.5402Z" fill="#212121"/>
</svg>
